<svg width="29" height="29" viewBox="0 0 29 29" fill="none" xmlns="http://www.w3.org/2000/svg">
<g clip-path="url(#clip0)">
<path d="M14.5359 0C6.5405 0 0.0361328 6.50437 0.0361328 14.5C0.0361328 22.4954 6.5405 29.0001 14.5359 29.0001C22.5311 29.0001 29.0355 22.4954 29.0355 14.5C29.0355 6.50437 22.5311 0 14.5359 0ZM14.5359 27.8179C7.19258 27.8179 1.21831 21.8431 1.21831 14.5C1.21831 7.1567 7.19258 1.18218 14.5359 1.18218C21.879 1.18218 27.8533 7.1567 27.8533 14.5C27.8533 21.8431 21.879 27.8179 14.5359 27.8179Z" fill="black"/>
<path d="M22.0245 8.71829L11.7145 19.0281L7.04714 14.361C6.81631 14.1301 6.44229 14.1301 6.21121 14.361C5.98038 14.5918 5.98038 14.9658 6.21121 15.1969L11.2965 20.282C11.4119 20.3974 11.5632 20.455 11.7145 20.455C11.8658 20.455 12.017 20.3974 12.1324 20.282L22.8604 9.55422C23.0913 9.32339 23.0913 8.94912 22.8604 8.71829C22.6296 8.48746 22.2553 8.48746 22.0245 8.71829Z" fill="black"/>
</g>
<defs>
<clipPath id="clip0">
<rect width="29" height="29" fill="white"/>
</clipPath>
</defs>
</svg>
