<svg width="19" height="19" viewBox="0 0 19 19" fill="none" xmlns="http://www.w3.org/2000/svg">
<path d="M2.99387 7.8326C2.58627 2.12613 7.23975 3.07721 9.61745 4.26606L12.6745 3.24704C14.203 3.41688 17.0562 4.57175 16.241 7.83259C15.4258 11.0934 11.4856 14.2863 9.61745 15.4752C7.74926 14.1165 3.80909 10.6858 2.99387 7.8326Z" fill="white"/>
<path d="M16.9809 5.26946C16.7408 4.71353 16.3946 4.20975 15.9617 3.78632C15.5285 3.36163 15.0177 3.02414 14.4571 2.79219C13.8758 2.55072 13.2523 2.42712 12.6229 2.42857C11.7398 2.42857 10.8782 2.67039 10.1295 3.12715C9.95035 3.23642 9.78019 3.35643 9.61898 3.48719C9.45777 3.35643 9.2876 3.23642 9.10848 3.12715C8.35974 2.67039 7.49816 2.42857 6.61508 2.42857C5.9792 2.42857 5.36301 2.55037 4.78086 2.79219C4.21842 3.02505 3.7115 3.36001 3.27623 3.78632C2.84274 4.20927 2.49647 4.71317 2.25702 5.26946C2.00804 5.84803 1.88086 6.46242 1.88086 7.09473C1.88086 7.69121 2.00266 8.31276 2.24448 8.94507C2.44689 9.47348 2.73707 10.0216 3.10785 10.5751C3.69538 11.451 4.50322 12.3645 5.50631 13.2906C7.16857 14.8257 8.81471 15.8861 8.88457 15.9291L9.30909 16.2013C9.49717 16.3214 9.73899 16.3214 9.92707 16.2013L10.3516 15.9291C10.4214 15.8843 12.0658 14.8257 13.7299 13.2906C14.7329 12.3645 15.5408 11.451 16.1283 10.5751C16.4991 10.0216 16.7911 9.47348 16.9917 8.94507C17.2335 8.31276 17.3553 7.69121 17.3553 7.09473C17.3571 6.46242 17.2299 5.84803 16.9809 5.26946ZM9.61898 14.7845C9.61898 14.7845 3.24219 10.6987 3.24219 7.09473C3.24219 5.26946 4.7522 3.78991 6.61508 3.78991C7.92447 3.78991 9.06011 4.52073 9.61898 5.5883C10.1778 4.52073 11.3135 3.78991 12.6229 3.78991C14.4858 3.78991 15.9958 5.26946 15.9958 7.09473C15.9958 10.6987 9.61898 14.7845 9.61898 14.7845Z" fill="#83B373"/>
</svg>
