<svg width="17" height="17" viewBox="0 0 17 17" fill="none" xmlns="http://www.w3.org/2000/svg">
<path d="M8.5 5.42871C8.00361 5.42871 7.53711 5.62129 7.18516 5.97324C7.01221 6.1457 6.87506 6.35064 6.78161 6.5763C6.68816 6.80195 6.64024 7.04385 6.64062 7.28809C6.64062 7.78447 6.83486 8.25098 7.18516 8.60293C7.35761 8.77588 7.56256 8.91302 7.78821 9.00648C8.01386 9.09993 8.25576 9.14784 8.5 9.14746C8.99639 9.14746 9.46289 8.95322 9.81484 8.60293C10.1668 8.25098 10.3594 7.78447 10.3594 7.28809C10.3594 6.7917 10.1668 6.3252 9.81484 5.97324C9.46289 5.62129 8.99639 5.42871 8.5 5.42871ZM14.1877 4.79951C13.8751 4.07881 13.4245 3.42626 12.8612 2.87871C12.2961 2.32621 11.6299 1.88769 10.8989 1.58711C10.1386 1.27168 9.33174 1.1123 8.5 1.1123C7.66826 1.1123 6.86143 1.27168 6.10107 1.58545C5.36562 1.88926 4.70654 2.32422 4.13877 2.87705C3.57585 3.42491 3.12527 4.07738 2.8123 4.79785C2.48857 5.54492 2.32422 6.33848 2.32422 7.15527C2.32422 8.32734 2.60479 9.49443 3.15596 10.62C3.59922 11.5248 4.21846 12.4063 4.99873 13.2447C6.33184 14.6758 7.72969 15.5507 8.12646 15.7848C8.23909 15.8513 8.36754 15.8863 8.49834 15.886C8.62783 15.886 8.75566 15.8528 8.87021 15.7848C9.26699 15.5507 10.6648 14.6758 11.9979 13.2447C12.7782 12.408 13.3975 11.5248 13.8407 10.62C14.3952 9.49609 14.6758 8.33066 14.6758 7.15693C14.6758 6.34014 14.5114 5.54658 14.1877 4.79951ZM8.5 10.21C6.88633 10.21 5.57812 8.90176 5.57812 7.28809C5.57812 5.67441 6.88633 4.36621 8.5 4.36621C10.1137 4.36621 11.4219 5.67441 11.4219 7.28809C11.4219 8.90176 10.1137 10.21 8.5 10.21Z" fill="#83B373"/>
</svg>
