<svg width="18" height="18" viewBox="0 0 18 18" fill="none" xmlns="http://www.w3.org/2000/svg">
<g opacity="0.4">
<path d="M16.5617 8.54648C14.8953 5.03613 12.3763 3.26953 8.99955 3.26953C5.62104 3.26953 3.10385 5.03613 1.43744 8.54824C1.3706 8.68978 1.33594 8.84436 1.33594 9.00088C1.33594 9.1574 1.3706 9.31198 1.43744 9.45352C3.10385 12.9639 5.62279 14.7305 8.99955 14.7305C12.3781 14.7305 14.8953 12.9639 16.5617 9.45176C16.697 9.16699 16.697 8.83652 16.5617 8.54648ZM8.99955 13.4648C6.1642 13.4648 4.08822 12.027 2.62397 9C4.08822 5.97305 6.1642 4.53516 8.99955 4.53516C11.8349 4.53516 13.9109 5.97305 15.3751 9C13.9126 12.027 11.8367 13.4648 8.99955 13.4648ZM8.92924 5.90625C7.22065 5.90625 5.83549 7.29141 5.83549 9C5.83549 10.7086 7.22065 12.0938 8.92924 12.0938C10.6378 12.0938 12.023 10.7086 12.023 9C12.023 7.29141 10.6378 5.90625 8.92924 5.90625ZM8.92924 10.9688C7.84115 10.9688 6.96049 10.0881 6.96049 9C6.96049 7.91191 7.84115 7.03125 8.92924 7.03125C10.0173 7.03125 10.898 7.91191 10.898 9C10.898 10.0881 10.0173 10.9688 8.92924 10.9688Z" fill="#262626"/>
</g>
</svg>
