<svg width="32" height="43" viewBox="0 0 32 43" fill="none" xmlns="http://www.w3.org/2000/svg">
<path d="M18.2842 18.046C17.9944 17.7883 17.6478 17.6026 17.2727 17.5041C16.8355 17.4002 16.387 17.3518 15.9377 17.3599H13.9432C13.8148 17.3359 13.6825 17.3435 13.5578 17.3822C13.4331 17.4208 13.3197 17.4893 13.2273 17.5816C13.135 17.674 13.0666 17.7874 13.0281 17.9122C12.9895 18.0369 12.9819 18.1692 13.0059 18.2975V23.8397C13.0006 24.04 13.0224 24.24 13.0707 24.4345C13.0908 24.5089 13.1253 24.5786 13.1725 24.6396C13.2196 24.7006 13.2784 24.7516 13.3454 24.7898C13.5407 24.8858 13.7576 24.9295 13.9749 24.9164H15.9695C16.2826 24.9185 16.5954 24.8961 16.905 24.8494C17.173 24.8079 17.4341 24.7298 17.6808 24.6173C17.9234 24.5068 18.1476 24.3598 18.3456 24.1813C18.6 23.9487 18.8145 23.6761 18.9807 23.3741C19.151 23.0556 19.274 22.714 19.3459 22.3601C19.4281 21.9513 19.4676 21.5351 19.4639 21.1182C19.4644 19.745 19.0712 18.7209 18.2842 18.046ZM17.1444 23.3471C17.0263 23.4488 16.8903 23.5275 16.7432 23.5792C16.5984 23.6313 16.4478 23.6656 16.2948 23.6813C16.1506 23.6955 15.9515 23.7024 15.6966 23.7024H14.5358V18.5734H15.5472C15.9511 18.5655 16.354 18.6165 16.7432 18.7249C17.0995 18.8487 17.3965 19.1017 17.5753 19.4338C17.8333 19.9532 17.9498 20.5313 17.913 21.11C17.913 22.1688 17.6568 22.9145 17.1444 23.3471Z" fill="#4DA1C2"/>
<path d="M31.8996 8.5083L31.8953 8.49929L31.8906 8.49028L31.8858 8.48127L31.8751 8.46239L31.87 8.4538L31.8528 8.42591L31.8472 8.41776L31.8417 8.41003L31.8365 8.40231L31.8314 8.39501L31.8262 8.38772L31.8211 8.38085V8.37828L31.8138 8.36927L31.809 8.36326L31.8065 8.36025L31.8017 8.35425L31.7987 8.35124L31.7944 8.34566L31.7781 8.32764L31.7738 8.32249L31.7704 8.31863L31.7666 8.31391L31.7627 8.31005L31.7588 8.30576L31.7545 8.30146L31.7511 8.2976L31.7464 8.29288L31.7434 8.28945L31.7382 8.2843L31.7301 8.27572L31.7198 8.26542L23.735 0.280223C23.7153 0.259624 23.6942 0.240314 23.6724 0.221432L23.6689 0.218428C23.6582 0.209417 23.6475 0.200405 23.6363 0.191823H23.6337L23.6247 0.184956L23.6174 0.179807L23.6063 0.171654L23.5985 0.166504L23.5891 0.160067L23.581 0.154489C23.5689 0.145906 23.5561 0.138611 23.5436 0.131315L23.5247 0.120587L23.5097 0.109859L23.5007 0.105139C23.3683 0.035726 23.221 -0.000361787 23.0716 2.73429e-06H2.93995C2.18893 0.000877825 1.46693 0.290139 0.923052 0.808048C0.902454 0.825643 0.880139 0.843667 0.862974 0.863407C0.589498 1.13576 0.372489 1.45943 0.224399 1.81585C0.0763079 2.17227 5.00895e-05 2.55442 0 2.94038V39.4647C0.000785214 40.241 0.309436 40.9853 0.858254 41.5343L0.862116 41.5378C1.13403 41.8109 1.45714 42.0277 1.81295 42.1758C2.16875 42.3238 2.55027 42.4003 2.93566 42.4007H29.06C29.8392 42.399 30.586 42.0888 31.137 41.5378C31.688 40.9868 31.9983 40.24 32 39.4608V8.92842C32.0002 8.78328 31.9659 8.64017 31.9 8.51088L31.8996 8.5083ZM23.9951 3.15022L28.8493 8.00451H25.2927C25.1227 8.00488 24.9543 7.97168 24.7972 7.9068C24.64 7.84192 24.4972 7.74665 24.377 7.62645L24.3731 7.62258C24.2529 7.50235 24.1576 7.35956 24.0928 7.20241C24.0279 7.04526 23.9947 6.87684 23.9951 6.70683V3.15022ZM30.1543 39.4638C30.153 39.7536 30.0372 40.0312 29.8323 40.2361C29.6274 40.441 29.3498 40.5567 29.06 40.5581H2.93995C2.79657 40.5585 2.65452 40.5306 2.52196 40.476C2.3894 40.4213 2.26895 40.341 2.16752 40.2397L2.16366 40.2362C2.06232 40.1348 1.98202 40.0144 1.92737 39.8818C1.87273 39.7492 1.84482 39.6072 1.84525 39.4638V2.93909C1.84541 2.7955 1.87393 2.65334 1.92916 2.52079C1.98439 2.38824 2.06524 2.26789 2.16709 2.16666C2.17911 2.15465 2.19069 2.1422 2.20228 2.12976C2.40352 1.94584 2.66647 1.84416 2.93909 1.84482H22.149V6.70683C22.1494 7.11897 22.2312 7.52697 22.3895 7.90745C22.5479 8.28794 22.7799 8.63343 23.072 8.92413C23.6592 9.5128 24.4561 9.8442 25.2876 9.84546H30.1543V39.4638Z" fill="#4DA1C2"/>
<path d="M11.0321 17.9213C10.8012 17.7187 10.5268 17.5719 10.2301 17.4921C9.79116 17.3891 9.34058 17.3442 8.88994 17.3587H6.92668C6.66284 17.3351 6.39978 17.4117 6.18987 17.5733C6.10382 17.6712 6.03881 17.7857 5.99887 17.9098C5.95893 18.0339 5.94493 18.1649 5.95771 18.2946V24.1196C5.94057 24.3667 6.01581 24.6114 6.16885 24.8062C6.24031 24.8805 6.32608 24.9395 6.42098 24.9797C6.51588 25.0199 6.61794 25.0405 6.72101 25.0401C6.82407 25.0398 6.926 25.0186 7.02065 24.9778C7.1153 24.937 7.2007 24.8775 7.2717 24.8028C7.42818 24.6065 7.50481 24.3583 7.48626 24.108V21.974H8.88822C9.64238 22.0289 10.392 21.8187 11.0077 21.3796C11.2512 21.161 11.4418 20.8898 11.5649 20.5866C11.688 20.2834 11.7405 19.9561 11.7183 19.6296C11.7237 19.2964 11.6639 18.9654 11.5424 18.6551C11.432 18.3739 11.2573 18.1226 11.0321 17.9213ZM9.97863 20.3364C9.83867 20.5165 9.6444 20.6466 9.42463 20.7076C9.13003 20.7905 8.82472 20.8291 8.51874 20.8222H7.48884V18.5105H8.51874C9.20306 18.5105 9.65522 18.6225 9.87521 18.8465C10.0759 19.0694 10.1813 19.3621 10.1687 19.6618C10.1797 19.9012 10.1131 20.1376 9.97863 20.336V20.3364Z" fill="#4DA1C2"/>
<path d="M21.1814 17.4546C21.0455 17.5151 20.9365 17.6234 20.875 17.7589C20.8036 17.9291 20.7699 18.1129 20.7763 18.2974V24.1108C20.7572 24.3628 20.8338 24.6127 20.9909 24.8107C21.0625 24.884 21.1481 24.9423 21.2425 24.9822C21.3369 25.0221 21.4383 25.0428 21.5407 25.0431C21.6432 25.0434 21.7447 25.0233 21.8394 24.984C21.934 24.9447 22.0199 24.887 22.092 24.8141C22.2501 24.6154 22.3268 24.364 22.3066 24.1108V21.6219H24.8277C25.0143 21.6355 25.1994 21.5804 25.3482 21.467C25.4063 21.4143 25.452 21.3494 25.4821 21.277C25.5123 21.2046 25.526 21.1265 25.5225 21.0481C25.5257 20.9699 25.512 20.8919 25.4824 20.8194C25.4528 20.7469 25.4079 20.6816 25.3508 20.628C25.2019 20.5129 25.0154 20.4572 24.8277 20.4718H22.3087V18.5407H25.3234C25.5184 18.5562 25.7122 18.4986 25.8671 18.379C25.926 18.3238 25.9723 18.2566 26.003 18.182C26.0336 18.1074 26.0479 18.027 26.0447 17.9464C26.0473 17.8669 26.0328 17.7877 26.0022 17.7142C25.9715 17.6408 25.9254 17.5748 25.8671 17.5207C25.7122 17.4011 25.5184 17.3434 25.3234 17.3589H21.7144C21.532 17.3527 21.3503 17.3853 21.1814 17.4546Z" fill="#4DA1C2"/>
</svg>
