<svg width="32" height="43" viewBox="0 0 32 43" fill="none" xmlns="http://www.w3.org/2000/svg">
<path d="M31.8992 8.5083L31.8949 8.49929L31.8901 8.49028L31.8854 8.48127L31.8747 8.46239L31.8695 8.4538L31.8524 8.42591L31.8468 8.41776L31.8412 8.41003L31.8356 8.40231L31.8305 8.39501L31.8253 8.38772L31.8202 8.38085V8.37828L31.8129 8.36927L31.8082 8.36326L31.8056 8.36025L31.8009 8.35425L31.7983 8.35124L31.7936 8.34566L31.7777 8.32764L31.7734 8.32249L31.77 8.31863L31.7661 8.31391L31.7623 8.31005L31.7584 8.30576L31.7541 8.30146L31.7502 8.2976L31.7455 8.29288L31.7425 8.28945L31.7374 8.2843L31.7292 8.27572L31.7228 8.26928L31.7189 8.26542L23.7342 0.280223C23.7144 0.259625 23.6934 0.240314 23.6715 0.221433L23.6681 0.218429C23.6578 0.209417 23.6466 0.200406 23.6355 0.191823H23.6329L23.6239 0.184957L23.617 0.179807L23.6058 0.171654L23.5981 0.166505L23.5887 0.160068L23.5805 0.154489C23.5685 0.145907 23.5556 0.138611 23.5432 0.131316L23.5243 0.120588L23.5093 0.10986L23.5003 0.105139C23.3679 0.0356939 23.2206 -0.000395843 23.0711 3.27469e-06H2.93909C2.18788 0.000713866 1.46572 0.290346 0.922194 0.808908C0.902025 0.826073 0.881856 0.844096 0.862974 0.862977C0.589498 1.13533 0.372489 1.459 0.224399 1.81542C0.0763079 2.17184 5.00895e-05 2.55399 0 2.93995V39.4647C0.000691231 40.241 0.309356 40.9853 0.858254 41.5343L0.861687 41.5378C1.13362 41.8109 1.45673 42.0276 1.81253 42.1757C2.16833 42.3238 2.54984 42.4003 2.93523 42.4007H29.06C29.8392 42.3989 30.5859 42.0886 31.1369 41.5377C31.6879 40.9867 31.9982 40.24 32 39.4608V8.92842C32.0002 8.78329 31.9659 8.64018 31.9 8.51088L31.8992 8.5083ZM28.8489 8.00451H25.2923C25.122 8.00428 24.9535 7.97043 24.7963 7.90489C24.6392 7.83934 24.4965 7.74341 24.3766 7.62258C24.2563 7.5024 24.1609 7.35963 24.0959 7.20247C24.031 7.04532 23.9977 6.87688 23.9981 6.70683V3.15022L26.4256 5.57737L28.8489 8.00451ZM30.1539 39.4638C30.1525 39.7536 30.0368 40.0312 29.8319 40.2361C29.627 40.441 29.3494 40.5567 29.0596 40.5581H2.93909C2.79571 40.5585 2.65366 40.5306 2.5211 40.476C2.38854 40.4213 2.26809 40.341 2.16666 40.2397L2.16323 40.2362C2.06189 40.1348 1.98159 40.0144 1.92694 39.8818C1.8723 39.7492 1.84439 39.6072 1.84482 39.4638V2.93909C1.84498 2.7955 1.8735 2.65334 1.92873 2.52079C1.98396 2.38824 2.06481 2.2679 2.16666 2.16667C2.17825 2.15508 2.18983 2.14306 2.20056 2.13062C2.40227 1.94647 2.66554 1.84438 2.93866 1.84439H22.1485V6.7064C22.1491 7.11893 22.2311 7.52728 22.3898 7.90806C22.5485 8.28885 22.7807 8.63457 23.0733 8.92542C23.3644 9.21798 23.7105 9.45013 24.0916 9.60854C24.4727 9.76694 24.8813 9.84848 25.294 9.84847H30.156L30.1539 39.4638Z" fill="#4DA1C2"/>
<path d="M23.6376 17.983C23.4066 17.7804 23.1322 17.6336 22.8355 17.5538C22.3968 17.4524 21.9467 17.4091 21.4967 17.4251H19.5321C19.2683 17.4015 19.0052 17.4781 18.7953 17.6397C18.7093 17.7375 18.6443 17.852 18.6044 17.976C18.5645 18.1 18.5504 18.2309 18.5631 18.3606V24.1847C18.546 24.4318 18.6213 24.6765 18.7743 24.8713C18.8457 24.9456 18.9315 25.0046 19.0264 25.0448C19.1213 25.085 19.2234 25.1056 19.3264 25.1053C19.4295 25.1049 19.5314 25.0837 19.6261 25.0429C19.7207 25.0021 19.8061 24.9426 19.8771 24.8679C20.0336 24.6716 20.1102 24.4235 20.0917 24.1731V22.0352H21.4967C22.2508 22.0901 23.0005 21.8799 23.6161 21.4409C23.8596 21.2222 24.0501 20.951 24.1733 20.6478C24.2964 20.3446 24.3489 20.0174 24.3267 19.6909C24.3322 19.3577 24.2724 19.0266 24.1508 18.7163C24.0397 18.435 23.8638 18.1838 23.6376 17.983ZM22.5841 20.3981C22.4446 20.5793 22.2502 20.7105 22.0301 20.7723C21.7355 20.8552 21.4302 20.8938 21.1242 20.8869H20.0943V18.5734H21.1242C21.8085 18.5734 22.2605 18.6854 22.4802 18.9094C22.681 19.1323 22.7864 19.4251 22.7737 19.7248C22.785 19.9642 22.7184 20.2009 22.5841 20.3994V20.3981Z" fill="#4DA1C2"/>
<path d="M16.0776 17.2964C15.975 17.2929 15.8729 17.3119 15.7784 17.352C15.6839 17.3921 15.5993 17.4524 15.5305 17.5285C15.3755 17.7255 15.3002 17.9734 15.3193 18.2233V24.174C15.3007 24.4255 15.3773 24.6749 15.5339 24.8726C15.602 24.9488 15.6858 25.0092 15.7797 25.0496C15.8735 25.09 15.975 25.1094 16.0772 25.1065C16.1814 25.1103 16.2852 25.0915 16.3815 25.0514C16.4778 25.0114 16.5643 24.9509 16.635 24.8743C16.7924 24.6763 16.8691 24.4261 16.8496 24.174V18.2237C16.8693 17.9722 16.7926 17.7226 16.635 17.5255C16.5638 17.4498 16.4772 17.3902 16.3811 17.3507C16.2849 17.3112 16.1815 17.2926 16.0776 17.2964Z" fill="#4DA1C2"/>
<path d="M13.5899 23.8294H9.59047L13.2192 19.5128C13.4208 19.2853 13.6083 19.0455 13.7805 18.7949C13.8816 18.6144 13.9298 18.409 13.9195 18.2023C13.9195 17.6833 13.6416 17.4235 13.0857 17.423H8.78672C8.59673 17.4089 8.40838 17.4666 8.25889 17.5848C8.20006 17.6385 8.15365 17.7044 8.1229 17.778C8.09214 17.8515 8.07778 17.9308 8.08081 18.0104C8.07781 18.0875 8.09228 18.1642 8.12312 18.2349C8.15396 18.3056 8.20037 18.3683 8.25889 18.4185C8.41008 18.5328 8.59778 18.5879 8.78672 18.5735H12.1215L8.23958 23.2153C8.17779 23.2874 8.10612 23.3737 8.02502 23.4728C7.94391 23.5719 7.87912 23.6505 7.83148 23.714C7.78606 23.7769 7.74885 23.8454 7.72077 23.9178C7.69345 23.9939 7.6798 24.0743 7.68043 24.1551C7.67545 24.2678 7.69558 24.3801 7.73937 24.484C7.78316 24.5879 7.84951 24.6808 7.93361 24.7559C8.14779 24.9206 8.41513 25.0007 8.68459 24.9808H13.5899C13.7803 24.996 13.9694 24.9388 14.1195 24.8207C14.1783 24.7656 14.2245 24.6984 14.2549 24.6237C14.2853 24.549 14.2991 24.4687 14.2954 24.3881C14.2998 24.3109 14.2862 24.2336 14.2556 24.1625C14.2251 24.0914 14.1785 24.0284 14.1195 23.9783C13.9659 23.8681 13.7785 23.8154 13.5899 23.8294Z" fill="#4DA1C2"/>
</svg>
