<svg width="33" height="43" viewBox="0 0 33 43" fill="none" xmlns="http://www.w3.org/2000/svg">
<path d="M17.9952 17.7733C17.376 17.441 16.6807 17.2766 15.9783 17.2965C15.4508 17.2871 14.9263 17.3791 14.4334 17.5673C13.9949 17.7365 13.6003 18.003 13.2795 18.3466C12.9539 18.7035 12.707 19.1248 12.5548 19.5833C12.3832 20.098 12.2988 20.6376 12.305 21.1801C12.3001 21.7165 12.3808 22.2504 12.544 22.7614C12.6891 23.2242 12.9308 23.651 13.2529 24.0136C13.5762 24.3679 13.9764 24.6434 14.4227 24.819C14.9281 25.0178 15.4675 25.1152 16.0105 25.1057C16.5505 25.1151 17.0873 25.0209 17.5918 24.828C18.0362 24.6527 18.4345 24.3777 18.756 24.0243C19.0776 23.665 19.3198 23.2418 19.4666 22.7824C19.6308 22.268 19.7111 21.7304 19.7043 21.1904C19.7211 20.4785 19.5731 19.7724 19.2718 19.1272C18.9958 18.5552 18.55 18.0824 17.9952 17.7733ZM17.8613 22.691C17.6974 23.0653 17.4247 23.3816 17.0786 23.5986C16.7522 23.7937 16.3786 23.8954 15.9985 23.8926C15.7087 23.8957 15.4215 23.8372 15.1561 23.7209C14.894 23.6039 14.6617 23.4294 14.4764 23.2103C14.2661 22.9567 14.1099 22.6629 14.0172 22.3469C13.9052 21.9684 13.8507 21.5752 13.8554 21.1805C13.8507 20.7906 13.9052 20.4023 14.0172 20.0288C14.1076 19.721 14.2579 19.4341 14.4596 19.1847C14.6419 18.9681 14.8711 18.796 15.1299 18.6813C15.3968 18.5654 15.6851 18.5069 15.9761 18.5097C16.3786 18.502 16.7747 18.61 17.1176 18.8208C17.4597 19.0438 17.7263 19.3651 17.8823 19.7425C18.0697 20.1986 18.1608 20.6885 18.1496 21.1814C18.1655 21.7 18.0665 22.2157 17.8596 22.6915L17.8613 22.691Z" fill="#4DA1C2"/>
<path d="M32.0519 8.50819L32.0476 8.49918L32.0429 8.49017L32.0382 8.48115L32.0279 8.46227L32.0227 8.45369L32.0056 8.4258L32.0004 8.41764L31.9949 8.40992L31.9893 8.40219L31.9841 8.3949L31.979 8.3876L31.9738 8.38074V8.37816L31.9665 8.36915L31.9618 8.36315L31.9592 8.36014L31.9545 8.35413L31.9515 8.35113L31.9468 8.34555L31.9305 8.32753L31.9262 8.32238L31.9228 8.31852L31.9189 8.3138L31.915 8.30993L31.9112 8.30564L31.9069 8.30135L31.9034 8.29749L31.8987 8.29277L31.8957 8.28934L31.8906 8.28419L31.882 8.27561L31.8717 8.26531L23.8875 0.280219C23.8673 0.259621 23.8467 0.240311 23.8248 0.221429L23.8214 0.218425C23.8107 0.209414 23.7999 0.200403 23.7888 0.19182H23.7862L23.7772 0.184954L23.7699 0.179804L23.7587 0.171651L23.751 0.166502L23.7416 0.160065L23.7338 0.154487C23.7218 0.145904 23.709 0.138609 23.6965 0.131314L23.6776 0.120586L23.6622 0.109858L23.6532 0.105137C23.5208 0.0357255 23.3735 -0.000361782 23.224 2.73425e-06H3.09225C2.31306 0.00170316 1.56627 0.311989 1.0153 0.86296C0.46433 1.41393 0.154044 2.16072 0.152344 2.93991V39.4641C0.153027 40.2153 0.442485 40.9374 0.960808 41.481C0.977972 41.5012 0.995996 41.5213 1.01488 41.5402C1.28724 41.8137 1.61091 42.0307 1.96732 42.1788C2.32373 42.3268 2.70587 42.4031 3.09182 42.4032H29.2124C29.9916 42.4014 30.7383 42.091 31.2893 41.5401C31.8402 40.9892 32.1505 40.2424 32.1523 39.4633V8.9283C32.1525 8.78318 32.1182 8.64009 32.0524 8.51076L32.0519 8.50819ZM24.1475 3.15018L29.0017 8.0044H25.4447C25.2747 8.00473 25.1063 7.9715 24.9492 7.90663C24.7921 7.84175 24.6493 7.74651 24.529 7.62634L24.5256 7.62248C24.4053 7.50226 24.3101 7.35948 24.2452 7.20232C24.1803 7.04517 24.1471 6.87675 24.1475 6.70674V3.15018ZM30.3067 39.4633C30.3053 39.753 30.1897 40.0305 29.9848 40.2354C29.78 40.4403 29.5026 40.5561 29.2129 40.5575H3.09225C2.94866 40.5574 2.80651 40.5289 2.67396 40.4736C2.54141 40.4184 2.42106 40.3375 2.31983 40.2357C2.30825 40.2241 2.29623 40.2125 2.28379 40.2018C2.09968 40.0001 1.9976 39.7368 1.99756 39.4637V2.93905C1.99903 2.6494 2.11474 2.37204 2.31956 2.16722C2.52438 1.9624 2.80174 1.84669 3.09139 1.84522H22.3014V6.70717C22.3019 7.11925 22.3837 7.52719 22.542 7.90766C22.7003 8.28812 22.9321 8.63364 23.224 8.92444C23.8112 9.51314 24.6081 9.84455 25.4396 9.84576H30.3015L30.3067 39.4633Z" fill="#4DA1C2"/>
<path d="M22.8997 17.5634C22.4627 17.7392 22.0679 18.0054 21.741 18.3444C21.4035 18.698 21.1445 19.1188 20.9811 19.5795C20.7966 20.103 20.7066 20.6551 20.7154 21.2101C20.7137 21.567 20.7491 21.9231 20.821 22.2726C20.8887 22.5978 20.9951 22.9137 21.1377 23.2137C21.2737 23.4991 21.4452 23.7662 21.6479 24.0088C21.8572 24.2571 22.1055 24.4698 22.383 24.6384C22.6587 24.8021 22.9585 24.9215 23.2713 24.992C23.6282 25.0704 23.9928 25.1081 24.3582 25.1044C24.8313 25.1141 25.3015 25.0286 25.7409 24.8529C26.1073 24.7038 26.4385 24.4798 26.7133 24.1951C26.9472 23.9565 27.1361 23.6777 27.2711 23.372C27.3825 23.1264 27.443 22.8607 27.4488 22.591C27.4507 22.5031 27.4344 22.4158 27.4008 22.3345C27.3672 22.2532 27.317 22.1798 27.2535 22.119C27.1923 22.0569 27.1192 22.0079 27.0385 21.9749C26.9578 21.9419 26.8712 21.9257 26.7841 21.9272C26.6975 21.9195 26.6104 21.9325 26.5299 21.9653C26.4495 21.9981 26.378 22.0496 26.3215 22.1156C26.2139 22.2632 26.1318 22.4279 26.0786 22.6026C25.9534 22.9859 25.7138 23.3217 25.392 23.5647C25.0645 23.7899 24.6735 23.9045 24.2763 23.8917C23.9017 23.9001 23.5327 23.8 23.2138 23.6033C22.8956 23.3915 22.651 23.086 22.5139 22.7292C22.3347 22.2614 22.2504 21.7627 22.2658 21.262C22.2199 20.54 22.4162 19.8233 22.8237 19.2254C22.9984 18.9946 23.2261 18.8091 23.4874 18.6845C23.7488 18.5599 24.0363 18.5 24.3256 18.5097C24.6787 18.4981 25.0268 18.5951 25.3229 18.7877C25.6209 19.008 25.862 19.2962 26.0262 19.6284C26.1103 19.8042 26.2207 19.9661 26.3537 20.1086C26.477 20.2097 26.6345 20.2595 26.7935 20.2476C26.8783 20.2486 26.9623 20.2311 27.0397 20.1966C27.1171 20.162 27.1861 20.111 27.2419 20.0472C27.3618 19.9224 27.4287 19.756 27.4286 19.5829C27.4097 19.2126 27.2763 18.8574 27.0467 18.5663C26.7597 18.1802 26.3829 17.8699 25.949 17.6621C25.4414 17.4112 24.881 17.2858 24.3149 17.2965C23.8304 17.2939 23.3499 17.3845 22.8997 17.5634Z" fill="#4DA1C2"/>
<path d="M10.1321 18.1094C9.84234 17.8517 9.4958 17.666 9.12071 17.5674C8.68328 17.4643 8.23462 17.4165 7.78528 17.4254H5.79116C5.66282 17.4013 5.53055 17.4089 5.40581 17.4475C5.28107 17.4861 5.16761 17.5545 5.07526 17.6468C4.98291 17.7391 4.91445 17.8525 4.87582 17.9772C4.83718 18.102 4.82953 18.2342 4.85353 18.3626V23.9051C4.84817 24.1054 4.86996 24.3054 4.91832 24.4999C4.93833 24.5743 4.9729 24.644 5.02004 24.705C5.06718 24.766 5.12596 24.8171 5.19296 24.8552C5.38805 24.9521 5.60502 24.9964 5.82248 24.9839H7.81704C8.13028 24.9861 8.44321 24.9637 8.75295 24.917C9.02083 24.8754 9.28175 24.7973 9.52837 24.6848C9.77109 24.5744 9.99542 24.4273 10.1935 24.2488C10.4479 24.0162 10.6623 23.7434 10.8282 23.4412C10.9988 23.1231 11.1221 22.7818 11.1942 22.4281C11.2763 22.0193 11.3157 21.6031 11.3118 21.1862C11.3121 19.8099 10.9189 18.7843 10.1321 18.1094ZM8.9924 23.4108C8.87433 23.5125 8.73824 23.5913 8.59117 23.6429C8.4464 23.695 8.29581 23.7293 8.14274 23.745C7.99856 23.7592 7.79944 23.7665 7.54455 23.7665H6.38377V18.6372H7.39521C7.79911 18.6293 8.20201 18.6803 8.59117 18.7887C8.94747 18.9125 9.24437 19.1655 9.42324 19.4976C9.68121 20.0169 9.7977 20.5951 9.76096 21.1737C9.75981 22.2325 9.50363 22.9782 8.9924 23.4108Z" fill="#4DA1C2"/>
</svg>
