<svg width="10" height="14" viewBox="0 0 10 14" fill="none" xmlns="http://www.w3.org/2000/svg">
<path d="M5.02286 0.277466C2.28318 0.277466 0.0551758 2.50547 0.0551758 5.24515C0.0551758 8.68858 4.53934 13.2125 4.72976 13.4037C4.8109 13.484 4.91688 13.5246 5.02286 13.5246C5.12883 13.5246 5.23481 13.484 5.31595 13.4037C5.50638 13.2125 9.99054 8.68858 9.99054 5.24515C9.99054 2.50547 7.76253 0.277466 5.02286 0.277466ZM5.02286 7.72899C3.65343 7.72899 2.53902 6.61457 2.53902 5.24515C2.53902 3.87572 3.65343 2.76131 5.02286 2.76131C6.39228 2.76131 7.5067 3.87572 7.5067 5.24515C7.5067 6.61457 6.39228 7.72899 5.02286 7.72899Z" fill="#2C2C2C"/>
</svg>
