<svg width="14" height="15" viewBox="0 0 14 15" fill="none" xmlns="http://www.w3.org/2000/svg">
<g clip-path="url(#clip0)">
<path d="M0.976938 13.9979C1.0987 14.1005 1.26372 14.1207 1.40391 14.0507L13.7831 7.89838C14.0723 7.75418 14.0723 7.24606 13.7831 7.10186L1.40391 0.949512C1.26372 0.879551 1.0987 0.899736 0.976938 1.0023C0.855587 1.10402 0.799888 1.27225 0.828325 1.43402L1.51006 5.08603L7.12977 7.0834C7.46463 7.2027 7.46463 7.79751 7.12977 7.91681L1.51006 9.91418L0.828325 13.5662C0.797973 13.7218 0.852195 13.8927 0.976938 13.9979Z" fill="white"/>
<path d="M9.33916e-05 7.50012C9.33867e-05 7.61256 0.040152 7.725 0.120269 7.81081L1.29181 9.06603L5.70312 7.50012L1.29179 5.9342L0.120242 7.18942C0.0401525 7.27523 9.33965e-05 7.38768 9.33916e-05 7.50012Z" fill="white"/>
</g>
<defs>
<clipPath id="clip0">
<rect width="15" height="14" fill="white" transform="translate(14) rotate(90)"/>
</clipPath>
</defs>
</svg>
