<svg width="18" height="19" viewBox="0 0 18 19" fill="none" xmlns="http://www.w3.org/2000/svg">
<path d="M15.9548 1.30083C15.1601 0.461975 14.1035 0 12.9797 0C11.8559 0 10.7993 0.461975 10.0046 1.30087L8.57166 2.81337C8.43227 2.96051 8.43227 3.19905 8.57166 3.34619C8.71109 3.49333 8.937 3.49333 9.07647 3.34619L10.5094 1.83361C11.1692 1.13707 12.0465 0.753506 12.9797 0.753506C13.9129 0.753506 14.7902 1.13711 15.45 1.83357C16.11 2.53056 16.4734 3.45659 16.4734 4.44118C16.4734 5.42576 16.1099 6.35183 15.4501 7.04874L5.5265 17.5236C4.61289 18.4879 3.12634 18.4879 2.21281 17.5236C1.77016 17.0564 1.52638 16.4353 1.52638 15.7747C1.52638 15.1142 1.77019 14.4929 2.21281 14.0254L10.7096 5.05656C11.208 4.5308 12.0187 4.53072 12.5167 5.05652C12.7582 5.31139 12.8912 5.65005 12.8912 6.01009C12.8912 6.37034 12.7582 6.70915 12.5167 6.96402L5.63784 14.2247C5.49844 14.3718 5.49844 14.6103 5.63784 14.7575C5.77727 14.9046 6.00318 14.9046 6.14264 14.7575L13.0215 7.49684C13.3978 7.09965 13.6051 6.57162 13.6051 6.01009C13.6051 5.44877 13.3978 4.92089 13.0215 4.52371C12.2451 3.70422 10.9817 3.70422 10.2048 4.52371L1.70793 13.4927C1.13049 14.1026 0.8125 14.913 0.8125 15.7747C0.8125 16.6366 1.13052 17.4469 1.708 18.0565C2.304 18.6855 3.08683 19 3.86962 19C4.65248 19 5.43527 18.6854 6.0313 18.0564L15.9549 7.58152C16.7496 6.74225 17.1873 5.62697 17.1873 4.44118C17.1872 3.25538 16.7496 2.14017 15.9548 1.30083Z" fill="#2C2C2C"/>
<path d="M7.56851 4.40503C7.42908 4.25789 7.20317 4.25789 7.06371 4.40503L1.59673 10.1758C1.45734 10.3229 1.45734 10.5614 1.59673 10.7086C1.66645 10.7822 1.75775 10.819 1.84912 10.819C1.94049 10.819 2.03179 10.7822 2.10151 10.7086L7.56851 4.93789C7.70787 4.79075 7.70787 4.55221 7.56851 4.40503Z" fill="#2C2C2C"/>
<path d="M8.08113 3.48181C7.62178 3.48181 7.62101 4.23536 8.08113 4.23536C8.54048 4.23536 8.54122 3.48181 8.08113 3.48181Z" fill="#2C2C2C"/>
</svg>
