<svg width="29" height="29" viewBox="0 0 29 29" fill="none" xmlns="http://www.w3.org/2000/svg">
<g clip-path="url(#clip0)">
<path d="M14.5359 0C6.5405 0 0.0361328 6.50437 0.0361328 14.5C0.0361328 22.4954 6.5405 29.0001 14.5359 29.0001C22.5311 29.0001 29.0355 22.4954 29.0355 14.5C29.0355 6.50437 22.5311 0 14.5359 0ZM14.5359 27.8179C7.19258 27.8179 1.21831 21.8431 1.21831 14.5C1.21831 7.1567 7.19258 1.18218 14.5359 1.18218C21.879 1.18218 27.8533 7.1567 27.8533 14.5C27.8533 21.8431 21.879 27.8179 14.5359 27.8179Z" fill="black"/>
<path d="M20.8456 21.1003L15.2453 15.5L20.8456 9.89968C21.0514 9.69389 21.0514 9.36018 20.8456 9.15436C20.6398 8.94855 20.3061 8.94855 20.1003 9.15436L14.5 14.7547L8.89968 9.15436C8.69389 8.94855 8.36018 8.94855 8.15436 9.15436C7.94855 9.36015 7.94855 9.69386 8.15436 9.89968L13.7547 15.5L8.15436 21.1003C7.94855 21.3061 7.94855 21.6398 8.15436 21.8456C8.36015 22.0514 8.69386 22.0515 8.89968 21.8456L14.5 16.2453L20.1003 21.8456C20.3061 22.0514 20.6398 22.0515 20.8456 21.8456C21.0515 21.6398 21.0515 21.3061 20.8456 21.1003Z" fill="black"/>
</g>
<defs>
<clipPath id="clip0">
<rect width="29" height="29" fill="white"/>
</clipPath>
</defs>
</svg>
