<svg width="27" height="27" viewBox="0 0 27 27" fill="none" xmlns="http://www.w3.org/2000/svg">
<path d="M20.1313 5.6687C17.7826 3.31997 13.9578 3.31997 11.6116 5.6687L5.10391 12.1714C5.06153 12.2137 5.03909 12.2711 5.03909 12.3309C5.03909 12.3908 5.06153 12.4481 5.10391 12.4905L6.02396 13.4106C6.06601 13.4524 6.12294 13.4759 6.18229 13.4759C6.24163 13.4759 6.29856 13.4524 6.34061 13.4106L12.8483 6.9079C13.6561 6.10005 14.7307 5.65624 15.8727 5.65624C17.0147 5.65624 18.0893 6.10005 18.8946 6.9079C19.7025 7.71574 20.1463 8.79038 20.1463 9.92984C20.1463 11.0718 19.7025 12.1439 18.8946 12.9518L12.2623 19.5816L11.1877 20.6562C10.1829 21.6611 8.54972 21.6611 7.5449 20.6562C7.0587 20.17 6.79191 19.5243 6.79191 18.8361C6.79191 18.1479 7.0587 17.5021 7.5449 17.0159L14.1249 10.4385C14.2919 10.2739 14.5113 10.1817 14.7457 10.1817H14.7482C14.9826 10.1817 15.1995 10.2739 15.3641 10.4385C15.5311 10.6055 15.6209 10.825 15.6209 11.0593C15.6209 11.2912 15.5286 11.5106 15.3641 11.6752L9.98589 17.0484C9.94351 17.0907 9.92107 17.1481 9.92107 17.2079C9.92107 17.2678 9.94351 17.3251 9.98589 17.3675L10.9059 18.2876C10.948 18.3294 11.0049 18.3529 11.0643 18.3529C11.1236 18.3529 11.1805 18.3294 11.2226 18.2876L16.5983 12.9119C17.0944 12.4157 17.3662 11.7575 17.3662 11.0568C17.3662 10.3562 17.0919 9.69546 16.5983 9.20178C15.5735 8.17701 13.9079 8.17951 12.8832 9.20178L12.2449 9.84257L6.30571 15.7792C5.90261 16.18 5.58308 16.6567 5.36565 17.1819C5.14822 17.7071 5.03722 18.2702 5.03909 18.8386C5.03909 19.993 5.49038 21.0776 6.30571 21.8929C7.15095 22.7357 8.258 23.1571 9.36505 23.1571C10.4721 23.1571 11.5791 22.7357 12.4219 21.8929L20.1313 14.1885C21.2658 13.0515 21.8941 11.5381 21.8941 9.92984C21.8966 8.31913 21.2683 6.80567 20.1313 5.6687Z" fill="#83B373"/>
</svg>
