<svg width="32" height="20" viewBox="0 0 32 20" fill="none" xmlns="http://www.w3.org/2000/svg">
<path d="M20.327 17.8632H11.6719V2.1394H20.327V17.8632Z" fill="#6C6BBD"/>
<path d="M12.2264 10C12.2264 6.81035 13.7038 3.9691 16.0044 2.13809C14.322 0.799162 12.1987 0 9.89118 0C4.42829 0 0 4.47708 0 10C0 15.5229 4.42829 20 9.89118 20C12.1987 20 14.322 19.2008 16.0044 17.8619C13.7038 16.0309 12.2264 13.1897 12.2264 10Z" fill="#EB001B"/>
<path d="M31.9991 10C31.9991 15.5229 27.5709 20 22.108 20C19.8004 20 17.6772 19.2008 15.9941 17.8619C18.2954 16.0309 19.7728 13.1897 19.7728 10C19.7728 6.81035 18.2954 3.9691 15.9941 2.13809C17.6772 0.799162 19.8004 0 22.108 0C27.5709 0 31.9991 4.47708 31.9991 10Z" fill="#0099DF"/>
</svg>
