<svg width="32" height="11" viewBox="0 0 32 11" fill="none" xmlns="http://www.w3.org/2000/svg">
<path fill-rule="evenodd" clip-rule="evenodd" d="M9.61133 10.7026L12.5858 0.229706H15.2397L12.265 10.7026H9.61133Z" fill="#093A80"/>
<path fill-rule="evenodd" clip-rule="evenodd" d="M8.42557 0.232758L6.03812 4.67227C5.43049 5.83491 5.07504 6.42231 4.90418 7.157H4.8679C4.91021 6.22567 4.78858 5.08204 4.77727 4.43556L4.51348 0.232796H0.0458272L0 0.514545C1.14756 0.514545 1.82823 1.13012 2.01562 2.38964L2.88626 10.7024H5.63589L11.1956 0.232758H8.42557Z" fill="#093A80"/>
<path fill-rule="evenodd" clip-rule="evenodd" d="M29.0657 10.7025L28.9925 9.14513L25.6787 9.14233L25.0007 10.7025H22.1191L27.3438 0.249817H30.8808L31.7655 10.7025H29.0657ZM28.7613 4.52515C28.7315 3.75106 28.707 2.70068 28.7562 2.06488L28.7173 2.06481C28.5558 2.58483 27.862 4.14598 27.5567 4.91385L26.5694 7.20936H28.8962L28.7613 4.52515Z" fill="#093A80"/>
<path fill-rule="evenodd" clip-rule="evenodd" d="M18.0264 11C16.1526 11 14.9091 10.3657 14.0215 9.79975L15.2857 7.73818C16.0827 8.21415 16.7084 8.76341 18.1484 8.76341C18.6112 8.76322 19.0572 8.63479 19.3106 8.16643C19.6796 7.48506 19.2256 7.11888 18.1888 6.49198L17.6768 6.13634C16.1399 5.01505 15.4751 3.94993 16.1985 2.09073C16.6617 0.901422 17.8826 6.70603e-09 19.8969 6.70603e-09C21.286 -7.5743e-05 22.5885 0.6416 23.3474 1.26858L21.8939 3.08862C21.1531 2.44922 20.5395 2.12565 19.8369 2.12565C19.2769 2.12565 18.8513 2.35638 18.7045 2.66749C18.4279 3.25235 18.7937 3.65102 19.6014 4.18631L20.2103 4.59994C22.0762 5.85644 22.5207 7.17426 22.0532 8.40614C21.2486 10.5268 19.6738 11.0002 18.0264 11Z" fill="#093A80"/>
</svg>
