<svg width="13" height="13" viewBox="0 0 13 13" fill="none" xmlns="http://www.w3.org/2000/svg">
<path d="M6.51595 0C2.92457 0 0 2.92484 0 6.53232C0 10.1071 2.92457 13 6.51595 13C10.1073 13 13 10.123 13 6.53232C13 2.92484 9.97739 0 6.51595 0ZM6.51595 12.1378C3.42884 12.1378 0.893857 9.61984 0.893857 6.53245C0.893857 3.42925 3.42898 0.860994 6.51595 0.860994C9.58766 0.860994 12.1061 3.44507 12.1061 6.53245C12.1061 9.58752 9.5878 12.1378 6.51595 12.1378Z" fill="white"/>
<path d="M9.01906 3.08778C8.61365 3.08778 8.45043 3.26655 8.27193 3.62423L6.51653 7.28025H6.50058L4.72923 3.6241C4.55018 3.26628 4.38805 3.08765 3.98169 3.08765C3.44551 3.08765 3.2666 3.42883 3.2666 3.75364V9.42456C3.2666 9.7341 3.51083 9.91205 3.80278 9.91205C4.06269 9.91205 4.35518 9.73396 4.35518 9.42456V5.20004H4.37168L5.98036 8.48243C6.09422 8.70988 6.24081 8.84052 6.50072 8.84052C6.75994 8.84052 6.90694 8.70988 7.02067 8.48243L8.62906 5.20004H8.64556V9.42456C8.64556 9.7341 8.93779 9.91205 9.19783 9.91205C9.4906 9.91205 9.73401 9.73396 9.73401 9.42456V3.75378C9.73387 3.42896 9.55565 3.08778 9.01906 3.08778Z" fill="white"/>
</svg>
