<svg width="14" height="14" viewBox="0 0 14 14" fill="none" xmlns="http://www.w3.org/2000/svg">
<g clip-path="url(#clip0)">
<path d="M6.99951 0.875C3.61709 0.875 0.874512 3.61758 0.874512 7C0.874512 10.3824 3.61709 13.125 6.99951 13.125C10.3819 13.125 13.1245 10.3824 13.1245 7C13.1245 3.61758 10.3819 0.875 6.99951 0.875ZM6.99951 12.0859C4.19131 12.0859 1.91357 9.8082 1.91357 7C1.91357 4.1918 4.19131 1.91406 6.99951 1.91406C9.80771 1.91406 12.0854 4.1918 12.0854 7C12.0854 9.8082 9.80771 12.0859 6.99951 12.0859Z" fill="#2C2C2C"/>
<path d="M6.34326 4.59375C6.34326 4.7678 6.4124 4.93472 6.53547 5.05779C6.65854 5.18086 6.82546 5.25 6.99951 5.25C7.17356 5.25 7.34048 5.18086 7.46355 5.05779C7.58662 4.93472 7.65576 4.7678 7.65576 4.59375C7.65576 4.4197 7.58662 4.25278 7.46355 4.12971C7.34048 4.00664 7.17356 3.9375 6.99951 3.9375C6.82546 3.9375 6.65854 4.00664 6.53547 4.12971C6.4124 4.25278 6.34326 4.4197 6.34326 4.59375ZM7.32764 6.125H6.67139C6.61123 6.125 6.56201 6.17422 6.56201 6.23438V9.95312C6.56201 10.0133 6.61123 10.0625 6.67139 10.0625H7.32764C7.38779 10.0625 7.43701 10.0133 7.43701 9.95312V6.23438C7.43701 6.17422 7.38779 6.125 7.32764 6.125Z" fill="#2C2C2C"/>
</g>
<defs>
<clipPath id="clip0">
<rect width="14" height="14" fill="white" transform="translate(-0.000488281)"/>
</clipPath>
</defs>
</svg>
