<svg width="159" height="23" viewBox="0 0 159 23" fill="none" xmlns="http://www.w3.org/2000/svg">
<mask id="mask0" mask-type="alpha" maskUnits="userSpaceOnUse" x="0" y="0" width="116" height="23">
<path d="M0.898438 18.88L12.9284 4.32999H1.22844V0.699987H17.6984V3.81999L6.05844 18.37H17.7884V22H0.898438V18.88Z" fill="#2C2C2C"/>
<path d="M21.027 22V0.699987H25.167V22H21.027Z" fill="#2C2C2C"/>
<path d="M44.401 19.6C42.701 21.3 40.721 22.15 38.461 22.15C37.061 22.15 35.741 21.87 34.501 21.31C33.281 20.75 32.211 19.98 31.291 19C30.391 18.02 29.671 16.87 29.131 15.55C28.611 14.21 28.351 12.77 28.351 11.23C28.351 9.76999 28.611 8.39999 29.131 7.11999C29.671 5.81999 30.401 4.68999 31.321 3.72999C32.261 2.74999 33.361 1.97999 34.621 1.41999C35.881 0.839988 37.251 0.549988 38.731 0.549988C40.731 0.549988 42.441 0.969988 43.861 1.80999C45.301 2.64999 46.381 3.77999 47.101 5.19999L44.011 7.47999C43.471 6.41999 42.711 5.60999 41.731 5.04999C40.771 4.48999 39.721 4.20999 38.581 4.20999C37.681 4.20999 36.851 4.39999 36.091 4.77999C35.351 5.15999 34.711 5.67999 34.171 6.33999C33.651 6.99999 33.241 7.75999 32.941 8.61999C32.661 9.47999 32.521 10.39 32.521 11.35C32.521 12.35 32.681 13.29 33.001 14.17C33.321 15.03 33.761 15.78 34.321 16.42C34.881 17.06 35.541 17.57 36.301 17.95C37.081 18.31 37.921 18.49 38.821 18.49C40.881 18.49 42.741 17.52 44.401 15.58V14.08H40.111V11.05H47.821V22H44.401V19.6Z" fill="#2C2C2C"/>
<path d="M71.2093 22V3.57999L62.8093 17.95H61.8493L53.4493 3.57999V22H51.9193V0.699987H53.4493L62.3293 15.94L71.2093 0.699987H72.7393V22H71.2093Z" fill="#2C2C2C"/>
<path d="M86.8658 20.74C88.3058 20.74 89.4958 20.47 90.4358 19.93C91.3958 19.39 92.1458 18.68 92.6858 17.8C93.2458 16.92 93.6358 15.92 93.8558 14.8C94.0958 13.68 94.2158 12.55 94.2158 11.41V0.699987H95.7458V11.41C95.7458 12.83 95.5858 14.19 95.2658 15.49C94.9658 16.79 94.4658 17.94 93.7658 18.94C93.0658 19.92 92.1558 20.7 91.0358 21.28C89.9158 21.86 88.5358 22.15 86.8958 22.15C85.1958 22.15 83.7758 21.85 82.6358 21.25C81.4958 20.63 80.5758 19.82 79.8758 18.82C79.1958 17.8 78.7058 16.65 78.4058 15.37C78.1258 14.09 77.9858 12.77 77.9858 11.41V0.699987H79.5158V11.41C79.5158 12.59 79.6258 13.74 79.8458 14.86C80.0858 15.98 80.4858 16.98 81.0458 17.86C81.6258 18.72 82.3858 19.42 83.3258 19.96C84.2658 20.48 85.4458 20.74 86.8658 20.74Z" fill="#2C2C2C"/>
<path d="M113.382 4.23999C112.002 2.69999 110.052 1.92999 107.532 1.92999C105.452 1.92999 103.932 2.32999 102.972 3.12999C102.032 3.90999 101.562 4.96999 101.562 6.30999C101.562 6.98999 101.682 7.55999 101.922 8.01999C102.162 8.45999 102.532 8.83999 103.032 9.15999C103.552 9.47999 104.202 9.74999 104.982 9.96999C105.762 10.19 106.702 10.42 107.802 10.66C108.942 10.9 109.972 11.17 110.892 11.47C111.832 11.75 112.622 12.11 113.262 12.55C113.922 12.99 114.422 13.53 114.762 14.17C115.122 14.81 115.302 15.6 115.302 16.54C115.302 17.48 115.112 18.3 114.732 19C114.372 19.7 113.852 20.29 113.172 20.77C112.512 21.23 111.712 21.58 110.772 21.82C109.852 22.06 108.822 22.18 107.682 22.18C104.362 22.18 101.552 21.12 99.2516 19L100.062 17.77C100.962 18.71 102.062 19.46 103.362 20.02C104.662 20.56 106.122 20.83 107.742 20.83C109.602 20.83 111.052 20.49 112.092 19.81C113.152 19.13 113.682 18.1 113.682 16.72C113.682 16.02 113.542 15.43 113.262 14.95C112.982 14.45 112.562 14.02 112.002 13.66C111.462 13.3 110.772 12.99 109.932 12.73C109.092 12.47 108.112 12.22 106.992 11.98C105.852 11.74 104.842 11.49 103.962 11.23C103.102 10.95 102.372 10.61 101.772 10.21C101.192 9.78999 100.752 9.28999 100.452 8.70999C100.152 8.12999 100.002 7.39999 100.002 6.51999C100.002 5.55999 100.182 4.70999 100.542 3.96999C100.922 3.22999 101.442 2.60999 102.102 2.10999C102.762 1.58999 103.552 1.19999 104.472 0.939988C105.392 0.679988 106.412 0.549988 107.532 0.549988C108.912 0.549988 110.142 0.759988 111.222 1.17999C112.302 1.57999 113.282 2.19999 114.162 3.03999L113.382 4.23999Z" fill="#2C2C2C"/>
</mask>
<g mask="url(#mask0)">
<path d="M0.898438 18.88L12.9284 4.32999H1.22844V0.699987H17.6984V3.81999L6.05844 18.37H17.7884V22H0.898438V18.88Z" fill="#2C2C2C"/>
<path d="M21.027 22V0.699987H25.167V22H21.027Z" fill="#2C2C2C"/>
<path d="M44.401 19.6C42.701 21.3 40.721 22.15 38.461 22.15C37.061 22.15 35.741 21.87 34.501 21.31C33.281 20.75 32.211 19.98 31.291 19C30.391 18.02 29.671 16.87 29.131 15.55C28.611 14.21 28.351 12.77 28.351 11.23C28.351 9.76999 28.611 8.39999 29.131 7.11999C29.671 5.81999 30.401 4.68999 31.321 3.72999C32.261 2.74999 33.361 1.97999 34.621 1.41999C35.881 0.839988 37.251 0.549988 38.731 0.549988C40.731 0.549988 42.441 0.969988 43.861 1.80999C45.301 2.64999 46.381 3.77999 47.101 5.19999L44.011 7.47999C43.471 6.41999 42.711 5.60999 41.731 5.04999C40.771 4.48999 39.721 4.20999 38.581 4.20999C37.681 4.20999 36.851 4.39999 36.091 4.77999C35.351 5.15999 34.711 5.67999 34.171 6.33999C33.651 6.99999 33.241 7.75999 32.941 8.61999C32.661 9.47999 32.521 10.39 32.521 11.35C32.521 12.35 32.681 13.29 33.001 14.17C33.321 15.03 33.761 15.78 34.321 16.42C34.881 17.06 35.541 17.57 36.301 17.95C37.081 18.31 37.921 18.49 38.821 18.49C40.881 18.49 42.741 17.52 44.401 15.58V14.08H40.111V11.05H47.821V22H44.401V19.6Z" fill="#2C2C2C"/>
<path d="M71.2093 22V3.57999L62.8093 17.95H61.8493L53.4493 3.57999V22H51.9193V0.699987H53.4493L62.3293 15.94L71.2093 0.699987H72.7393V22H71.2093Z" fill="#2C2C2C"/>
<path d="M86.8658 20.74C88.3058 20.74 89.4958 20.47 90.4358 19.93C91.3958 19.39 92.1458 18.68 92.6858 17.8C93.2458 16.92 93.6358 15.92 93.8558 14.8C94.0958 13.68 94.2158 12.55 94.2158 11.41V0.699987H95.7458V11.41C95.7458 12.83 95.5858 14.19 95.2658 15.49C94.9658 16.79 94.4658 17.94 93.7658 18.94C93.0658 19.92 92.1558 20.7 91.0358 21.28C89.9158 21.86 88.5358 22.15 86.8958 22.15C85.1958 22.15 83.7758 21.85 82.6358 21.25C81.4958 20.63 80.5758 19.82 79.8758 18.82C79.1958 17.8 78.7058 16.65 78.4058 15.37C78.1258 14.09 77.9858 12.77 77.9858 11.41V0.699987H79.5158V11.41C79.5158 12.59 79.6258 13.74 79.8458 14.86C80.0858 15.98 80.4858 16.98 81.0458 17.86C81.6258 18.72 82.3858 19.42 83.3258 19.96C84.2658 20.48 85.4458 20.74 86.8658 20.74Z" fill="#2C2C2C"/>
<path d="M113.382 4.23999C112.002 2.69999 110.052 1.92999 107.532 1.92999C105.452 1.92999 103.932 2.32999 102.972 3.12999C102.032 3.90999 101.562 4.96999 101.562 6.30999C101.562 6.98999 101.682 7.55999 101.922 8.01999C102.162 8.45999 102.532 8.83999 103.032 9.15999C103.552 9.47999 104.202 9.74999 104.982 9.96999C105.762 10.19 106.702 10.42 107.802 10.66C108.942 10.9 109.972 11.17 110.892 11.47C111.832 11.75 112.622 12.11 113.262 12.55C113.922 12.99 114.422 13.53 114.762 14.17C115.122 14.81 115.302 15.6 115.302 16.54C115.302 17.48 115.112 18.3 114.732 19C114.372 19.7 113.852 20.29 113.172 20.77C112.512 21.23 111.712 21.58 110.772 21.82C109.852 22.06 108.822 22.18 107.682 22.18C104.362 22.18 101.552 21.12 99.2516 19L100.062 17.77C100.962 18.71 102.062 19.46 103.362 20.02C104.662 20.56 106.122 20.83 107.742 20.83C109.602 20.83 111.052 20.49 112.092 19.81C113.152 19.13 113.682 18.1 113.682 16.72C113.682 16.02 113.542 15.43 113.262 14.95C112.982 14.45 112.562 14.02 112.002 13.66C111.462 13.3 110.772 12.99 109.932 12.73C109.092 12.47 108.112 12.22 106.992 11.98C105.852 11.74 104.842 11.49 103.962 11.23C103.102 10.95 102.372 10.61 101.772 10.21C101.192 9.78999 100.752 9.28999 100.452 8.70999C100.152 8.12999 100.002 7.39999 100.002 6.51999C100.002 5.55999 100.182 4.70999 100.542 3.96999C100.922 3.22999 101.442 2.60999 102.102 2.10999C102.762 1.58999 103.552 1.19999 104.472 0.939988C105.392 0.679988 106.412 0.549988 107.532 0.549988C108.912 0.549988 110.142 0.759988 111.222 1.17999C112.302 1.57999 113.282 2.19999 114.162 3.03999L113.382 4.23999Z" fill="#2C2C2C"/>
<path d="M1 0H48V23H1V0Z" fill="#83B373"/>
</g>
<path d="M126.38 7.36C125.913 7.33333 125.49 7.24333 125.11 7.09C124.737 6.93667 124.417 6.73 124.15 6.47C123.89 6.21 123.687 5.9 123.54 5.54C123.4 5.18 123.33 4.77333 123.33 4.32C123.33 3.87333 123.4 3.47 123.54 3.11C123.68 2.74333 123.88 2.42667 124.14 2.16C124.407 1.89333 124.727 1.68333 125.1 1.53C125.48 1.37 125.907 1.27333 126.38 1.24V0.28H127.08V1.24C127.54 1.27333 127.953 1.37 128.32 1.53C128.693 1.68333 129.007 1.89333 129.26 2.16C129.52 2.42667 129.717 2.74333 129.85 3.11C129.99 3.47 130.06 3.87333 130.06 4.32C130.06 4.77333 129.99 5.18 129.85 5.54C129.71 5.9 129.51 6.21 129.25 6.47C128.997 6.73 128.687 6.93667 128.32 7.09C127.953 7.24333 127.54 7.33333 127.08 7.36V8.37H126.38V7.36ZM127.08 6.72C127.793 6.66 128.35 6.42333 128.75 6.01C129.157 5.59 129.36 5.01667 129.36 4.29C129.36 3.56333 129.16 2.99667 128.76 2.59C128.367 2.17667 127.807 1.94333 127.08 1.89V6.72ZM126.38 1.89C125.633 1.94333 125.057 2.17667 124.65 2.59C124.243 2.99667 124.04 3.56333 124.04 4.29C124.04 5.02333 124.247 5.6 124.66 6.02C125.073 6.43333 125.647 6.66667 126.38 6.72V1.89ZM134.172 8.05C133.679 8.05 133.225 7.95 132.812 7.75C132.405 7.54333 132.055 7.27333 131.762 6.94C131.469 6.6 131.242 6.21333 131.082 5.78C130.922 5.34667 130.842 4.90333 130.842 4.45C130.842 3.97667 130.925 3.52333 131.092 3.09C131.265 2.65667 131.502 2.27333 131.802 1.94C132.102 1.60667 132.455 1.34333 132.862 1.15C133.269 0.95 133.709 0.85 134.182 0.85C134.675 0.85 135.125 0.956666 135.532 1.17C135.945 1.37667 136.295 1.65 136.582 1.99C136.875 2.33 137.102 2.71667 137.262 3.15C137.422 3.57667 137.502 4.01333 137.502 4.46C137.502 4.93333 137.415 5.38667 137.242 5.82C137.075 6.25333 136.842 6.63667 136.542 6.97C136.249 7.29667 135.899 7.56 135.492 7.76C135.085 7.95333 134.645 8.05 134.172 8.05ZM131.542 4.45C131.542 4.83667 131.605 5.21 131.732 5.57C131.859 5.92333 132.039 6.24 132.272 6.52C132.505 6.79333 132.782 7.01333 133.102 7.18C133.422 7.34 133.779 7.42 134.172 7.42C134.572 7.42 134.935 7.33333 135.262 7.16C135.589 6.98667 135.865 6.76 136.092 6.48C136.319 6.2 136.492 5.88333 136.612 5.53C136.739 5.17667 136.802 4.81667 136.802 4.45C136.802 4.06333 136.735 3.69333 136.602 3.34C136.475 2.98 136.295 2.66333 136.062 2.39C135.829 2.11667 135.552 1.9 135.232 1.74C134.912 1.57333 134.559 1.49 134.172 1.49C133.772 1.49 133.409 1.57667 133.082 1.75C132.755 1.91667 132.479 2.14 132.252 2.42C132.025 2.7 131.849 3.01667 131.722 3.37C131.602 3.72333 131.542 4.08333 131.542 4.45ZM138.822 8V0.9H141.762C142.069 0.9 142.349 0.966666 142.602 1.1C142.862 1.22667 143.085 1.39667 143.272 1.61C143.459 1.81667 143.605 2.05333 143.712 2.32C143.819 2.58667 143.872 2.85667 143.872 3.13C143.872 3.42333 143.822 3.70667 143.722 3.98C143.622 4.24667 143.482 4.48333 143.302 4.69C143.122 4.89667 142.905 5.06333 142.652 5.19C142.405 5.31667 142.129 5.38 141.822 5.38H139.522V8H138.822ZM139.522 4.76H141.792C141.999 4.76 142.185 4.71667 142.352 4.63C142.525 4.53667 142.672 4.41667 142.792 4.27C142.912 4.11667 143.005 3.94333 143.072 3.75C143.139 3.55 143.172 3.34333 143.172 3.13C143.172 2.91 143.132 2.70333 143.052 2.51C142.979 2.31 142.875 2.13667 142.742 1.99C142.615 1.84333 142.462 1.73 142.282 1.65C142.109 1.56333 141.925 1.52 141.732 1.52H139.522V4.76ZM145.822 8.07C145.689 8.07 145.552 8.05667 145.412 8.03C145.272 8.01 145.149 7.97 145.042 7.91V7.3C145.156 7.35333 145.276 7.39333 145.402 7.42C145.529 7.44667 145.652 7.46 145.772 7.46C145.892 7.46 146.002 7.44333 146.102 7.41C146.209 7.37 146.309 7.30667 146.402 7.22C146.496 7.13333 146.589 7.01667 146.682 6.87C146.782 6.71667 146.882 6.52333 146.982 6.29L144.362 0.9H145.102L147.312 5.53L149.452 0.9H150.192L147.622 6.33C147.469 6.65667 147.322 6.93 147.182 7.15C147.042 7.37 146.902 7.55 146.762 7.69C146.622 7.82333 146.476 7.92 146.322 7.98C146.176 8.04 146.009 8.07 145.822 8.07ZM157.563 8V2.17L154.973 6.68H154.563L151.973 2.17V8H151.273V0.9H151.993L154.763 5.76L157.553 0.9H158.263V8H157.563Z" fill="black"/>
</svg>
