<svg width="18" height="16" viewBox="0 0 18 16" fill="none" xmlns="http://www.w3.org/2000/svg">
<path d="M17.0273 3.5385C16.7655 2.93232 16.3881 2.38301 15.916 1.92131C15.4436 1.45823 14.8866 1.09024 14.2754 0.837325C13.6416 0.57403 12.9617 0.43926 12.2754 0.44084C11.3125 0.44084 10.373 0.704512 9.55664 1.20256C9.36133 1.3217 9.17578 1.45256 9 1.59514C8.82422 1.45256 8.63867 1.3217 8.44336 1.20256C7.62695 0.704512 6.6875 0.44084 5.72461 0.44084C5.03125 0.44084 4.35938 0.573653 3.72461 0.837325C3.11133 1.09123 2.55859 1.45647 2.08398 1.92131C1.61132 2.38249 1.23375 2.93193 0.972656 3.5385C0.701172 4.16936 0.5625 4.83928 0.5625 5.52873C0.5625 6.17912 0.695313 6.85686 0.958984 7.54631C1.17969 8.12248 1.49609 8.72014 1.90039 9.32365C2.54102 10.2787 3.42188 11.2748 4.51562 12.2846C6.32812 13.9584 8.12305 15.1147 8.19922 15.1615L8.66211 15.4584C8.86719 15.5893 9.13086 15.5893 9.33594 15.4584L9.79883 15.1615C9.875 15.1127 11.668 13.9584 13.4824 12.2846C14.5762 11.2748 15.457 10.2787 16.0977 9.32365C16.502 8.72014 16.8203 8.12248 17.0391 7.54631C17.3027 6.85686 17.4355 6.17912 17.4355 5.52873C17.4375 4.83928 17.2988 4.16936 17.0273 3.5385ZM9 13.9135C9 13.9135 2.04688 9.45842 2.04688 5.52873C2.04688 3.5385 3.69336 1.92522 5.72461 1.92522C7.15234 1.92522 8.39062 2.72209 9 3.88615C9.60938 2.72209 10.8477 1.92522 12.2754 1.92522C14.3066 1.92522 15.9531 3.5385 15.9531 5.52873C15.9531 9.45842 9 13.9135 9 13.9135Z" fill="#2C2C2C"/>
</svg>
