<svg width="22" height="22" viewBox="0 0 22 22" fill="none" xmlns="http://www.w3.org/2000/svg">
<path d="M0 3.8501V12.6501H22V3.8501H0ZM0.733333 4.58343H21.2667V8.98343H0.733333V4.58343ZM2.2 11.9168V11.1834H19.8V11.9168H2.2ZM21.2667 11.9168H20.5333V10.4501H1.46667V11.9168H0.733333V9.71676H21.2667V11.9168Z" fill="#2C2C2C"/>
<path d="M9.90039 7.5166H12.1004V8.24993H9.90039V7.5166Z" fill="#2C2C2C"/>
<path d="M6.2515 16.8795L5.97363 17.1574L6.49212 17.6759L6.76998 17.398C7.83829 16.3356 8.43698 14.8899 8.43287 13.3833H7.69954C7.70294 14.6953 7.18159 15.9541 6.2515 16.8795Z" fill="#2C2C2C"/>
<path d="M14.2998 13.3833H13.5664C13.5623 14.8899 14.161 16.3356 15.2293 17.398L15.5072 17.6759L16.0257 17.1574L15.7478 16.8795C14.8177 15.9541 14.2964 14.6953 14.2998 13.3833Z" fill="#2C2C2C"/>
<path d="M10.6338 13.3833H11.3671V18.15H10.6338V13.3833Z" fill="#2C2C2C"/>
</svg>
