<svg width="18" height="18" viewBox="0 0 18 18" fill="none" xmlns="http://www.w3.org/2000/svg">
<path d="M15.1875 4.35936H12.7969L12.2273 2.76327C12.188 2.65405 12.1159 2.55964 12.0209 2.49295C11.9259 2.42625 11.8126 2.39051 11.6965 2.39061H6.30352C6.06621 2.39061 5.85352 2.54002 5.77441 2.76327L5.20312 4.35936H2.8125C2.03555 4.35936 1.40625 4.98866 1.40625 5.76561V13.7812C1.40625 14.5582 2.03555 15.1875 2.8125 15.1875H15.1875C15.9645 15.1875 16.5938 14.5582 16.5938 13.7812V5.76561C16.5938 4.98866 15.9645 4.35936 15.1875 4.35936ZM15.3281 13.7812C15.3281 13.8586 15.2648 13.9219 15.1875 13.9219H2.8125C2.73516 13.9219 2.67188 13.8586 2.67188 13.7812V5.76561C2.67188 5.68827 2.73516 5.62498 2.8125 5.62498H6.09434L6.39492 4.78475L6.79746 3.65623H11.2008L11.6033 4.78475L11.9039 5.62498H15.1875C15.2648 5.62498 15.3281 5.68827 15.3281 5.76561V13.7812ZM9 6.74999C7.44609 6.74999 6.1875 8.00858 6.1875 9.56248C6.1875 11.1164 7.44609 12.375 9 12.375C10.5539 12.375 11.8125 11.1164 11.8125 9.56248C11.8125 8.00858 10.5539 6.74999 9 6.74999ZM9 11.25C8.06836 11.25 7.3125 10.4941 7.3125 9.56248C7.3125 8.63084 8.06836 7.87498 9 7.87498C9.93164 7.87498 10.6875 8.63084 10.6875 9.56248C10.6875 10.4941 9.93164 11.25 9 11.25Z" fill="#2C2C2C"/>
</svg>
