<svg width="20" height="20" viewBox="0 0 20 20" fill="none" xmlns="http://www.w3.org/2000/svg">
<path d="M17.6522 2H11.0435C10.8522 2 10.6957 2.15652 10.6957 2.34783V8.95652C10.6957 9.14783 10.8522 9.30435 11.0435 9.30435H17.6522C17.8435 9.30435 18 9.14783 18 8.95652V2.34783C18 2.15652 17.8435 2 17.6522 2ZM17.6522 10.6957H11.0435C10.8522 10.6957 10.6957 10.8522 10.6957 11.0435V17.6522C10.6957 17.8435 10.8522 18 11.0435 18H17.6522C17.8435 18 18 17.8435 18 17.6522V11.0435C18 10.8522 17.8435 10.6957 17.6522 10.6957ZM8.95652 2H2.34783C2.15652 2 2 2.15652 2 2.34783V8.95652C2 9.14783 2.15652 9.30435 2.34783 9.30435H8.95652C9.14783 9.30435 9.30435 9.14783 9.30435 8.95652V2.34783C9.30435 2.15652 9.14783 2 8.95652 2ZM8.95652 10.6957H2.34783C2.15652 10.6957 2 10.8522 2 11.0435V17.6522C2 17.8435 2.15652 18 2.34783 18H8.95652C9.14783 18 9.30435 17.8435 9.30435 17.6522V11.0435C9.30435 10.8522 9.14783 10.6957 8.95652 10.6957Z" fill="#2C2C2C"/>
</svg>
