<svg width="15" height="15" viewBox="0 0 15 15" fill="none" xmlns="http://www.w3.org/2000/svg">
<path d="M7.5 0.9375C3.87598 0.9375 0.9375 3.87598 0.9375 7.5C0.9375 11.124 3.87598 14.0625 7.5 14.0625C11.124 14.0625 14.0625 11.124 14.0625 7.5C14.0625 3.87598 11.124 0.9375 7.5 0.9375ZM7.03125 4.33594C7.03125 4.27148 7.08398 4.21875 7.14844 4.21875H7.85156C7.91602 4.21875 7.96875 4.27148 7.96875 4.33594V8.32031C7.96875 8.38477 7.91602 8.4375 7.85156 8.4375H7.14844C7.08398 8.4375 7.03125 8.38477 7.03125 8.32031V4.33594ZM7.5 10.7812C7.316 10.7775 7.14081 10.7018 7.01202 10.5703C6.88322 10.4389 6.81108 10.2622 6.81108 10.0781C6.81108 9.89409 6.88322 9.71739 7.01202 9.58594C7.14081 9.45448 7.316 9.37876 7.5 9.375C7.684 9.37876 7.85919 9.45448 7.98798 9.58594C8.11678 9.71739 8.18892 9.89409 8.18892 10.0781C8.18892 10.2622 8.11678 10.4389 7.98798 10.5703C7.85919 10.7018 7.684 10.7775 7.5 10.7812Z" fill="#83B373"/>
</svg>
