<svg width="20" height="20" viewBox="0 0 20 20" fill="none" xmlns="http://www.w3.org/2000/svg">
<path d="M11.1914 8.22266C10.7402 8.22266 10.3906 8.57227 10.3906 9.00391C10.3906 9.43555 10.7402 9.78516 11.1914 9.78516C11.6035 9.78516 11.9531 9.43555 11.9531 9.00391C11.9531 8.57227 11.6035 8.22266 11.1914 8.22266ZM5.72266 8.22266C5.27148 8.22266 4.92188 8.57227 4.92188 9.00391C4.92188 9.43555 5.27148 9.78516 5.72266 9.78516C6.13477 9.78516 6.48438 9.43555 6.48438 9.00391C6.48438 8.57227 6.13477 8.22266 5.72266 8.22266Z" fill="#2C2C2C"/>
<path d="M17.4617 6.73761C16.5222 5.44855 15.2097 4.58722 13.7702 4.19855V4.2005C13.4363 3.82941 13.0593 3.48761 12.6374 3.18293C9.44017 0.858708 4.95189 1.56769 2.6179 4.76496C0.737044 7.36261 0.817122 10.8568 2.73509 13.3392L2.75072 15.929C2.75072 15.9915 2.76048 16.054 2.78001 16.1126C2.88353 16.4427 3.23509 16.6243 3.56322 16.5208L6.03587 15.7415C6.69017 15.9739 7.36595 16.1068 8.03782 16.1439L8.02806 16.1517C9.76829 17.4193 12.0495 17.8001 14.1413 17.1087L16.6238 17.9173C16.6863 17.9368 16.7507 17.9486 16.8171 17.9486C17.1628 17.9486 17.4421 17.6693 17.4421 17.3236V14.7064C19.1628 12.3704 19.2077 9.14191 17.4617 6.73761ZM6.30931 14.3548L6.07493 14.2571L4.14134 14.8626L4.12181 12.8314L3.96556 12.6556C2.31322 10.64 2.20384 7.73566 3.75072 5.6048C5.63353 3.02277 9.2429 2.45246 11.8171 4.31574C14.3992 6.19269 14.9714 9.79621 13.1062 12.3626C11.5417 14.5091 8.74095 15.3021 6.30931 14.3548ZM16.1726 14.0228L16.0163 14.2181L16.0359 16.2493L14.1218 15.6048L13.8874 15.7025C12.7937 16.1087 11.6277 16.1419 10.5476 15.8392L10.5437 15.8372C11.987 15.3939 13.2956 14.4954 14.239 13.2025C15.7312 11.1458 15.9734 8.56183 15.1062 6.35871L15.1179 6.36652C15.5671 6.68879 15.9792 7.09113 16.3288 7.57746C17.7468 9.52277 17.6667 12.1712 16.1726 14.0228Z" fill="#2C2C2C"/>
<path d="M8.45703 8.22266C8.00586 8.22266 7.65625 8.57227 7.65625 9.00391C7.65625 9.43555 8.00586 9.78516 8.45703 9.78516C8.86914 9.78516 9.21875 9.43555 9.21875 9.00391C9.21875 8.57227 8.86914 8.22266 8.45703 8.22266Z" fill="#2C2C2C"/>
</svg>
