<svg width="20" height="20" viewBox="0 0 20 20" fill="none" xmlns="http://www.w3.org/2000/svg">
<path d="M16.0156 8.51562H15.2344C15.1484 8.51562 15.0781 8.58594 15.0781 8.67188V9.45312C15.0781 9.53906 15.1484 9.60938 15.2344 9.60938H16.0156C16.1016 9.60938 16.1719 9.53906 16.1719 9.45312V8.67188C16.1719 8.58594 16.1016 8.51562 16.0156 8.51562ZM16.6406 6.48438H14.2969V2.34375C14.2969 2.25781 14.2266 2.1875 14.1406 2.1875H5.85938C5.77344 2.1875 5.70312 2.25781 5.70312 2.34375V6.48438H3.35938C2.49609 6.48438 1.79688 7.18359 1.79688 8.04688V14.4531C1.79688 14.7988 2.07617 15.0781 2.42188 15.0781H5.70312V17.6562C5.70312 17.7422 5.77344 17.8125 5.85938 17.8125H14.1406C14.2266 17.8125 14.2969 17.7422 14.2969 17.6562V15.0781H17.5781C17.9238 15.0781 18.2031 14.7988 18.2031 14.4531V8.04688C18.2031 7.18359 17.5039 6.48438 16.6406 6.48438ZM7.03125 3.51562H12.9688V6.48438H7.03125V3.51562ZM12.9688 16.4844H7.03125V11.0938H12.9688V16.4844ZM16.875 13.75H14.2969V9.76562H5.70312V13.75H3.125V8.04688C3.125 7.91797 3.23047 7.8125 3.35938 7.8125H16.6406C16.7695 7.8125 16.875 7.91797 16.875 8.04688V13.75Z" fill="#2C2C2C"/>
</svg>
