<svg width="20" height="20" viewBox="0 0 20 20" fill="none" xmlns="http://www.w3.org/2000/svg">
<path d="M16.7188 7.34375H12.6562V3.28125C12.6562 3.10938 12.5156 2.96875 12.3438 2.96875H3.28125C3.10938 2.96875 2.96875 3.10938 2.96875 3.28125V12.3438C2.96875 12.5156 3.10938 12.6562 3.28125 12.6562H7.34375V16.7188C7.34375 16.8906 7.48438 17.0312 7.65625 17.0312H16.7188C16.8906 17.0312 17.0312 16.8906 17.0312 16.7188V7.65625C17.0312 7.48438 16.8906 7.34375 16.7188 7.34375ZM7.34375 7.65625V11.3281H4.29688V4.29688H11.3281V7.34375H7.65625C7.48438 7.34375 7.34375 7.48438 7.34375 7.65625ZM11.3281 8.67188V11.3281H8.67188V8.67188H11.3281ZM15.7031 15.7031H8.67188V12.6562H12.3438C12.5156 12.6562 12.6562 12.5156 12.6562 12.3438V8.67188H15.7031V15.7031Z" fill="#2C2C2C"/>
</svg>
