<svg width="20" height="20" viewBox="0 0 20 20" fill="none" xmlns="http://www.w3.org/2000/svg">
<path d="M9.06299 14.0625C9.06299 14.3111 9.16177 14.5496 9.33758 14.7254C9.5134 14.9012 9.75185 15 10.0005 15C10.2491 15 10.4876 14.9012 10.6634 14.7254C10.8392 14.5496 10.938 14.3111 10.938 14.0625C10.938 13.8139 10.8392 13.5754 10.6634 13.3996C10.4876 13.2238 10.2491 13.125 10.0005 13.125C9.75185 13.125 9.5134 13.2238 9.33758 13.3996C9.16177 13.5754 9.06299 13.8139 9.06299 14.0625ZM9.37549 8.125V11.7188C9.37549 11.8047 9.44581 11.875 9.53174 11.875H10.4692C10.5552 11.875 10.6255 11.8047 10.6255 11.7188V8.125C10.6255 8.03906 10.5552 7.96875 10.4692 7.96875H9.53174C9.44581 7.96875 9.37549 8.03906 9.37549 8.125ZM18.6665 16.7188L10.5415 2.65625C10.4204 2.44727 10.2114 2.34375 10.0005 2.34375C9.78956 2.34375 9.57862 2.44727 9.45948 2.65625L1.33448 16.7188C1.09424 17.1367 1.39503 17.6562 1.87549 17.6562H18.1255C18.606 17.6562 18.9067 17.1367 18.6665 16.7188ZM3.36378 16.1738L10.0005 4.68555L16.6372 16.1738H3.36378Z" fill="#2C2C2C"/>
</svg>
