<svg width="15" height="15" viewBox="0 0 15 15" fill="none" xmlns="http://www.w3.org/2000/svg">
<path d="M6.79725 10.5469C6.79725 10.7334 6.87133 10.9122 7.00319 11.0441C7.13505 11.1759 7.31389 11.25 7.50037 11.25C7.68685 11.25 7.86569 11.1759 7.99756 11.0441C8.12942 10.9122 8.2035 10.7334 8.2035 10.5469C8.2035 10.3604 8.12942 10.1816 7.99756 10.0497C7.86569 9.91783 7.68685 9.84375 7.50037 9.84375C7.31389 9.84375 7.13505 9.91783 7.00319 10.0497C6.87133 10.1816 6.79725 10.3604 6.79725 10.5469ZM7.03162 6.09375V8.78906C7.03162 8.85352 7.08436 8.90625 7.14881 8.90625H7.85193C7.91639 8.90625 7.96912 8.85352 7.96912 8.78906V6.09375C7.96912 6.0293 7.91639 5.97656 7.85193 5.97656H7.14881C7.08436 5.97656 7.03162 6.0293 7.03162 6.09375ZM13.9999 12.5391L7.90613 1.99219C7.81531 1.83545 7.65857 1.75781 7.50037 1.75781C7.34217 1.75781 7.18396 1.83545 7.09461 1.99219L1.00086 12.5391C0.820684 12.8525 1.04627 13.2422 1.40662 13.2422H13.5941C13.9545 13.2422 14.1801 12.8525 13.9999 12.5391ZM2.52283 12.1304L7.50037 3.51416L12.4779 12.1304H2.52283Z" fill="#EF7543"/>
</svg>
