<svg width="22" height="22" viewBox="0 0 22 22" fill="none" xmlns="http://www.w3.org/2000/svg">
<path d="M21.714 19.9888H0.285962C0.127997 19.9888 0 19.8608 0 19.7028V18.4827C0 18.3247 0.127997 18.1967 0.285962 18.1967H0.633921V10.3423H0.285962C0.127997 10.3423 0 10.2143 0 10.0564C0 9.89842 0.127997 9.77042 0.285962 9.77042H5.97398V2.29719C5.97398 2.13923 6.10198 2.01123 6.25995 2.01123H15.6659C15.8239 2.01123 15.9519 2.13923 15.9519 2.29719V9.77031H21.714C21.872 9.77031 22 9.8983 22 10.0563C22 10.2142 21.872 10.3422 21.714 10.3422H21.3757V18.1967H21.714C21.872 18.1967 22 18.3247 22 18.4827V19.7028C22 19.8608 21.872 19.9888 21.714 19.9888ZM0.571925 19.4168H21.4281V18.7686H0.571925V19.4168ZM19.8315 18.1967H20.8038V10.3423H19.8315V18.1967ZM17.9335 18.1967H19.2596V10.3423H17.9335V18.1967ZM16.0355 18.1967H17.3616V10.3423H16.0355V18.1967ZM14.1376 18.1967H15.38V10.3423H14.1376V18.1967ZM12.2396 18.1967H13.5657V10.3423H12.2396V18.1967ZM10.3418 18.1967H11.6677V10.3423H10.3418V18.1967ZM8.44378 18.1967H9.76985V10.3423H8.44378V18.1967ZM6.54591 18.1967H7.87197V10.3423H6.54591V18.1967ZM4.64792 18.1967H5.97387V10.3423H4.64792V18.1967ZM2.75004 18.1967H4.07611V10.3423H2.75004V18.1967ZM1.20585 18.1967H2.17812V10.3423H1.20585V18.1967ZM14.7186 9.77042H15.38V2.58316H6.54591V9.77031H7.2074V3.53633C7.2074 3.37836 7.33539 3.25036 7.49336 3.25036H10.4293C10.5872 3.25036 10.7152 3.37836 10.7152 3.53633V9.77031H11.2109V3.53633C11.2109 3.37836 11.3389 3.25036 11.4968 3.25036H14.4327C14.5907 3.25036 14.7187 3.37836 14.7187 3.53633V9.77042H14.7186ZM11.7827 9.7671H14.1467V3.8224H11.7827V9.7671ZM7.77921 9.7671H10.1432V3.8224H7.77921V9.7671Z" fill="#2C2C2C"/>
</svg>
