<svg width="50" height="50" viewBox="0 0 50 50" fill="none" xmlns="http://www.w3.org/2000/svg">
<g clip-path="url(#clip0)">
<path d="M49.2676 29.9678H46.5052V25.1346C46.5052 24.3034 45.8289 23.6272 44.9978 23.6272H42.3438C41.5126 23.6272 40.8363 24.3033 40.8363 25.1346V29.9678H38.8063V24.9754C38.8063 22.4348 36.7393 20.3678 34.1986 20.3678H30.6446C30.24 20.3678 29.9122 20.6957 29.9122 21.1002C29.9122 21.5047 30.24 21.8326 30.6446 21.8326H34.1986C35.9315 21.8326 37.3414 23.2425 37.3414 24.9754V33.6725H34.8818V31.7209C34.8818 30.5191 33.904 29.5413 32.7022 29.5413H28.5439C27.3421 29.5413 26.3644 30.5191 26.3644 31.7209V33.6725H23.6357V31.7209C23.6357 30.5191 22.6579 29.5413 21.4562 29.5413H17.2979C16.096 29.5413 15.1183 30.5191 15.1183 31.7209V33.6725H12.6586V24.9754C12.6586 23.2425 14.0686 21.8326 15.8015 21.8326H27.7165C28.1211 21.8326 28.4489 21.5047 28.4489 21.1002C28.4489 20.6957 28.1211 20.3678 27.7165 20.3678H15.8015C13.2607 20.3678 11.1938 22.4348 11.1938 24.9754V29.9678H9.16367V25.1346C9.16367 24.3034 8.4874 23.6272 7.65625 23.6272H5.00234C4.17109 23.6272 3.49482 24.3033 3.49482 25.1346V29.9678H0.732422C0.327832 29.9678 0 30.2956 0 30.7002V39.7325C0 40.1371 0.327832 40.465 0.732422 40.465H7.78047V41.5825H6.27432C5.86973 41.5825 5.54189 41.9104 5.54189 42.315V46.2451C5.54189 46.6497 5.86973 46.9775 6.27432 46.9775H33.4285C33.8331 46.9775 34.1609 46.6497 34.1609 46.2451C34.1609 45.8405 33.8331 45.5127 33.4285 45.5127H7.00674V43.0474H42.9934V45.5127H36.3569C35.9523 45.5127 35.6245 45.8405 35.6245 46.2451C35.6245 46.6497 35.9523 46.9775 36.3569 46.9775H43.7258C44.1304 46.9775 44.4582 46.6497 44.4582 46.2451V42.315C44.4582 41.9104 44.1304 41.5825 43.7258 41.5825H42.2196V40.465H49.2676C49.6722 40.465 50 40.1371 50 39.7325V30.7002C50 30.2957 49.6722 29.9678 49.2676 29.9678ZM42.3013 25.1346C42.3013 25.1111 42.3203 25.092 42.3438 25.092H44.9979C45.0213 25.092 45.0404 25.111 45.0404 25.1346V29.9678H42.3014V25.1346H42.3013ZM27.8292 31.7209C27.8292 31.3268 28.1498 31.0062 28.5439 31.0062H32.7022C33.0964 31.0062 33.417 31.3268 33.417 31.7209V33.6725H27.8291V31.7209H27.8292ZM16.583 31.7209C16.583 31.3268 16.9036 31.0062 17.2978 31.0062H21.4561C21.8502 31.0062 22.1708 31.3268 22.1708 31.7209V33.6725H16.5829V31.7209H16.583ZM4.95967 25.1346C4.95967 25.1111 4.97881 25.092 5.00234 25.092H7.65625C7.67969 25.092 7.69883 25.111 7.69883 25.1346V29.9678H4.95967V25.1346ZM1.46484 39.0002V31.4326H11.1937V33.6725H11.152C9.29287 33.6725 7.78047 35.1849 7.78047 37.044V39.0001H1.46484V39.0002ZM9.24531 41.5826V37.044C9.24531 35.9926 10.1007 35.1373 11.152 35.1373H38.848C39.8994 35.1373 40.7547 35.9927 40.7547 37.044V41.5826H9.24531ZM48.5352 39.0002H42.2196V37.044C42.2196 35.1849 40.7072 33.6725 38.8481 33.6725H38.8064V31.4326H48.5352V39.0002Z" fill="#2C2C2C"/>
<path d="M32.3926 8.20234V15.3311C32.3926 16.0437 32.9723 16.6234 33.6848 16.6234H40.5207C41.2333 16.6234 41.813 16.0436 41.813 15.3311V4.31465C41.813 3.60205 41.2332 3.02236 40.5207 3.02236H33.6848C32.9722 3.02236 32.3926 3.60215 32.3926 4.31465V8.19277V8.20234ZM33.8574 15.1586V9.11562C35.964 9.66543 37.6232 10.59 38.9098 11.9291C39.3617 12.3994 39.8452 12.8488 40.3481 13.272V15.1586H33.8574ZM40.3482 4.48721V11.2991C40.2186 11.1726 40.091 11.0442 39.9661 10.9143C38.4101 9.29462 36.4067 8.20966 33.8574 7.60644V4.48721H40.3482Z" fill="#2C2C2C"/>
<path d="M20.2901 8.20254V15.3311C20.2901 16.0437 20.8699 16.6234 21.5824 16.6234H28.4182C29.1308 16.6234 29.7105 16.0436 29.7105 15.3311V4.31465C29.7105 3.60205 29.1307 3.02236 28.4182 3.02236H21.5824C20.8698 3.02236 20.2901 3.60215 20.2901 4.31465V8.1955C20.29 8.19785 20.2901 8.20019 20.2901 8.20254ZM21.7549 15.1586V8.7582C23.549 8.26787 25.1309 8.09492 26.4614 8.24629C27.0088 8.30849 27.6107 8.34775 28.2456 8.38408V15.1587H21.7549V15.1586ZM28.2456 4.48721V6.91679C27.6631 6.8831 27.1142 6.84619 26.6267 6.79082C25.1882 6.62734 23.5867 6.77588 21.7548 7.24267V4.48721H28.2456Z" fill="#2C2C2C"/>
<path d="M27.7169 25.5436H22.2842C21.8796 25.5436 21.5518 25.8715 21.5518 26.2761C21.5518 26.6807 21.8796 27.0085 22.2842 27.0085H27.7169C28.1215 27.0085 28.4493 26.6807 28.4493 26.2761C28.4493 25.8715 28.1215 25.5436 27.7169 25.5436Z" fill="#2C2C2C"/>
<path d="M9.47979 16.6234H16.3156C17.0282 16.6234 17.6079 16.0436 17.6079 15.3311V4.31465C17.6079 3.60205 17.0281 3.02236 16.3156 3.02236H9.47979C8.76719 3.02236 8.1875 3.60215 8.1875 4.31465V7.16611C8.1875 7.5706 8.51533 7.89853 8.91992 7.89853C9.32451 7.89853 9.65234 7.5706 9.65234 7.16611V4.48721H16.1432V9.55898C15.5635 9.83603 14.9626 10.135 14.3489 10.4526C12.5148 11.4023 10.87 11.712 9.65234 11.7783V10.0946C9.65234 9.69013 9.32451 9.3622 8.91992 9.3622C8.51533 9.3622 8.1875 9.69013 8.1875 10.0946V15.3311C8.1875 16.0437 8.76719 16.6234 9.47979 16.6234ZM15.0226 11.7534C15.4018 11.557 15.7761 11.3679 16.1432 11.1869V15.1587H9.65234V13.2459C11.0406 13.1798 12.9297 12.8372 15.0226 11.7534Z" fill="#2C2C2C"/>
<path d="M7.04834 33.6725H5.61133C5.20674 33.6725 4.87891 34.0003 4.87891 34.4049C4.87891 34.8095 5.20674 35.1373 5.61133 35.1373H7.04834C7.45293 35.1373 7.78077 34.8095 7.78077 34.4049C7.78077 34.0003 7.45293 33.6725 7.04834 33.6725Z" fill="#2C2C2C"/>
<path d="M44.3902 33.6725H42.9531C42.5485 33.6725 42.2207 34.0003 42.2207 34.4049C42.2207 34.8095 42.5485 35.1373 42.9531 35.1373H44.3902C44.7948 35.1373 45.1227 34.8095 45.1227 34.4049C45.1227 34.0003 44.7947 33.6725 44.3902 33.6725Z" fill="#2C2C2C"/>
</g>
<defs>
<clipPath id="clip0">
<rect width="50" height="50" fill="white"/>
</clipPath>
</defs>
</svg>
