<svg width="22" height="22" viewBox="0 0 22 22" fill="none" xmlns="http://www.w3.org/2000/svg">
<path d="M18.541 21.3341V16.9803C20.4638 16.8162 21.9785 15.199 21.9785 13.2345V7.77132H21.334V13.2345C21.334 14.8434 20.1079 16.1712 18.541 16.3331V14.6141L20.1654 12.9897L19.7096 12.534L18.541 13.7026V10.4891L20.1654 8.86471L19.7096 8.40898L18.541 9.57756V4.89852H17.8965V7.51506L16.7279 6.34644L16.2721 6.80216L17.8965 8.42651V11.64L16.7279 10.4714L16.2721 10.9271L17.8965 12.5515V16.333C16.3296 16.1712 15.1035 14.8433 15.1035 13.2344V4.45654H14.459V13.2345C14.459 15.199 15.9737 16.8162 17.8965 16.9803V21.3341H16.543V21.9786H22V21.3341H18.541Z" fill="#2C2C2C"/>
<path d="M15.1035 3.78125C15.1035 2.06349 16.501 0.666016 18.2188 0.666016C19.1766 0.666016 20.0346 1.1009 20.6065 1.7832H19.207V2.42773H21.0242C21.1228 2.63119 21.199 2.84724 21.2516 3.07227H19.8086V3.7168H21.3324C21.3328 3.73832 21.334 3.75964 21.334 3.78125V7.12671H21.9785V3.78125C21.9785 1.70809 20.2919 0.0214844 18.2188 0.0214844C16.1456 0.0214844 14.459 1.70809 14.459 3.78125V3.81193H15.1035V3.78125Z" fill="#2C2C2C"/>
<path d="M14.8457 19.0781C14.8457 17.4788 13.5446 16.1777 11.9453 16.1777C11.6105 16.1777 11.289 16.2354 10.9895 16.3403L10.3346 15.0613L10.4305 14.8887H10.2462L9.80233 14.0217L10.6439 13.6009L10.0082 12.1387H8.29297V12.7832H9.5856L9.80925 13.2976L8.93209 13.7362L9.52218 14.8887H5.13477V14.2441H6.35938V13.5996H3.78125V14.2441H4.49023V15.1364L3.89825 16.3473C3.59296 16.2378 3.26434 16.1777 2.92188 16.1777C1.32258 16.1777 0.0214844 17.4788 0.0214844 19.0781C0.0214844 19.9885 0.443437 20.8019 1.10168 21.334H0V21.9785H15.8984V21.334H13.7655C14.4237 20.8019 14.8457 19.9885 14.8457 19.0781ZM9.33509 15.5332L7.69304 18.4889L5.45991 15.5332H9.33509ZM4.87162 15.8238L7.08701 18.7559H5.80396C5.70479 17.8634 5.19909 17.0923 4.4767 16.6316L4.87162 15.8238ZM4.1916 17.2147C4.70229 17.5638 5.06254 18.117 5.15436 18.7559H3.43814L4.1916 17.2147ZM2.92188 21.334C1.67797 21.334 0.666016 20.322 0.666016 19.0781C0.666016 17.8342 1.67797 16.8223 2.92188 16.8223C3.16289 16.8223 3.39496 16.8606 3.6129 16.9309L2.40561 19.4004H5.15436C4.99744 20.4921 4.05634 21.334 2.92188 21.334ZM4.74207 21.334C5.32151 20.8655 5.71742 20.1791 5.80392 19.4004H7.924L9.95779 15.7395L10.4086 16.62C9.59037 17.1334 9.04492 18.043 9.04492 19.0781C9.04492 19.9885 9.46688 20.8019 10.1251 21.334H4.74207ZM11.9453 21.334C10.7014 21.334 9.68945 20.322 9.68945 19.0781C9.68945 18.2928 10.0931 17.6002 10.7036 17.1961L11.8304 19.3969L12.4041 19.1031L11.2866 16.9206C11.4951 16.8569 11.7162 16.8223 11.9454 16.8223C13.1893 16.8223 14.2012 17.8342 14.2012 19.0781C14.2012 20.322 13.1892 21.334 11.9453 21.334Z" fill="#2C2C2C"/>
<path d="M11.0374 18.7473L10.4317 18.5269C10.2848 18.9308 10.304 19.3683 10.4861 19.7587C10.6682 20.1491 10.9909 20.4451 11.3948 20.5921L11.6152 19.9864C11.1143 19.8041 10.8551 19.2483 11.0374 18.7473Z" fill="#2C2C2C"/>
<path d="M2.014 18.7473L1.40831 18.5269C1.26131 18.9308 1.28061 19.3683 1.46266 19.7587C1.64472 20.1491 1.96746 20.4451 2.37137 20.5921L2.5918 19.9864C2.09087 19.8041 1.83164 19.2483 2.014 18.7473Z" fill="#2C2C2C"/>
<path d="M13.4045 18.3974C13.2225 18.007 12.8997 17.711 12.4958 17.564L12.2754 18.1697C12.7763 18.352 13.0355 18.9079 12.8532 19.4088L13.4589 19.6293C13.6059 19.2253 13.5866 18.7878 13.4045 18.3974Z" fill="#2C2C2C"/>
<path d="M5.26655 6.06031C4.72643 6.16898 4.31836 6.64713 4.31836 7.21879C4.31836 7.87036 4.84842 8.40042 5.5 8.40042H8.42733V7.7559H5.5C5.20382 7.7559 4.96289 7.51497 4.96289 7.21879C4.96289 6.9226 5.20382 6.68168 5.5 6.68168C5.50816 6.68168 5.51628 6.68198 5.52441 6.68232L5.83413 6.69637L5.86012 6.38743C5.89815 5.93561 6.28354 5.58168 6.73746 5.58168C6.83285 5.58168 6.92721 5.59711 7.01783 5.62753L7.23727 5.70118L7.37713 5.51671C7.64401 5.16476 8.04985 4.96289 8.49054 4.96289C9.05489 4.96289 9.56063 5.29925 9.77891 5.81981L9.88075 6.06267L10.139 6.01124C10.1961 5.9999 10.2544 5.99414 10.3124 5.99414C10.7981 5.99414 11.1933 6.38928 11.1933 6.87499C11.1933 7.36071 10.7981 7.75585 10.3124 7.75585H9.07178V8.40038H10.3125C11.1536 8.40038 11.8379 7.71611 11.8379 6.87499C11.8379 6.03388 11.1536 5.34961 10.3125 5.34961C10.2968 5.34961 10.281 5.34986 10.2652 5.35034C9.9055 4.71638 9.23274 4.31836 8.49063 4.31836C7.91966 4.31836 7.38891 4.55 7.00421 4.96057C6.91638 4.94497 6.82722 4.93711 6.7375 4.93711C6.04536 4.93715 5.44526 5.41243 5.26655 6.06031Z" fill="#2C2C2C"/>
<path d="M3.13672 4.5332C4.02523 4.5332 4.74805 3.81038 4.74805 2.92188C4.74805 2.03337 4.02523 1.31055 3.13672 1.31055C2.24821 1.31055 1.52539 2.03337 1.52539 2.92188C1.52539 3.81038 2.24821 4.5332 3.13672 4.5332ZM3.13672 1.95508C3.66983 1.95508 4.10352 2.38876 4.10352 2.92188C4.10352 3.45499 3.66983 3.88867 3.13672 3.88867C2.60361 3.88867 2.16992 3.45499 2.16992 2.92188C2.16992 2.38876 2.60361 1.95508 3.13672 1.95508Z" fill="#2C2C2C"/>
<path d="M2.81445 0.0214844H3.45898V0.666016H2.81445V0.0214844Z" fill="#2C2C2C"/>
<path d="M2.81445 5.17773H3.45898V5.82227H2.81445V5.17773Z" fill="#2C2C2C"/>
<path d="M0.857422 1.09888L1.31311 0.643192L1.76879 1.09888L1.31311 1.55456L0.857422 1.09888Z" fill="#2C2C2C"/>
<path d="M4.50391 4.74487L4.95959 4.28919L5.41527 4.74487L4.95959 5.20055L4.50391 4.74487Z" fill="#2C2C2C"/>
<path d="M0.236328 2.59961H0.880859V3.24414H0.236328V2.59961Z" fill="#2C2C2C"/>
<path d="M5.39258 2.59961H6.03711V3.24414H5.39258V2.59961Z" fill="#2C2C2C"/>
<path d="M0.857422 4.74463L1.3131 4.28895L1.76879 4.74463L1.3131 5.20031L0.857422 4.74463Z" fill="#2C2C2C"/>
<path d="M4.50391 1.09937L4.95959 0.643681L5.41528 1.09937L4.95959 1.55505L4.50391 1.09937Z" fill="#2C2C2C"/>
<path d="M9.66797 3.63086H12.4609C13.3494 3.63086 14.0723 2.90804 14.0723 2.01953C14.0723 1.13102 13.3494 0.408203 12.4609 0.408203C12.0241 0.408203 11.6087 0.586438 11.3077 0.894695C11.1802 0.857227 11.0472 0.837891 10.9141 0.837891C10.6954 0.837891 10.4835 0.888078 10.291 0.984457C10.0986 0.888078 9.88664 0.837891 9.66797 0.837891C8.89797 0.837891 8.27148 1.46438 8.27148 2.23438C8.27148 3.00437 8.89797 3.63086 9.66797 3.63086ZM9.66797 1.48242C9.82523 1.48242 9.97593 1.53068 10.1038 1.62194L10.291 1.75549L10.4782 1.62194C10.6061 1.53068 10.7568 1.48242 10.9141 1.48242C11.0351 1.48242 11.1508 1.51048 11.258 1.56578L11.5078 1.69469L11.6695 1.46468C11.8508 1.20673 12.1467 1.05273 12.4609 1.05273C12.9941 1.05273 13.4277 1.48642 13.4277 2.01953C13.4277 2.55264 12.9941 2.98633 12.4609 2.98633H9.66797C9.25336 2.98633 8.91602 2.64898 8.91602 2.23438C8.91602 1.81977 9.25336 1.48242 9.66797 1.48242Z" fill="#2C2C2C"/>
<path d="M17.918 1.7832H18.5625V2.42773H17.918V1.7832Z" fill="#2C2C2C"/>
<path d="M16.543 14.5449H17.1875V15.1895H16.543V14.5449Z" fill="#2C2C2C"/>
<path d="M15.8555 13.2559H16.5V13.9004H15.8555V13.2559Z" fill="#2C2C2C"/>
</svg>
