<svg width="189" height="214" viewBox="0 0 189 214" fill="none" xmlns="http://www.w3.org/2000/svg">
<g clip-path="url(#clip0)">
<path d="M126.27 212.444C126.271 211.559 113.478 210.822 97.6964 210.797C81.9143 210.771 69.1192 211.468 69.1178 212.352C69.1164 213.237 81.9091 213.974 97.6912 213.999C113.473 214.025 126.268 213.328 126.27 212.444Z" fill="#E6E6E6"/>
<path d="M94.086 155.09C77.1858 155.09 60.8085 149.248 47.7444 138.56C34.6804 127.872 25.7379 112.999 22.4409 96.4745C19.1438 79.9504 21.696 62.7978 29.6627 47.9393C37.6293 33.0808 50.5176 21.4358 66.1313 14.9884C81.745 8.54098 99.1182 7.69012 115.291 12.5808C131.463 17.4714 145.434 27.801 154.824 41.8095C164.213 55.8179 168.439 72.6385 166.783 89.4052C165.126 106.172 157.689 121.847 145.739 133.761C138.972 140.544 130.922 145.922 122.056 149.583C113.189 153.244 103.683 155.116 94.086 155.09ZM94.086 10.0263C54.1283 10.0263 21.6203 42.4335 21.6203 82.2674C21.6203 122.101 54.1283 154.509 94.086 154.509C134.044 154.509 166.552 122.101 166.552 82.2674C166.552 42.4335 134.044 10.0263 94.086 10.0263Z" fill="#E6E6E6"/>
<path d="M53.3119 84.6176H47.7676V103.75H53.3119V84.6176Z" fill="#2C2C2C"/>
<path d="M56.9724 100.151L43.4877 84.1583L16.4199 84.405L0 100.349L0.331901 100.561H0.213302V133.724H56.936V100.561L56.9724 100.151Z" fill="#2C2C2C"/>
<path d="M43.5025 84.1924L26.6562 103.881V133.724H56.9367V100.136L43.5025 84.1924Z" fill="#F9CB4A"/>
<path d="M44.9946 117.221H38.8105V122.67H44.9946V117.221Z" fill="#2C2C2C"/>
<path d="M44.9946 107.789H38.8105V113.152H44.9946V107.789Z" fill="#2C2C2C"/>
<path d="M44.9946 117.221H38.8105V122.67H44.9946V117.221Z" fill="white"/>
<path d="M44.9946 107.789H38.8105V113.152H44.9946V107.789Z" fill="white"/>
<path d="M17.5122 115.775H11.3281V121.224H17.5122V115.775Z" fill="#2C2C2C"/>
<path d="M17.5122 106.343H11.3281V111.706H17.5122V106.343Z" fill="#2C2C2C"/>
<path d="M17.5122 115.775H11.3281V121.224H17.5122V115.775Z" fill="white"/>
<path d="M17.5122 106.343H11.3281V111.706H17.5122V106.343Z" fill="white"/>
<path d="M141.234 0.459229H135.689V19.5917H141.234V0.459229Z" fill="#2C2C2C"/>
<path d="M132.064 16.403V68.7378H188.786V16.403H188.668L189 16.1904L172.58 0.246629L145.512 0L132.027 15.9926L132.064 16.403Z" fill="#2C2C2C"/>
<path d="M132.064 15.9778V68.7378H162.345V19.7234L145.499 0.0340576L132.064 15.9778Z" fill="#F9CB4A"/>
<path d="M150.19 33.0625H144.006V38.5116H150.19V33.0625Z" fill="#2C2C2C"/>
<path d="M150.19 23.6307H144.006V28.9934H150.19V23.6307Z" fill="#2C2C2C"/>
<path d="M150.19 33.0625H144.006V38.5116H150.19V33.0625Z" fill="white"/>
<path d="M150.19 23.6307H144.006V28.9934H150.19V23.6307Z" fill="white"/>
<path d="M177.672 31.6166H171.488V37.0656H177.672V31.6166Z" fill="#2C2C2C"/>
<path d="M177.672 22.1848H171.488V27.5475H177.672V22.1848Z" fill="#2C2C2C"/>
<path d="M177.672 31.6166H171.488V37.0656H177.672V31.6166Z" fill="white"/>
<path d="M177.672 22.1848H171.488V27.5475H177.672V22.1848Z" fill="white"/>
<path d="M150.19 52.2344H144.006V57.6834H150.19V52.2344Z" fill="white"/>
<path d="M150.19 42.8026H144.006V48.1653H150.19V42.8026Z" fill="white"/>
<path d="M177.672 50.7885H171.488V56.2375H177.672V50.7885Z" fill="white"/>
<path d="M177.672 41.3567H171.488V46.7193H177.672V41.3567Z" fill="white"/>
<path d="M97.4484 61.1682C102.371 61.1682 106.362 57.1899 106.362 52.2825C106.362 47.3751 102.371 43.3969 97.4484 43.3969C92.5258 43.3969 88.5352 47.3751 88.5352 52.2825C88.5352 57.1899 92.5258 61.1682 97.4484 61.1682Z" fill="#FFE2B7"/>
<path d="M88.2949 68.3727L103.472 68.1326C102.166 64.5467 101.6 61.1892 102.508 58.2863L90.9448 57.0856C92.5072 60.848 91.6239 64.6103 88.2949 68.3727Z" fill="#FFE2B7"/>
<path d="M75.0456 127.931L77.5658 134.63C77.782 135.205 77.8646 135.821 77.8072 136.433C77.7498 137.044 77.5541 137.634 77.2346 138.159C76.9152 138.684 76.4804 139.13 75.963 139.463C75.4456 139.796 74.8592 140.008 74.2479 140.082C73.663 140.153 73.0696 140.097 72.5087 139.917C71.9478 139.737 71.4328 139.438 70.9993 139.04C70.5657 138.642 70.224 138.155 69.9977 137.613C69.7714 137.071 69.6659 136.486 69.6886 135.899L69.9867 128.171L72.1548 88.5455L81.0681 91.1872L75.0456 127.931Z" fill="#FFE2B7"/>
<path d="M84.4402 202.378L91.6671 201.658L98.1714 138.738L107.326 202.858L114.071 202.618L115.757 132.253H83.4766L84.4402 202.378Z" fill="#2F2E41"/>
<path d="M108.048 48.9203C108.048 48.9203 105.639 54.2037 103.953 54.4438C102.267 54.684 99.3759 57.3257 99.8577 58.5264C100.339 59.7272 100.099 63.3295 95.2806 62.8492C90.4626 62.3689 90.7035 61.8886 90.7035 61.8886C90.7035 61.8886 82.9947 47.2392 90.9444 43.3968C98.8941 39.5543 105.88 42.4362 108.048 48.9203Z" fill="#2F2E41"/>
<path d="M114.439 199.181L114.15 205.243C114.15 205.243 118.563 212.104 113.062 212.104C113.007 212.104 113.116 212.104 113.062 212.104C109.083 212.092 105.487 213.877 105.958 209.938L106.622 204.377L107.78 198.315L114.439 199.181Z" fill="#2F2E41"/>
<path d="M84.5004 199.181L84.79 205.243C84.79 205.243 80.3769 212.104 85.8782 212.104C85.9332 212.104 85.8239 212.104 85.8782 212.104C89.8568 212.092 93.4526 213.877 92.9823 209.938L92.3182 204.377L91.16 198.315L84.5004 199.181Z" fill="#2F2E41"/>
<path d="M80.8273 135.135L116.721 133.454C110.027 112.039 109.978 94.5161 118.408 78.3807C118.408 76.6927 117.911 75.0416 116.981 73.6315C116.05 72.2214 114.725 71.1141 113.17 70.4462L102.749 65.9712L89.4997 66.6916L80.757 71.4852C79.045 72.4239 77.6327 73.824 76.6815 75.5255C75.7304 77.227 75.279 79.161 75.3788 81.1062C83.0329 99.3211 83.4701 117.282 80.8273 135.135Z" fill="#E6E6E6"/>
<path d="M87.3306 93.3486L67.3359 89.9865L70.6301 81.8331C71.7885 78.9662 73.5536 76.3821 75.8051 74.2573C78.0566 72.1325 80.7415 70.5169 83.6764 69.5209L85.6443 68.853L87.3306 93.3486Z" fill="#E6E6E6"/>
<path d="M150.05 75.0184L156.205 72.4619C156.828 72.2032 157.387 71.8122 157.842 71.3161C158.298 70.8201 158.639 70.2309 158.843 69.5897C159.047 68.9485 159.108 68.2708 159.022 67.6037C158.936 66.9366 158.705 66.2962 158.345 65.7272C157.958 65.1148 157.432 64.6016 156.81 64.2289C156.187 63.8561 155.486 63.6342 154.761 63.5811C154.037 63.5279 153.311 63.645 152.64 63.9229C151.97 64.2007 151.374 64.6316 150.901 65.1809L146.334 70.4845L128.432 83.291L116.262 78.255L114.812 88.3175L130.016 92.2651L150.05 75.0184Z" fill="#FFE2B7"/>
<path d="M117.607 92.2148L127.514 82.919L124.892 79.7235C122.548 73.9221 117.159 71.5364 111.22 69.5209L109.252 68.853L107.699 84.6619L117.607 92.2148Z" fill="#E6E6E6"/>
</g>
<defs>
<clipPath id="clip0">
<rect width="189" height="214" fill="white"/>
</clipPath>
</defs>
</svg>
