<svg width="13" height="13" viewBox="0 0 13 13" fill="none" xmlns="http://www.w3.org/2000/svg">
<path d="M12.9813 5.00848C12.9365 4.87058 12.8174 4.77009 12.6739 4.74927L8.64387 4.16363L6.84153 0.51179C6.77739 0.38179 6.64498 0.2995 6.50002 0.2995C6.35504 0.2995 6.22266 0.38179 6.15849 0.51179L4.35607 4.16363L0.326087 4.74927C0.182656 4.77009 0.0634476 4.87058 0.0186587 5.00845C-0.0261556 5.14635 0.0112193 5.2977 0.115041 5.39888L3.03109 8.24145L2.34281 12.2553C2.31828 12.3982 2.37703 12.5425 2.49431 12.6278C2.56066 12.676 2.63924 12.7005 2.7182 12.7005C2.77884 12.7005 2.83967 12.686 2.89538 12.6567L6.5 10.7616L10.1045 12.6567C10.2328 12.7242 10.3883 12.713 10.5056 12.6277C10.6228 12.5425 10.6816 12.3981 10.6571 12.2552L9.9686 8.24145L12.885 5.39886C12.9888 5.2977 13.0262 5.14635 12.9813 5.00848Z" fill="#F9CB4A"/>
</svg>
