<svg width="304" height="210" viewBox="0 0 304 210" fill="none" xmlns="http://www.w3.org/2000/svg">
<g clip-path="url(#clip0)">
<path d="M217.36 143.594C217.36 162.599 206.033 169.234 192.06 169.234C178.088 169.234 166.761 162.599 166.761 143.594C166.761 124.589 192.06 100.412 192.06 100.412C192.06 100.412 217.36 124.589 217.36 143.594Z" fill="#83B373"/>
<path d="M191.397 150.422L202.18 130.745L191.438 147.927L191.554 140.775L198.986 126.539L191.585 138.883L191.794 126.02L199.753 114.687L191.827 123.998L191.958 100.412L191.171 130.298L183.112 117.994L191.074 132.82L190.32 147.185L190.297 146.803L180.97 133.804L190.269 148.15L190.175 149.947L190.158 149.974L190.166 150.121L188.253 169.291H190.808L191.115 167.742L200.391 153.431L191.138 166.327L191.397 150.422Z" fill="#2C2C2C"/>
<path d="M304 82.4876C304 118.791 282.362 131.467 255.671 131.467C228.98 131.467 207.343 118.791 207.343 82.4876C207.343 46.184 255.671 0 255.671 0C255.671 0 304 46.184 304 82.4876Z" fill="#F2F2F2"/>
<path d="M253.911 125.914L254.406 95.5309L275.005 57.943L254.484 90.7646L254.706 77.1032L268.903 49.9088L254.765 73.488V73.4883L255.165 48.9175L270.367 27.2674L255.228 45.0538L255.478 0L253.907 59.6432L254.036 57.1827L238.58 33.5853L253.788 61.9057L252.348 89.3469L252.305 88.6186L234.487 63.7859L252.251 91.1917L252.071 94.6235L252.039 94.6752L252.054 94.9568L248.4 164.577H253.282L253.867 128.617L271.588 101.278L253.911 125.914Z" fill="#2C2C2C"/>
<path opacity="0.1" d="M150.833 185.064C185.816 185.064 214.176 182.876 214.176 180.177C214.176 177.478 185.816 175.29 150.833 175.29C115.85 175.29 87.4902 177.478 87.4902 180.177C87.4902 182.876 115.85 185.064 150.833 185.064Z" fill="#2C2C2C"/>
<path d="M100.652 82.2495C100.652 82.2495 119.196 82.592 115.762 85.8461C112.328 89.1001 99.4502 85.8461 99.4502 85.8461L100.652 82.2495Z" fill="#FFE7A8"/>
<path d="M62.0155 42.7251C62.0155 42.7251 69.5027 41.3914 72.106 47.4202C74.7093 53.4489 80.0558 70.6425 80.0558 70.6425C80.0558 70.6425 94.3637 80.0891 96.9661 79.7787C99.5686 79.4683 104.017 80.1016 103.201 82.9335C102.385 85.7654 102.748 88.9765 100.869 89.3701C98.9901 89.7637 96.0021 86.0069 93.7153 87.8164C91.4285 89.6259 71.0486 83.0166 69.7402 81.6472C68.4318 80.2777 57.5586 50.6241 57.5586 50.6241C57.5586 50.6241 57.9935 42.6285 62.0155 42.7251Z" fill="#F9CB4A"/>
<path d="M78.0736 170.023L78.9321 177.216L71.7206 179.1L67.5996 177.216V170.879L78.0736 170.023Z" fill="#FFE7A8"/>
<path d="M58.6703 174.647L59.5288 181.84L52.3173 183.724L48.1963 181.84V175.503L58.6703 174.647Z" fill="#FFE7A8"/>
<path d="M78.7609 91.4121L82.0233 103.229L86.8311 127.207C86.8311 127.207 88.2047 133.03 85.4574 140.051C82.7102 147.073 77.7307 170.023 78.7609 171.393C79.7912 172.763 67.085 173.791 67.2567 172.42C67.4284 171.05 69.1455 152.211 69.1455 152.211C69.1455 152.211 71.5493 135.598 72.7513 133.543C73.9532 131.488 67.2567 126.35 67.2567 126.35C67.2567 126.35 65.5397 146.046 62.9641 147.758C60.3885 149.471 60.7319 176.017 59.53 176.36C58.328 176.702 49.5711 178.072 48.5409 176.36C47.5107 174.647 48.5409 146.046 48.5409 146.046C48.5409 146.046 54.3788 124.295 53.1769 121.212C51.975 118.129 52.6618 104.942 52.6618 104.942C52.6618 104.942 48.1975 94.8374 50.6013 89.5282L78.7609 91.4121Z" fill="#2C2C2C"/>
<path d="M78.2457 25.6462C78.2457 25.6462 71.034 34.552 71.3775 38.4911C71.7209 42.4302 60.0449 31.298 60.0449 31.298C60.0449 31.298 68.4585 19.9945 68.4585 17.5968C68.4585 15.1991 78.2457 25.6462 78.2457 25.6462Z" fill="#FFE7A8"/>
<path d="M78.1597 28.986C84.4184 28.986 89.4922 23.9253 89.4922 17.6825C89.4922 11.4398 84.4184 6.37903 78.1597 6.37903C71.9009 6.37903 66.8271 11.4398 66.8271 17.6825C66.8271 23.9253 71.9009 28.986 78.1597 28.986Z" fill="#FFE7A8"/>
<path d="M49.6001 85.0051C49.0867 86.913 48.4497 89.0761 48.5407 90.8983C48.5991 92.0784 51.7396 92.8525 56.082 93.3594C60.1085 93.8304 65.1686 94.0702 69.7686 94.1935C74.5986 94.3237 78.917 94.3236 80.9929 94.3236C87.1743 94.3236 82.1949 90.3846 79.791 88.5006C77.3871 86.6167 77.9022 59.8994 78.0739 56.4741C78.2456 53.0487 76.5286 43.1154 76.5286 41.2315C76.5286 39.3475 72.4884 34.4305 72.4884 34.4305C72.4884 34.4305 71.5492 37.1211 67.7716 33.5245C63.9941 29.928 59.0147 28.9004 59.0147 28.9004C55.2372 30.2705 48.8841 45.3418 48.5407 47.9108C48.4016 48.9538 48.5167 54.2956 48.7502 60.3943C49.0884 69.3087 49.6791 79.8466 50.086 80.965C50.4071 81.847 50.0517 83.3267 49.6001 85.0051Z" fill="#F9CB4A"/>
<path d="M67.9423 95.0088L69.1442 99.2905L64.5082 104.086L62.9629 97.4064L67.9423 95.0088Z" fill="#FFE7A8"/>
<path d="M69.489 175.332C69.489 175.332 73.0948 179.443 75.8421 176.702C78.5893 173.962 78.4176 172.249 78.9327 172.249C79.4479 172.249 87.1746 179.1 87.1746 179.1C87.1746 179.1 100.396 182.183 93.1843 184.409C85.9726 186.636 65.5398 185.094 65.5398 184.409C65.5398 183.724 65.0246 174.647 66.9134 174.647L69.489 175.332Z" fill="#2C2C2C"/>
<path d="M50.0856 179.956C50.0856 179.956 53.6914 184.067 56.4387 181.326C59.186 178.586 59.0143 176.874 59.5294 176.874C60.0445 176.874 67.7712 183.724 67.7712 183.724C67.7712 183.724 80.9925 186.807 73.7809 189.033C66.5693 191.26 46.1364 189.718 46.1364 189.033C46.1364 188.348 45.6213 179.271 47.5101 179.271L50.0856 179.956Z" fill="#2C2C2C"/>
<path d="M65.4365 26.7055C65.0704 26.9414 64.5938 27.1805 64.2273 26.9453C62.8644 23.5551 61.8458 20.0373 61.1865 16.4444C60.9551 15.1824 60.7945 13.7795 61.4974 12.705C61.7746 12.2813 62.1737 11.9347 62.3767 11.471C62.6842 10.7688 62.4818 9.956 62.584 9.19652C62.798 7.60542 64.3059 6.49566 65.8223 5.95745C67.3386 5.41923 68.9855 5.25228 70.4309 4.54604C71.8033 3.87544 72.9025 2.76329 74.1751 1.91933C75.4478 1.07537 77.0779 0.498324 78.4952 1.06861C79.7489 1.57312 80.5299 2.84781 81.7149 3.49684C82.5191 3.93727 83.4524 4.05983 84.35 4.24889C86.8449 4.77687 89.1873 5.86233 91.2009 7.42362C91.6908 7.77221 92.1133 8.20658 92.4477 8.70562C93.9684 11.203 91.2456 14.5982 92.4469 17.2631L89.8499 15.2191C89.1563 14.6141 88.3742 14.1182 87.5305 13.7489C86.6703 13.4239 85.6515 13.3846 84.8701 13.8687C83.7735 14.5481 83.4761 15.9675 83.093 17.1972C82.7099 18.4268 81.8628 19.7904 80.5723 19.7589C78.8172 19.716 78.2034 17.273 76.6283 16.4995C75.6016 15.9952 74.3091 16.3273 73.4338 17.0627C72.5585 17.798 72.0333 18.865 71.6481 19.9399C71.4073 20.6116 71.1815 21.3687 70.7539 21.951C70.2823 22.5932 69.6792 22.6448 69.1755 23.1244C67.8644 24.3726 67.0583 25.6604 65.4365 26.7055Z" fill="#2C2C2C"/>
<path opacity="0.1" d="M49.5999 85.0051C51.7342 88.093 54.1398 91.2786 56.0818 93.3594C60.1083 93.8304 65.1684 94.0702 69.7684 94.1935C68.9466 93.0821 67.9191 92.138 66.7412 91.4121C64.5091 90.042 59.1862 73.7718 59.1862 73.7718C59.1862 73.7718 65.711 56.9878 67.4281 50.651C69.1451 44.3142 62.4486 40.7177 62.4486 40.7177C59.3579 38.1487 54.0351 44.143 54.0351 44.143C54.0351 44.143 51.3187 52.3157 48.75 60.3943C49.0883 69.3087 49.6789 79.8466 50.0859 80.965C50.407 81.847 50.0515 83.3267 49.5999 85.0051Z" fill="#2C2C2C"/>
<path d="M61.9334 39.3475C61.9334 39.3475 68.6299 42.9441 66.9128 49.2809C65.1958 55.6177 58.671 72.4017 58.671 72.4017C58.671 72.4017 63.9938 88.6719 66.226 90.042C68.4582 91.4122 71.5489 94.6662 69.145 96.3789C66.7411 98.0915 65.0241 100.832 63.307 99.9754C61.59 99.1191 61.59 94.3237 58.671 94.3237C55.752 94.3237 43.9044 76.5121 43.7327 74.6282C43.561 72.7443 53.5198 42.7728 53.5198 42.7728C53.5198 42.7728 58.8427 36.7786 61.9334 39.3475Z" fill="#F9CB4A"/>
<path d="M201.178 86.1593L199.247 84.2326C198.12 83.1088 196.592 82.4774 194.999 82.4774C193.405 82.4774 191.877 83.1088 190.75 84.2326L153.283 121.604L115.815 84.2326C114.688 83.1088 113.16 82.4774 111.567 82.4774C109.973 82.4774 108.445 83.1088 107.318 84.2326L105.387 86.1593C104.829 86.7158 104.386 87.3764 104.084 88.1034C103.782 88.8305 103.627 89.6097 103.627 90.3967C103.627 91.1836 103.782 91.9629 104.084 92.6899C104.386 93.4169 104.829 94.0775 105.387 94.634L142.854 132.006L105.387 169.378C104.829 169.934 104.386 170.595 104.084 171.322C103.782 172.049 103.627 172.828 103.627 173.615C103.627 174.402 103.782 175.181 104.084 175.908C104.386 176.635 104.829 177.296 105.387 177.852L107.318 179.779C108.445 180.903 109.973 181.534 111.567 181.534C113.16 181.534 114.688 180.903 115.815 179.779L153.283 142.407L190.75 179.779C191.877 180.903 193.405 181.534 194.999 181.534C196.592 181.534 198.12 180.903 199.247 179.779L201.178 177.852C202.305 176.729 202.938 175.204 202.938 173.615C202.938 172.026 202.305 170.501 201.178 169.378L163.711 132.006L201.178 94.634C202.305 93.5102 202.938 91.986 202.938 90.3967C202.938 88.8073 202.305 87.2831 201.178 86.1593Z" fill="#EF7543"/>
<path opacity="0.1" d="M104.05 171.409L140.405 135.147L140.055 134.798L105.387 169.378C104.806 169.956 104.351 170.648 104.05 171.409Z" fill="#2C2C2C"/>
<path opacity="0.1" d="M104.869 87.3742C105.996 86.2503 107.524 85.619 109.117 85.619C110.71 85.619 112.239 86.2503 113.365 87.3742L150.833 124.746L188.301 87.3742C189.428 86.2503 190.956 85.619 192.549 85.619C194.143 85.619 195.671 86.2503 196.797 87.3742L198.729 89.3009C199.558 90.1276 200.126 91.1781 200.363 92.3229C200.601 93.4677 200.498 94.6568 200.066 95.7438L201.179 94.634C201.737 94.0775 202.179 93.4169 202.481 92.6899C202.783 91.9628 202.938 91.1836 202.938 90.3967C202.938 89.6097 202.783 88.8305 202.481 88.1034C202.179 87.3764 201.737 86.7158 201.179 86.1593L199.247 84.2326C198.12 83.1088 196.592 82.4774 194.999 82.4774C193.405 82.4774 191.877 83.1088 190.751 84.2326L153.283 121.604L115.815 84.2326C114.688 83.1088 113.16 82.4774 111.567 82.4774C109.973 82.4774 108.445 83.1088 107.319 84.2326L105.387 86.1593C104.806 86.7379 104.351 87.4295 104.05 88.1911L104.869 87.3742Z" fill="#2C2C2C"/>
<path opacity="0.1" d="M164.06 132.355L161.261 135.147L198.728 172.519C199.557 173.346 200.125 174.396 200.363 175.541C200.6 176.686 200.497 177.875 200.066 178.962L201.178 177.852C201.736 177.296 202.179 176.635 202.481 175.908C202.783 175.181 202.938 174.402 202.938 173.615C202.938 172.828 202.783 172.049 202.481 171.322C202.179 170.595 201.736 169.934 201.178 169.378L164.06 132.355Z" fill="#2C2C2C"/>
<path d="M43.6269 157.273C43.6269 173.057 34.2195 178.568 22.6147 178.568C11.01 178.568 1.60254 173.057 1.60254 157.273C1.60254 141.489 22.6147 121.409 22.6147 121.409C22.6147 121.409 43.6269 141.489 43.6269 157.273Z" fill="#83B373"/>
<path d="M22.0655 162.944L31.0216 146.601L22.0993 160.872L22.1961 154.932L28.3684 143.108L22.2217 153.36L22.3957 142.677L29.0051 133.264L22.423 140.997L22.5316 121.409L21.8778 146.23L15.1847 136.011L21.7967 148.324L21.1707 160.255L21.1521 159.938L13.4053 149.142L21.1285 161.057L21.0502 162.549L21.0362 162.572L21.0426 162.694L19.454 178.615H21.5766L21.8313 177.329L29.5357 165.443L21.8505 176.154L22.0655 162.944Z" fill="#2C2C2C"/>
</g>
<defs>
<clipPath id="clip0">
<rect width="304" height="210" fill="white"/>
</clipPath>
</defs>
</svg>
