<svg width="30" height="30" viewBox="0 0 30 30" fill="none" xmlns="http://www.w3.org/2000/svg">
<path d="M27.56 29.454L27.0746 27.5126C27.0257 27.3169 26.85 27.1797 26.6483 27.1797H26.1171V25.6776C26.1171 25.4348 25.9203 25.2381 25.6776 25.2381H19.3223V24.1733H25.6777C25.9204 24.1733 26.1172 23.9766 26.1172 23.7339V21.7923C26.1172 21.5496 25.9204 21.3528 25.6777 21.3528H25.1464V20.8242C25.1464 15.7079 21.3398 11.4647 16.4102 10.7762V9.61523H17.9121C18.1548 9.61523 18.3515 9.41853 18.3515 9.17578C18.3515 8.93303 18.1548 8.73633 17.9121 8.73633H12.0879C11.8452 8.73633 11.6484 8.93303 11.6484 9.17578C11.6484 9.41853 11.8452 9.61523 12.0879 9.61523H13.5899V10.7762C8.66012 11.4646 4.85347 15.7079 4.85347 20.8242V21.3528H4.32226C4.07957 21.3528 3.88281 21.5496 3.88281 21.7923V23.7339C3.88281 23.9766 4.07957 24.1733 4.32226 24.1733H10.6777V25.2381H4.3222C4.07951 25.2381 3.88275 25.4348 3.88275 25.6776V27.1797H3.35154C3.18507 27.1797 3.03291 27.2737 2.95849 27.4226L1.98783 29.364C1.91969 29.5002 1.92695 29.6621 2.00705 29.7916C2.08715 29.9212 2.22859 30 2.38088 30H27.1337C27.2691 30 27.3968 29.9376 27.4801 29.831C27.5634 29.7244 27.5929 29.5853 27.56 29.454ZM14.4688 9.61523H15.5313V10.6915C15.3553 10.6824 15.1781 10.6777 14.9999 10.6777C14.8218 10.6777 14.6447 10.6824 14.4688 10.6915V9.61523ZM4.76165 23.2945V22.2318H5.24628C5.26157 22.2334 5.2771 22.2343 5.29286 22.2343C5.30863 22.2343 5.32415 22.2334 5.33945 22.2318H7.46827C7.71096 22.2318 7.90772 22.0351 7.90772 21.7924C7.90772 21.5497 7.71096 21.3529 7.46827 21.3529H5.73237V20.8242C5.73237 15.714 9.88977 11.5566 14.9999 11.5566C20.11 11.5566 24.2675 15.714 24.2675 20.8242V21.3529H9.22426C8.98157 21.3529 8.78481 21.5497 8.78481 21.7924C8.78481 22.0351 8.98157 22.2318 9.22426 22.2318H24.6603C24.6756 22.2334 24.6911 22.2343 24.7069 22.2343C24.7226 22.2343 24.7382 22.2334 24.7535 22.2318H25.2382V23.2945H4.76165ZM18.4434 24.1734V25.2382H11.5566V24.1734H18.4434ZM4.76165 26.117H11.1148C11.1156 26.117 11.1164 26.1172 11.1171 26.1172C11.1179 26.1172 11.1187 26.117 11.1194 26.117H18.8806C18.8813 26.117 18.8821 26.1172 18.8828 26.1172C18.8836 26.1172 18.8844 26.117 18.8851 26.117H25.2383V27.1797H4.76165V26.117ZM3.09191 29.1211L3.62312 28.0586H26.3052L26.5708 29.1211H3.09191Z" fill="#2C2C2C"/>
<path d="M15 0C14.7573 0 14.5605 0.196699 14.5605 0.439452V2.38078C14.5605 2.62347 14.7573 2.82023 15 2.82023C15.2427 2.82023 15.4395 2.62353 15.4395 2.38078V0.439452C15.4395 0.196699 15.2428 0 15 0Z" fill="#2C2C2C"/>
<path d="M9.07004 3.85168L8.09938 2.17046C7.97803 1.96022 7.7092 1.88833 7.49908 2.00962C7.28891 2.13097 7.2169 2.39973 7.33824 2.60991L8.30891 4.29114C8.39029 4.43211 8.53801 4.51092 8.68988 4.51092C8.76447 4.51092 8.84 4.49194 8.9092 4.45198C9.11943 4.33063 9.19144 4.06186 9.07004 3.85168Z" fill="#2C2C2C"/>
<path d="M4.29164 8.30966L2.61041 7.33899C2.40018 7.21764 2.13147 7.2896 2.01012 7.49983C1.88877 7.71001 1.96078 7.97878 2.17096 8.10013L3.85219 9.0708C3.92139 9.11076 3.99697 9.12974 4.07151 9.12974C4.22338 9.12974 4.3711 9.05093 4.45248 8.90996C4.57377 8.69978 4.50176 8.43101 4.29164 8.30966Z" fill="#2C2C2C"/>
<path d="M2.38078 14.5605H0.439452C0.196757 14.5605 0 14.7572 0 15C0 15.2428 0.196757 15.4395 0.439452 15.4395H2.38078C2.62347 15.4395 2.82023 15.2428 2.82023 15C2.82023 14.7572 2.62353 14.5605 2.38078 14.5605Z" fill="#2C2C2C"/>
<path d="M29.5605 14.5605H27.6191C27.3764 14.5605 27.1797 14.7572 27.1797 15C27.1797 15.2428 27.3764 15.4395 27.6191 15.4395H29.5605C29.8032 15.4395 29.9999 15.2428 29.9999 15C29.9999 14.7572 29.8031 14.5605 29.5605 14.5605Z" fill="#2C2C2C"/>
<path d="M27.9896 7.4998C27.8682 7.28957 27.5995 7.21767 27.3893 7.33896L25.7081 8.30963C25.4979 8.43098 25.4259 8.69975 25.5472 8.90993C25.6286 9.05096 25.7763 9.12971 25.9282 9.12971C26.0027 9.12971 26.0783 9.11073 26.1475 9.07077L27.8287 8.1001C28.039 7.97875 28.111 7.70998 27.9896 7.4998Z" fill="#2C2C2C"/>
<path d="M22.501 2.00962C22.2908 1.88833 22.022 1.96022 21.9007 2.17046L20.93 3.85168C20.8087 4.06186 20.8807 4.33063 21.0909 4.45198C21.1601 4.49194 21.2357 4.51092 21.3102 4.51092C21.4621 4.51092 21.6098 4.43211 21.6912 4.29114L22.6618 2.60991C22.7832 2.39973 22.7112 2.13097 22.501 2.00962Z" fill="#2C2C2C"/>
</svg>
