<svg width="30" height="30" viewBox="0 0 30 30" fill="none" xmlns="http://www.w3.org/2000/svg">
<path d="M24.912 27.9676H5.09095C4.98343 27.9676 4.88032 27.9249 4.80429 27.8488C4.72826 27.7728 4.68555 27.6697 4.68555 27.5622V14.845C4.6855 14.7866 4.69809 14.7288 4.72244 14.6757C4.74679 14.6226 4.78233 14.5754 4.82663 14.5373L14.7376 6.03556C14.811 5.97275 14.9045 5.93823 15.0011 5.93823C15.0977 5.93823 15.1912 5.97275 15.2646 6.03556L25.1772 14.5373C25.2215 14.5754 25.257 14.6226 25.2814 14.6757C25.3057 14.7288 25.3183 14.7866 25.3183 14.845V27.5622C25.3183 27.6155 25.3077 27.6683 25.2873 27.7175C25.2669 27.7667 25.237 27.8115 25.1992 27.8491C25.1615 27.8868 25.1167 27.9166 25.0674 27.937C25.0181 27.9573 24.9653 27.9677 24.912 27.9676ZM5.49636 27.1568H24.5066V15.0315L15.0015 6.87718L5.49636 15.0315V27.1568Z" fill="#2C2C2C"/>
<path d="M27.6185 27.9676H2.38197C2.27445 27.9676 2.17133 27.9248 2.0953 27.8488C2.01927 27.7728 1.97656 27.6697 1.97656 27.5621C1.97656 27.4546 2.01927 27.3515 2.0953 27.2755C2.17133 27.1995 2.27445 27.1567 2.38197 27.1567H27.6185C27.726 27.1567 27.8291 27.1995 27.9051 27.2755C27.9811 27.3515 28.0239 27.4546 28.0239 27.5621C28.0239 27.6697 27.9811 27.7728 27.9051 27.8488C27.8291 27.9248 27.726 27.9676 27.6185 27.9676Z" fill="#2C2C2C"/>
<path d="M26.9836 17.0296C26.8867 17.0297 26.7929 16.995 26.7193 16.9319L15.001 6.87783L3.28483 16.9319C3.20327 17.0019 3.09724 17.0367 2.99004 17.0286C2.88284 17.0204 2.78327 16.9701 2.71321 16.8885L0.909563 14.7897C0.84044 14.7087 0.805946 14.6038 0.813531 14.4976C0.821117 14.3914 0.870173 14.2925 0.950104 14.2222L14.7339 2.13417C14.8078 2.0694 14.9028 2.03369 15.001 2.03369C15.0993 2.03369 15.1943 2.0694 15.2682 2.13417L29.052 14.2222C29.1319 14.2925 29.181 14.3914 29.1886 14.4976C29.1962 14.6038 29.1617 14.7087 29.0925 14.7897L27.2909 16.8885C27.2529 16.9328 27.2057 16.9683 27.1527 16.9926C27.0996 17.017 27.042 17.0296 26.9836 17.0296ZM15.001 5.9381C15.0979 5.93811 15.1915 5.97276 15.265 6.0358L26.9398 16.0542L28.2173 14.5659L15.001 2.97701L1.78483 14.5659L3.06227 16.0542L14.7379 6.03742C14.811 5.97398 14.9043 5.93875 15.001 5.9381Z" fill="#2C2C2C"/>
<path d="M12.6123 23.3735H8.15931C8.05179 23.3735 7.94867 23.3308 7.87265 23.2548C7.79662 23.1787 7.75391 23.0756 7.75391 22.9681V19.6876C7.75391 18.9895 8.03119 18.3201 8.52477 17.8265C9.01834 17.333 9.68778 17.0557 10.3858 17.0557C11.0838 17.0557 11.7533 17.333 12.2468 17.8265C12.7404 18.3201 13.0177 18.9895 13.0177 19.6876V22.9681C13.0177 23.0756 12.975 23.1787 12.899 23.2548C12.8229 23.3308 12.7198 23.3735 12.6123 23.3735ZM8.56472 22.5627H12.2069V19.6876C12.2069 19.2046 12.015 18.7414 11.6735 18.3999C11.332 18.0583 10.8688 17.8665 10.3858 17.8665C9.90282 17.8665 9.43962 18.0583 9.0981 18.3999C8.75658 18.7414 8.56472 19.2046 8.56472 19.6876V22.5627Z" fill="#2C2C2C"/>
<path d="M12.5396 20.8533H8.16127C8.05374 20.8533 7.95063 20.8106 7.8746 20.7346C7.79857 20.6585 7.75586 20.5554 7.75586 20.4479C7.75586 20.3404 7.79857 20.2373 7.8746 20.1612C7.95063 20.0852 8.05374 20.0425 8.16127 20.0425H12.5396C12.6472 20.0425 12.7503 20.0852 12.8263 20.1612C12.9023 20.2373 12.9451 20.3404 12.9451 20.4479C12.9451 20.5554 12.9023 20.6585 12.8263 20.7346C12.7503 20.8106 12.6472 20.8533 12.5396 20.8533Z" fill="#2C2C2C"/>
<path d="M10.3449 23.3736C10.2373 23.3736 10.1342 23.3309 10.0582 23.2549C9.98217 23.1788 9.93945 23.0757 9.93945 22.9682L9.94999 20.4474C9.94999 20.3399 9.99271 20.2368 10.0687 20.1607C10.1448 20.0847 10.2479 20.042 10.3554 20.042C10.4629 20.042 10.566 20.0847 10.6421 20.1607C10.7181 20.2368 10.7608 20.3399 10.7608 20.4474L10.7503 22.9686C10.7502 23.0761 10.7074 23.1791 10.6314 23.255C10.5554 23.3309 10.4523 23.3736 10.3449 23.3736Z" fill="#2C2C2C"/>
<path d="M21.8855 27.9677H15.9503C15.8428 27.9677 15.7397 27.925 15.6637 27.8489C15.5876 27.7729 15.5449 27.6698 15.5449 27.5623V19.1647C15.5449 19.0572 15.5876 18.954 15.6637 18.878C15.7397 18.802 15.8428 18.7593 15.9503 18.7593H21.8855C21.993 18.7593 22.0961 18.802 22.1721 18.878C22.2482 18.954 22.2909 19.0572 22.2909 19.1647V27.5623C22.2909 27.6698 22.2482 27.7729 22.1721 27.8489C22.0961 27.925 21.993 27.9677 21.8855 27.9677ZM16.3557 27.1569H21.4801V19.5701H16.3557V27.1569Z" fill="#2C2C2C"/>
<path d="M15.0012 15.0476C14.5602 15.0476 14.1291 14.9168 13.7624 14.6718C13.3958 14.4268 13.11 14.0786 12.9412 13.6712C12.7725 13.2637 12.7283 12.8154 12.8143 12.3829C12.9004 11.9503 13.1127 11.553 13.4246 11.2412C13.7364 10.9294 14.1337 10.717 14.5662 10.631C14.9987 10.5449 15.4471 10.5891 15.8545 10.7579C16.2619 10.9266 16.6102 11.2124 16.8552 11.5791C17.1002 11.9458 17.231 12.3769 17.231 12.8179C17.2302 13.409 16.995 13.9757 16.5771 14.3937C16.1591 14.8117 15.5924 15.0469 15.0012 15.0476ZM15.0012 11.3989C14.7206 11.3989 14.4462 11.4822 14.2129 11.6381C13.9796 11.794 13.7977 12.0156 13.6903 12.2749C13.5829 12.5341 13.5548 12.8194 13.6096 13.0947C13.6643 13.3699 13.7995 13.6228 13.9979 13.8212C14.1963 14.0196 14.4492 14.1548 14.7244 14.2095C14.9996 14.2643 15.2849 14.2362 15.5442 14.1288C15.8035 14.0214 16.0251 13.8395 16.181 13.6062C16.3369 13.3728 16.4201 13.0985 16.4201 12.8179C16.4202 12.6315 16.3835 12.4469 16.3122 12.2747C16.241 12.1025 16.1365 11.9461 16.0047 11.8143C15.8729 11.6825 15.7165 11.5779 15.5443 11.5066C15.3721 11.4353 15.1876 11.3985 15.0012 11.3985V11.3989Z" fill="#2C2C2C"/>
<path d="M23.3522 7.34392C23.2485 7.34408 23.1487 7.3045 23.0733 7.23332C22.9979 7.16213 22.9526 7.06475 22.9468 6.96122C22.9427 6.87524 22.9216 6.79094 22.8846 6.71322C22.8476 6.6355 22.7955 6.56591 22.7314 6.50852C22.6672 6.45113 22.5923 6.40708 22.511 6.37894C22.4296 6.35079 22.3435 6.33912 22.2576 6.34459C22.1507 6.34907 22.0463 6.31168 21.9666 6.24035C21.8869 6.16903 21.8381 6.06942 21.8307 5.9627C21.8277 5.90954 21.8352 5.85631 21.8528 5.80604C21.8703 5.75578 21.8976 5.70946 21.9331 5.66975C21.9685 5.63003 22.0115 5.59769 22.0594 5.57457C22.1074 5.55145 22.1595 5.538 22.2126 5.535C22.5999 5.5146 22.9796 5.64798 23.269 5.90613C23.5584 6.16428 23.7342 6.52629 23.758 6.91338C23.761 6.96654 23.7535 7.01977 23.736 7.07004C23.7184 7.1203 23.6911 7.16662 23.6557 7.20633C23.6202 7.24605 23.5773 7.27839 23.5293 7.30151C23.4813 7.32463 23.4293 7.33808 23.3761 7.34108L23.3522 7.34392Z" fill="#2C2C2C"/>
<path d="M28.1689 7.38279C28.0653 7.38296 27.9655 7.34343 27.8901 7.27233C27.8147 7.20123 27.7694 7.10395 27.7635 7.00049C27.6756 5.47327 26.9857 4.04324 25.8449 3.02402C24.7042 2.0048 23.2058 1.4796 21.6784 1.5636C21.6251 1.56716 21.5716 1.56006 21.5211 1.5427C21.4706 1.52534 21.4241 1.49808 21.3843 1.46252C21.3444 1.42695 21.3121 1.3838 21.2892 1.33558C21.2662 1.28736 21.2531 1.23505 21.2507 1.18171C21.2446 1.07441 21.2813 0.969088 21.3529 0.888888C21.4244 0.808687 21.5248 0.760171 21.6321 0.754003C23.3749 0.657405 25.0847 1.25633 26.3862 2.41928C27.6877 3.58223 28.4745 5.21414 28.5739 6.95671C28.5769 7.00987 28.5694 7.0631 28.5519 7.11336C28.5343 7.16363 28.507 7.20994 28.4715 7.24966C28.4361 7.28938 28.3931 7.32172 28.3452 7.34484C28.2972 7.36796 28.2452 7.38141 28.192 7.38441L28.1689 7.38279Z" fill="#2C2C2C"/>
<path d="M25.8325 7.51443C25.7288 7.51459 25.629 7.47501 25.5536 7.40382C25.4782 7.33264 25.4329 7.23526 25.4271 7.13172C25.3749 6.2233 24.9645 5.37268 24.2858 4.76654C23.6072 4.1604 22.7158 3.84826 21.8073 3.89862C21.7539 3.90258 21.7003 3.89575 21.6496 3.87854C21.5989 3.86133 21.5523 3.8341 21.5123 3.79846C21.4724 3.76282 21.4401 3.7195 21.4173 3.6711C21.3945 3.6227 21.3816 3.57019 21.3796 3.51672C21.3765 3.46347 21.3841 3.41014 21.4017 3.3598C21.4193 3.30946 21.4467 3.26309 21.4823 3.22336C21.5179 3.18363 21.561 3.15131 21.6091 3.12826C21.6572 3.1052 21.7094 3.09187 21.7627 3.08902C22.8859 3.02683 23.9879 3.41279 24.8268 4.1622C25.6658 4.91161 26.1731 5.96325 26.2375 7.08632C26.2406 7.13948 26.2331 7.19271 26.2155 7.24298C26.1979 7.29324 26.1706 7.33956 26.1352 7.37927C26.0997 7.41899 26.0568 7.45133 26.0088 7.47445C25.9609 7.49757 25.9088 7.51102 25.8556 7.51402L25.8325 7.51443Z" fill="#2C2C2C"/>
</svg>
