<svg width="30" height="30" viewBox="0 0 30 30" fill="none" xmlns="http://www.w3.org/2000/svg">
<g clip-path="url(#clip0)">
<path d="M29.2786 4.08511H24.8935V0.536071C24.8935 0.254073 24.6838 0 24.4021 0H0.721243C0.430519 0.010472 0.198388 0.245346 0.191406 0.536071V8.64245C0.191406 8.92445 0.438996 9.12766 0.721243 9.12766H1.97864V11.3552C1.97864 12.3952 2.82164 13.2382 3.86162 13.2382C4.9016 13.2382 5.7446 12.3952 5.7446 11.3552V9.38298H7.468V13.2701C7.468 14.3101 8.311 15.1531 9.35098 15.1531C10.391 15.1531 11.234 14.3101 11.234 13.2701V9.12766H24.4021C24.5327 9.13265 24.6597 9.08353 24.7529 8.99152C24.8459 8.89952 24.8968 8.77335 24.8935 8.64245V5.10638H28.7872V15.1915H13.7744C13.642 15.188 13.5141 15.2386 13.4201 15.3319C13.3261 15.4251 13.2743 15.5528 13.2765 15.6849V18.8298H10.7373C10.4498 18.8353 10.2182 19.0672 10.2127 19.3546V29.4639C10.2172 29.7537 10.4478 29.989 10.7373 30H16.5585C16.8405 30 17.0425 29.7457 17.0425 29.4639V19.3546C17.0425 19.0726 16.8405 18.8298 16.5585 18.8298H14.2978V16.2128H29.2786C29.5678 16.2063 29.8009 15.9742 29.8084 15.6849V4.59674C29.7997 4.31075 29.5646 4.08386 29.2786 4.08511ZM23.8723 8.10638H10.7425C10.4518 8.11685 10.2197 8.35173 10.2127 8.64245V13.2701C10.2127 13.7461 9.82696 14.1318 9.35098 14.1318C8.875 14.1318 8.48928 13.7461 8.48928 13.2701V8.89777C8.48928 8.61577 8.27959 8.3617 7.99784 8.3617H5.25316C4.96243 8.37217 4.7303 8.60705 4.72332 8.89777V11.3552C4.72332 11.8312 4.3376 12.2169 3.86162 12.2169C3.38564 12.2169 2.99992 11.8312 2.99992 11.3552V8.64245C2.99992 8.36046 2.79023 8.10638 2.50848 8.10638H1.21268V1.02128H23.8723V8.10638ZM16.0212 28.9787H11.234V19.8511H16.0212V28.9787Z" fill="#2C2C2C"/>
</g>
<defs>
<clipPath id="clip0">
<rect width="30" height="30" fill="white"/>
</clipPath>
</defs>
</svg>
