<svg width="30" height="30" viewBox="0 0 30 30" fill="none" xmlns="http://www.w3.org/2000/svg">
<path d="M28.0664 26.409H27.2234V1.07273C27.2243 0.944776 27.1745 0.821664 27.0848 0.730405C26.9951 0.639146 26.8728 0.587191 26.7449 0.585938H3.4401C3.31214 0.587191 3.1899 0.639144 3.10019 0.730401C3.01048 0.821659 2.96063 0.944771 2.96156 1.07273V26.409H1.93359C1.80932 26.4092 1.69017 26.4586 1.60229 26.5465C1.51441 26.6343 1.46498 26.7535 1.46484 26.8778V28.9453C1.46498 29.0696 1.51441 29.1887 1.60229 29.2766C1.69017 29.3645 1.80932 29.4139 1.93359 29.4141H28.0664C28.1907 29.4139 28.3098 29.3645 28.3977 29.2766C28.4856 29.1887 28.535 29.0696 28.5352 28.9453V26.8778C28.535 26.7535 28.4856 26.6343 28.3977 26.5465C28.3098 26.4586 28.1907 26.4092 28.0664 26.409ZM15.1699 26.409L15.2956 14.7445H26.5202V26.409H15.1699ZM26.5202 14.0414H15.3029L15.4403 1.28906H26.5204L26.5202 14.0414ZM14.7371 1.28906L14.5997 14.0414H3.66469V1.28906H14.7371ZM3.66469 14.7445H14.5924L14.4668 26.409H3.66469V14.7445ZM27.832 28.7109H2.16797V27.1121H27.832V28.7109Z" fill="#2C2C2C"/>
<path d="M6.26756 7.09078C6.34402 7.14414 6.43854 7.16495 6.53034 7.14862C6.62213 7.13229 6.70368 7.08017 6.75705 7.00371L9.42892 3.17713C9.4823 3.10067 9.50312 3.00614 9.4868 2.91433C9.47048 2.82252 9.41836 2.74096 9.34191 2.68758C9.26545 2.6342 9.17092 2.61338 9.07911 2.62969C8.9873 2.64601 8.90574 2.69813 8.85236 2.77459L6.18049 6.60123C6.15406 6.63909 6.13534 6.68179 6.12541 6.72688C6.11548 6.77197 6.11453 6.81858 6.12262 6.86404C6.1307 6.9095 6.14767 6.95292 6.17253 6.99183C6.1974 7.03073 6.22969 7.06436 6.26756 7.09078Z" fill="#2C2C2C"/>
<path d="M8.39946 7.50798C8.43844 7.53273 8.48191 7.54956 8.5274 7.55751C8.57288 7.56546 8.61949 7.56437 8.66455 7.5543C8.70961 7.54423 8.75225 7.52539 8.79003 7.49884C8.82781 7.4723 8.85999 7.43857 8.88473 7.39958L10.3587 5.07752C10.408 4.99881 10.4242 4.90378 10.4037 4.8132C10.3831 4.72262 10.3276 4.64383 10.2492 4.59406C10.1708 4.54428 10.0759 4.52756 9.98516 4.54754C9.89446 4.56752 9.81534 4.62258 9.7651 4.7007L8.29112 7.02271C8.26637 7.06169 8.24953 7.10516 8.24158 7.15064C8.23363 7.19612 8.23471 7.24272 8.24477 7.28779C8.25484 7.33285 8.27367 7.37549 8.30022 7.41327C8.32676 7.45105 8.36048 7.48323 8.39946 7.50798Z" fill="#2C2C2C"/>
<path d="M21.5484 17.4947C21.5105 17.4683 21.4678 17.4496 21.4228 17.4396C21.3777 17.4297 21.3311 17.4287 21.2856 17.4368C21.2401 17.4449 21.1967 17.4619 21.1578 17.4867C21.1189 17.5116 21.0853 17.5439 21.0589 17.5818L18.3873 21.4083C18.3604 21.4462 18.3413 21.489 18.331 21.5342C18.3207 21.5795 18.3195 21.6264 18.3274 21.6721C18.3354 21.7179 18.3523 21.7616 18.3772 21.8008C18.4021 21.8399 18.4345 21.8738 18.4726 21.9004C18.5106 21.9269 18.5536 21.9457 18.599 21.9556C18.6443 21.9655 18.6912 21.9663 18.7369 21.958C18.7825 21.9496 18.8261 21.9323 18.8651 21.9071C18.904 21.8818 18.9376 21.8491 18.9638 21.8108L21.6354 17.9842C21.6618 17.9464 21.6806 17.9037 21.6905 17.8586C21.7004 17.8135 21.7014 17.7669 21.6933 17.7214C21.6852 17.676 21.6683 17.6326 21.6434 17.5937C21.6185 17.5548 21.5863 17.5211 21.5484 17.4947Z" fill="#2C2C2C"/>
<path d="M22.4575 19.3995C22.3787 19.3495 22.2834 19.3329 22.1924 19.3532C22.1014 19.3735 22.0222 19.4292 21.9722 19.5079L20.4982 21.8299C20.4734 21.8689 20.4566 21.9123 20.4486 21.9578C20.4407 22.0033 20.4417 22.0499 20.4518 22.095C20.4618 22.1401 20.4807 22.1827 20.5072 22.2205C20.5337 22.2583 20.5674 22.2905 20.6064 22.3153C20.6454 22.34 20.6889 22.3569 20.7344 22.3648C20.7799 22.3728 20.8265 22.3717 20.8715 22.3617C20.9166 22.3516 20.9593 22.3328 20.9971 22.3063C21.0349 22.2797 21.0671 22.246 21.0918 22.2071L22.5658 19.885C22.5906 19.846 22.6075 19.8025 22.6154 19.757C22.6234 19.7115 22.6223 19.6649 22.6123 19.6198C22.6022 19.5747 22.5833 19.532 22.5568 19.4942C22.5302 19.4564 22.4965 19.4242 22.4575 19.3995Z" fill="#2C2C2C"/>
</svg>
