<svg width="22" height="23" viewBox="0 0 22 23" fill="none" xmlns="http://www.w3.org/2000/svg">
<g clip-path="url(#clip0)">
<path d="M11.0011 3.53979C6.56076 3.53979 2.92773 7.15301 2.92773 11.5691C2.92773 15.9853 6.56076 19.5985 11.0011 19.5985C15.4415 19.5985 19.0745 15.9853 19.0745 11.5692C19.0745 7.15305 15.4415 3.53979 11.0011 3.53979ZM11.0011 18.8686C6.96441 18.8686 3.66165 15.5838 3.66165 11.5691C3.66165 7.55445 6.96441 4.26975 11.0011 4.26975C15.0378 4.26975 18.3406 7.55449 18.3406 11.5692C18.3406 15.5839 15.0378 18.8686 11.0011 18.8686Z" fill="black"/>
<path d="M3.73396 4.34276C3.88074 4.19679 3.88074 3.9778 3.73396 3.83179C3.58719 3.68577 3.367 3.68581 3.22019 3.83179C-1.0734 8.10195 -1.0734 15.0364 3.22019 19.3065C3.29359 19.3796 3.36696 19.416 3.47705 19.416C3.58714 19.416 3.66055 19.3796 3.73392 19.3065C3.88069 19.1606 3.88069 18.9416 3.73392 18.7956C-0.26607 14.8174 -0.266069 8.32093 3.73396 4.34276Z" fill="black"/>
<path d="M18.7801 3.83183C18.6333 3.68586 18.4132 3.68586 18.2663 3.83183C18.1195 3.97781 18.1196 4.19679 18.2663 4.34281C22.2663 8.32098 22.2663 14.8175 18.2663 18.7957C18.1196 18.9416 18.1196 19.1606 18.2663 19.3066C18.3398 19.3796 18.4131 19.4161 18.5232 19.4161C18.6333 19.4161 18.7067 19.3796 18.7801 19.3066C23.0737 15.0364 23.0737 8.10199 18.7801 3.83183Z" fill="black"/>
<path d="M11.7329 7.5545H9.53102C9.31084 7.5545 9.16406 7.70048 9.16406 7.91946V12.2991V15.9488C9.16406 16.1678 9.31084 16.3138 9.53102 16.3138C9.7512 16.3138 9.89798 16.1678 9.89798 15.9488V12.6641H11.7329C13.1641 12.6641 14.3017 11.5327 14.3017 10.1093C14.3017 8.6859 13.1641 7.5545 11.7329 7.5545ZM11.7329 11.9342H9.89798V8.28446H11.7329C12.7604 8.28446 13.5677 9.08738 13.5677 10.1093C13.5677 11.1312 12.7604 11.9342 11.7329 11.9342Z" fill="black"/>
</g>
<defs>
<clipPath id="clip0">
<rect width="22" height="21.88" fill="white" transform="translate(0 0.62915)"/>
</clipPath>
</defs>
</svg>
