<svg width="30" height="30" viewBox="0 0 30 30" fill="none" xmlns="http://www.w3.org/2000/svg">
<path d="M29.6171 29.9678H15.0011C15.0003 29.9678 14.9994 29.9678 14.9988 29.9678H0.382864C0.17137 29.9678 0 29.7964 0 29.5849V0.415091C0 0.203597 0.17137 0.0322266 0.382864 0.0322266H14.9988C14.9995 0.0322266 15.0003 0.0322266 15.0011 0.0322266H29.617C29.8285 0.0322266 29.9998 0.203597 29.9998 0.415091V29.5849C30 29.7964 29.8285 29.9678 29.6171 29.9678ZM15.3839 29.202H29.2341V15.414H24.694C24.546 15.414 24.4114 15.3287 24.348 15.1952C24.2924 15.0779 24.3004 14.9417 24.3664 14.8328C24.3802 14.7968 24.3993 14.7625 24.424 14.7314C24.8025 14.2529 25.0036 13.6789 25.0058 13.0715C25.0007 11.5923 23.7907 10.3867 22.3089 10.3867C20.8218 10.3867 19.6121 11.5966 19.6121 13.0836C19.6184 13.6905 19.8195 14.2579 20.1938 14.7314C20.2183 14.7624 20.2374 14.7965 20.2511 14.8321C20.3175 14.9413 20.3256 15.0777 20.2699 15.1952C20.2066 15.3287 20.0719 15.414 19.9239 15.414H15.3838V19.1667C15.8538 18.9347 16.3696 18.8143 16.9056 18.8143L16.9296 18.8145L16.9485 18.8143C18.8579 18.8143 20.4111 20.3677 20.4111 22.2769C20.4111 24.1862 18.8577 25.7396 16.9485 25.7396L16.9244 25.7394L16.9056 25.7396C16.3697 25.7396 15.8539 25.6192 15.3838 25.387V29.202H15.3839ZM0.765728 29.202H14.6159V24.6925C14.6159 24.6778 14.6168 24.6634 14.6185 24.649C14.6233 24.5063 14.7073 24.3778 14.8371 24.3162C14.9706 24.2528 15.1288 24.2721 15.2433 24.3657C15.725 24.7593 16.308 24.9695 16.9298 24.974C18.4012 24.9639 19.6026 23.754 19.6026 22.2771C19.6026 20.8001 18.4012 19.5903 16.9246 19.5802C16.3082 19.5845 15.725 19.7947 15.2433 20.1885C15.1288 20.2822 14.9706 20.3014 14.8371 20.238C14.7072 20.1765 14.6233 20.0476 14.6184 19.9047C14.6168 19.8905 14.6159 19.8761 14.6159 19.8617V15.4142H10.8118C11.0367 15.8787 11.1534 16.3879 11.1534 16.9167V16.9384C11.1534 18.8477 9.60009 20.4009 7.69082 20.4009C5.78155 20.4009 4.22835 18.8475 4.22835 16.9384V16.9167C4.22835 16.388 4.3452 15.8788 4.57002 15.4142H0.765728V29.202ZM5.63331 15.1673C5.61952 15.2033 5.60038 15.2376 5.57573 15.2687C5.19715 15.7473 4.99607 16.3213 4.99393 16.9286C4.99898 18.4079 6.20898 19.6134 7.69067 19.6134C9.17266 19.6134 10.3825 18.4079 10.3876 16.926C10.3854 16.3213 10.1843 15.7473 9.80576 15.2687C9.7811 15.2376 9.76196 15.2033 9.74818 15.1673C9.68217 15.0584 9.67421 14.9221 9.7298 14.805C9.7932 14.6714 9.92782 14.5861 10.0758 14.5861H14.6159V10.8334C14.1459 11.0654 13.63 11.186 13.0939 11.186L13.0578 11.1858C11.1418 11.1858 9.5886 9.63247 9.5886 7.72335C9.5886 5.81393 11.142 4.26073 13.0512 4.26073L13.0751 4.26088L13.0939 4.26073C13.63 4.26073 14.1458 4.3811 14.6159 4.61327V0.797955H0.765728V14.586H5.30588C5.45382 14.586 5.58844 14.6713 5.65184 14.8048C5.70743 14.9221 5.69931 15.0584 5.63331 15.1673ZM25.43 14.5861H29.2343V0.797955H15.3841V5.30763C15.3841 5.32234 15.3832 5.33673 15.3816 5.35113C15.3767 5.49386 15.2927 5.62235 15.1629 5.68391C15.0294 5.74731 14.8712 5.72817 14.7567 5.63445C14.275 5.24086 13.692 5.03059 13.0702 5.02615C11.5988 5.03626 10.3974 6.24611 10.3974 7.72305C10.3974 9.19493 11.5943 10.4048 13.0658 10.4198C13.686 10.4176 14.2726 10.2074 14.7567 9.81149C14.8712 9.71777 15.0294 9.69862 15.1629 9.76203C15.2928 9.82344 15.3769 9.95254 15.3816 10.0956C15.3832 10.1097 15.3841 10.1241 15.3841 10.1385V14.5858H19.1884C18.9652 14.1248 18.8484 13.6198 18.8467 13.0954L18.8466 13.0619C18.8466 11.1524 20.3999 9.59923 22.3092 9.59923C24.2184 9.59923 25.7718 11.1526 25.7718 13.0619V13.0834C25.7717 13.6123 25.655 14.1215 25.43 14.5861Z" fill="#2C2C2C"/>
</svg>
