<svg width="22" height="23" viewBox="0 0 22 23" fill="none" xmlns="http://www.w3.org/2000/svg">
<g clip-path="url(#clip0)">
<path d="M19.355 9.29001H17.678V7.65845C17.6777 3.97202 14.6833 0.983942 10.9992 0.983643C7.31517 0.983942 4.31208 3.97202 4.31178 7.65841V9.28997H2.64339C2.03066 9.28997 1.5293 9.79167 1.5293 10.4049V21.7487C1.5293 22.362 2.03061 22.8636 2.64339 22.8636H19.355C19.9677 22.8636 20.4691 22.3619 20.4691 21.7487V10.405C20.4691 9.79163 19.9677 9.29001 19.355 9.29001ZM5.14735 7.65841C5.14765 6.04485 5.81693 4.58782 6.87341 3.52989C7.93074 2.47281 9.38656 1.82017 10.9993 1.81991C12.6117 1.82021 14.0678 2.47281 15.1248 3.52989C16.1816 4.58782 16.8422 6.04485 16.8425 7.65841V9.28997H5.14735V7.65841ZM19.3551 22.0274H2.64339C2.49244 22.0274 2.36487 21.8996 2.36487 21.7487V10.405C2.36487 10.254 2.49244 10.1263 2.64339 10.1263H19.355C19.506 10.1263 19.6335 10.2537 19.6335 10.405V21.7487H19.6336C19.6335 21.8996 19.506 22.0274 19.3551 22.0274Z" fill="black"/>
<path d="M11.0005 13.6656C9.92339 13.6656 9.05078 14.5391 9.05078 15.6166C9.05078 16.5507 9.70644 17.3302 10.5827 17.5216V19.5186C10.5827 19.7496 10.7699 19.9366 11.0005 19.9366C11.2311 19.9366 11.4183 19.7496 11.4183 19.5186V17.5216C12.2945 17.3302 12.9502 16.5504 12.9502 15.6166C12.9502 14.5393 12.0775 13.6656 11.0005 13.6656ZM11.0005 16.7318C10.386 16.7318 9.88639 16.2315 9.88639 15.6169C9.88639 15.0022 10.3861 14.5019 11.0005 14.5019C11.6149 14.5019 12.1146 15.0022 12.1146 15.6169C12.1146 16.2315 11.6149 16.7318 11.0005 16.7318Z" fill="black"/>
</g>
<defs>
<clipPath id="clip0">
<rect width="22" height="21.88" fill="white" transform="translate(0 0.983643)"/>
</clipPath>
</defs>
</svg>
