<svg width="30" height="30" viewBox="0 0 30 30" fill="none" xmlns="http://www.w3.org/2000/svg">
<g clip-path="url(#clip0)">
<path d="M26.0028 3.99208C18.7027 3.99208 15.4297 0.224454 15.3832 0.169938C15.1931 -0.0576302 14.805 -0.0571301 14.6154 0.170438C14.5834 0.20845 11.3459 3.99159 3.99624 3.99159C3.72016 3.99159 3.49609 4.21565 3.49609 4.49173V14.0371C3.49609 19.2552 5.8418 24.2142 9.77098 27.3016C11.355 28.5465 13.066 29.4472 14.857 29.9784C14.9035 29.9924 14.9515 29.9994 14.9995 29.9994C15.0476 29.9994 15.0951 29.9924 15.1421 29.9784C16.9331 29.4467 18.6441 28.5465 20.2281 27.3016C24.1573 24.2137 26.503 19.2552 26.503 14.0371V4.49224C26.503 4.21615 26.2794 3.99208 26.0028 3.99208ZM25.5027 14.0376C25.5027 18.9511 23.3 23.616 19.6099 26.5158C18.168 27.6492 16.6175 28.4764 14.9995 28.9771C13.3816 28.4769 11.8311 27.6492 10.3892 26.5158C6.69905 23.6165 4.49639 18.9511 4.49639 14.0376V4.98688C10.6192 4.85084 13.9317 2.23756 14.9995 1.21325C16.0674 2.23806 19.3799 4.85084 25.5027 4.98688V14.0376Z" fill="#2C2C2C"/>
<path d="M14.7176 3.99407C13.2096 5.01888 10.6348 6.33927 6.93322 6.81141C6.68315 6.84342 6.49609 7.05599 6.49609 7.30756V14.0381C6.49609 18.3429 8.41317 22.4196 11.6246 24.9434C12.6359 25.7381 13.7098 26.3613 14.8161 26.7954C14.8751 26.8184 14.9371 26.8299 14.9986 26.8299C15.0977 26.8299 15.1962 26.8004 15.2802 26.7429C15.4168 26.6494 15.4988 26.4948 15.4988 26.3298V4.40769C15.4988 4.22214 15.3963 4.05259 15.2327 3.96556C15.0697 3.87953 14.8711 3.89054 14.7176 3.99407ZM14.4985 25.5675C13.7228 25.1984 12.9665 24.7253 12.2428 24.1566C9.27093 21.8209 7.49639 18.0383 7.49639 14.0376V7.74319C10.5998 7.28406 12.925 6.25675 14.4985 5.31847V25.5675Z" fill="#2C2C2C"/>
</g>
<defs>
<clipPath id="clip0">
<rect width="30" height="30" fill="white"/>
</clipPath>
</defs>
</svg>
