<svg width="22" height="23" viewBox="0 0 22 23" fill="none" xmlns="http://www.w3.org/2000/svg">
<path d="M20.8828 10.9791H11.7261L13.3629 9.34235C13.4193 9.28594 13.451 9.20943 13.451 9.12965C13.451 9.04988 13.4193 8.97337 13.3629 8.91696C13.3065 8.86055 13.23 8.82886 13.1502 8.82886C13.0704 8.82886 12.9939 8.86055 12.9375 8.91696L10.7877 11.0668C10.7735 11.081 10.7608 11.0966 10.7497 11.1133C10.7454 11.1199 10.7425 11.1269 10.7387 11.1336C10.7265 11.1521 10.7178 11.1726 10.7131 11.1941C10.7103 11.2031 10.7069 11.2113 10.705 11.2211C10.6973 11.26 10.6973 11.3 10.705 11.3388C10.7069 11.3481 10.7103 11.356 10.7129 11.3657C10.7154 11.3756 10.7185 11.3853 10.722 11.3949C10.7271 11.4056 10.7329 11.4161 10.7392 11.4262C10.743 11.4329 10.7459 11.4401 10.7504 11.4466C10.7615 11.4634 10.7742 11.479 10.7884 11.4932L12.9375 13.6428C12.9939 13.6992 13.0704 13.7309 13.1502 13.7309C13.23 13.7309 13.3065 13.6992 13.3629 13.6428C13.4193 13.5864 13.451 13.5099 13.451 13.4301C13.451 13.3504 13.4193 13.2739 13.3629 13.2174L11.7261 11.5807H20.8828C20.9625 11.5807 21.039 11.549 21.0954 11.4926C21.1519 11.4362 21.1835 11.3597 21.1835 11.2799C21.1835 11.2001 21.1519 11.1236 21.0954 11.0672C21.039 11.0108 20.9625 10.9791 20.8828 10.9791Z" fill="black"/>
<path d="M16.5014 12.6979C16.4216 12.6979 16.3451 12.7295 16.2887 12.786C16.2323 12.8424 16.2006 12.9189 16.2006 12.9986V19.3408H8.45919V3.21895H16.2006V9.56114C16.2006 9.64091 16.2323 9.71741 16.2887 9.77382C16.3451 9.83023 16.4216 9.86192 16.5014 9.86192C16.5812 9.86192 16.6577 9.83023 16.7141 9.77382C16.7705 9.71741 16.8022 9.64091 16.8022 9.56114V2.91817C16.8022 2.8384 16.7705 2.76189 16.7141 2.70548C16.6577 2.64908 16.5812 2.61739 16.5014 2.61739H8.45919V1.39707C8.45921 1.34694 8.44671 1.2976 8.42281 1.25353C8.39892 1.20946 8.36438 1.17207 8.32235 1.14474C8.28032 1.11741 8.23213 1.10103 8.18216 1.09707C8.13218 1.09311 8.08201 1.10171 8.0362 1.12207L1.1942 4.16306C1.14104 4.18672 1.09587 4.22529 1.06417 4.2741C1.03248 4.32291 1.01562 4.37986 1.01563 4.43806V18.1219C1.01562 18.1801 1.03248 18.237 1.06417 18.2858C1.09587 18.3347 1.14104 18.3732 1.1942 18.3969L8.0362 21.4377C8.08201 21.4581 8.13218 21.4667 8.18216 21.4627C8.23213 21.4587 8.28032 21.4424 8.32235 21.415C8.36438 21.3877 8.39892 21.3503 8.42281 21.3062C8.44671 21.2622 8.45921 21.2128 8.45919 21.1627V19.9424H16.5014C16.5812 19.9424 16.6577 19.9107 16.7141 19.8543C16.7705 19.7979 16.8022 19.7214 16.8022 19.6416V12.9986C16.8022 12.9189 16.7705 12.8424 16.7141 12.786C16.6577 12.7295 16.5812 12.6979 16.5014 12.6979ZM7.85763 20.7L1.61702 17.9263V4.63348L7.85763 1.85976V20.7Z" fill="black"/>
<path d="M2.24805 16.9661C2.32782 16.9661 2.40432 16.9344 2.46073 16.878C2.51714 16.8216 2.54883 16.7451 2.54883 16.6653V11.7383C2.54883 11.6586 2.51714 11.5821 2.46073 11.5257C2.40432 11.4693 2.32782 11.4376 2.24805 11.4376C2.16827 11.4376 2.09177 11.4693 2.03536 11.5257C1.97895 11.5821 1.94727 11.6586 1.94727 11.7383V16.6653C1.94727 16.7451 1.97895 16.8216 2.03536 16.878C2.09177 16.9344 2.16827 16.9661 2.24805 16.9661Z" fill="black"/>
</svg>
