<svg width="30" height="30" viewBox="0 0 30 30" fill="none" xmlns="http://www.w3.org/2000/svg">
<path d="M7.96875 16.875H2.8125C2.31539 16.8744 1.8388 16.6767 1.48729 16.3252C1.13578 15.9737 0.938058 15.4971 0.9375 15V2.8125C0.938058 2.31539 1.13578 1.8388 1.48729 1.48729C1.8388 1.13578 2.31539 0.938058 2.8125 0.9375H15C15.4971 0.938058 15.9737 1.13578 16.3252 1.48729C16.6767 1.8388 16.8744 2.31539 16.875 2.8125V10.7812H15.9375V2.8125C15.9372 2.56395 15.8383 2.32566 15.6626 2.14991C15.4868 1.97416 15.2486 1.87529 15 1.875H2.8125C2.56395 1.87529 2.32566 1.97416 2.14991 2.14991C1.97416 2.32566 1.87529 2.56395 1.875 2.8125V15C1.87529 15.2486 1.97416 15.4868 2.14991 15.6626C2.32566 15.8383 2.56395 15.9372 2.8125 15.9375H7.96875V16.875Z" fill="#2C2C2C"/>
<path d="M7.03125 15H4.21875C4.09443 15 3.9752 14.9506 3.88729 14.8627C3.79939 14.7748 3.75 14.6556 3.75 14.5312V3.28125C3.75 3.15693 3.79939 3.0377 3.88729 2.94979C3.9752 2.86189 4.09443 2.8125 4.21875 2.8125H9.84375C10.9626 2.8125 12.0357 3.25697 12.8269 4.04814C13.618 4.83931 14.0625 5.91237 14.0625 7.03125C14.0625 8.15013 13.618 9.22319 12.8269 10.0144C12.0357 10.8055 10.9626 11.25 9.84375 11.25H7.5V14.5312C7.5 14.6556 7.45061 14.7748 7.36271 14.8627C7.2748 14.9506 7.15557 15 7.03125 15ZM4.6875 14.0625H6.5625V10.7812C6.5625 10.6569 6.61189 10.5377 6.69979 10.4498C6.7877 10.3619 6.90693 10.3125 7.03125 10.3125H9.84375C10.714 10.3125 11.5486 9.9668 12.1639 9.35144C12.7793 8.73609 13.125 7.90149 13.125 7.03125C13.125 6.16101 12.7793 5.32641 12.1639 4.71106C11.5486 4.0957 10.714 3.75 9.84375 3.75H4.6875V14.0625ZM9.84375 8.4375H7.03125C6.90693 8.4375 6.7877 8.38811 6.69979 8.30021C6.61189 8.2123 6.5625 8.09307 6.5625 7.96875V6.09375C6.5625 5.96943 6.61189 5.8502 6.69979 5.76229C6.7877 5.67439 6.90693 5.625 7.03125 5.625H9.84375C10.2167 5.625 10.5744 5.77316 10.8381 6.03688C11.1018 6.3006 11.25 6.65829 11.25 7.03125C11.25 7.40421 11.1018 7.7619 10.8381 8.02562C10.5744 8.28934 10.2167 8.4375 9.84375 8.4375ZM7.5 7.5H9.84375C9.96807 7.5 10.0873 7.45061 10.1752 7.36271C10.2631 7.2748 10.3125 7.15557 10.3125 7.03125C10.3125 6.90693 10.2631 6.7877 10.1752 6.69979C10.0873 6.61189 9.96807 6.5625 9.84375 6.5625H7.5V7.5Z" fill="#2C2C2C"/>
<path d="M28.4565 19.356C28.0848 18.9825 27.5838 18.7661 27.0571 18.7515L25.1402 13.0007C25.016 12.6272 24.7773 12.3024 24.458 12.0722C24.1386 11.8421 23.7549 11.7184 23.3613 11.7188H12.2637C11.8701 11.7184 11.4864 11.8421 11.167 12.0722C10.8477 12.3024 10.609 12.6272 10.4848 13.0007L8.56787 18.7515C8.03043 18.7679 7.52049 18.9929 7.14614 19.3789C6.77179 19.7649 6.56245 20.2814 6.5625 20.8191V24.375C6.56306 24.8721 6.76078 25.3487 7.11229 25.7002C7.4638 26.0517 7.94039 26.2494 8.4375 26.25H11.7188V28.125H8.90625V27.1875H7.96875V28.125C7.96904 28.3736 8.06791 28.6118 8.24366 28.7876C8.41941 28.9633 8.6577 29.0622 8.90625 29.0625H11.7188C11.9673 29.0622 12.2056 28.9633 12.3813 28.7876C12.5571 28.6118 12.656 28.3736 12.6562 28.125V26.25H22.9688V28.125C22.969 28.3736 23.0679 28.6118 23.2437 28.7876C23.4194 28.9633 23.6577 29.0622 23.9062 29.0625H26.7188C26.9673 29.0622 27.2056 28.9633 27.3813 28.7876C27.5571 28.6118 27.656 28.3736 27.6562 28.125V26.1906C28.0585 26.0862 28.4147 25.8513 28.6692 25.5228C28.9236 25.1942 29.062 24.7906 29.0625 24.375V20.8191C29.0632 20.5473 29.0101 20.278 28.906 20.0269C28.802 19.7757 28.6492 19.5477 28.4565 19.356ZM12.2637 12.6563H23.3613C23.5581 12.6561 23.75 12.718 23.9097 12.833C24.0694 12.9481 24.1887 13.1106 24.2508 13.2973L24.3496 13.5938H11.2754L11.3742 13.2973C11.4363 13.1106 11.5556 12.9481 11.7153 12.833C11.875 12.718 12.0669 12.6561 12.2637 12.6563ZM10.9629 14.5313H24.6621L26.0684 18.75H9.55664L10.9629 14.5313ZM26.7188 28.125H23.9062V26.25H26.7188L26.7192 28.125H26.7188ZM28.125 24.375C28.1247 24.6236 28.0258 24.8618 27.8501 25.0376C27.6743 25.2133 27.4361 25.3122 27.1875 25.3125H8.4375C8.18895 25.3122 7.95066 25.2133 7.77491 25.0376C7.59916 24.8618 7.50029 24.6236 7.5 24.375V20.8191C7.50002 20.519 7.61924 20.2312 7.83146 20.019C8.04368 19.8067 8.3315 19.6875 8.63162 19.6875H26.9934C27.2935 19.6875 27.5813 19.8067 27.7935 20.019C28.0058 20.2312 28.125 20.519 28.125 20.8191V24.375Z" fill="#2C2C2C"/>
<path d="M10.3125 20.625C9.94166 20.625 9.57915 20.735 9.27081 20.941C8.96246 21.147 8.72214 21.4399 8.58023 21.7825C8.43831 22.1251 8.40118 22.5021 8.47353 22.8658C8.54588 23.2295 8.72445 23.5636 8.98668 23.8258C9.2489 24.0881 9.58299 24.2666 9.94671 24.339C10.3104 24.4113 10.6874 24.3742 11.03 24.2323C11.3726 24.0904 11.6655 23.85 11.8715 23.5417C12.0775 23.2334 12.1875 22.8708 12.1875 22.5C12.1869 22.0029 11.9892 21.5263 11.6377 21.1748C11.2862 20.8233 10.8096 20.6256 10.3125 20.625ZM10.3125 23.4375C10.1271 23.4375 9.94582 23.3825 9.79165 23.2795C9.63748 23.1765 9.51732 23.0301 9.44636 22.8588C9.37541 22.6875 9.35684 22.499 9.39301 22.3171C9.42919 22.1353 9.51848 21.9682 9.64959 21.8371C9.7807 21.706 9.94775 21.6167 10.1296 21.5805C10.3115 21.5443 10.5 21.5629 10.6713 21.6339C10.8426 21.7048 10.989 21.825 11.092 21.9792C11.195 22.1333 11.25 22.3146 11.25 22.5C11.2497 22.7486 11.1508 22.9868 10.9751 23.1626C10.7993 23.3383 10.5611 23.4372 10.3125 23.4375Z" fill="#2C2C2C"/>
<path d="M25.3125 20.625C24.9417 20.625 24.5792 20.735 24.2708 20.941C23.9625 21.147 23.7221 21.4399 23.5802 21.7825C23.4383 22.1251 23.4012 22.5021 23.4735 22.8658C23.5459 23.2295 23.7245 23.5636 23.9867 23.8258C24.2489 24.0881 24.583 24.2666 24.9467 24.339C25.3104 24.4113 25.6874 24.3742 26.03 24.2323C26.3727 24.0904 26.6655 23.85 26.8715 23.5417C27.0775 23.2334 27.1875 22.8708 27.1875 22.5C27.187 22.0029 26.9892 21.5263 26.6377 21.1748C26.2862 20.8233 25.8096 20.6256 25.3125 20.625ZM25.3125 23.4375C25.1271 23.4375 24.9458 23.3825 24.7917 23.2795C24.6375 23.1765 24.5173 23.0301 24.4464 22.8588C24.3754 22.6875 24.3568 22.499 24.393 22.3171C24.4292 22.1353 24.5185 21.9682 24.6496 21.8371C24.7807 21.706 24.9478 21.6167 25.1296 21.5805C25.3115 21.5443 25.5 21.5629 25.6713 21.6339C25.8426 21.7048 25.989 21.825 26.092 21.9792C26.195 22.1333 26.25 22.3146 26.25 22.5C26.2497 22.7486 26.1509 22.9868 25.9751 23.1626C25.7993 23.3383 25.5611 23.4372 25.3125 23.4375Z" fill="#2C2C2C"/>
<path d="M13.125 21.0938H22.5V22.0312H13.125V21.0938Z" fill="#2C2C2C"/>
<path d="M13.125 22.9688H22.5V23.9062H13.125V22.9688Z" fill="#2C2C2C"/>
</svg>
