<svg width="18" height="16" viewBox="0 0 18 16" fill="none" xmlns="http://www.w3.org/2000/svg">
<path d="M17.0273 3.53847C16.7655 2.93229 16.3881 2.38298 15.916 1.92128C15.4436 1.4582 14.8866 1.09021 14.2754 0.837294C13.6416 0.573999 12.9617 0.43923 12.2754 0.44081C11.3125 0.44081 10.373 0.704481 9.55664 1.20253C9.36133 1.32167 9.17578 1.45253 9 1.59511C8.82422 1.45253 8.63867 1.32167 8.44336 1.20253C7.62695 0.704481 6.6875 0.44081 5.72461 0.44081C5.03125 0.44081 4.35938 0.573622 3.72461 0.837294C3.11133 1.0912 2.55859 1.45643 2.08398 1.92128C1.61132 2.38245 1.23375 2.9319 0.972656 3.53847C0.701172 4.16933 0.5625 4.83925 0.5625 5.5287C0.5625 6.17909 0.695313 6.85682 0.958984 7.54628C1.17969 8.12245 1.49609 8.72011 1.90039 9.32362C2.54102 10.2787 3.42188 11.2748 4.51562 12.2846C6.32812 13.9584 8.12305 15.1146 8.19922 15.1615L8.66211 15.4584C8.86719 15.5892 9.13086 15.5892 9.33594 15.4584L9.79883 15.1615C9.875 15.1127 11.668 13.9584 13.4824 12.2846C14.5762 11.2748 15.457 10.2787 16.0977 9.32362C16.502 8.72011 16.8203 8.12245 17.0391 7.54628C17.3027 6.85682 17.4355 6.17909 17.4355 5.5287C17.4375 4.83925 17.2988 4.16933 17.0273 3.53847ZM9 13.9135C9 13.9135 2.04688 9.45839 2.04688 5.5287C2.04688 3.53847 3.69336 1.92518 5.72461 1.92518C7.15234 1.92518 8.39062 2.72206 9 3.88612C9.60938 2.72206 10.8477 1.92518 12.2754 1.92518C14.3066 1.92518 15.9531 3.53847 15.9531 5.5287C15.9531 9.45839 9 13.9135 9 13.9135Z" fill="#83B373"/>
</svg>
