<svg width="30" height="30" viewBox="0 0 30 30" fill="none" xmlns="http://www.w3.org/2000/svg">
<path d="M7.25678 8.22632H3.38867V9.19482H7.25678V8.22632Z" fill="#2C2C2C"/>
<path d="M14.0322 8.22632H10.1641V9.19482H14.0322V8.22632Z" fill="#2C2C2C"/>
<path d="M7.25678 11.1318H3.38867V12.1003H7.25678V11.1318Z" fill="#2C2C2C"/>
<path d="M14.0322 11.1318H10.1641V12.1003H14.0322V11.1318Z" fill="#2C2C2C"/>
<path d="M7.25678 14.0315H3.38867V15H7.25678V14.0315Z" fill="#2C2C2C"/>
<path d="M14.0322 14.0315H10.1641V15H14.0322V14.0315Z" fill="#2C2C2C"/>
<path d="M7.25678 16.937H3.38867V17.9055H7.25678V16.937Z" fill="#2C2C2C"/>
<path d="M14.0322 16.937H10.1641V17.9055H14.0322V16.937Z" fill="#2C2C2C"/>
<path d="M7.25678 19.8367H3.38867V20.8052H7.25678V19.8367Z" fill="#2C2C2C"/>
<path d="M14.0322 19.8367H10.1641V20.8052H14.0322V19.8367Z" fill="#2C2C2C"/>
<path d="M29.0315 29.0315V9.67913H17.4213V29.0315H16.4528V5.80512H14.5157V2.90551H11.6102V0H5.80512V2.90551H2.90551V5.81102H0.968504V29.0374H0V30H30V29.0315H29.0315ZM6.77362 0.968504H10.6417V2.90551H6.77362V0.968504ZM3.86811 3.86811H13.5472V5.80512H3.86811V3.86811ZM10.6535 29.0315H10.6476H6.77953V25.1634C6.77953 24.0945 7.64764 23.2264 8.71654 23.2264C9.78543 23.2264 10.6535 24.0945 10.6535 25.1634V29.0315ZM15.4843 29.0315H11.6161V25.1634C11.6161 23.563 10.311 22.2579 8.71063 22.2579C7.11024 22.2579 5.80512 23.563 5.80512 25.1634V29.0315H1.93701V6.77362H15.4843V29.0315ZM28.0689 29.0315H28.063H18.3898V10.6476H28.0689V29.0315Z" fill="#2C2C2C"/>
<path d="M20.8044 12.0945H19.8359V13.063H20.8044V12.0945Z" fill="#2C2C2C"/>
<path d="M22.7419 12.0945H21.7734V13.063H22.7419V12.0945Z" fill="#2C2C2C"/>
<path d="M24.6794 12.0945H23.7109V13.063H24.6794V12.0945Z" fill="#2C2C2C"/>
<path d="M26.6169 12.0945H25.6484V13.063H26.6169V12.0945Z" fill="#2C2C2C"/>
<path d="M20.8044 14.5156H19.8359V15.4841H20.8044V14.5156Z" fill="#2C2C2C"/>
<path d="M22.7419 14.5156H21.7734V15.4841H22.7419V14.5156Z" fill="#2C2C2C"/>
<path d="M24.6794 14.5156H23.7109V15.4841H24.6794V14.5156Z" fill="#2C2C2C"/>
<path d="M26.6169 14.5156H25.6484V15.4841H26.6169V14.5156Z" fill="#2C2C2C"/>
<path d="M20.8044 16.937H19.8359V17.9055H20.8044V16.937Z" fill="#2C2C2C"/>
<path d="M22.7419 16.937H21.7734V17.9055H22.7419V16.937Z" fill="#2C2C2C"/>
<path d="M24.6794 16.937H23.7109V17.9055H24.6794V16.937Z" fill="#2C2C2C"/>
<path d="M26.6169 16.937H25.6484V17.9055H26.6169V16.937Z" fill="#2C2C2C"/>
<path d="M20.8044 19.3525H19.8359V20.321H20.8044V19.3525Z" fill="#2C2C2C"/>
<path d="M22.7419 19.3525H21.7734V20.321H22.7419V19.3525Z" fill="#2C2C2C"/>
<path d="M24.6794 19.3525H23.7109V20.321H24.6794V19.3525Z" fill="#2C2C2C"/>
<path d="M26.6169 19.3525H25.6484V20.321H26.6169V19.3525Z" fill="#2C2C2C"/>
<path d="M20.8044 21.7737H19.8359V22.7422H20.8044V21.7737Z" fill="#2C2C2C"/>
<path d="M22.7419 21.7737H21.7734V22.7422H22.7419V21.7737Z" fill="#2C2C2C"/>
<path d="M24.6794 21.7737H23.7109V22.7422H24.6794V21.7737Z" fill="#2C2C2C"/>
<path d="M26.6169 21.7737H25.6484V22.7422H26.6169V21.7737Z" fill="#2C2C2C"/>
<path d="M20.8044 24.1948H19.8359V25.1633H20.8044V24.1948Z" fill="#2C2C2C"/>
<path d="M22.7419 24.1948H21.7734V25.1633H22.7419V24.1948Z" fill="#2C2C2C"/>
<path d="M24.6794 24.1948H23.7109V25.1633H24.6794V24.1948Z" fill="#2C2C2C"/>
<path d="M26.6169 24.1948H25.6484V25.1633H26.6169V24.1948Z" fill="#2C2C2C"/>
<path d="M20.8044 26.6101H19.8359V27.5786H20.8044V26.6101Z" fill="#2C2C2C"/>
<path d="M22.7419 26.6101H21.7734V27.5786H22.7419V26.6101Z" fill="#2C2C2C"/>
<path d="M24.6794 26.6101H23.7109V27.5786H24.6794V26.6101Z" fill="#2C2C2C"/>
<path d="M26.6169 26.6101H25.6484V27.5786H26.6169V26.6101Z" fill="#2C2C2C"/>
</svg>
