<svg width="30" height="30" viewBox="0 0 30 30" fill="none" xmlns="http://www.w3.org/2000/svg">
<path d="M26.25 0H6.79688V3.04688H3.75V30H23.2031V26.9531H26.25V0ZM4.45312 29.2969V3.75H17.8125V8.4375H22.5V29.2969H4.45312ZM18.5156 4.24717L22.0028 7.73438H18.5156V4.24717ZM25.5469 26.25H23.2031V7.94033L18.3097 3.04688H7.5V0.703125H25.5469V26.25Z" fill="#2C2C2C"/>
<path d="M6.91406 6.79688H12.5391V7.5H6.91406V6.79688Z" fill="#2C2C2C"/>
<path d="M6.91406 8.67188H10.6641V9.375H6.91406V8.67188Z" fill="#2C2C2C"/>
<path d="M6.91406 11.4844H20.0391V12.1875H6.91406V11.4844Z" fill="#2C2C2C"/>
<path d="M6.91406 13.3594H20.0391V14.0625H6.91406V13.3594Z" fill="#2C2C2C"/>
<path d="M6.91406 17.1094H20.0391V17.8125H6.91406V17.1094Z" fill="#2C2C2C"/>
<path d="M6.91406 18.9844H16.2891V19.6875H6.91406V18.9844Z" fill="#2C2C2C"/>
<path d="M6.91406 15.2344H20.0391V15.9375H6.91406V15.2344Z" fill="#2C2C2C"/>
<path d="M15.3516 21.7969H20.0391V22.5H15.3516V21.7969Z" fill="#2C2C2C"/>
</svg>
