<svg width="22" height="23" viewBox="0 0 22 23" fill="none" xmlns="http://www.w3.org/2000/svg">
<g clip-path="url(#clip0)">
<path d="M20.9584 21.4961H19.6277V7.93141C19.6277 7.74867 19.4788 7.60057 19.295 7.60057H17.6317V5.28464C17.6317 5.1019 17.4828 4.95379 17.2991 4.95379H16.3011V1.97617C16.3011 1.79343 16.1522 1.64532 15.9684 1.64532C15.7847 1.64532 15.6358 1.79343 15.6358 1.97617V4.95379H14.6378C14.454 4.95379 14.3051 5.1019 14.3051 5.28464V7.60057H12.9745V1.97617C12.9744 1.83892 12.889 1.71589 12.7601 1.66717C12.6309 1.61831 12.4851 1.65385 12.3934 1.75647C9.83421 4.61972 2.66198 6.2693 2.58804 6.28506C2.43666 6.31957 2.32919 6.45346 2.32932 6.60803V21.4961H0.998677C0.814934 21.4961 0.666016 21.6442 0.666016 21.827C0.666016 22.0097 0.814934 22.1578 0.998677 22.1578H20.9584C21.1421 22.1578 21.291 22.0097 21.291 21.827C21.291 21.6442 21.1421 21.4961 20.9584 21.4961ZM14.9705 5.61549H16.9664V7.60057H14.9705V5.61549ZM18.9624 8.26226V21.4961H12.9745V8.26226H18.9624ZM2.99464 6.86934C4.25044 6.56344 9.59173 5.15773 12.3092 2.76891V21.4961H9.98053V15.8717C9.98053 15.689 9.83161 15.5409 9.64787 15.5409H5.65594C5.47219 15.5409 5.32327 15.689 5.32327 15.8717V21.4961H2.99464V6.86934ZM9.31521 21.4961H5.9886V16.2026H9.31521V21.4961Z" fill="black"/>
<path d="M13.9713 12.2325H15.302C15.4857 12.2325 15.6346 12.0844 15.6346 11.9016C15.6346 11.7189 15.4857 11.5707 15.302 11.5707H13.9713C13.7876 11.5707 13.6387 11.7189 13.6387 11.9016C13.6387 12.0844 13.7876 12.2325 13.9713 12.2325Z" fill="black"/>
<path d="M16.2995 12.2325H17.9628C18.1465 12.2325 18.2954 12.0844 18.2954 11.9016C18.2954 11.7189 18.1465 11.5707 17.9628 11.5707H16.2995C16.1157 11.5707 15.9668 11.7189 15.9668 11.9016C15.9668 12.0844 16.1157 12.2325 16.2995 12.2325Z" fill="black"/>
<path d="M13.9713 14.2175H14.9693C15.1531 14.2175 15.302 14.0694 15.302 13.8867C15.302 13.7039 15.1531 13.5558 14.9693 13.5558H13.9713C13.7876 13.5558 13.6387 13.7039 13.6387 13.8867C13.6387 14.0694 13.7876 14.2175 13.9713 14.2175Z" fill="black"/>
<path d="M13.9713 16.2026H14.304C14.4877 16.2026 14.6367 16.0545 14.6367 15.8718C14.6367 15.689 14.4877 15.5409 14.304 15.5409H13.9713C13.7876 15.5409 13.6387 15.689 13.6387 15.8718C13.6387 16.0545 13.7876 16.2026 13.9713 16.2026Z" fill="black"/>
<path d="M15.9674 14.2175H17.9634C18.1471 14.2175 18.2961 14.0694 18.2961 13.8867C18.2961 13.7039 18.1471 13.5558 17.9634 13.5558H15.9674C15.7837 13.5558 15.6348 13.7039 15.6348 13.8867C15.6348 14.0694 15.7837 14.2175 15.9674 14.2175Z" fill="black"/>
<path d="M17.9647 15.5409H15.3034C15.1196 15.5409 14.9707 15.689 14.9707 15.8718C14.9707 16.0545 15.1196 16.2026 15.3034 16.2026H17.9647C18.1484 16.2026 18.2973 16.0545 18.2973 15.8718C18.2973 15.689 18.1484 15.5409 17.9647 15.5409Z" fill="black"/>
<path d="M15.6346 17.526H13.9713C13.7876 17.526 13.6387 17.6741 13.6387 17.8568C13.6387 18.0396 13.7876 18.1877 13.9713 18.1877H15.6346C15.8184 18.1877 15.9673 18.0396 15.9673 17.8568C15.9673 17.6741 15.8184 17.526 15.6346 17.526Z" fill="black"/>
<path d="M17.9641 17.526H16.6334C16.4497 17.526 16.3008 17.6741 16.3008 17.8568C16.3008 18.0396 16.4497 18.1877 16.6334 18.1877H17.9641C18.1478 18.1877 18.2967 18.0396 18.2967 17.8568C18.2967 17.6741 18.1478 17.526 17.9641 17.526Z" fill="black"/>
<path d="M4.65688 10.2474H6.65286C6.83661 10.2474 6.98552 10.0993 6.98552 9.91651V7.93143C6.98552 7.74869 6.83661 7.60059 6.65286 7.60059H4.65688C4.47314 7.60059 4.32422 7.74869 4.32422 7.93143V9.91651C4.32422 10.0993 4.47314 10.2474 4.65688 10.2474ZM4.98955 8.26228H6.3202V9.58567H4.98955V8.26228Z" fill="black"/>
<path d="M8.64907 10.2474H10.645C10.8288 10.2474 10.9777 10.0993 10.9777 9.91651V7.93143C10.9777 7.74869 10.8288 7.60059 10.645 7.60059H8.64907C8.46532 7.60059 8.31641 7.74869 8.31641 7.93143V9.91651C8.31641 10.0993 8.46532 10.2474 8.64907 10.2474ZM8.98172 8.26228H10.3124V9.58567H8.98172V8.26228Z" fill="black"/>
<path d="M6.65286 14.2175C6.83661 14.2175 6.98552 14.0694 6.98552 13.8867V11.9016C6.98552 11.7188 6.83661 11.5707 6.65286 11.5707H4.65688C4.47314 11.5707 4.32422 11.7188 4.32422 11.9016V13.8867C4.32422 14.0694 4.47314 14.2175 4.65688 14.2175H6.65286ZM4.98955 12.2324H6.3202V13.5558H4.98955V12.2324Z" fill="black"/>
<path d="M8.64907 14.2175H10.645C10.8288 14.2175 10.9777 14.0694 10.9777 13.8867V11.9016C10.9777 11.7188 10.8288 11.5707 10.645 11.5707H8.64907C8.46532 11.5707 8.31641 11.7188 8.31641 11.9016V13.8867C8.31641 14.0694 8.46532 14.2175 8.64907 14.2175ZM8.98172 12.2324H10.3124V13.5558H8.98172V12.2324Z" fill="black"/>
<path d="M13.9713 10.2473H15.302C15.4857 10.2473 15.6346 10.0992 15.6346 9.91648C15.6346 9.73374 15.4857 9.58563 15.302 9.58563H13.9713C13.7876 9.58563 13.6387 9.73374 13.6387 9.91648C13.6387 10.0992 13.7876 10.2473 13.9713 10.2473Z" fill="black"/>
<path d="M16.2995 10.2473H17.9628C18.1465 10.2473 18.2954 10.0992 18.2954 9.91648C18.2954 9.73374 18.1465 9.58563 17.9628 9.58563H16.2995C16.1157 9.58563 15.9668 9.73374 15.9668 9.91648C15.9668 10.0992 16.1157 10.2473 16.2995 10.2473Z" fill="black"/>
</g>
<defs>
<clipPath id="clip0">
<rect width="22" height="21.88" fill="white" transform="translate(0 0.983643)"/>
</clipPath>
</defs>
</svg>
