<svg width="22" height="23" viewBox="0 0 22 23" fill="none" xmlns="http://www.w3.org/2000/svg">
<path d="M10.783 16.9866C10.6074 16.9503 9.78391 17.0914 8.99913 16.6708C8.84233 16.5867 8.64691 16.645 8.56244 16.8008C8.478 16.9567 8.53657 17.1511 8.69323 17.2352C8.76009 17.271 8.82712 17.3035 8.89428 17.3331C8.23669 17.6204 7.70543 18.1389 7.39506 18.9054C7.1006 18.1884 6.59593 17.6433 5.8952 17.3323C6.60985 17.0151 7.10705 16.4604 7.39506 15.7593C7.45677 15.9108 7.51306 16.016 7.5152 16.0203C7.59607 16.178 7.79029 16.2406 7.94884 16.1601C8.1074 16.0797 8.1703 15.8866 8.08939 15.7289C8.08845 15.7246 7.69825 15.0163 7.74436 14.0736C7.7707 13.8969 7.64617 13.7213 7.45629 13.6865C7.28347 13.6527 7.09201 13.7617 7.04749 13.9548C7.02446 14.0548 7.19118 15.7859 5.92807 16.589C5.10578 17.1107 4.17224 16.9486 3.99831 16.9878C3.63062 17.0711 3.63092 17.5936 3.99831 17.6768C4.17009 17.7153 5.12194 17.5536 5.94449 18.0861C7.166 18.8777 7.03121 20.5627 7.03937 20.6382C7.03937 21.0334 7.60729 21.1224 7.73263 20.7368C7.77504 20.6054 7.59667 18.9342 8.80276 18.1129C9.59738 17.5713 10.5821 17.7019 10.7535 17.6828C11.1456 17.639 11.1807 17.0702 10.783 16.9866Z" fill="black"/>
<path d="M21.6542 10.7327C21.065 10.6676 16.8648 11.2544 15.0291 7.42133C14.0641 5.40512 14.3116 3.57733 14.259 3.34802C14.2117 3.14186 14.0157 3.01836 13.8283 3.04217C13.6146 3.06622 13.4729 3.24221 13.4729 3.41938V4.25116C13.3272 7.11061 12.0188 9.54476 9.27135 10.4015C7.68473 10.8965 6.30732 10.6827 6.05016 10.7387C5.63774 10.8317 5.63465 11.4208 6.05454 11.5136C6.4141 11.5891 9.11932 11.1532 11.2201 12.8883C11.3571 13.0014 11.5603 12.9827 11.674 12.8465C11.7877 12.7103 11.7689 12.5083 11.632 12.3951C10.9112 11.7997 10.0472 11.3743 9.05857 11.1271C11.6613 10.4751 13.2588 8.62734 13.8703 6.03909C14.4767 8.61148 16.061 10.4756 18.6918 11.1243C16.0873 11.7725 14.4677 13.6187 13.8666 16.1999C13.6428 15.2538 13.2695 14.3483 12.7083 13.5576C12.6057 13.4129 12.4046 13.3784 12.2591 13.4805C12.1136 13.5826 12.079 13.7826 12.1816 13.9272C12.3794 14.2059 12.5575 14.5096 12.7109 14.8299C13.6214 16.7323 13.4605 18.6677 13.4737 18.8544C13.5077 19.3314 14.2901 19.3554 14.2656 18.7657C14.2214 17.7028 14.3043 14.1021 17.2285 12.3935C19.2018 11.2417 21.3969 11.5782 21.6899 11.5126C22.1315 11.4129 22.0837 10.7807 21.6542 10.7327Z" fill="black"/>
<path d="M7.0601 5.45993C6.84186 5.41493 5.1213 5.71787 4.35268 4.17567C3.99135 3.45218 4.01645 2.64775 4.02139 2.54689C4.04726 2.37232 3.9254 2.19485 3.73303 2.15993C3.56128 2.12613 3.36891 2.23451 3.32444 2.42873C3.30149 2.5283 3.46808 4.25935 2.2051 5.0625C1.41164 5.56591 0.485577 5.43587 0.311038 5.45522C-0.0811374 5.49958 -0.112848 6.06235 0.275288 6.15026C0.462718 6.19222 1.39441 6.02411 2.22147 6.55957C3.10293 7.13067 3.28611 8.17954 3.3164 8.75949C3.32057 9.09094 3.30583 9.12948 3.332 9.21025C3.38017 9.3585 3.51634 9.45803 3.67076 9.45803C3.84805 9.45811 3.9917 9.32773 4.02014 9.16795C4.03982 9.05837 3.9538 8.22488 4.362 7.41819C4.44201 7.26003 4.37799 7.06734 4.219 6.98772C4.05998 6.90807 3.86623 6.97183 3.78618 7.12994C3.74544 7.2105 3.70759 7.29404 3.67266 7.3802C3.37836 6.66273 2.87365 6.11718 2.17232 5.80582C2.88693 5.48852 3.38408 4.93395 3.6721 4.23281C3.95994 4.93908 4.4531 5.49125 5.17076 5.80693C5.10042 5.83783 5.03008 5.87189 4.96026 5.90941C4.80364 5.99364 4.74541 6.18812 4.83015 6.34389C4.91484 6.49961 5.11035 6.55752 5.26701 6.47333C6.02773 6.06402 6.85883 6.17534 7.03058 6.15633C7.42482 6.11137 7.45472 5.54296 7.0601 5.45993Z" fill="black"/>
</svg>
