<svg width="30" height="30" viewBox="0 0 30 30" fill="none" xmlns="http://www.w3.org/2000/svg">
<g clip-path="url(#clip0)">
<path d="M29.7949 13.1014L11.5137 2.54729C10.9888 2.24526 10.3655 2.16366 9.78055 2.32037C9.19558 2.47708 8.69659 2.85931 8.39297 3.3833L6.28828 7.02854L4.88719 9.45502C4.58498 9.98011 4.50336 10.6036 4.66021 11.1888C4.81707 11.774 5.19959 12.2731 5.72391 12.5767L11.9918 16.1952L11.017 17.8574C10.8874 18.0774 10.7027 18.2598 10.4811 18.3868C10.2595 18.5137 10.0087 18.5808 9.75328 18.5813H6.09375V15.7923C6.09375 15.6835 6.05054 15.5792 5.97362 15.5023C5.8967 15.4253 5.79237 15.3821 5.68359 15.3821H3.45703V14.8529C3.45647 14.3713 3.26492 13.9097 2.9244 13.5691C2.58388 13.2286 2.12219 13.0371 1.64063 13.0365H0.410156C0.356285 13.0365 0.302936 13.0471 0.25316 13.0677C0.203383 13.0883 0.158156 13.1185 0.120063 13.1566C0.0819707 13.1947 0.05176 13.2399 0.0311586 13.2897C0.0105572 13.3394 -3.07429e-05 13.3928 6.70471e-08 13.4467V27.3491C-3.07429e-05 27.403 0.0105572 27.4563 0.0311586 27.5061C0.05176 27.5559 0.0819707 27.6011 0.120063 27.6392C0.158156 27.6773 0.203383 27.7075 0.25316 27.7281C0.302936 27.7487 0.356285 27.7593 0.410156 27.7592H1.64063C2.12219 27.7587 2.58388 27.5671 2.9244 27.2266C3.26492 26.8861 3.45647 26.4244 3.45703 25.9428V24.6399H5.68359C5.79237 24.6399 5.8967 24.5967 5.97362 24.5198C6.05054 24.4429 6.09375 24.3386 6.09375 24.2298V22.2142H9.75328C10.6418 22.2123 11.5145 21.9791 12.2856 21.5375C13.0566 21.0959 13.6994 20.4612 14.1506 19.6958L15.138 18.0121L18.5737 19.9956C18.9197 20.1963 19.3124 20.3022 19.7123 20.3026C19.9134 20.3025 20.1135 20.276 20.3077 20.2238C20.6807 20.1246 21.0223 19.9319 21.3002 19.6639C21.7496 19.8724 22.239 19.9807 22.7344 19.9813C23.038 19.9811 23.3402 19.941 23.6334 19.8622C24.3813 19.6635 25.0397 19.2174 25.5016 18.5966L26.3416 19.0815C26.3883 19.1085 26.4398 19.126 26.4932 19.133C26.5466 19.1401 26.6009 19.1365 26.653 19.1226C26.705 19.1086 26.7538 19.0845 26.7966 19.0517C26.8393 19.0189 26.8751 18.978 26.902 18.9313L29.9442 13.6623C29.9712 13.6157 29.9888 13.5642 29.9959 13.5107C30.0031 13.4573 29.9996 13.403 29.9857 13.3509C29.9719 13.2989 29.9479 13.25 29.9151 13.2072C29.8824 13.1644 29.8416 13.1284 29.7949 13.1014ZM2.63672 25.9428C2.63647 26.2069 2.53145 26.4602 2.3447 26.6469C2.15795 26.8337 1.90473 26.9387 1.64063 26.9389H0.820313V13.8568H1.64063C1.90473 13.8571 2.15795 13.9621 2.3447 14.1488C2.53145 14.3356 2.63647 14.5888 2.63672 14.8529V25.9428ZM5.27344 23.8196H3.45703V16.2024H5.27344V23.8196ZM13.4428 19.2807C13.0643 19.923 12.525 20.4557 11.878 20.8262C11.2311 21.1968 10.4988 21.3925 9.75328 21.3941H6.09375V19.4019H9.75328C10.1516 19.401 10.5429 19.2964 10.8885 19.0984C11.2342 18.9004 11.5223 18.6159 11.7246 18.2727L12.7031 16.6058L14.4286 17.6019L13.4428 19.2807ZM18.9844 19.2852L6.13406 11.8663C5.79791 11.6717 5.55266 11.3518 5.45213 10.9766C5.35159 10.6015 5.40399 10.2017 5.59781 9.86518L6.79312 7.794L18.5698 14.5932L22.1803 16.6778L20.9848 18.7499L20.9831 18.7524C20.9519 18.8054 20.9174 18.8563 20.8798 18.9048V18.9064C20.6635 19.1886 20.352 19.3826 20.0033 19.4523C19.6546 19.522 19.2925 19.4626 18.9844 19.2852ZM23.4227 19.0698C22.8855 19.215 22.3159 19.1851 21.7969 18.9842L22.8921 17.0874L24.7889 18.1824C24.4395 18.6163 23.9607 18.9271 23.4223 19.0698H23.4227ZM26.3981 18.1651L23.7457 16.6337L22.9453 16.1717L13.8898 10.9438L7.20375 7.08361L9.10336 3.79346C9.29798 3.45738 9.61797 3.21223 9.99312 3.11179C10.3683 3.01135 10.7679 3.06381 11.1045 3.25768L29.0295 13.607L26.3981 18.1651Z" fill="#2C2C2C"/>
<path d="M24.6459 15.9357C24.8847 16.0744 25.156 16.1476 25.4322 16.1478C25.5709 16.1477 25.7089 16.1294 25.8428 16.0934C26.1953 15.999 26.5042 15.7853 26.7168 15.4887C26.9294 15.1921 27.0326 14.8309 27.0087 14.4668C26.9849 14.1026 26.8356 13.758 26.5861 13.4917C26.3367 13.2253 26.0026 13.0536 25.6408 13.006C25.279 12.9583 24.9119 13.0375 24.602 13.2302C24.2921 13.4228 24.0585 13.717 23.9412 14.0626C23.8239 14.4081 23.8299 14.7836 23.9584 15.1252C24.0869 15.4667 24.3299 15.7532 24.6459 15.9357ZM24.7793 14.1912C24.8289 14.1052 24.895 14.0298 24.9739 13.9695C25.0528 13.9092 25.1428 13.865 25.2389 13.8397C25.3031 13.8225 25.3693 13.8137 25.4357 13.8137C25.6025 13.8137 25.7647 13.8687 25.897 13.9703C26.0293 14.0719 26.1244 14.2142 26.1676 14.3754C26.2107 14.5365 26.1995 14.7074 26.1357 14.8615C26.0718 15.0156 25.9589 15.1443 25.8144 15.2277C25.6699 15.311 25.502 15.3444 25.3366 15.3226C25.1712 15.3008 25.0177 15.2251 24.8998 15.1071C24.7818 14.9891 24.7061 14.8355 24.6844 14.6702C24.6626 14.5048 24.6961 14.3368 24.7795 14.1924L24.7793 14.1912Z" fill="#2C2C2C"/>
<path d="M10.6641 11.7819L7.30314 9.84099C7.25647 9.81363 7.20486 9.79578 7.15127 9.78845C7.09767 9.78112 7.04316 9.78447 6.99087 9.79829C6.93857 9.81212 6.88953 9.83615 6.84656 9.86901C6.80359 9.90187 6.76755 9.9429 6.7405 9.98974C6.71345 10.0366 6.69594 10.0883 6.68897 10.142C6.682 10.1956 6.6857 10.2501 6.69988 10.3023C6.71405 10.3545 6.73841 10.4034 6.77155 10.4461C6.80469 10.4889 6.84596 10.5246 6.89298 10.5514L10.2549 12.492C10.3487 12.5411 10.4578 12.5519 10.5595 12.5224C10.6611 12.4928 10.7474 12.425 10.8003 12.3333C10.8531 12.2416 10.8685 12.133 10.8431 12.0302C10.8177 11.9274 10.7536 11.8384 10.6641 11.7819Z" fill="#2C2C2C"/>
</g>
<defs>
<clipPath id="clip0">
<rect width="30" height="30" fill="white"/>
</clipPath>
</defs>
</svg>
