<svg width="50" height="50" viewBox="0 0 50 50" fill="none" xmlns="http://www.w3.org/2000/svg">
<path d="M48.4375 21.0938H40.625V18.75C40.625 18.318 40.2758 17.9688 39.8438 17.9688C38.6484 17.9688 37.5898 18.5203 36.8727 19.3687C36.6812 19.2516 36.4805 19.1492 36.2648 19.0773L34.6625 18.5422C34.0234 18.3297 33.5938 17.7344 33.5938 17.0609V16.4062H42.1875C43.0492 16.4062 43.75 15.7055 43.75 14.8438V2.34375C43.75 1.48203 43.0492 0.78125 42.1875 0.78125H20.3125C19.4508 0.78125 18.75 1.48203 18.75 2.34375V14.8438C18.75 15.7055 19.4508 16.4062 20.3125 16.4062H28.9062V17.0609C28.9062 17.7344 28.4766 18.3297 27.8375 18.543L26.2352 19.0773C25.2852 19.3938 24.5875 20.1617 24.3312 21.0938H14.8438V7.8125C14.8438 7.38047 14.4945 7.03125 14.0625 7.03125H4.6875C4.25547 7.03125 3.90625 7.38047 3.90625 7.8125V21.0938H1.5625C1.13047 21.0938 0.78125 21.443 0.78125 21.875V26.5625V48.4375C0.78125 48.8695 1.13047 49.2188 1.5625 49.2188H4.6875C5.11953 49.2188 5.46875 48.8695 5.46875 48.4375V42.9688H13.2812V48.4375C13.2812 48.8695 13.6305 49.2188 14.0625 49.2188H17.1875C17.6195 49.2188 17.9688 48.8695 17.9688 48.4375V27.3438H35.9375V32.8125H25.7812C23.6273 32.8125 21.875 34.5648 21.875 36.7188V38.2812C21.875 38.7133 22.2242 39.0625 22.6562 39.0625H28.9062V39.6547C28.9062 41.4797 28.2266 43.1961 26.9992 44.5312H25.7812C24.4891 44.5312 23.4375 45.5828 23.4375 46.875C23.4375 48.1672 24.4891 49.2188 25.7812 49.2188H36.7188C38.0109 49.2188 39.0625 48.1672 39.0625 46.875C39.0625 45.5828 38.0109 44.5312 36.7188 44.5312H35.5008C34.2734 43.1961 33.5938 41.4797 33.5938 39.6547V39.0625H38.2812C39.5734 39.0625 40.625 38.0109 40.625 36.7188V33.5938V27.3438H44.5312V48.4375C44.5312 48.8695 44.8805 49.2188 45.3125 49.2188H48.4375C48.8695 49.2188 49.2188 48.8695 49.2188 48.4375V26.5625V21.875C49.2188 21.443 48.8695 21.0938 48.4375 21.0938ZM42.1875 2.34375L42.1883 11.7188H20.3125V2.34375H42.1875ZM20.3125 13.2812H42.1891V14.8438H20.3125V13.2812ZM26.7297 20.5586L28.332 20.025C29.6094 19.5992 30.4688 18.4078 30.4688 17.0609V16.4062H32.0312V17.0609C32.0312 18.4086 32.8906 19.5992 34.168 20.025L35.7703 20.5594C35.8977 20.6023 36.0172 20.6625 36.1258 20.7391C36.0891 20.8578 36.0414 20.9711 36.0164 21.0945H26.0273C26.1945 20.85 26.4352 20.657 26.7297 20.5586ZM13.2812 16.4062H5.46875V13.2812H13.2812V16.4062ZM13.2812 8.59375V11.7188H5.46875V8.59375H13.2812ZM5.46875 17.9688H13.2812V21.0938H5.46875V17.9688ZM3.90625 47.6562H2.34375V27.3438H3.90625V47.6562ZM13.2812 27.3438V33.5938H5.46875V27.3438H13.2812ZM5.46875 41.4062V35.1562H13.2812V41.4062H5.46875ZM16.4062 47.6562H14.8438V27.3438H16.4062V47.6562ZM17.1875 25.7812H14.0625H4.6875H2.34375V22.6562H35.9375V25.7812H17.1875ZM37.5 21.875C37.5 20.8563 38.1531 19.9875 39.0625 19.6648V32.8125H37.5V21.875ZM37.5 46.875C37.5 47.3063 37.15 47.6562 36.7188 47.6562H25.7812C25.35 47.6562 25 47.3063 25 46.875C25 46.4437 25.35 46.0938 25.7812 46.0938H36.7188C37.15 46.0938 37.5 46.4437 37.5 46.875ZM33.507 44.5312H28.993C29.9523 43.1 30.4688 41.4172 30.4688 39.6547V39.0625H32.0312V39.6547C32.0312 41.4172 32.5477 43.1 33.507 44.5312ZM39.0625 36.7188C39.0625 37.15 38.7125 37.5 38.2812 37.5H23.4375V36.7188C23.4375 35.4266 24.4891 34.375 25.7812 34.375H39.0625V36.7188ZM40.625 22.6562H47.6562V25.7812H45.3125H40.625V22.6562ZM47.6562 47.6562H46.0938V27.3438H47.6562V47.6562Z" fill="#2C2C2C"/>
<path d="M7.8125 28.9062H10.9375V30.4688H7.8125V28.9062Z" fill="#2C2C2C"/>
<path d="M7.8125 36.7188H10.9375V38.2812H7.8125V36.7188Z" fill="#2C2C2C"/>
</svg>
