<svg width="20" height="20" viewBox="0 0 20 20" fill="none" xmlns="http://www.w3.org/2000/svg">
<path d="M18.9999 6.60327C18.9999 5.8199 18.8459 5.06074 18.5444 4.34339C18.2518 3.65244 17.8337 3.03191 17.3012 2.49939C16.7686 1.96688 16.1481 1.54879 15.4572 1.25613C14.742 0.952461 13.9806 0.800629 13.1973 0.800629C12.4139 0.800629 11.6547 0.954662 10.9374 1.25613C10.2465 1.54879 9.62592 1.96688 9.0934 2.49939C8.56089 3.03191 8.1428 3.65244 7.85014 4.34339C7.54647 5.05854 7.39464 5.8199 7.39464 6.60327C7.39464 7.58248 7.64109 8.54188 8.10979 9.39567L1.16291 16.3359C1.00227 16.4966 0.951664 16.7408 1.05068 16.9719C1.07049 17.0203 1.1035 17.0643 1.1409 17.1017L2.69664 18.6574C2.73404 18.6948 2.77805 18.7257 2.82646 18.7477C3.05751 18.8467 3.30177 18.7983 3.4624 18.6354L4.42401 17.6738L5.8081 19.0579C5.84551 19.0953 5.88952 19.1261 5.93791 19.1481C6.16896 19.2471 6.41323 19.1988 6.57384 19.0359L8.10757 17.5022C8.14498 17.4648 8.17579 17.4208 8.19779 17.3724C8.29681 17.1413 8.2484 16.897 8.08557 16.7364L6.72347 15.3743L10.4027 11.693C11.2542 12.1617 12.2158 12.4081 13.1951 12.4081C13.9784 12.4081 14.7376 12.2541 15.4549 11.9526C16.1459 11.6599 16.7664 11.2419 17.2989 10.7093C17.8314 10.1769 18.2495 9.55632 18.5422 8.86535C18.8459 8.1458 18.9999 7.38664 18.9999 6.60327ZM15.2305 8.6387C14.687 9.18222 13.963 9.48148 13.1951 9.48148C12.4271 9.48148 11.7032 9.18222 11.1597 8.6387C10.6161 8.09519 10.3147 7.37123 10.3147 6.60327C10.3147 5.8331 10.6139 5.11135 11.1575 4.56783C11.701 4.02432 12.425 3.72505 13.1929 3.72505C13.9609 3.72505 14.6848 4.02432 15.2283 4.56783C15.7719 5.11135 16.0711 5.8353 16.0711 6.60327C16.0755 7.37123 15.7762 8.09519 15.2305 8.6387Z" fill="#2C2C2C"/>
</svg>
