<svg width="22" height="22" viewBox="0 0 22 22" fill="none" xmlns="http://www.w3.org/2000/svg">
<path d="M16.1562 4.125H3.78125C3.59116 4.125 3.4375 4.27866 3.4375 4.46875V21.6562C3.4375 21.8463 3.59116 22 3.78125 22C3.97134 22 4.125 21.8463 4.125 21.6562V4.8125H15.8125V21.6562C15.8125 21.8463 15.9662 22 16.1562 22C16.3463 22 16.5 21.8463 16.5 21.6562V4.46875C16.5 4.27866 16.3463 4.125 16.1562 4.125Z" fill="#2C2C2C"/>
<path d="M15.125 5.15625H4.8125C4.62241 5.15625 4.46875 5.30991 4.46875 5.5V21.6562C4.46875 21.8463 4.62241 22 4.8125 22C5.00259 22 5.15625 21.8463 5.15625 21.6562V5.84375H14.7812V21.6562C14.7812 21.8463 14.9349 22 15.125 22C15.3151 22 15.4688 21.8463 15.4688 21.6562V5.5C15.4688 5.30991 15.3151 5.15625 15.125 5.15625Z" fill="#2C2C2C"/>
<path d="M18.4619 11.1006C18.3274 10.9662 18.1102 10.9662 17.9758 11.1006L17.2883 11.7881C17.1539 11.9225 17.1539 12.1397 17.2883 12.2741C17.3553 12.3411 17.4433 12.3748 17.5313 12.3748C17.6193 12.3748 17.7073 12.3411 17.7744 12.2741L18.4619 11.5866C18.5963 11.4522 18.5963 11.235 18.4619 11.1006Z" fill="#2C2C2C"/>
<path d="M19.1494 11.7881L18.4619 11.1006C18.3275 10.9662 18.1102 10.9662 17.9758 11.1006C17.8414 11.235 17.8414 11.4522 17.9758 11.5866L18.6633 12.2741C18.7303 12.3411 18.8183 12.3748 18.9063 12.3748C18.9943 12.3748 19.0823 12.3411 19.1494 12.2741C19.2838 12.1397 19.2838 11.9225 19.1494 11.7881Z" fill="#2C2C2C"/>
<path d="M19.1494 13.8506C19.0149 13.7162 18.7977 13.7162 18.6633 13.8506L17.9758 14.5381C17.8414 14.6725 17.8414 14.8897 17.9758 15.0241C18.0428 15.0911 18.1308 15.1248 18.2188 15.1248C18.3068 15.1248 18.3948 15.0911 18.4619 15.0241L19.1494 14.3366C19.2838 14.2022 19.2838 13.985 19.1494 13.8506Z" fill="#2C2C2C"/>
<path d="M18.4619 14.5381L17.7744 13.8506C17.64 13.7162 17.4227 13.7162 17.2883 13.8506C17.1539 13.985 17.1539 14.2022 17.2883 14.3366L17.9758 15.0241C18.0428 15.0911 18.1308 15.1248 18.2188 15.1248C18.3068 15.1248 18.3948 15.0911 18.4619 15.0241C18.5963 14.8897 18.5963 14.6725 18.4619 14.5381Z" fill="#2C2C2C"/>
<path d="M9.96875 5.15625C9.77866 5.15625 9.625 5.30991 9.625 5.5V21.6562C9.625 21.8463 9.77866 22 9.96875 22C10.1588 22 10.3125 21.8463 10.3125 21.6562V5.5C10.3125 5.30991 10.1588 5.15625 9.96875 5.15625Z" fill="#2C2C2C"/>
<path d="M16.8438 21.3125H3.09375C2.90366 21.3125 2.75 21.4662 2.75 21.6562C2.75 21.8463 2.90366 22 3.09375 22H16.8438C17.0338 22 17.1875 21.8463 17.1875 21.6562C17.1875 21.4662 17.0338 21.3125 16.8438 21.3125Z" fill="#2C2C2C"/>
<path d="M9.96875 0C8.26272 0 6.875 1.38772 6.875 3.09375C6.875 3.28384 7.02866 3.4375 7.21875 3.4375C7.40884 3.4375 7.5625 3.28384 7.5625 3.09375C7.5625 1.76722 8.64222 0.6875 9.96875 0.6875C11.2953 0.6875 12.375 1.76722 12.375 3.09375C12.375 3.28384 12.5287 3.4375 12.7188 3.4375C12.9088 3.4375 13.0625 3.28384 13.0625 3.09375C13.0625 1.38772 11.6748 0 9.96875 0Z" fill="#2C2C2C"/>
<path d="M12.7188 2.75H7.21875C7.02866 2.75 6.875 2.90366 6.875 3.09375C6.875 3.28384 7.02866 3.4375 7.21875 3.4375H12.7188C12.9088 3.4375 13.0625 3.28384 13.0625 3.09375C13.0625 2.90366 12.9088 2.75 12.7188 2.75Z" fill="#2C2C2C"/>
<path d="M9.96875 1.375C9.77866 1.375 9.625 1.52866 9.625 1.71875V3.09375C9.625 3.28384 9.77866 3.4375 9.96875 3.4375C10.1588 3.4375 10.3125 3.28384 10.3125 3.09375V1.71875C10.3125 1.52866 10.1588 1.375 9.96875 1.375Z" fill="#2C2C2C"/>
</svg>
