<svg width="50" height="50" viewBox="0 0 50 50" fill="none" xmlns="http://www.w3.org/2000/svg">
<path d="M47.3262 21.9453C47.6985 21.9453 48 21.6435 48 21.2715V16.8691C48 16.4971 47.6985 16.1953 47.3262 16.1953H44.7733V6.7168C44.7733 6.34479 44.4715 6.04297 44.0995 6.04297H42.2939V2.67383C42.2939 2.30182 41.9924 2 41.62 2H15.7461C14.8768 2 14.8768 3.34766 15.7461 3.34766H40.9462V5.95312H9.05379V3.34766H11.7031C12.5724 3.34766 12.5724 2 11.7031 2H8.37996C8.0076 2 7.70613 2.30182 7.70613 2.67383V6.04297H5.90048C5.52847 6.04297 5.22665 6.34479 5.22665 6.7168V16.1953H2.67383C2.30147 16.1953 2 16.4971 2 16.8691V21.2715C2 21.6435 2.30147 21.9453 2.67383 21.9453H5.22665V30.0312H2.67383C2.30147 30.0312 2 30.3331 2 30.7051V35.1074C2 35.4794 2.30147 35.7812 2.67383 35.7812H5.22665V41.6853C5.21788 41.6853 5.20946 41.6843 5.20033 41.6843C3.45926 41.6843 2.04282 43.1011 2.04282 44.8421C2.04282 46.5836 3.45926 48 5.20033 48H44.8421C46.5832 48 48 46.5836 48 44.8421C48 43.1011 46.5832 41.6843 44.8421 41.6843C44.819 41.6843 44.7962 41.6864 44.7733 41.6871V35.7812H47.3262C47.6985 35.7812 48 35.4794 48 35.1074V30.7051C48 30.3331 47.6985 30.0312 47.3262 30.0312H44.7733V21.9453H47.3262ZM46.6523 20.5977H35.6914V17.543H46.6523V20.5977ZM43.418 16.1953H35.6914V13.1406H43.418V16.1953ZM14.3086 16.1953H6.58203V13.1406H14.3086V16.1953ZM3.34766 17.543H14.3086V20.5977H3.34766V17.543ZM14.3086 30.0312H6.58203V26.9766H14.3086V30.0312ZM3.34766 31.3789H14.3086V34.4336H3.34766V31.3789ZM3.39047 44.8421C3.39047 43.844 4.20258 43.0319 5.20033 43.0319C5.48495 43.0319 5.75764 43.0965 6.01103 43.2235C6.23108 43.3341 6.49394 43.3158 6.69679 43.1755C6.89929 43.0354 7.00914 42.7957 6.98352 42.5508C6.9765 42.4865 6.97299 42.4216 6.97299 42.3581C6.97299 41.36 7.7851 40.5479 8.7832 40.5479C9.78131 40.5479 10.5934 41.36 10.5934 42.3581C10.5934 42.4216 10.5899 42.4862 10.5829 42.5508C10.5573 42.7957 10.6671 43.0354 10.8696 43.1755C11.0721 43.3158 11.3353 43.3341 11.5554 43.2235C11.8088 43.0965 12.0815 43.0319 12.3661 43.0319C13.3638 43.0319 14.1759 43.844 14.1759 44.8421C14.1759 45.8402 13.3638 46.6523 12.3661 46.6523H5.20033C4.20258 46.6523 3.39047 45.8402 3.39047 44.8421ZM19.4746 46.6523V36.9492H24.3262V46.6523H19.4746ZM46.6523 44.8421C46.6523 45.8402 45.8402 46.6523 44.8421 46.6523H37.6767C36.6786 46.6523 35.8669 45.8402 35.8669 44.8421C35.8669 43.844 36.6786 43.0319 37.6767 43.0319C37.9614 43.0319 38.2341 43.0965 38.4871 43.2235C38.7075 43.3341 38.9704 43.3158 39.1732 43.1755C39.3757 43.0354 39.4855 42.7957 39.4596 42.5508C39.4529 42.4858 39.4494 42.4209 39.4494 42.3581C39.4494 41.36 40.2615 40.5479 41.2596 40.5479C42.2577 40.5479 43.0695 41.36 43.0695 42.3581C43.0695 42.4216 43.0663 42.4862 43.0593 42.5508C43.0337 42.7957 43.1435 43.0354 43.346 43.1755C43.5485 43.3158 43.8117 43.3341 44.0318 43.2235C44.2852 43.0965 44.5579 43.0319 44.8421 43.0319C45.8402 43.0319 46.6523 43.844 46.6523 44.8421ZM46.6523 34.4336H35.6914V31.3789H37.2188C38.0881 31.3789 38.0881 30.0312 37.2188 30.0312H35.6914V26.9766H43.418V30.0312H41.4414C40.5721 30.0312 40.5721 31.3789 41.4414 31.3789H46.6523V34.4336ZM43.4257 25.6289H35.0176C34.6452 25.6289 34.3438 25.9307 34.3438 26.3027V35.1074C34.3438 35.4794 34.6452 35.7812 35.0176 35.7812H43.4257V40.0632C42.8596 39.5291 42.0973 39.2002 41.2596 39.2002C39.7361 39.2002 38.4611 40.2843 38.166 41.7218C38.0056 41.6969 37.8424 41.6843 37.6767 41.6843C35.9357 41.6843 34.5192 43.1011 34.5192 44.8421C34.5192 45.5153 34.7316 46.1393 35.0916 46.6523H31.873V44.6758C31.873 43.8065 30.5254 43.8065 30.5254 44.6758V46.6523H25.6738V36.9492H30.5254V40.543C30.5254 41.4123 31.873 41.4123 31.873 40.543V36.2754C31.873 35.9034 31.5716 35.6016 31.1992 35.6016H18.8008C18.4284 35.6016 18.127 35.9034 18.127 36.2754V46.6523H14.9512C15.3113 46.1393 15.5236 45.5153 15.5236 44.8421C15.5236 43.1011 14.1071 41.6843 12.3661 41.6843C12.2004 41.6843 12.0372 41.6969 11.8768 41.7218C11.5813 40.2843 10.3067 39.2002 8.7832 39.2002C7.92442 39.2002 7.14426 39.5452 6.57431 40.1036V35.7812H14.9824C15.3548 35.7812 15.6562 35.4794 15.6562 35.1074V26.3027C15.6562 25.9307 15.3548 25.6289 14.9824 25.6289H6.57431V21.9453H14.9824C15.3548 21.9453 15.6562 21.6435 15.6562 21.2715V12.4668C15.6562 12.0948 15.3548 11.793 14.9824 11.793H6.57431V7.39062H43.4257V11.793H35.0176C34.6452 11.793 34.3438 12.0948 34.3438 12.4668V21.2715C34.3438 21.6435 34.6452 21.9453 35.0176 21.9453H43.4257V25.6289Z" fill="#2C2C2C"/>
<path d="M23.2857 12H18.7143C18.3196 12 18 12.2666 18 12.5952V16.4048C18 16.7334 18.3196 17 18.7143 17H23.2857C23.6804 17 24 16.7334 24 16.4048V12.5952C24 12.2666 23.6804 12 23.2857 12ZM22.5714 15.8095H19.4286V13.1905H22.5714V15.8095Z" fill="#2C2C2C"/>
<path d="M31.2857 12H26.7143C26.3196 12 26 12.2666 26 12.5952V16.4048C26 16.7334 26.3196 17 26.7143 17H31.2857C31.6804 17 32 16.7334 32 16.4048V12.5952C32 12.2666 31.6804 12 31.2857 12ZM30.5714 15.8095H27.4286V13.1905H30.5714V15.8095Z" fill="#2C2C2C"/>
<path d="M23.2857 26H18.7143C18.3196 26 18 26.3199 18 26.7143V31.2857C18 31.6801 18.3196 32 18.7143 32H23.2857C23.6804 32 24 31.6801 24 31.2857V26.7143C24 26.3199 23.6804 26 23.2857 26ZM22.5714 30.5714H19.4286V27.4286H22.5714V30.5714Z" fill="#2C2C2C"/>
<path d="M31.2857 26H26.7143C26.3196 26 26 26.3199 26 26.7143V31.2857C26 31.6801 26.3196 32 26.7143 32H31.2857C31.6804 32 32 31.6801 32 31.2857V26.7143C32 26.3199 31.6804 26 31.2857 26ZM30.5714 30.5714H27.4286V27.4286H30.5714V30.5714Z" fill="#2C2C2C"/>
</svg>
