<svg width="22" height="22" viewBox="0 0 22 22" fill="none" xmlns="http://www.w3.org/2000/svg">
<path d="M19.9089 12.6016C19.6413 12.5895 19.3744 12.6377 19.128 12.7427V11.1748C19.1284 10.9493 19.0392 10.733 18.8803 10.5732C18.7213 10.4134 18.5054 10.3231 18.28 10.3223H10.4778C10.2524 10.3231 10.0365 10.4134 9.87753 10.5732C9.71855 10.733 9.62946 10.9493 9.62979 11.1748V12.7427C9.38337 12.6377 9.11649 12.5895 8.84892 12.6016C7.95968 12.6428 7.2311 13.3622 7.19032 14.2391C7.15045 15.0939 7.76095 15.8483 8.59931 16.0088V20.7464C8.59947 20.8914 8.65711 21.0303 8.75959 21.1328C8.86207 21.2353 9.00102 21.293 9.14596 21.2931H10.1369C10.2818 21.2929 10.4207 21.2353 10.5231 21.1329C10.6256 21.0305 10.6833 20.8917 10.6836 20.7468L10.6843 19.7285H18.0736L18.0743 20.7468C18.0746 20.8917 18.1323 21.0305 18.2348 21.1329C18.3372 21.2353 18.4761 21.2929 18.621 21.2931H19.6119C19.7569 21.2929 19.8958 21.2353 19.9983 21.1328C20.1008 21.0303 20.1585 20.8913 20.1586 20.7464V16.0088C20.997 15.8483 21.6075 15.0939 21.5676 14.2392C21.5265 13.3621 20.7981 12.6428 19.9089 12.6016ZM10.1454 11.1748C10.145 11.0861 10.1797 11.0008 10.242 10.9376C10.3043 10.8745 10.3891 10.8386 10.4778 10.8379H18.28C18.3687 10.8386 18.4535 10.8745 18.5158 10.9376C18.5781 11.0008 18.6129 11.086 18.6124 11.1748V13.0779C18.6081 13.0819 18.6038 13.0856 18.5995 13.0896C18.4318 13.2474 18.2983 13.4379 18.207 13.6493C18.1157 13.8607 18.0687 14.0885 18.0688 14.3188L18.0685 14.3498C18.0681 14.3825 18.0676 14.419 18.0701 14.4563L18.0709 15.7915C17.3354 15.5914 16.5847 15.4516 15.8265 15.3734L16.3018 14.0647C16.3251 14.0004 16.322 13.9295 16.2931 13.8675C16.2641 13.8056 16.2118 13.7576 16.1475 13.7343C16.0833 13.7109 16.0123 13.714 15.9504 13.743C15.8884 13.7719 15.8405 13.8242 15.8171 13.8885L15.2941 15.3286C14.7279 15.292 14.16 15.2897 13.5936 15.3219L12.9318 13.9005C12.9024 13.8395 12.8501 13.7924 12.7863 13.7696C12.7225 13.7468 12.6522 13.7501 12.5908 13.7787C12.5293 13.8073 12.4816 13.859 12.458 13.9225C12.4343 13.986 12.4366 14.0563 12.4644 14.1181L13.0445 15.3642C12.2478 15.4412 11.459 15.5857 10.6867 15.7961L10.6876 14.4562C10.6901 14.4189 10.6896 14.3824 10.6891 14.3499L10.6888 14.3186C10.6889 14.0884 10.6419 13.8605 10.5506 13.6491C10.4594 13.4377 10.3258 13.2472 10.1581 13.0894C10.1538 13.0854 10.1495 13.0818 10.1452 13.0778L10.1454 11.1748ZM10.6865 16.3314C11.5795 16.0781 12.4961 15.9167 13.4219 15.8498C13.4262 15.8501 13.4309 15.8508 13.4355 15.8508C13.452 15.8507 13.4684 15.849 13.4845 15.8458C15.0297 15.7418 16.5813 15.9044 18.0713 16.3265L18.0726 18.241H10.6851L10.6865 16.3314ZM10.1368 20.7776H9.14583C9.1376 20.7775 9.12971 20.7743 9.12389 20.7684C9.11807 20.7626 9.11481 20.7547 9.11481 20.7465V15.8898C9.11477 15.7977 9.08097 15.7087 9.01982 15.6399C8.95866 15.571 8.87438 15.5269 8.78292 15.5159C8.47861 15.481 8.19866 15.3327 7.99891 15.1005C7.79916 14.8683 7.6943 14.5693 7.70526 14.2632C7.73388 13.6493 8.24667 13.1457 8.87276 13.1167C8.89216 13.1159 8.91151 13.1154 8.93081 13.1154C9.20193 13.1156 9.46586 13.2026 9.68397 13.3636C9.70808 13.3946 9.73894 13.4197 9.77421 13.4371C9.78362 13.4457 9.79311 13.4538 9.80226 13.4626C9.91929 13.5724 10.0126 13.705 10.0764 13.8523C10.1403 13.9996 10.1733 14.1583 10.1734 14.3188C10.1734 14.3311 10.1734 14.3439 10.1738 14.357C10.1741 14.3814 10.1745 14.409 10.1731 14.4254C10.1725 14.4325 10.1722 14.4396 10.1722 14.4467L10.1695 18.4986L10.1688 19.4702V19.4709L10.168 20.7463C10.168 20.7504 10.1672 20.7545 10.1656 20.7583C10.1641 20.7621 10.1618 20.7655 10.1589 20.7684C10.156 20.7713 10.1526 20.7736 10.1488 20.7752C10.145 20.7768 10.1409 20.7776 10.1368 20.7776ZM10.6845 19.2129L10.6848 18.7566H18.0729L18.0733 19.2129H10.6845ZM19.9749 15.5159C19.8834 15.5269 19.7991 15.571 19.738 15.6399C19.6768 15.7087 19.643 15.7977 19.643 15.8898V20.7464C19.643 20.7547 19.6397 20.7626 19.6339 20.7684C19.6281 20.7742 19.6202 20.7775 19.6119 20.7775H18.621C18.6128 20.7775 18.6049 20.7742 18.599 20.7684C18.5932 20.7626 18.5899 20.7547 18.5899 20.7465L18.5868 16.1308V16.1284L18.5857 14.4466C18.5857 14.4395 18.5854 14.4324 18.5848 14.4254C18.5834 14.4087 18.5838 14.381 18.5841 14.3566C18.5841 14.3437 18.5844 14.3308 18.5844 14.3188C18.5846 14.1583 18.6176 13.9996 18.6815 13.8523C18.7453 13.7051 18.8386 13.5724 18.9556 13.4626C18.9648 13.454 18.9743 13.4454 18.9837 13.4371C19.019 13.4197 19.0498 13.3946 19.0739 13.3636C19.292 13.2025 19.5559 13.1156 19.827 13.1154C19.8463 13.1154 19.8657 13.1158 19.8851 13.1167C20.5111 13.1457 21.0238 13.6493 21.0526 14.2632C21.0636 14.5693 20.9587 14.8683 20.7589 15.1005C20.5592 15.3327 20.2792 15.481 19.9749 15.5159Z" fill="#2C2C2C"/>
<path d="M8.43721 7.65624C8.55134 8.07226 8.9225 8.37945 9.35726 8.37945C9.79202 8.37945 10.1631 8.07226 10.2773 7.65624H10.6073V7.93644C10.6073 8.00481 10.6345 8.07039 10.6828 8.11874C10.7312 8.16709 10.7967 8.19425 10.8651 8.19425H18.1675C18.2359 8.19425 18.3014 8.16709 18.3498 8.11874C18.3981 8.07039 18.4253 8.00481 18.4253 7.93644V2.23019C18.4253 2.16181 18.3981 2.09624 18.3498 2.04789C18.3014 1.99954 18.2359 1.97238 18.1675 1.97238H10.8651C10.7967 1.97238 10.7312 1.99954 10.6828 2.04789C10.6345 2.09624 10.6073 2.16181 10.6073 2.23019V5.09998C10.2962 4.88642 9.93652 4.75425 9.56115 4.71554C9.44277 2.48426 7.6728 0.707031 5.51392 0.707031C3.28612 0.707031 1.47254 2.59959 1.46055 4.9306C1.46012 4.93657 1.45965 4.94255 1.45965 4.94861V20.7777H0.6875C0.619124 20.7777 0.553548 20.8049 0.505199 20.8532C0.45685 20.9016 0.429688 20.9672 0.429688 21.0355C0.429688 21.1039 0.45685 21.1695 0.505199 21.2178C0.553548 21.2662 0.619124 21.2934 0.6875 21.2934H3.01641C3.08478 21.2934 3.15036 21.2662 3.19871 21.2178C3.24706 21.1695 3.27422 21.1039 3.27422 21.0355C3.27422 20.9672 3.24706 20.9016 3.19871 20.8532C3.15036 20.8049 3.08478 20.7777 3.01641 20.7777H1.97527V4.96605C1.97549 4.96175 1.97588 4.9578 1.97588 4.95359C1.97588 2.89625 3.56305 1.22248 5.51392 1.22248C7.38955 1.22248 8.92861 2.76957 9.04471 4.71713C8.48876 4.77889 7.97504 5.0433 7.60171 5.45985C7.22838 5.8764 7.0216 6.4159 7.02088 6.97527V7.39843C7.02088 7.4668 7.04804 7.53238 7.09639 7.58073C7.14474 7.62908 7.21032 7.65624 7.27869 7.65624H8.43721ZM9.35726 7.86382C9.28416 7.86263 9.21255 7.84298 9.14908 7.80669C9.08562 7.77039 9.03236 7.71864 8.99426 7.65624H9.72043C9.68232 7.71866 9.62903 7.77042 9.56553 7.80672C9.50204 7.84301 9.43039 7.86265 9.35726 7.86382ZM11.1229 7.65624H11.3409C11.4093 7.65624 11.4749 7.62908 11.5232 7.58073C11.5716 7.53238 11.5987 7.4668 11.5987 7.39843V7.29152L12.8912 6.01341L14.456 7.67863H11.1229V7.65624ZM15.1635 7.67854L15.1241 7.6366L16.3414 6.61111L17.4811 7.67863L15.1635 7.67854ZM17.9097 2.48791V7.37355L16.5266 6.07821C16.4806 6.03505 16.4203 6.01029 16.3572 6.00863C16.2941 6.00697 16.2325 6.02852 16.1843 6.06919L14.7706 7.26028L13.0859 5.46758C13.0624 5.44251 13.034 5.42241 13.0026 5.40846C12.9711 5.39452 12.9372 5.38703 12.9028 5.38641C12.8683 5.38545 12.8341 5.39156 12.8021 5.40436C12.7701 5.41716 12.741 5.43638 12.7168 5.46084L11.5668 6.59792C11.5047 6.22927 11.3522 5.88175 11.1229 5.58648V2.488L17.9097 2.48791ZM7.53672 6.97527C7.53724 6.50962 7.72245 6.06319 8.05172 5.73392C8.38098 5.40466 8.82741 5.21944 9.29307 5.21892H9.32693C9.79257 5.21946 10.239 5.40467 10.5683 5.73393C10.8975 6.0632 11.0827 6.50962 11.0833 6.97527V7.10366C11.0784 7.11565 11.0745 7.12801 11.0716 7.14061H7.53672V6.97527Z" fill="#2C2C2C"/>
<path d="M8.95225 5.79033C8.93266 5.76271 8.90783 5.73922 8.87917 5.7212C8.85051 5.70318 8.81858 5.69098 8.7852 5.6853C8.75183 5.67962 8.71766 5.68056 8.68465 5.68809C8.65164 5.69561 8.62043 5.70956 8.59281 5.72915C8.3569 5.89612 8.15473 6.10624 7.99697 6.34841C7.97847 6.37677 7.96573 6.4085 7.95949 6.44177C7.95325 6.47505 7.95363 6.50923 7.9606 6.54237C7.96757 6.5755 7.981 6.60694 8.00012 6.63488C8.01924 6.66282 8.04367 6.68673 8.07203 6.70523C8.10039 6.72373 8.13211 6.73646 8.16539 6.7427C8.19867 6.74894 8.23285 6.74856 8.26598 6.74159C8.29912 6.73462 8.33055 6.72119 8.3585 6.70208C8.38644 6.68296 8.41034 6.65852 8.42884 6.63016C8.55121 6.44229 8.70805 6.27929 8.89106 6.14977C8.91868 6.13019 8.94217 6.10535 8.96019 6.07669C8.97821 6.04803 8.99041 6.0161 8.99609 5.98272C9.00178 5.94935 9.00083 5.91518 8.9933 5.88217C8.98578 5.84916 8.97183 5.81795 8.95225 5.79033Z" fill="#2C2C2C"/>
<path d="M14.6372 5.65804C14.8168 5.65804 14.9923 5.6048 15.1416 5.50506C15.2909 5.40531 15.4072 5.26354 15.4759 5.09767C15.5446 4.9318 15.5626 4.74928 15.5276 4.57319C15.4925 4.3971 15.4061 4.23536 15.2791 4.10841C15.1522 3.98145 14.9904 3.895 14.8143 3.85997C14.6383 3.82495 14.4557 3.84292 14.2899 3.91163C14.124 3.98033 13.9822 4.09668 13.8825 4.24596C13.7827 4.39524 13.7295 4.57075 13.7295 4.75029C13.7298 4.99095 13.8255 5.22169 13.9957 5.39186C14.1658 5.56204 14.3966 5.65777 14.6372 5.65804ZM14.6372 4.35815C14.7148 4.35815 14.7906 4.38115 14.8551 4.42424C14.9196 4.46733 14.9699 4.52857 14.9995 4.60022C15.0292 4.67188 15.037 4.75072 15.0218 4.82679C15.0067 4.90285 14.9694 4.97272 14.9145 5.02757C14.8597 5.08241 14.7898 5.11975 14.7137 5.13488C14.6377 5.15001 14.5588 5.14225 14.4872 5.11257C14.4155 5.08289 14.3543 5.03263 14.3112 4.96814C14.2681 4.90366 14.2451 4.82784 14.2451 4.75029C14.2452 4.64632 14.2866 4.54665 14.3601 4.47313C14.4336 4.39962 14.5333 4.35827 14.6372 4.35815Z" fill="#2C2C2C"/>
</svg>
