<svg width="50" height="50" viewBox="0 0 50 50" fill="none" xmlns="http://www.w3.org/2000/svg">
<path d="M47.2048 14.8047L25.3939 1.59639C25.2729 1.52257 25.1339 1.48352 24.9921 1.48352C24.8504 1.48352 24.7114 1.52257 24.5904 1.59639L2.79348 14.8047C2.68163 14.8757 2.59032 14.9747 2.52864 15.092C2.46696 15.2092 2.43706 15.3406 2.44192 15.4729V47.7354C2.44192 48.1668 2.7469 48.5352 3.17834 48.5352H7.82942C8.03682 48.5303 8.23381 48.4433 8.37719 48.2934C8.52057 48.1434 8.59864 47.9428 8.59426 47.7354V25.5859H41.4068V47.7354C41.4024 47.9428 41.4804 48.1434 41.6238 48.2934C41.7672 48.4433 41.9642 48.5303 42.1716 48.5352H46.8227C47.2541 48.5352 47.5591 48.1668 47.5591 47.7354V15.4731C47.5635 15.3405 47.5331 15.209 47.4709 15.0918C47.4088 14.9745 47.317 14.8755 47.2048 14.8047ZM8.59426 24.0234V20.8984H41.4068V24.0234H8.59426ZM45.9966 46.9727H42.9693V20.1243C42.9658 19.9147 42.8804 19.7147 42.7313 19.5674C42.5822 19.42 42.3813 19.3369 42.1716 19.3359H7.82942C7.61976 19.3369 7.41883 19.42 7.26972 19.5674C7.12061 19.7147 7.03518 19.9147 7.03176 20.1243V46.9727H4.00442V15.9136L25.0005 3.17793L45.9966 15.9136V46.9727Z" fill="#2C2C2C"/>
<path d="M37.1358 34.3644L35.071 28.7768C34.8846 28.2738 34.5497 27.8395 34.1107 27.5312C33.6718 27.223 33.1495 27.0554 32.6131 27.0508H17.7552C17.2189 27.0555 16.6966 27.2231 16.2577 27.5313C15.8187 27.8395 15.4838 28.2739 15.2972 28.7768L13.2613 34.2791L12.4591 35.0357C12.0721 35.3691 11.7619 35.7823 11.5498 36.247C11.3377 36.7117 11.2288 37.2168 11.2306 37.7276V47.7354C11.2267 47.943 11.3051 48.1437 11.4488 48.2936C11.5925 48.4435 11.7897 48.5303 11.9973 48.5352H17.2107C17.313 48.5326 17.4139 48.5098 17.5074 48.4682C17.601 48.4266 17.6854 48.3669 17.7558 48.2926C17.8263 48.2183 17.8813 48.1309 17.9179 48.0352C17.9545 47.9396 17.9718 47.8377 17.9689 47.7354V44.9219H32.0314V47.7354C32.0285 47.8377 32.0458 47.9396 32.0824 48.0352C32.119 48.1309 32.174 48.2183 32.2445 48.2926C32.3149 48.3669 32.3993 48.4266 32.4929 48.4682C32.5864 48.5098 32.6872 48.5326 32.7896 48.5352H38.003C38.2106 48.5303 38.4078 48.4435 38.5515 48.2936C38.6952 48.1437 38.7736 47.943 38.7697 47.7354V37.5169C38.7702 37.0397 38.6745 36.5673 38.4882 36.128C38.302 35.6886 38.029 35.2914 37.6857 34.96L37.1358 34.3644ZM16.7624 29.3359C16.8365 29.1299 16.9708 28.951 17.1478 28.8221C17.3248 28.6933 17.5364 28.6205 17.7552 28.6133H32.6131C32.8319 28.6205 33.0435 28.6933 33.2206 28.8221C33.3976 28.951 33.5318 29.1299 33.606 29.3359L35.3164 33.9844H15.0519L16.7624 29.3359ZM16.4064 46.9727H12.7931V44.9219H16.4064V46.9727ZM33.5939 46.9727V44.9219H37.2072V46.9727H33.5939ZM37.2072 43.3594H12.7931V37.7276C12.7915 37.441 12.8526 37.1574 12.972 36.8968C13.0914 36.6362 13.2663 36.4048 13.4844 36.2188C13.4934 36.2111 13.4986 36.2198 13.5073 36.2117L14.2365 35.5469H36.0714L36.5676 36.0605C36.5786 36.0724 36.5827 36.0755 36.5944 36.0865C36.7887 36.2705 36.9433 36.4923 37.0487 36.7383C37.1541 36.9843 37.208 37.2493 37.2072 37.5169V43.3594Z" fill="#2C2C2C"/>
<path d="M16.6488 37.4023H16.1982C15.5896 37.4023 15.0059 37.6441 14.5755 38.0745C14.1451 38.5049 13.9033 39.0886 13.9033 39.6973C13.9033 40.3059 14.1451 40.8896 14.5755 41.32C15.0059 41.7504 15.5896 41.9922 16.1982 41.9922H16.6488C17.2575 41.9922 17.8412 41.7504 18.2716 41.32C18.702 40.8896 18.9438 40.3059 18.9438 39.6973C18.9438 39.0886 18.702 38.5049 18.2716 38.0745C17.8412 37.6441 17.2575 37.4023 16.6488 37.4023ZM16.6488 40.4297H16.1982C16.004 40.4297 15.8177 40.3525 15.6803 40.2152C15.543 40.0778 15.4658 39.8915 15.4658 39.6973C15.4658 39.503 15.543 39.3167 15.6803 39.1794C15.8177 39.042 16.004 38.9648 16.1982 38.9648H16.6488C16.8431 38.9648 17.0294 39.042 17.1667 39.1794C17.3041 39.3167 17.3813 39.503 17.3813 39.6973C17.3813 39.8915 17.3041 40.0778 17.1667 40.2152C17.0294 40.3525 16.8431 40.4297 16.6488 40.4297Z" fill="#2C2C2C"/>
<path d="M33.8012 37.4023H33.3506C32.7419 37.4023 32.1582 37.6441 31.7278 38.0745C31.2975 38.5049 31.0557 39.0886 31.0557 39.6973C31.0557 40.3059 31.2975 40.8896 31.7278 41.32C32.1582 41.7504 32.7419 41.9922 33.3506 41.9922H33.8012C34.4098 41.9922 34.9935 41.7504 35.4239 41.32C35.8543 40.8896 36.0961 40.3059 36.0961 39.6973C36.0961 39.0886 35.8543 38.5049 35.4239 38.0745C34.9935 37.6441 34.4098 37.4023 33.8012 37.4023ZM33.8012 40.4297H33.3506C33.1563 40.4297 32.97 40.3525 32.8327 40.2152C32.6953 40.0778 32.6182 39.8915 32.6182 39.6973C32.6182 39.503 32.6953 39.3167 32.8327 39.1794C32.97 39.042 33.1563 38.9648 33.3506 38.9648H33.8012C33.9954 38.9648 34.1817 39.042 34.3191 39.1794C34.4564 39.3167 34.5336 39.503 34.5336 39.6973C34.5336 39.8915 34.4564 40.0778 34.3191 40.2152C34.1817 40.3525 33.9954 40.4297 33.8012 40.4297Z" fill="#2C2C2C"/>
<path d="M29.6875 38.2812C29.6875 38.074 29.6052 37.8753 29.4587 37.7288C29.3122 37.5823 29.1135 37.5 28.9062 37.5H20.9961C20.7889 37.5 20.5902 37.5823 20.4437 37.7288C20.2972 37.8753 20.2148 38.074 20.2148 38.2812V41.2109C20.2148 41.4181 20.2972 41.6169 20.4437 41.7634C20.5902 41.9099 20.7889 41.9922 20.9961 41.9922H28.9062C29.1135 41.9922 29.3122 41.9099 29.4587 41.7634C29.6052 41.6169 29.6875 41.4181 29.6875 41.2109V38.2812ZM28.2227 40.4297H21.7773V39.0625H28.2227V40.4297Z" fill="#2C2C2C"/>
</svg>
