<svg width="22" height="22" viewBox="0 0 22 22" fill="none" xmlns="http://www.w3.org/2000/svg">
<g clip-path="url(#clip0)">
<path d="M21.8977 7.1104C15.8938 1.09067 6.14684 1.07779 0.127149 7.08162C0.117554 7.09121 0.10796 7.10081 0.0983661 7.1104C-0.0360835 7.24963 -0.0322283 7.47152 0.106996 7.60597C0.242804 7.73713 0.458125 7.73713 0.593932 7.60597C6.32484 1.86052 15.6282 1.84873 21.3737 7.57964C21.3825 7.5884 21.3912 7.59721 21.4 7.60597C21.5369 7.7434 21.7592 7.74388 21.8966 7.60702C22.0341 7.47016 22.0345 7.24783 21.8977 7.1104Z" fill="#2C2C2C"/>
<path d="M19.9167 9.09162C17.5571 6.71713 14.3457 5.38535 10.9983 5.3931C7.65077 5.38535 4.43936 6.71713 2.07981 9.09162C1.94536 9.23084 1.94922 9.45273 2.08844 9.58718C2.22425 9.71835 2.43957 9.71835 2.57538 9.58718C7.21903 4.93539 14.7545 4.92877 19.4064 9.57242C19.4113 9.57733 19.4162 9.58228 19.4211 9.58718C19.5604 9.72168 19.7822 9.71782 19.9167 9.5786C20.0479 9.44275 20.0479 9.22743 19.9167 9.09162Z" fill="#2C2C2C"/>
<path d="M17.9326 11.0752C16.0989 9.22689 13.6011 8.19019 10.9975 8.19681C8.39389 8.19019 5.89613 9.22689 4.06238 11.0752C3.9256 11.2123 3.92587 11.4342 4.0629 11.571C4.19994 11.7077 4.42192 11.7075 4.55864 11.5704C8.10405 8.01434 13.861 8.00571 17.417 11.5511C17.4235 11.5576 17.4299 11.564 17.4364 11.5704C17.5731 11.7075 17.7951 11.7077 17.9321 11.571C18.0691 11.4342 18.0694 11.2123 17.9326 11.0752Z" fill="#2C2C2C"/>
<path d="M15.952 13.0553C14.6412 11.7361 12.857 10.9962 10.9974 11.0005C9.13766 10.9962 7.35355 11.7361 6.04274 13.0553C5.90825 13.1945 5.9121 13.4164 6.05133 13.5509C6.18713 13.682 6.40245 13.682 6.53831 13.5509C8.99629 11.0882 12.9853 11.0844 15.4479 13.5424C15.4507 13.5452 15.4536 13.548 15.4564 13.5509C15.5956 13.6854 15.8175 13.6815 15.952 13.5423C16.0831 13.4065 16.0831 13.1911 15.952 13.0553Z" fill="#2C2C2C"/>
<path d="M13.9797 15.0432C13.9769 15.0403 13.974 15.0375 13.9711 15.0347C13.1832 14.2451 12.1129 13.8023 10.9974 13.8042C9.8819 13.8023 8.81165 14.2451 8.02366 15.0347C7.88409 15.1688 7.87966 15.3907 8.01376 15.5302C8.14786 15.6698 8.36971 15.6742 8.50928 15.5401C8.51218 15.5374 8.51502 15.5345 8.51783 15.5316C9.88755 14.1629 12.1073 14.1629 13.477 15.5316C13.6119 15.6705 13.8338 15.6736 13.9726 15.5387C14.1114 15.4038 14.1146 15.182 13.9797 15.0432Z" fill="#2C2C2C"/>
<path d="M11.9903 17.0203C11.99 17.0199 11.9897 17.0196 11.9893 17.0192C11.4352 16.489 10.5619 16.489 10.0078 17.0192C9.46003 17.5664 9.4596 18.4541 10.0068 19.0018C10.5539 19.5496 11.4416 19.55 11.9893 19.0028C12.5371 18.4556 12.5375 17.568 11.9903 17.0203ZM10.9986 18.711C10.6114 18.711 10.2976 18.3972 10.2976 18.01C10.2976 17.6229 10.6114 17.3091 10.9986 17.3091C11.3857 17.3091 11.6995 17.6229 11.6995 18.01C11.6995 18.3972 11.3857 18.711 10.9986 18.711Z" fill="#2C2C2C"/>
</g>
<defs>
<clipPath id="clip0">
<rect width="22" height="22" fill="white"/>
</clipPath>
</defs>
</svg>
