<svg width="22" height="22" viewBox="0 0 22 22" fill="none" xmlns="http://www.w3.org/2000/svg">
<path d="M20.3762 11.5452H1.49609C1.1999 11.5455 0.915929 11.6633 0.706487 11.8727C0.497045 12.0822 0.379236 12.3662 0.378906 12.6624V20.1396C0.379236 20.4358 0.497045 20.7198 0.706487 20.9293C0.915929 21.1387 1.1999 21.2565 1.49609 21.2568H20.3762C20.6724 21.2565 20.9563 21.1387 21.1658 20.9293C21.3752 20.7198 21.493 20.4358 21.4934 20.1396V12.6624C21.493 12.3662 21.3752 12.0822 21.1658 11.8727C20.9563 11.6633 20.6724 11.5455 20.3762 11.5452ZM14.1953 16.5878H7.78728V14.3964H14.1953V16.5878ZM7.78728 17.1034H14.1953V20.7412H7.78728V17.1034ZM14.1953 13.8807H7.78728V12.0608H14.1953V13.8807ZM0.894531 20.1396V12.6624C0.894713 12.5029 0.95815 12.35 1.07093 12.2372C1.1837 12.1244 1.33661 12.061 1.49609 12.0608H7.27165V20.7412H1.49609C1.3366 20.741 1.18369 20.6776 1.07091 20.5648C0.958135 20.452 0.894702 20.2991 0.894531 20.1396ZM20.9777 20.1396C20.9775 20.2991 20.9141 20.452 20.8013 20.5648C20.6885 20.6776 20.5356 20.741 20.3761 20.7412H14.711V12.0608H20.3762C20.5357 12.061 20.6886 12.1244 20.8013 12.2372C20.9141 12.35 20.9776 12.5029 20.9777 12.6624L20.9777 20.1396Z" fill="#2C2C2C"/>
<path d="M14.4524 6.22436H21.0939C21.185 6.22427 21.2724 6.18803 21.3368 6.12358C21.4013 6.05913 21.4375 5.97175 21.4376 5.88061V1.02979C21.4375 0.938648 21.4013 0.851274 21.3368 0.78683C21.2724 0.722387 21.185 0.686138 21.0939 0.686035H0.666992C0.575855 0.686138 0.488481 0.722387 0.424037 0.78683C0.359594 0.851274 0.323345 0.938648 0.323242 1.02979V5.88061C0.323345 5.97175 0.359594 6.05912 0.424037 6.12357C0.488481 6.18801 0.575855 6.22426 0.666992 6.22436H7.30859C7.37696 6.22436 7.44254 6.1972 7.49089 6.14885C7.53924 6.1005 7.5664 6.03493 7.5664 5.96655V4.57239H9.18112V5.91752L8.38568 7.94062C8.3652 7.99274 8.35776 8.04907 8.36401 8.10471C8.37026 8.16036 8.39001 8.21364 8.42155 8.25991C8.45308 8.30619 8.49544 8.34406 8.54494 8.37023C8.59444 8.39641 8.64959 8.41009 8.70559 8.4101H13.0793C13.1353 8.4101 13.1905 8.39642 13.24 8.37025C13.2895 8.34407 13.3318 8.3062 13.3634 8.25992C13.3949 8.21364 13.4147 8.16035 13.4209 8.10469C13.4272 8.04904 13.4197 7.9927 13.3992 7.94058L12.6038 5.91739V4.57239H14.1945V5.96655C14.1945 6.00041 14.2012 6.03394 14.2141 6.06522C14.2271 6.0965 14.2461 6.12493 14.27 6.14887C14.294 6.17281 14.3224 6.1918 14.3537 6.20475C14.385 6.2177 14.4185 6.22437 14.4524 6.22436ZM20.922 5.70874H14.7102V1.20166H20.922V5.70874ZM0.838867 1.20166H7.05077V5.70874H0.838867V1.20166ZM8.95786 7.8946L9.61455 6.22419H12.1704L12.8271 7.8946H8.95786ZM12.0883 5.70857H9.69666V4.57239H12.0883V5.70857ZM7.5664 4.05676V1.20166H14.1945V4.05676H7.5664Z" fill="#2C2C2C"/>
<path d="M6.06595 12.5764H2.45508C2.3867 12.5764 2.32113 12.6036 2.27278 12.6519C2.22443 12.7003 2.19727 12.7659 2.19727 12.8342C2.19727 12.9026 2.22443 12.9682 2.27278 13.0165C2.32113 13.0649 2.3867 13.092 2.45508 13.092H6.06595C6.13433 13.092 6.19991 13.0649 6.24825 13.0165C6.2966 12.9682 6.32377 12.9026 6.32377 12.8342C6.32377 12.7659 6.2966 12.7003 6.24825 12.6519C6.19991 12.6036 6.13433 12.5764 6.06595 12.5764Z" fill="#2C2C2C"/>
<path d="M19.7594 12.5764H16.1484C16.0801 12.5764 16.0145 12.6036 15.9661 12.6519C15.9178 12.7003 15.8906 12.7659 15.8906 12.8342C15.8906 12.9026 15.9178 12.9682 15.9661 13.0165C16.0145 13.0649 16.0801 13.092 16.1484 13.092H19.7594C19.8277 13.092 19.8933 13.0649 19.9417 13.0165C19.99 12.9682 20.0172 12.9026 20.0172 12.8342C20.0172 12.7659 19.99 12.7003 19.9417 12.6519C19.8933 12.6036 19.8277 12.5764 19.7594 12.5764Z" fill="#2C2C2C"/>
<path d="M5.13603 4.75391H2.80566C2.73729 4.75391 2.67171 4.78107 2.62336 4.82942C2.57501 4.87777 2.54785 4.94334 2.54785 5.01172C2.54785 5.08009 2.57501 5.14567 2.62336 5.19402C2.67171 5.24237 2.73729 5.26953 2.80566 5.26953H5.13595C5.20432 5.26953 5.2699 5.24237 5.31825 5.19402C5.3666 5.14567 5.39376 5.08009 5.39376 5.01172C5.39376 4.94334 5.3666 4.87777 5.31825 4.82942C5.2699 4.78107 5.20432 4.75391 5.13595 4.75391H5.13603Z" fill="#2C2C2C"/>
<path d="M16.9014 5.26953H19.2317C19.3001 5.26953 19.3656 5.24237 19.414 5.19402C19.4623 5.14567 19.4895 5.08009 19.4895 5.01172C19.4895 4.94334 19.4623 4.87777 19.414 4.82942C19.3656 4.78107 19.3001 4.75391 19.2317 4.75391H16.9014C16.833 4.75391 16.7674 4.78107 16.7191 4.82942C16.6707 4.87777 16.6436 4.94334 16.6436 5.01172C16.6436 5.08009 16.6707 5.14567 16.7191 5.19402C16.7674 5.24237 16.833 5.26953 16.9014 5.26953Z" fill="#2C2C2C"/>
</svg>
