<svg width="22" height="22" viewBox="0 0 22 22" fill="none" xmlns="http://www.w3.org/2000/svg">
<g clip-path="url(#clip0)">
<path d="M18.1525 10.3392V6.06094C18.1525 5.07806 17.3528 4.27832 16.3699 4.27832H5.67422C4.69134 4.27832 3.8916 5.07806 3.8916 6.06094V10.3392C3.8916 10.5359 4.05089 10.6957 4.24813 10.6957H17.796C17.9931 10.6957 18.1525 10.5359 18.1525 10.3392ZM17.4395 6.06094V9.54766L12.518 8.56374L12.3778 9.26286L15.9781 9.9827H11.3786V4.99137H16.3699C16.9595 4.99137 17.4395 5.47132 17.4395 6.06094ZM4.60465 6.06094C4.60465 5.47132 5.0846 4.99137 5.67422 4.99137H10.6655V9.54766L5.74403 8.56374L5.60389 9.26286L9.20412 9.9827H4.60465V6.06094Z" fill="#2C2C2C"/>
<path d="M8.17 3.56517H13.8744C14.0715 3.56517 14.2309 3.40536 14.2309 3.20865V1.78255C14.2309 1.58583 14.0715 1.42603 13.8744 1.42603H8.17C7.97276 1.42603 7.81348 1.58583 7.81348 1.78255V3.20865C7.81348 3.40536 7.97276 3.56517 8.17 3.56517ZM8.52653 2.13907H13.5179V2.85212H8.52653V2.13907Z" fill="#2C2C2C"/>
<path d="M8.16973 14.974C8.16973 13.9912 7.36999 13.1914 6.38711 13.1914C5.40423 13.1914 4.60449 13.9912 4.60449 14.974C4.60449 15.9569 5.40423 16.7567 6.38711 16.7567C7.36999 16.7567 8.16973 15.9569 8.16973 14.974ZM5.31754 14.974C5.31754 14.3844 5.79749 13.9045 6.38711 13.9045C6.97673 13.9045 7.45668 14.3844 7.45668 14.974C7.45668 15.5637 6.97673 16.0436 6.38711 16.0436C5.79749 16.0436 5.31754 15.5637 5.31754 14.974Z" fill="#2C2C2C"/>
<path d="M15.6566 13.1914C14.6738 13.1914 13.874 13.9912 13.874 14.974C13.874 15.9569 14.6738 16.7567 15.6566 16.7567C16.6395 16.7567 17.4392 15.9569 17.4392 14.974C17.4392 13.9912 16.6395 13.1914 15.6566 13.1914ZM15.6566 16.0436C15.067 16.0436 14.5871 15.5637 14.5871 14.974C14.5871 14.3844 15.067 13.9045 15.6566 13.9045C16.2463 13.9045 16.7262 14.3844 16.7262 14.974C16.7262 15.5637 16.2463 16.0436 15.6566 16.0436Z" fill="#2C2C2C"/>
<path d="M19.326 22L19.8302 21.4959L16.8358 18.5014C18.3841 18.2743 19.5781 16.941 19.5781 15.3305V3.20871C19.5781 1.43967 18.1388 0 16.3694 0H5.67368C3.90429 0 2.46496 1.43967 2.46496 3.20871V15.3305C2.46496 16.941 3.659 18.2743 5.20731 18.5014L2.21289 21.4959L2.71704 22L6.17782 18.5392H7.30867L4.35203 21.4959L4.85618 22L8.31696 18.5392H13.7261L17.1869 22L17.691 21.4959L14.7344 18.5392H15.8652L19.326 22ZM3.17801 15.3305V3.20871C3.17801 1.83258 4.29789 0.713047 5.67368 0.713047H16.3694C17.7452 0.713047 18.865 1.83258 18.865 3.20871V15.3305C18.865 16.7066 17.7452 17.8262 16.3694 17.8262H5.67368C4.29789 17.8262 3.17801 16.7066 3.17801 15.3305Z" fill="#2C2C2C"/>
<path d="M8.88184 11.4087H13.1601V12.1218H8.88184V11.4087Z" fill="#2C2C2C"/>
<path d="M8.88184 12.835H13.1601V13.548H8.88184V12.835Z" fill="#2C2C2C"/>
</g>
<defs>
<clipPath id="clip0">
<rect width="22" height="22" fill="white"/>
</clipPath>
</defs>
</svg>
