<svg width="22" height="22" viewBox="0 0 22 22" fill="none" xmlns="http://www.w3.org/2000/svg">
<g clip-path="url(#clip0)">
<path d="M21.4712 2.99574H18.2555V0.393118C18.2555 0.18632 18.1017 0 17.8951 0H0.529172C0.315974 0.0076795 0.145745 0.17992 0.140625 0.393118V6.3378C0.140625 6.5446 0.322191 6.69362 0.529172 6.69362H1.45126V8.32716C1.45126 9.08981 2.06946 9.70801 2.83211 9.70801C3.59476 9.70801 4.21297 9.08981 4.21297 8.32716V6.88085H5.47679V9.73142C5.47679 10.4941 6.095 11.1123 6.85765 11.1123C7.6203 11.1123 8.2385 10.4941 8.2385 9.73142V6.69362H17.8951C17.9909 6.69727 18.084 6.66125 18.1524 6.59378C18.2206 6.52631 18.2579 6.43379 18.2555 6.3378V3.74468H21.1108V11.1404H10.1015C10.0044 11.1379 9.91062 11.175 9.84169 11.2434C9.77276 11.3118 9.73472 11.4054 9.73637 11.5023V13.8085H7.87427C7.66345 13.8125 7.49358 13.9826 7.48956 14.1934V21.6069C7.49285 21.8193 7.66198 21.992 7.87427 22H12.1432C12.35 22 12.4981 21.8135 12.4981 21.6069V14.1934C12.4981 13.9866 12.35 13.8085 12.1432 13.8085H10.4853V11.8894H21.4712C21.6833 11.8846 21.8543 11.7144 21.8598 11.5023V3.37094C21.8534 3.16122 21.681 2.99483 21.4712 2.99574ZM17.5066 5.94468H7.87811C7.66491 5.95236 7.49468 6.1246 7.48956 6.3378V9.73142C7.48956 10.0805 7.2067 10.3633 6.85765 10.3633C6.50859 10.3633 6.22573 10.0805 6.22573 9.73142V6.52503C6.22573 6.31823 6.07196 6.13192 5.86534 6.13192H3.85258C3.63938 6.13959 3.46915 6.31184 3.46403 6.52503V8.32716C3.46403 8.67621 3.18117 8.95908 2.83211 8.95908C2.48306 8.95908 2.2002 8.67621 2.2002 8.32716V6.3378C2.2002 6.131 2.04643 5.94468 1.83981 5.94468H0.889561V0.748936H17.5066V5.94468ZM11.7491 21.2511H8.2385V14.5574H11.7491V21.2511Z" fill="#2C2C2C"/>
</g>
<defs>
<clipPath id="clip0">
<rect width="22" height="22" fill="white"/>
</clipPath>
</defs>
</svg>
