<svg width="22" height="22" viewBox="0 0 22 22" fill="none" xmlns="http://www.w3.org/2000/svg">
<g clip-path="url(#clip0)">
<path d="M21.0924 0H0.907586C0.409274 0 0.00390625 0.405367 0.00390625 0.903679V21.0963C0.00390625 21.5946 0.409274 22 0.907586 22H21.0924C21.5907 22 21.9961 21.5946 21.9961 21.0963V0.903679C21.9961 0.405367 21.5907 0 21.0924 0V0ZM21.3518 21.0963C21.3518 21.2393 21.2354 21.3557 21.0924 21.3557H0.907586C0.76456 21.3557 0.648164 21.2393 0.648164 21.0963V0.903679C0.648164 0.760654 0.76456 0.644258 0.907586 0.644258H21.0924C21.2354 0.644258 21.3518 0.760654 21.3518 0.903679V21.0963Z" fill="#2C2C2C"/>
<path d="M20.2031 1.47168H1.79772C1.61977 1.47168 1.47559 1.61586 1.47559 1.79381V20.206C1.47559 20.3839 1.61977 20.5281 1.79772 20.5281H20.2031C20.381 20.5281 20.5252 20.3839 20.5252 20.206V1.79381C20.5252 1.61586 20.381 1.47168 20.2031 1.47168ZM6.32853 19.8838H2.11984V8.8072H6.32853V19.8838ZM19.881 15.0309H18.2269C18.049 15.0309 17.9048 15.1751 17.9048 15.353C17.9048 15.5309 18.049 15.6751 18.2269 15.6751H19.881V19.8838H8.80437V15.6751H16.6976C16.8755 15.6751 17.0197 15.5309 17.0197 15.353C17.0197 15.1751 16.8755 15.0309 16.6976 15.0309H8.77619C8.43645 15.0309 8.16006 15.3073 8.16006 15.647V19.8839H6.97274V8.77903C6.97274 8.43929 6.69631 8.1629 6.35657 8.1629H2.11984V6.96888H4.97223C5.15018 6.96888 5.29436 6.82469 5.29436 6.64675C5.29436 6.4688 5.15018 6.32462 4.97223 6.32462H2.11984V2.11589H13.1965V6.32462H6.51231C6.33437 6.32462 6.19018 6.4688 6.19018 6.64675C6.19018 6.82469 6.33437 6.96888 6.51231 6.96888H13.2246C13.5643 6.96888 13.8407 6.69245 13.8407 6.35271V2.11594H15.028V13.2208C15.028 13.5605 15.3045 13.8369 15.6442 13.8369H19.881V15.0309H19.881ZM19.881 13.1926H15.6723V2.11594H19.881V13.1926Z" fill="#2C2C2C"/>
<path d="M13.2239 8.16309H8.78214C8.4424 8.16309 8.16602 8.43947 8.16602 8.77921V13.2209C8.16602 13.5606 8.4424 13.837 8.78214 13.837H13.2238C13.5636 13.837 13.84 13.5606 13.84 13.2209V8.77917C13.84 8.43943 13.5636 8.16309 13.2239 8.16309ZM13.1957 13.1927H8.81032V8.80734H13.1957V13.1927H13.1957Z" fill="#2C2C2C"/>
</g>
<defs>
<clipPath id="clip0">
<rect width="22" height="22" fill="white"/>
</clipPath>
</defs>
</svg>
