<svg width="15" height="15" viewBox="0 0 15 15" fill="none" xmlns="http://www.w3.org/2000/svg">
<path d="M10.8875 7.97334L9.38537 6.3163C9.29183 6.21315 9.20581 6.00059 9.20149 5.86124L9.14623 4.14189V4.09207C9.14623 3.82714 8.93063 3.61154 8.66569 3.61154H7.19526H6.61093C6.37419 3.61154 6.11006 3.77925 6.00931 3.99341L4.02983 8.19807C3.97505 8.31468 3.96961 8.4449 4.01446 8.5652C4.05931 8.68533 4.149 8.78015 4.26674 8.83205L4.55842 8.96068C4.62057 8.98807 4.68688 9.002 4.7556 9.002C4.94413 9.002 5.11968 8.89484 5.20313 8.72906L6.1304 6.88429V8.73851C6.12656 8.74924 6.12095 8.75901 6.11743 8.7699L4.55041 13.6774C4.48522 13.8818 4.50508 14.0969 4.60647 14.2831C4.70786 14.4692 4.87765 14.6025 5.08492 14.6584L5.18968 14.6867C5.25823 14.7053 5.32935 14.7147 5.40079 14.7147C5.76135 14.7147 6.08892 14.4775 6.19752 14.1376L7.6617 9.55205L8.181 10.824C8.3077 11.1343 8.44449 11.6776 8.47973 12.0108L8.72816 14.3527C8.76805 14.7277 9.06454 14.9999 9.43327 14.9999C9.49365 14.9999 9.555 14.9925 9.61539 14.9779L9.72094 14.9523C10.1413 14.8506 10.4382 14.4187 10.383 13.9899L10.015 11.1343C9.96826 10.7715 9.81177 10.2033 9.66616 9.86776L9.16929 8.72345C9.16289 8.70856 9.15376 8.6951 9.14639 8.68068V7.90526L10.0418 8.84006C10.1308 8.93312 10.25 8.98438 10.3772 8.98438C10.5058 8.98438 10.6259 8.93216 10.7153 8.83734L10.881 8.66146C11.0581 8.47325 11.0612 8.16475 10.8875 7.97334Z" fill="#8C8C8C"/>
<path d="M7.77186 3.20435C8.6554 3.20435 9.37412 2.48564 9.37412 1.6021C9.37412 0.718717 8.6554 0 7.77186 0C6.88848 0 6.16992 0.718717 6.16992 1.6021C6.16976 2.48564 6.88848 3.20435 7.77186 3.20435Z" fill="#8C8C8C"/>
</svg>
