<svg width="22" height="22" viewBox="0 0 22 22" fill="none" xmlns="http://www.w3.org/2000/svg">
<path d="M17.1902 21.4053C16.0541 21.352 14.9411 21.066 13.92 20.5651C11.6103 19.5332 9.04161 17.668 6.68672 15.3134C4.33183 12.9588 2.46748 10.3892 1.43526 8.07953C0.36499 5.68183 0.315936 3.81926 1.29999 2.8355L3.29991 0.836477C3.45498 0.681673 3.66513 0.594727 3.88425 0.594727C4.10336 0.594727 4.31352 0.681673 4.46858 0.836477L8.33672 4.7058C8.49138 4.86095 8.57822 5.07107 8.57822 5.29014C8.57822 5.5092 8.49138 5.71933 8.33672 5.87448L7.0848 7.1264C6.44204 7.76915 7.32502 10.0848 9.61985 12.3799C11.9147 14.6751 14.2306 15.5583 14.8734 14.915L16.1253 13.6631C16.2805 13.5084 16.4906 13.4216 16.7097 13.4216C16.9287 13.4216 17.1388 13.5084 17.294 13.6631L21.1633 17.5324C21.3181 17.6875 21.4051 17.8976 21.4051 18.1167C21.4051 18.3358 21.3181 18.546 21.1633 18.7011L19.1643 20.6998C18.8992 20.9436 18.5879 21.1316 18.2488 21.2528C17.9097 21.374 17.5497 21.4258 17.1902 21.4053ZM3.88321 1.18907C3.85274 1.189 3.82255 1.19496 3.79439 1.20659C3.76623 1.21822 3.74064 1.2353 3.7191 1.25686L1.72037 3.25588C0.934612 4.04164 1.02826 5.71126 1.97812 7.83694C2.98121 10.0818 4.80245 12.5875 7.1074 14.8924C9.41234 17.1973 11.918 19.0186 14.1629 20.0217C16.2885 20.9715 17.9582 21.0652 18.7439 20.2794L20.7429 18.2807C20.7861 18.2372 20.8103 18.1784 20.8103 18.1172C20.8103 18.0559 20.7861 17.9972 20.7429 17.9537L16.8736 14.0835C16.8302 14.0402 16.7714 14.0159 16.7101 14.0159C16.6488 14.0159 16.59 14.0402 16.5466 14.0835L15.2947 15.3351C14.2806 16.3497 11.6605 15.2596 9.20007 12.8C6.73964 10.3405 5.65064 7.7201 6.66502 6.70542L7.91694 5.4535C7.96014 5.41005 7.9844 5.35127 7.9844 5.28999C7.9844 5.22871 7.96014 5.16993 7.91694 5.12648L4.04702 1.25686C4.02551 1.23534 3.99997 1.21828 3.97186 1.20665C3.94375 1.19501 3.91363 1.18904 3.88321 1.18907Z" fill="#2C2C2C"/>
<path d="M6.87475 7.21385C6.79591 7.21384 6.7203 7.1825 6.66456 7.12675L2.04694 2.50912C1.99119 2.45329 1.95991 2.37761 1.95996 2.29872C1.95999 2.25965 1.96771 2.22098 1.98268 2.1849C1.99766 2.14882 2.01959 2.11604 2.04723 2.08844C2.07488 2.06084 2.10768 2.03895 2.14378 2.02403C2.17988 2.0091 2.21857 2.00144 2.25763 2.00146C2.33653 2.00152 2.41216 2.03291 2.46791 2.08874L7.08494 6.70637C7.1265 6.74794 7.15481 6.80091 7.16627 6.85857C7.17774 6.91624 7.17185 6.976 7.14935 7.03032C7.12686 7.08464 7.08876 7.13106 7.03988 7.16373C6.99101 7.1964 6.93354 7.21384 6.87475 7.21385Z" fill="#2C2C2C"/>
<path d="M19.7013 20.0406C19.6622 20.0407 19.6236 20.0331 19.5875 20.0181C19.5514 20.0032 19.5186 19.9812 19.4911 19.9535L14.8735 15.3359C14.8193 15.2798 14.7894 15.2047 14.7901 15.1267C14.7907 15.0488 14.822 14.9742 14.8771 14.9191C14.9322 14.864 15.0068 14.8327 15.0848 14.832C15.1627 14.8314 15.2378 14.8613 15.2939 14.9155L19.9115 19.5325C19.9531 19.5741 19.9814 19.6271 19.9928 19.6847C20.0043 19.7424 19.9984 19.8022 19.9759 19.8565C19.9534 19.9108 19.9153 19.9572 19.8664 19.9899C19.8176 20.0226 19.7601 20.04 19.7013 20.04V20.0406Z" fill="#2C2C2C"/>
<path d="M21.021 10.5293C20.9421 10.5293 20.8665 10.4979 20.8108 10.4422C20.755 10.3864 20.7237 10.3108 20.7237 10.232C20.721 7.83452 19.7675 5.53602 18.0722 3.84074C16.377 2.14546 14.0785 1.19183 11.6811 1.18908C11.6022 1.18908 11.5266 1.15775 11.4709 1.102C11.4151 1.04625 11.3838 0.970628 11.3838 0.89178C11.3838 0.812932 11.4151 0.737313 11.4709 0.681559C11.5266 0.625805 11.6022 0.594482 11.6811 0.594482C14.2362 0.597394 16.6858 1.61371 18.4925 3.42047C20.2992 5.22723 21.3154 7.67687 21.3183 10.232C21.3183 10.3108 21.287 10.3864 21.2312 10.4422C21.1754 10.4979 21.0998 10.5293 21.021 10.5293Z" fill="#2C2C2C"/>
<path d="M17.9092 10.5295C17.8303 10.5295 17.7547 10.4981 17.6989 10.4424C17.6432 10.3866 17.6119 10.311 17.6119 10.2322C17.6101 8.65976 16.9847 7.15224 15.8729 6.04038C14.761 4.92852 13.2535 4.30311 11.6811 4.30138C11.6022 4.30138 11.5266 4.27006 11.4709 4.21431C11.4151 4.15855 11.3838 4.08293 11.3838 4.00408C11.3838 3.92524 11.4151 3.84962 11.4709 3.79386C11.5266 3.73811 11.6022 3.70679 11.6811 3.70679C13.4111 3.70868 15.0698 4.39678 16.2931 5.62011C17.5165 6.84345 18.2046 8.50211 18.2065 10.2322C18.2065 10.311 18.1751 10.3866 18.1194 10.4424C18.0636 10.4981 17.988 10.5295 17.9092 10.5295Z" fill="#2C2C2C"/>
<path d="M14.7971 10.5295C14.7182 10.5295 14.6426 10.4981 14.5868 10.4424C14.5311 10.3866 14.4998 10.311 14.4998 10.2322C14.499 9.48483 14.2018 8.76831 13.6733 8.23983C13.1449 7.71135 12.4284 7.41406 11.6811 7.4132C11.6022 7.4132 11.5266 7.38188 11.4709 7.32612C11.4151 7.27037 11.3838 7.19475 11.3838 7.1159C11.3838 7.03705 11.4151 6.96143 11.4709 6.90568C11.5266 6.84993 11.6022 6.8186 11.6811 6.8186C12.5861 6.81963 13.4537 7.17961 14.0936 7.81956C14.7335 8.45952 15.0934 9.32718 15.0944 10.2322C15.0944 10.311 15.063 10.3866 15.0073 10.4424C14.9515 10.4981 14.8759 10.5295 14.7971 10.5295Z" fill="#2C2C2C"/>
</svg>
