<svg width="50" height="50" viewBox="0 0 50 50" fill="none" xmlns="http://www.w3.org/2000/svg">
<path d="M46.4184 17.0657H45.9793L41.8626 5.98213C41.5022 5.01173 40.5646 4.35973 39.5294 4.35973H10.4703C9.43526 4.35973 8.49756 5.01173 8.13711 5.98213L4.02049 17.0657H3.58142C2.7094 17.0657 2 17.7751 2 18.6471V19.9176C2 20.7897 2.7094 21.4991 3.58142 21.4991H3.8152V36.2684C3.8152 36.6405 4.1168 36.9422 4.48902 36.9422C4.86124 36.9422 5.16285 36.6405 5.16285 36.2684V21.4991H15.7428C16.3349 21.4991 16.8915 21.2685 17.3103 20.8498L24.9999 13.16L32.6897 20.8498C33.1084 21.2684 33.665 21.499 34.2571 21.499H44.8371V23.2854C44.8371 23.6576 45.1387 23.9592 45.5109 23.9592C45.8831 23.9592 46.1847 23.6576 46.1847 23.2854V21.499H46.4185C47.2904 21.499 47.9999 20.7896 47.9999 19.9176V18.647C47.9998 17.7751 47.2904 17.0657 46.4184 17.0657ZM9.4004 6.45129C9.56571 6.00629 9.9957 5.70738 10.4703 5.70738H39.5294C40.004 5.70738 40.434 6.00638 40.5993 6.45129L44.5417 17.0657H35.1753L26.5673 8.45776C26.1486 8.03909 25.5921 7.80846 24.9999 7.80846C24.4078 7.80846 23.8512 8.039 23.4325 8.45776L14.8245 17.0657H5.45798L9.4004 6.45129ZM46.6522 19.9176C46.6522 20.0466 46.5473 20.1514 46.4184 20.1514H34.2571C34.0249 20.1514 33.8066 20.061 33.6426 19.8969L25.4763 11.7307C25.3499 11.6043 25.1786 11.5333 24.9998 11.5333C24.821 11.5333 24.6498 11.6043 24.5233 11.7307L16.3572 19.8969C16.193 20.061 15.9747 20.1514 15.7425 20.1514H3.58142C3.4525 20.1514 3.34765 20.0466 3.34765 19.9176V18.6471C3.34765 18.5182 3.4525 18.4133 3.58142 18.4133H15.1037C15.2824 18.4133 15.4537 18.3423 15.5802 18.2159L24.3856 9.41064C24.5496 9.24649 24.7678 9.15611 25 9.15611C25.2322 9.15611 25.4504 9.24649 25.6144 9.41064L34.4198 18.2159C34.5462 18.3423 34.7175 18.4133 34.8963 18.4133H46.4186C46.5475 18.4133 46.6523 18.5182 46.6523 18.6471V19.9176H46.6522Z" fill="#2C2C2C"/>
<path d="M42.5152 40.1948C42.8874 40.1948 43.189 39.8932 43.189 39.521V27.5412C43.189 27.1691 42.8874 26.8674 42.5152 26.8674H33.4395C33.0672 26.8674 32.7656 27.1691 32.7656 27.5412V39.521C32.7656 39.8932 33.0672 40.1948 33.4395 40.1948H42.5152ZM41.8413 35.943H38.6511V32.7528H41.8413V35.943ZM37.3034 35.943H34.1133V32.7528H37.3034V35.943ZM41.8413 38.8472H34.1133V37.2907H41.8413V38.8472ZM41.8413 31.4051H38.6511V28.2149H41.8413V31.4051ZM37.3034 28.215V31.4052H34.1133V28.215H37.3034Z" fill="#2C2C2C"/>
<path d="M16.5601 40.1948C16.9323 40.1948 17.2339 39.8932 17.2339 39.521V27.5412C17.2339 27.1691 16.9323 26.8674 16.5601 26.8674H7.48437C7.11215 26.8674 6.81055 27.1691 6.81055 27.5412V39.521C6.81055 39.8932 7.11215 40.1948 7.48437 40.1948H16.5601ZM15.8863 35.943H12.6961V32.7528H15.8863V35.943ZM11.3484 35.943H8.1582V32.7528H11.3484V35.943ZM15.8863 38.8472H8.1582V37.2907H15.8863V38.8472ZM15.8863 31.4051H12.6961V28.2149H15.8863V31.4051ZM11.3484 28.215V31.4052H8.1582V28.215H11.3484Z" fill="#2C2C2C"/>
<path d="M27.1786 29.7716H22.8223C22.45 29.7716 22.1484 30.0733 22.1484 30.4454V33.3496C22.1484 33.7217 22.45 34.0234 22.8223 34.0234H27.1786C27.5508 34.0234 27.8524 33.7217 27.8524 33.3496V30.4454C27.8524 30.0733 27.5508 29.7716 27.1786 29.7716ZM26.5048 32.6758H23.4961V31.1192H26.5048V32.6758Z" fill="#2C2C2C"/>
<path d="M28.5769 21.2789C28.5769 19.3061 26.9719 17.7009 24.9989 17.7009C23.0259 17.7009 21.4209 19.3061 21.4209 21.2789C21.4209 23.2518 23.0259 24.857 24.9989 24.857C26.9719 24.857 28.5769 23.2519 28.5769 21.2789ZM22.7685 21.2789C22.7685 20.0492 23.7691 19.0486 24.9989 19.0486C26.2287 19.0486 27.2293 20.0492 27.2293 21.2789C27.2293 22.5087 26.2287 23.5094 24.9989 23.5094C23.7691 23.5094 22.7685 22.5088 22.7685 21.2789Z" fill="#2C2C2C"/>
<path d="M47.326 41.2068H46.1847V26.4375C46.1847 26.0654 45.8831 25.7637 45.5109 25.7637C45.1387 25.7637 44.8371 26.0654 44.8371 26.4375V41.2068H30.7561V27.5412C30.7561 27.1691 30.4545 26.8674 30.0823 26.8674H19.9176C19.5453 26.8674 19.2437 27.1691 19.2437 27.5412V41.2068H5.16276V39.4204C5.16276 39.0483 4.86115 38.7466 4.48893 38.7466C4.11671 38.7466 3.81511 39.0483 3.81511 39.4204V41.2068H2.67383C2.3016 41.2068 2 41.5085 2 41.8807V44.9664C2 45.3386 2.3016 45.6402 2.67383 45.6402H47.326C47.6982 45.6402 47.9998 45.3386 47.9998 44.9664V41.8807C47.9998 41.5085 47.6982 41.2068 47.326 41.2068ZM20.5914 36.2923H21.5513C21.9235 36.2923 22.2251 35.9906 22.2251 35.6185C22.2251 35.2464 21.9235 34.9447 21.5513 34.9447H20.5914V28.215H29.4085V41.2068H20.5914V36.2923ZM46.6522 44.2926H3.34765V42.5545H46.6522V44.2926Z" fill="#2C2C2C"/>
</svg>
