<svg width="22" height="22" viewBox="0 0 22 22" fill="none" xmlns="http://www.w3.org/2000/svg">
<path d="M5.5 21.3125H16.5C16.5912 21.3125 16.6786 21.2763 16.7431 21.2118C16.8075 21.1474 16.8438 21.0599 16.8438 20.9688V1.71875C16.8434 1.44534 16.7347 1.18322 16.5414 0.989885C16.348 0.796555 16.0859 0.687807 15.8125 0.6875H6.1875C5.91409 0.687807 5.65197 0.796555 5.45864 0.989885C5.2653 1.18322 5.15656 1.44534 5.15625 1.71875V20.9688C5.15625 21.0599 5.19247 21.1474 5.25693 21.2118C5.3214 21.2763 5.40883 21.3125 5.5 21.3125ZM5.84375 1.71875C5.84388 1.62762 5.88013 1.54026 5.94457 1.47582C6.00901 1.41138 6.09637 1.37513 6.1875 1.375H15.8125C15.9036 1.37513 15.991 1.41138 16.0554 1.47582C16.1199 1.54026 16.1561 1.62762 16.1562 1.71875V7.5625H5.84375V1.71875ZM5.84375 8.25H16.1562V19.25H5.84375V8.25ZM5.84375 19.9375H16.1562V20.625H5.84375V19.9375Z" fill="#2C2C2C"/>
<path d="M6.875 3.4375C6.78383 3.4375 6.6964 3.47372 6.63193 3.53818C6.56747 3.60265 6.53125 3.69008 6.53125 3.78125V6.53125C6.53125 6.62242 6.56747 6.70985 6.63193 6.77432C6.6964 6.83878 6.78383 6.875 6.875 6.875C6.96617 6.875 7.0536 6.83878 7.11807 6.77432C7.18253 6.70985 7.21875 6.62242 7.21875 6.53125V3.78125C7.21875 3.69008 7.18253 3.60265 7.11807 3.53818C7.0536 3.47372 6.96617 3.4375 6.875 3.4375Z" fill="#2C2C2C"/>
<path d="M6.875 8.9375C6.78383 8.9375 6.6964 8.97372 6.63193 9.03818C6.56747 9.10265 6.53125 9.19008 6.53125 9.28125V13.4062C6.53125 13.4974 6.56747 13.5849 6.63193 13.6493C6.6964 13.7138 6.78383 13.75 6.875 13.75C6.96617 13.75 7.0536 13.7138 7.11807 13.6493C7.18253 13.5849 7.21875 13.4974 7.21875 13.4062V9.28125C7.21875 9.19008 7.18253 9.10265 7.11807 9.03818C7.0536 8.97372 6.96617 8.9375 6.875 8.9375Z" fill="#2C2C2C"/>
<path d="M15.125 8.9375H11C10.9088 8.9375 10.8214 8.97372 10.7569 9.03818C10.6925 9.10265 10.6562 9.19008 10.6562 9.28125V13.4062C10.6562 13.4974 10.6925 13.5849 10.7569 13.6493C10.8214 13.7138 10.9088 13.75 11 13.75H15.125C15.2162 13.75 15.3036 13.7138 15.3681 13.6493C15.4325 13.5849 15.4688 13.4974 15.4688 13.4062V9.28125C15.4688 9.19008 15.4325 9.10265 15.3681 9.03818C15.3036 8.97372 15.2162 8.9375 15.125 8.9375ZM14.7812 13.0625H11.3438V9.625H12.0312V10.3125C12.0312 10.4037 12.0675 10.4911 12.1319 10.5556C12.1964 10.62 12.2838 10.6562 12.375 10.6562C12.4662 10.6562 12.5536 10.62 12.6181 10.5556C12.6825 10.4911 12.7188 10.4037 12.7188 10.3125V9.625H13.4062V10.3125C13.4062 10.4037 13.4425 10.4911 13.5069 10.5556C13.5714 10.62 13.6588 10.6562 13.75 10.6562C13.8412 10.6562 13.9286 10.62 13.9931 10.5556C14.0575 10.4911 14.0938 10.4037 14.0938 10.3125V9.625H14.7812V13.0625Z" fill="#2C2C2C"/>
</svg>
