<svg width="50" height="50" viewBox="0 0 50 50" fill="none" xmlns="http://www.w3.org/2000/svg">
<g clip-path="url(#clip0)">
<path d="M3.84707 37.4367C3.95039 37.4792 4.05869 37.5 4.16621 37.5C4.38291 37.5 4.59619 37.415 4.75537 37.2558L18.3354 23.6767L31.9105 37.2558C32.148 37.4942 32.5063 37.5658 32.8188 37.4367C33.1296 37.3075 33.3329 37.0034 33.3329 36.6667V25.8333C33.3329 25.3733 32.9596 25 32.4996 25C32.0396 25 31.6663 25.3733 31.6663 25.8333V34.6541L18.9271 21.9108C18.6146 21.5983 18.0563 21.5983 17.7438 21.9108L4.99971 34.655V25H9.16641C9.62637 25 9.99971 24.6267 9.99971 24.1667V23.3334H11.6664V24.1667C11.6664 24.6267 12.0397 25 12.4997 25C12.9597 25 13.333 24.6267 13.333 24.1667V22.5C13.333 22.04 12.9597 21.6667 12.4997 21.6667H9.16631C8.70635 21.6667 8.33301 22.04 8.33301 22.5V23.3333H4.16631C3.70635 23.3333 3.33301 23.7066 3.33301 24.1666V36.6666C3.33291 37.0033 3.53623 37.3075 3.84707 37.4367Z" fill="#2C2C2C"/>
<path d="M23.4148 17.4941C23.3632 18.27 23.3323 19.0991 23.3323 20C23.3323 24.1741 24.5781 26.6667 26.6656 26.6667C29.2973 26.6667 29.9989 23.5242 29.9989 21.6667C29.9989 21.2067 29.6256 20.8334 29.1656 20.8334C28.7057 20.8334 28.3323 21.2067 28.3323 21.6667C28.3323 21.7 28.2606 25 26.6656 25C25.6998 25 24.9989 22.8975 24.9989 20C24.9989 10.2842 28.4089 9.17754 28.5164 9.14668C28.9556 9.04668 29.2381 8.61416 29.1489 8.17002C29.0598 7.71914 28.6239 7.42588 28.1689 7.5167C28.0022 7.55 27.3981 7.7084 26.6715 8.33086C26.6724 8.1875 26.684 8.04424 26.7224 7.90166C26.8374 7.47168 27.1132 7.1125 27.499 6.89004C27.8849 6.66758 28.334 6.6084 28.7632 6.72334C29.1932 6.83916 29.5532 7.11504 29.7748 7.5C30.2348 8.2958 29.9614 9.31748 29.1656 9.77666C28.7665 10.0075 28.6307 10.5175 28.8606 10.9158C29.0148 11.1825 29.2948 11.3316 29.5831 11.3316C29.7248 11.3316 29.8681 11.2958 29.9989 11.22C31.5906 10.3 32.1373 8.25752 31.2189 6.6667C30.7739 5.8959 30.0548 5.34424 29.1948 5.11338C28.3332 4.88252 27.4356 5.00176 26.6656 5.44668C25.8948 5.8917 25.3432 6.61084 25.1123 7.4708C24.8965 8.27578 24.9989 9.11162 25.3906 9.87246C24.6756 11.0358 24.0073 12.7683 23.6356 15.3449C22.3882 13.8508 21.6656 11.9475 21.6656 9.9999C21.6656 5.40488 25.404 1.6666 29.9989 1.6666C34.5938 1.6666 38.3322 5.40498 38.3322 9.9999C38.3322 14.5948 34.5938 18.3332 29.9989 18.3332C29.0939 18.3332 28.2039 18.1891 27.3548 17.9057C26.9198 17.7606 26.4465 17.9957 26.3006 18.4315C26.1539 18.8682 26.3897 19.3398 26.8265 19.4857C27.8465 19.8266 28.914 19.9999 29.9989 19.9999C35.5131 19.9999 39.9989 15.5141 39.9989 9.9999C39.999 4.48584 35.5132 0 29.999 0C24.4849 0 19.999 4.48584 19.999 10C19.999 12.8417 21.2749 15.6033 23.4148 17.4941Z" fill="#2C2C2C"/>
<path d="M49.7568 24.4108L41.1019 15.7559C40.7769 15.4309 40.2493 15.4309 39.9235 15.7559C39.5985 16.0817 39.5985 16.6092 39.9235 16.9342L48.3344 25.345V28.3334H45.346L45.001 27.9884V25.8334C45.001 25.3734 44.6276 25.0001 44.1677 25.0001H43.3344V24.1668C43.3344 23.7068 42.961 23.3335 42.5011 23.3335H40.3469L40.0011 22.9877V20.8335C40.0011 20.3735 39.6277 20.0002 39.1678 20.0002H37.0127L36.9318 19.9193C36.6068 19.5943 36.0793 19.5943 35.7535 19.9193C35.4285 20.2452 35.4285 20.7727 35.7535 21.0977L36.0785 21.4227C36.2344 21.5793 36.4469 21.6668 36.6677 21.6668H38.3344V23.3326C38.3344 23.5534 38.4219 23.7651 38.5777 23.921L39.411 24.756C39.5677 24.9126 39.7794 25.0001 40.0011 25.0001H41.6678V25.8334C41.6678 26.2934 42.0411 26.6667 42.5011 26.6667H43.3344V28.3334C43.3344 28.5542 43.4219 28.7667 43.5785 28.9226L44.4118 29.7559C44.5677 29.9125 44.7802 30 45.001 30H49.1677C49.6276 30 50.001 29.6267 50.001 29.1667V25C50.001 24.7792 49.9135 24.5667 49.7568 24.4108Z" fill="#2C2C2C"/>
<path d="M20.8323 36.6667C20.3724 36.6667 19.999 37.04 19.999 37.5V44.1667C19.999 44.6267 20.3724 45 20.8323 45H25.8323C26.2923 45 26.6656 44.6267 26.6656 44.1667V37.5C26.6656 37.04 26.2923 36.6667 25.8323 36.6667H20.8323ZM24.999 43.3333H21.6657V38.3333H24.999V43.3333Z" fill="#2C2C2C"/>
<path d="M49.1667 48.3333H40V44.9158C41.8991 44.5283 43.3333 42.8458 43.3333 40.8333C43.3333 40.725 43.2858 30 39.1666 30C35.0475 30 34.9999 40.725 34.9999 40.8333C34.9999 42.8458 36.4341 44.5283 38.3332 44.9158V48.3333H31.6665V38.75C31.6665 38.29 31.2932 37.9167 30.8332 37.9167C30.3732 37.9167 29.9999 38.29 29.9999 38.75V48.3333H18.3333V37.5C18.3333 37.04 17.96 36.6667 17.5 36.6667H10.8333C10.3733 36.6667 10 37.04 10 37.5V48.3333H6.6667V38.75C6.6667 38.29 6.29336 37.9167 5.8334 37.9167C5.37344 37.9167 5 38.29 5 38.75V48.3333H0.833301C0.37334 48.3333 0 48.7066 0 49.1666C0 49.6266 0.37334 50 0.833301 50H49.1666C49.6266 50 49.9999 49.6267 49.9999 49.1667C49.9999 48.7067 49.6267 48.3333 49.1667 48.3333ZM16.6667 42.5H15.8334C15.3734 42.5 15.0001 42.8733 15.0001 43.3333C15.0001 43.7933 15.3734 44.1666 15.8334 44.1666H16.6667V48.3333H11.6667V38.3333H16.6667V42.5ZM36.6667 40.8333C36.6667 36.6816 37.7817 31.6666 39.1667 31.6666C40.5517 31.6666 41.6667 36.6816 41.6667 40.8333C41.6667 42.2116 40.545 43.3333 39.1667 43.3333C37.7884 43.3333 36.6667 42.2116 36.6667 40.8333Z" fill="#2C2C2C"/>
</g>
<defs>
<clipPath id="clip0">
<rect width="50" height="50" fill="white"/>
</clipPath>
</defs>
</svg>
