<svg width="155" height="88" viewBox="0 0 155 88" fill="none" xmlns="http://www.w3.org/2000/svg">
<g clip-path="url(#clip0)">
<path d="M17.8193 39.7535V60.4347L55.6311 95.8382L52.6534 28.4121L38.6314 32.9777L17.8193 39.7535Z" fill="#994034"/>
<path d="M52.6543 28.4121V94.8621L135.63 99.8521L138.162 32.4967C138.162 32.4967 119.249 29.9469 114.369 29.7065C97.8714 28.9249 52.6543 28.4121 52.6543 28.4121Z" fill="#994034"/>
<path d="M100.927 95.1731C98.7235 100.962 91.93 94.9715 89.0902 99.2223C86.6607 102.861 47.8516 123.921 46.4087 74.1135C45.7686 51.8762 61.3361 40.938 76.8647 40.9168C90.5543 40.9026 113.446 62.277 100.927 95.1731Z" fill="#FFB72D"/>
<path d="M66.8577 51.2787C63.0383 54.4155 58.837 63.4193 55.3147 73.4487C52.9559 80.168 53.9249 86.7104 60.5381 86.7104C64.1417 86.7104 63.2116 92.4819 64.1346 95.2439C65.8569 100.382 67.6357 98.1933 74.9951 98.1721C81.1415 98.1721 83.67 101.037 87.3338 98.9395C94.1026 95.0671 88.5963 103.208 92.6385 100.382C94.7957 98.8758 98.6752 95.0777 99.7927 92.4006C103.329 83.9131 102.509 71.5355 100.988 65.4846C98.7247 56.5055 92.5288 48.0357 86.9448 46.2816C80.9859 44.3932 71.7097 47.2895 66.8577 51.2787Z" fill="white"/>
<path d="M47.7425 42.6322C46.0556 36.5318 48.0395 27.0117 49.0509 21.8449C50.1119 16.3669 49.8679 5.02904 52.8279 3.23959C57.8143 0.230067 68.5545 14.7791 68.5545 14.7791L85.6851 12.7562C85.6851 12.7562 87.5276 -1.32951 91.8845 0.102754C104.58 4.27224 112.042 29.4553 107.929 39.3574C104.114 48.5522 91.0959 60.417 81.1726 60.9616C71.8328 61.485 50.5716 52.8879 47.7425 42.6322Z" fill="#FFB72D"/>
<path d="M87.9622 31.0537C87.9622 35.2444 85.6176 42.7665 79.7718 43.3818C76.1788 43.7567 69.6858 36.9278 70.8034 32.9422C73.5583 23.1462 87.9622 26.0921 87.9622 31.0537Z" fill="white"/>
<path d="M76.469 28.8045C75.6167 29.6073 75.882 30.9264 77.194 31.0395C79.8145 31.2906 79.0294 33.3701 80.345 32.9917C81.5156 32.638 80.7764 31.3119 83.1918 30.1413C84.7161 29.4022 84.0335 28.5711 83.4288 28.2422C81.9576 27.4465 77.6856 27.6552 76.469 28.8045Z" fill="black"/>
<path d="M81.551 28.7444C83.1035 28.3908 83.199 29.236 82.3538 29.6391C81.8268 29.8938 80.6315 30.2828 80.1824 29.6957C79.6802 29.0344 80.6952 28.9425 81.551 28.7444Z" fill="white"/>
<path d="M85.4093 81.7736C85.3848 81.7784 85.3595 81.7784 85.335 81.7736C85.2924 81.7543 85.2592 81.7189 85.2426 81.6751C85.226 81.6314 85.2275 81.5828 85.2466 81.5402C85.2926 81.4411 89.6495 71.7583 83.9452 65.4316C83.917 65.3964 83.9032 65.3518 83.9068 65.3069C83.9104 65.2619 83.931 65.22 83.9644 65.1898C83.9978 65.1595 84.0415 65.1432 84.0866 65.1441C84.1317 65.145 84.1747 65.1631 84.2069 65.1946C90.0668 71.6947 85.6215 81.5897 85.5684 81.6887C85.5523 81.7161 85.5289 81.7385 85.5008 81.7535C85.4727 81.7684 85.4411 81.7754 85.4093 81.7736Z" fill="black"/>
<path d="M73.6036 80.3343C73.5762 80.334 73.5492 80.3275 73.5247 80.3153C73.5002 80.303 73.4788 80.2853 73.4621 80.2636C73.4482 80.245 73.4381 80.2239 73.4323 80.2014C73.4265 80.1789 73.4253 80.1555 73.4285 80.1325C73.4318 80.1095 73.4396 80.0874 73.4514 80.0674C73.4633 80.0474 73.4789 80.0299 73.4975 80.016C73.5435 79.9807 78.2611 76.3947 77.1577 71.7867C77.1471 71.7412 77.1549 71.6934 77.1794 71.6536C77.2039 71.6138 77.2432 71.5854 77.2886 71.5745C77.3111 71.5687 77.3346 71.5676 77.3576 71.5711C77.3806 71.5746 77.4026 71.5827 77.4224 71.5949C77.4422 71.6071 77.4594 71.6232 77.4728 71.6421C77.4863 71.6611 77.4958 71.6826 77.5007 71.7053C78.6607 76.5432 73.7592 80.2636 73.7097 80.2989C73.6792 80.3221 73.6419 80.3346 73.6036 80.3343Z" fill="black"/>
<path d="M78.0819 89.5962C78.0507 89.5964 78.0201 89.5878 77.9935 89.5714C77.9732 89.5601 77.9554 89.5448 77.9413 89.5263C77.9272 89.5079 77.917 89.4867 77.9113 89.4642C77.9057 89.4417 77.9047 89.4182 77.9085 89.3953C77.9123 89.3723 77.9208 89.3504 77.9334 89.3309C78.0006 89.2178 84.6916 77.94 81.5618 69.2828C81.5459 69.2387 81.5481 69.1901 81.568 69.1476C81.5879 69.1052 81.6238 69.0724 81.6679 69.0564C81.712 69.0405 81.7606 69.0427 81.803 69.0626C81.8455 69.0825 81.8783 69.1184 81.8942 69.1625C85.0771 77.9789 78.3047 89.3981 78.234 89.5113C78.2184 89.5376 78.1961 89.5593 78.1694 89.5742C78.1427 89.5891 78.1125 89.5967 78.0819 89.5962Z" fill="black"/>
<path d="M69.4813 19.8821C69.308 16.6038 62.7302 19.7265 62.0936 21.4169C61.3015 23.5353 69.5555 21.2684 69.4813 19.8821Z" fill="black"/>
<path d="M85.438 18.3896C85.5582 15.9141 91.4252 18.4321 92.1573 19.6628C92.907 20.9465 85.3673 19.8785 85.438 18.3896Z" fill="black"/>
<path d="M79.4966 38.7951C78.4356 38.7951 77.9688 35.9659 77.8875 35.4178C77.8809 35.3709 77.8932 35.3233 77.9217 35.2855C77.9503 35.2477 77.9926 35.2228 78.0395 35.2162C78.0864 35.2096 78.134 35.222 78.1718 35.2505C78.2096 35.279 78.2345 35.3214 78.2411 35.3683C78.425 36.6449 78.9484 38.4415 79.5001 38.4415C80.0518 38.4415 80.3524 36.553 80.363 35.2127C80.3602 35.1658 80.3761 35.1197 80.4073 35.0845C80.4384 35.0494 80.4823 35.0281 80.5292 35.0252C80.5761 35.0224 80.6222 35.0384 80.6573 35.0695C80.6925 35.1007 80.7138 35.1446 80.7166 35.1915C80.7803 35.7467 81.1021 37.186 81.8306 37.186C82.4177 37.186 82.9764 34.5726 83.1603 32.1501C83.1621 32.1269 83.1685 32.1042 83.1791 32.0834C83.1896 32.0626 83.2042 32.0442 83.222 32.029C83.2397 32.0139 83.2603 32.0025 83.2825 31.9953C83.3047 31.9882 83.3281 31.9855 83.3513 31.9874C83.3979 31.9919 83.4409 32.0144 83.4713 32.05C83.5016 32.0856 83.5169 32.1317 83.514 32.1784C83.4468 33.0731 83.0436 37.5397 81.8306 37.5397C81.233 37.5397 80.8652 36.9809 80.6494 36.4115C80.5363 37.4866 80.2498 38.7951 79.4966 38.7951Z" fill="black"/>
<path d="M104.856 31.7859C104.809 31.7859 104.764 31.7672 104.731 31.7341C104.697 31.7009 104.679 31.6559 104.679 31.609C104.68 31.5624 104.699 31.518 104.732 31.485C104.764 31.452 104.809 31.4331 104.856 31.4322C119.914 31.4322 130.824 18.8177 130.933 18.701C130.948 18.6831 130.966 18.6683 130.987 18.6574C131.007 18.6466 131.03 18.6401 131.053 18.6381C131.076 18.6361 131.099 18.6388 131.121 18.6459C131.143 18.6531 131.163 18.6646 131.181 18.6798C131.217 18.7106 131.239 18.7541 131.243 18.801C131.247 18.8479 131.232 18.8945 131.202 18.9308C131.093 19.0476 120.076 31.7859 104.856 31.7859Z" fill="black"/>
<path d="M106.85 35.584C106.273 35.584 105.973 35.584 105.962 35.584C105.915 35.5812 105.87 35.56 105.839 35.525C105.807 35.4899 105.79 35.4438 105.792 35.3965C105.793 35.3735 105.799 35.3508 105.808 35.3299C105.818 35.309 105.832 35.2902 105.849 35.2747C105.866 35.2592 105.886 35.2473 105.908 35.2397C105.93 35.2321 105.953 35.2289 105.976 35.2303C106.026 35.2303 110.927 35.4425 119.768 34.1057C129.67 32.6027 139.721 30.0034 139.82 29.9751C139.865 29.9643 139.913 29.9715 139.954 29.9952C139.994 30.019 140.023 30.0574 140.036 30.1025C140.042 30.125 140.043 30.1484 140.04 30.1715C140.036 30.1945 140.029 30.2167 140.017 30.2368C140.005 30.2568 139.989 30.2743 139.971 30.2883C139.952 30.3023 139.931 30.3124 139.908 30.3182C139.809 30.3465 129.745 32.9493 119.821 34.4523C113.098 35.4566 108.643 35.584 106.85 35.584Z" fill="black"/>
<path d="M52.2125 42.4694C52.0887 42.4694 40.5634 41.9743 33.9643 40.8072C24.7094 39.1734 14.5952 34.4734 14.5138 34.4416C14.4901 34.4338 14.4684 34.421 14.45 34.4041C14.4315 34.3873 14.4169 34.3667 14.407 34.3438C14.3972 34.3209 14.3922 34.2961 14.3926 34.2711C14.393 34.2462 14.3986 34.2216 14.4092 34.199C14.4197 34.1764 14.4349 34.1562 14.4538 34.1399C14.4727 34.1236 14.4949 34.1115 14.5188 34.1043C14.5427 34.0972 14.5679 34.0952 14.5926 34.0985C14.6173 34.1017 14.6411 34.1102 14.6624 34.1233C14.7649 34.1693 24.8367 38.8516 34.0421 40.4889C40.6199 41.6489 52.1205 42.1405 52.2372 42.144C52.2841 42.144 52.3291 42.1626 52.3622 42.1958C52.3954 42.229 52.414 42.2739 52.414 42.3208C52.414 42.3677 52.3954 42.4127 52.3622 42.4459C52.3291 42.479 52.2841 42.4977 52.2372 42.4977L52.2125 42.4694Z" fill="black"/>
<path d="M50.0772 37.6068H50.0277C49.8049 37.5432 27.5464 31.3685 20.1269 31.8176C20.0802 31.8196 20.0346 31.8034 19.9997 31.7724C19.9647 31.7414 19.9431 31.698 19.9395 31.6514C19.9384 31.605 19.9549 31.5598 19.9858 31.525C20.0166 31.4902 20.0595 31.4684 20.1057 31.464C27.5853 31.0149 49.8968 37.2037 50.1232 37.2673C50.1681 37.2797 50.2062 37.3093 50.2294 37.3497C50.2526 37.3901 50.2589 37.438 50.247 37.483C50.2351 37.5188 50.2124 37.55 50.182 37.5722C50.1515 37.5944 50.1149 37.6065 50.0772 37.6068Z" fill="black"/>
<path d="M52.2115 35.1029C52.1802 35.1035 52.1495 35.0949 52.1231 35.0781C48.1432 32.8247 43.9859 30.9004 39.6924 29.3243C31.594 26.4952 16.9071 26.8064 16.7585 26.8099C16.7119 26.8099 16.6671 26.7919 16.6334 26.7596C16.5998 26.7273 16.58 26.6832 16.5782 26.6366C16.5777 26.6134 16.5818 26.5903 16.5903 26.5687C16.5987 26.547 16.6113 26.5273 16.6274 26.5105C16.6435 26.4938 16.6628 26.4804 16.684 26.4711C16.7053 26.4618 16.7282 26.4567 16.7514 26.4563C16.9 26.4563 31.6505 26.1309 39.8091 28.9884C44.1239 30.5721 48.3015 32.5072 52.2999 34.774C52.3331 34.7937 52.3589 34.8237 52.3735 34.8595C52.388 34.8952 52.3905 34.9347 52.3805 34.972C52.3704 35.0093 52.3485 35.0422 52.318 35.0659C52.2875 35.0895 52.2501 35.1025 52.2115 35.1029Z" fill="black"/>
<path d="M80.5075 61.2586C78.7096 61.2681 76.9208 61.0034 75.2028 60.4735C75.1586 60.4575 75.1225 60.4249 75.102 60.3826C75.0816 60.3403 75.0784 60.2917 75.0932 60.2472C75.1091 60.2031 75.1419 60.1672 75.1844 60.1473C75.2268 60.1274 75.2754 60.1251 75.3195 60.1411C75.3867 60.1658 82.0388 62.4504 87.8598 58.9988C87.9003 58.9751 87.9484 58.9681 87.994 58.9794C88.0395 58.9906 88.0789 59.0191 88.1038 59.0589C88.1272 59.0998 88.1336 59.1483 88.1217 59.1939C88.1098 59.2395 88.0805 59.2786 88.0401 59.3029C85.7513 60.6214 83.1487 61.2971 80.5075 61.2586Z" fill="black"/>
<path d="M49.0441 22.0217H49.0087C48.9859 22.017 48.9643 22.008 48.9451 21.995C48.9258 21.982 48.9093 21.9653 48.8965 21.9459C48.8837 21.9265 48.8748 21.9048 48.8704 21.882C48.866 21.8592 48.8661 21.8358 48.8708 21.813C49.2052 19.743 49.4189 17.6554 49.5109 15.5606C49.8468 10.3054 50.1969 4.86986 52.7361 3.08748C52.7747 3.06154 52.8219 3.05183 52.8676 3.06043C52.9132 3.06903 52.9537 3.09527 52.9801 3.13346C52.9936 3.15218 53.0032 3.1734 53.0084 3.19589C53.0135 3.21837 53.0142 3.24166 53.0102 3.26439C53.0063 3.28711 52.9978 3.30882 52.9854 3.32824C52.9729 3.34766 52.9567 3.3644 52.9377 3.37747C50.5364 5.06083 50.1793 10.652 49.861 15.5818C49.777 17.6884 49.5668 19.7881 49.2315 21.8696C49.2246 21.9136 49.2016 21.9535 49.167 21.9816C49.1323 22.0097 49.0886 22.024 49.0441 22.0217Z" fill="black"/>
<path d="M57.5776 53.5209C57.5449 53.5202 57.5131 53.5104 57.4856 53.4926C51.7742 49.9915 48.1388 45.8928 47.2511 41.9532C46.4731 38.498 46.3246 32.8044 47.7497 27.8781C47.7629 27.8329 47.7932 27.7947 47.8342 27.7716C47.8752 27.7485 47.9235 27.7423 47.969 27.7543C48.014 27.7674 48.052 27.7979 48.0745 27.839C48.0971 27.8801 48.1024 27.9285 48.0892 27.9736C46.6747 32.8433 46.8267 38.4627 47.5977 41.8754C48.4641 45.723 52.043 49.7404 57.6695 53.192C57.6896 53.204 57.707 53.2199 57.7209 53.2387C57.7348 53.2574 57.7449 53.2788 57.7505 53.3015C57.7561 53.3242 57.7571 53.3478 57.7535 53.3709C57.7499 53.3939 57.7418 53.4161 57.7296 53.436C57.7133 53.4617 57.6908 53.4828 57.6643 53.4976C57.6377 53.5124 57.6079 53.5204 57.5776 53.5209Z" fill="black"/>
<path d="M70.5265 28.1929C71.1969 27.2919 71.0099 26.0181 70.1089 25.3477C69.2079 24.6773 67.934 24.8643 67.2636 25.7653C66.5933 26.6663 66.7802 27.9402 67.6812 28.6106C68.5823 29.2809 69.8561 29.094 70.5265 28.1929Z" fill="white"/>
<path d="M70.6123 26.7217C70.6626 27.0616 70.6109 27.4086 70.4638 27.7191C70.3167 28.0295 70.0809 28.2893 69.7861 28.4657C69.4914 28.6421 69.1509 28.727 68.8078 28.7099C68.4647 28.6927 68.1345 28.5742 67.8588 28.3693C67.5831 28.1643 67.3744 27.8823 67.259 27.5587C67.1437 27.2351 67.1269 26.8846 67.2108 26.5515C67.2947 26.2184 67.4755 25.9177 67.7304 25.6874C67.9852 25.4571 68.3027 25.3075 68.6425 25.2576C68.868 25.2241 69.098 25.2354 69.3191 25.2908C69.5403 25.3463 69.7483 25.4449 69.9313 25.5809C70.1143 25.7169 70.2686 25.8877 70.3855 26.0834C70.5024 26.2792 70.5795 26.4961 70.6123 26.7217Z" fill="black"/>
<path d="M89.4304 25.8657C89.2757 26.2444 89.0122 26.5687 88.6733 26.7977C88.3343 27.0268 87.9351 27.1501 87.526 27.1523C87.1169 27.1544 86.7164 27.0353 86.375 26.8098C86.0337 26.5844 85.7668 26.2628 85.6082 25.8857C85.4495 25.5087 85.4063 25.093 85.4838 24.6914C85.5613 24.2897 85.7562 23.9201 86.0438 23.6291C86.3313 23.3382 86.6987 23.139 87.0994 23.0568C87.5002 22.9746 87.9163 23.0131 88.2952 23.1673C88.8025 23.3759 89.2067 23.7768 89.4194 24.2823C89.6321 24.7879 89.636 25.3572 89.4304 25.8657Z" fill="white"/>
<path d="M89.2171 25.7809C89.0789 26.118 88.8438 26.4065 88.5417 26.61C88.2395 26.8135 87.8838 26.9228 87.5195 26.9242C87.1552 26.9256 86.7987 26.819 86.4949 26.6178C86.1912 26.4166 85.954 26.1299 85.8131 25.794C85.6723 25.458 85.6343 25.0878 85.7038 24.7302C85.7733 24.3726 85.9473 24.0436 86.2037 23.7848C86.4601 23.5261 86.7875 23.3491 87.1445 23.2764C87.5015 23.2036 87.872 23.2383 88.2092 23.3761C88.4337 23.4673 88.638 23.602 88.8102 23.7724C88.9825 23.9428 89.1194 24.1455 89.2131 24.369C89.3067 24.5925 89.3553 24.8322 89.356 25.0745C89.3567 25.3168 89.3095 25.5569 89.2171 25.7809Z" fill="black"/>
<path d="M85.8267 12.9719C85.784 12.9716 85.7428 12.9561 85.7104 12.9283C85.678 12.9004 85.6566 12.862 85.6499 12.8198C85.1229 9.10301 87.8354 3.40578 87.9521 3.18298C87.961 3.16038 87.9744 3.13985 87.9916 3.12266C88.0087 3.10548 88.0293 3.09202 88.0519 3.08312C88.0745 3.07421 88.0986 3.07006 88.1229 3.07091C88.1472 3.07176 88.171 3.07761 88.1929 3.08808C88.2148 3.09854 88.2344 3.11342 88.2503 3.13176C88.2662 3.1501 88.2781 3.17153 88.2854 3.1947C88.2927 3.21787 88.2951 3.24229 88.2925 3.26644C88.2899 3.29059 88.2824 3.31394 88.2704 3.33505C88.2421 3.39163 85.4872 9.17728 86 12.788C86.0035 12.8108 86.0024 12.834 85.9968 12.8564C85.9912 12.8788 85.9811 12.8998 85.9673 12.9182C85.9535 12.9367 85.9361 12.9522 85.9162 12.9638C85.8963 12.9755 85.8743 12.983 85.8514 12.986L85.8267 12.9719Z" fill="black"/>
<path d="M55.4726 7.64941C55.4726 7.64941 64.1404 15.5605 60.1478 17.2544C57.407 18.4144 53.333 21.9756 53.333 21.9756C53.333 21.9756 54.6274 11.2177 55.4726 7.64941Z" fill="#F47B24"/>
<path d="M70.3438 14.6657C70.3438 14.6657 71.4471 21.3248 73.4912 21.3849C75.5353 21.445 72.6142 14.312 72.6142 14.312L70.3438 14.6657Z" fill="#F47B24"/>
<path d="M75.2021 13.9761C75.2021 13.9761 76.0261 22.7429 78.0738 22.7818C80.1214 22.8208 77.4726 13.6118 77.4726 13.6118L75.2021 13.9761Z" fill="#F47B24"/>
<path d="M80.3096 13.2937C80.3096 13.2937 80.352 21.5725 82.3996 21.6008C84.4472 21.6291 82.8452 13.2937 82.8452 13.2937H80.3096Z" fill="#F47B24"/>
<path d="M78.6781 13.5165C78.6342 13.5157 78.5921 13.4986 78.5601 13.4686C78.5281 13.4385 78.5084 13.3976 78.5049 13.3538C78.5024 13.3307 78.5046 13.3074 78.5114 13.2852C78.5181 13.2631 78.5292 13.2425 78.5441 13.2247C78.5589 13.2068 78.5772 13.1922 78.5978 13.1816C78.6184 13.171 78.6409 13.1646 78.664 13.1628C78.7524 13.1628 87.4698 12.4555 89.8215 12.3636C89.8682 12.3626 89.9134 12.3797 89.9477 12.4114C89.982 12.443 90.0027 12.4867 90.0054 12.5333C90.0085 12.5586 90.0061 12.5842 89.9983 12.6084C89.9906 12.6326 89.9777 12.6549 89.9606 12.6737C89.9435 12.6925 89.9225 12.7073 89.8991 12.7173C89.8757 12.7273 89.8505 12.7321 89.8251 12.7314C87.4804 12.8092 78.7701 13.52 78.6817 13.5271L78.6781 13.5165Z" fill="black"/>
<path d="M17.8205 39.7534C17.8205 39.7534 16.6994 73.9934 16.6782 85.4091C16.657 98.646 17.3855 110.111 17.6507 116.374C17.677 116.95 17.9033 117.499 18.2907 117.925C18.678 118.352 19.2021 118.63 19.7726 118.712L103.336 130.538L110.833 92.482L103.328 43.8522L17.8205 39.7534Z" fill="#FFD180"/>
<path d="M103.328 130.538C103.328 130.538 112.368 125.332 115.565 123.065C123.992 117.096 133.247 107.77 136.727 104.142C137.659 103.17 138.235 101.911 138.361 100.57C138.873 95.0848 140.214 87.7396 140.196 79.6694C140.161 66.4077 138.163 32.4966 138.163 32.4966L103.328 43.8521C103.328 43.8521 104.467 83.5453 102.303 105.252C101.313 115.158 103.328 130.538 103.328 130.538Z" fill="#FFB74D"/>
<path d="M0 62.9915L17.8202 39.7534L103.328 43.8522L91.1062 81.1264C91.1062 81.1264 75.9666 79.1778 71.4187 78.4776C62.0931 77.0383 38.0664 73.1977 28.7408 71.7584C19.7299 70.3756 0 62.9915 0 62.9915Z" fill="#DA9574"/>
<path d="M103.328 43.8521L118.648 80.1433C124.869 79.5102 137.126 68.2466 145.196 66.1849C148.994 65.2159 154.14 61.6547 154.14 61.6547L138.162 32.4966L103.328 43.8521Z" fill="#DA9574"/>
<path d="M94.1754 71.9211C94.1579 71.9245 94.1399 71.9245 94.1224 71.9211C94.1001 71.9143 94.0794 71.903 94.0615 71.8881C94.0436 71.873 94.0289 71.8546 94.0184 71.8338C94.0078 71.813 94.0016 71.7902 94 71.767C93.9984 71.7437 94.0016 71.7203 94.0092 71.6983L103.087 44.0114L17.8127 39.9303C17.7658 39.9279 17.7218 39.9071 17.6903 39.8722C17.6588 39.8374 17.6424 39.7915 17.6448 39.7446C17.6471 39.6977 17.668 39.6537 17.7028 39.6222C17.7376 39.5907 17.7835 39.5743 17.8304 39.5766L103.335 43.6612C103.362 43.6629 103.389 43.6707 103.413 43.6842C103.437 43.6977 103.457 43.7164 103.473 43.739C103.488 43.7615 103.498 43.7872 103.503 43.8141C103.507 43.841 103.505 43.8685 103.498 43.8947L94.3452 71.7902C94.3351 71.8276 94.3131 71.8607 94.2824 71.8843C94.2517 71.9079 94.2142 71.9209 94.1754 71.9211Z" fill="black"/>
<path d="M103.328 44.015C103.29 44.0152 103.253 44.0033 103.222 43.981C103.192 43.9587 103.169 43.9272 103.158 43.8912C103.144 43.8462 103.149 43.7977 103.171 43.7561C103.193 43.7145 103.23 43.683 103.275 43.6684L127.595 35.7538C127.617 35.7461 127.64 35.743 127.663 35.7445C127.687 35.7461 127.709 35.7524 127.73 35.7629C127.751 35.7735 127.77 35.7882 127.785 35.806C127.8 35.8239 127.811 35.8446 127.818 35.867C127.831 35.9115 127.827 35.9596 127.806 36.0011C127.785 36.0427 127.748 36.0744 127.704 36.0898L103.381 44.0043C103.364 44.0113 103.346 44.0149 103.328 44.015Z" fill="black"/>
</g>
<defs>
<clipPath id="clip0">
<rect width="154.14" height="130.538" fill="white"/>
</clipPath>
</defs>
</svg>
