<svg width="27" height="27" viewBox="0 0 27 27" fill="none" xmlns="http://www.w3.org/2000/svg">
<path d="M20.1323 5.66853C17.7836 3.3198 13.9588 3.3198 11.6125 5.66853L5.10489 12.1712C5.0625 12.2136 5.04006 12.2709 5.04006 12.3308C5.04006 12.3906 5.0625 12.448 5.10489 12.4903L6.02494 13.4104C6.06699 13.4523 6.12392 13.4758 6.18326 13.4758C6.24261 13.4758 6.29954 13.4523 6.34159 13.4104L12.8492 6.90773C13.6571 6.09988 14.7317 5.65607 15.8737 5.65607C17.0156 5.65607 18.0903 6.09988 18.8956 6.90773C19.7035 7.71558 20.1473 8.79021 20.1473 9.92967C20.1473 11.0716 19.7035 12.1438 18.8956 12.9516L12.2633 19.5814L11.1887 20.6561C10.1838 21.6609 8.5507 21.6609 7.54588 20.6561C7.05968 20.1699 6.79289 19.5241 6.79289 18.8359C6.79289 18.1478 7.05968 17.502 7.54588 17.0158L14.1258 10.4383C14.2929 10.2738 14.5123 10.1815 14.7467 10.1815H14.7492C14.9835 10.1815 15.2005 10.2738 15.365 10.4383C15.5321 10.6054 15.6218 10.8248 15.6218 11.0592C15.6218 11.291 15.5296 11.5105 15.365 11.675L9.98687 17.0482C9.94448 17.0906 9.92204 17.1479 9.92204 17.2078C9.92204 17.2676 9.94448 17.325 9.98687 17.3673L10.9069 18.2874C10.949 18.3293 11.0059 18.3528 11.0652 18.3528C11.1246 18.3528 11.1815 18.3293 11.2236 18.2874L16.5992 12.9117C17.0954 12.4155 17.3672 11.7573 17.3672 11.0567C17.3672 10.356 17.0929 9.6953 16.5992 9.20161C15.5745 8.17685 13.9089 8.17934 12.8841 9.20161L12.2458 9.8424L6.30668 15.7791C5.90359 16.1798 5.58406 16.6566 5.36663 17.1817C5.1492 17.7069 5.0382 18.27 5.04006 18.8384C5.04006 19.9928 5.49136 21.0774 6.30668 21.8928C7.15193 22.7355 8.25898 23.1569 9.36603 23.1569C10.4731 23.1569 11.5801 22.7355 12.4229 21.8928L20.1323 14.1883C21.2668 13.0513 21.8951 11.5379 21.8951 9.92967C21.8976 8.31897 21.2693 6.8055 20.1323 5.66853Z" fill="#83B373"/>
</svg>
