<svg width="50" height="50" viewBox="0 0 50 50" fill="none" xmlns="http://www.w3.org/2000/svg">
<g clip-path="url(#clip0)">
<path d="M36.4587 44.7917C35.8837 44.7917 35.417 44.325 35.417 43.75V42.1875C35.417 41.6125 35.8837 41.1458 36.4587 41.1458C37.0337 41.1458 37.5003 41.6125 37.5003 42.1875V43.75C37.5003 44.325 37.0337 44.7917 36.4587 44.7917Z" fill="#2C2C2C"/>
<path d="M36.9795 42.7083H33.3337C32.7587 42.7083 32.292 42.2417 32.292 41.6667C32.292 41.0917 32.7587 40.625 33.3337 40.625H36.9795C37.842 40.625 38.542 39.9229 38.542 39.0625C38.542 38.2021 37.842 37.5 36.9795 37.5H35.9378C33.9274 37.5 32.292 35.8646 32.292 33.8542C32.292 31.8437 33.9274 30.2083 35.9378 30.2083H39.5837C40.1587 30.2083 40.6253 30.675 40.6253 31.25C40.6253 31.825 40.1587 32.2917 39.5837 32.2917H35.9378C35.0753 32.2917 34.3753 32.9937 34.3753 33.8542C34.3753 34.7146 35.0753 35.4167 35.9378 35.4167H36.9795C38.9899 35.4167 40.6253 37.0521 40.6253 39.0625C40.6253 41.0729 38.9899 42.7083 36.9795 42.7083Z" fill="#2C2C2C"/>
<path d="M36.4587 31.7708C35.8837 31.7708 35.417 31.3042 35.417 30.7292V29.1667C35.417 28.5917 35.8837 28.125 36.4587 28.125C37.0337 28.125 37.5003 28.5917 37.5003 29.1667V30.7292C37.5003 31.3042 37.0337 31.7708 36.4587 31.7708Z" fill="#2C2C2C"/>
<path d="M36.4587 50C28.992 50 22.917 43.925 22.917 36.4583C22.917 28.9917 28.992 22.9167 36.4587 22.9167C43.9253 22.9167 50.0003 28.9917 50.0003 36.4583C50.0003 43.925 43.9253 50 36.4587 50ZM36.4587 25C30.1399 25 25.0003 30.1417 25.0003 36.4583C25.0003 42.775 30.1399 47.9167 36.4587 47.9167C42.7774 47.9167 47.917 42.775 47.917 36.4583C47.917 30.1417 42.7774 25 36.4587 25Z" fill="#2C2C2C"/>
<path d="M17.7083 41.6671H10.4167C8.11875 41.6671 6.25 39.7983 6.25 37.5004V22.9171H2.08333C0.914583 22.9171 0 22.0025 0 20.8338C0 20.2483 0.254167 19.6692 0.679167 19.2879L21.1667 0.27959C21.5646 -0.0912435 22.1833 -0.0912435 22.5833 0.27959L29.1667 6.38376V3.12542C29.1667 2.55042 29.6333 2.08376 30.2083 2.08376H36.4583C37.0333 2.08376 37.5 2.55042 37.5 3.12542V14.1108L40.9396 17.3213C41.3604 17.7129 41.3813 18.3733 40.9896 18.7921C40.5958 19.2129 39.9375 19.2358 39.5167 18.8421L35.7458 15.3233C35.5375 15.1275 35.4167 14.8525 35.4167 14.5629V4.16709H31.25V8.77126C31.25 9.18584 31.0042 9.56084 30.625 9.72542C30.2438 9.89001 29.8021 9.81709 29.5 9.53376L21.875 2.46292L2.08333 20.8254L7.29167 20.8338C7.86667 20.8338 8.33333 21.3004 8.33333 21.8754V37.5004C8.33333 38.6504 9.26875 39.5838 10.4167 39.5838H17.7083C18.2833 39.5838 18.75 40.0504 18.75 40.6254C18.75 41.2004 18.2833 41.6671 17.7083 41.6671Z" fill="#2C2C2C"/>
</g>
<defs>
<clipPath id="clip0">
<rect width="50" height="50" fill="white"/>
</clipPath>
</defs>
</svg>
