<svg width="22" height="22" viewBox="0 0 22 22" fill="none" xmlns="http://www.w3.org/2000/svg">
<g clip-path="url(#clip0)">
<path d="M21.0924 0H0.907586C0.409274 0 0.00390625 0.405367 0.00390625 0.903679V21.0963C0.00390625 21.5946 0.409274 22 0.907586 22H21.0924C21.5907 22 21.9961 21.5946 21.9961 21.0963V0.903679C21.9961 0.405367 21.5907 0 21.0924 0V0ZM21.3518 21.0963C21.3518 21.2393 21.2354 21.3557 21.0924 21.3557H0.907586C0.76456 21.3557 0.648164 21.2393 0.648164 21.0963V0.903679C0.648164 0.760654 0.76456 0.644258 0.907586 0.644258H21.0924C21.2354 0.644258 21.3518 0.760654 21.3518 0.903679V21.0963Z" fill="#2C2C2C"/>
<path d="M20.2021 1.4718H1.79674C1.61879 1.4718 1.47461 1.61599 1.47461 1.79393V20.2061C1.47461 20.384 1.61879 20.5282 1.79674 20.5282H20.2021C20.3801 20.5282 20.5243 20.384 20.5243 20.2061V1.79393C20.5243 1.61599 20.3801 1.4718 20.2021 1.4718ZM6.32755 19.884H2.11887V8.80733H6.32755V19.884ZM19.88 15.031H18.2259C18.048 15.031 17.9038 15.1752 17.9038 15.3531C17.9038 15.5311 18.048 15.6752 18.2259 15.6752H19.88V19.884H8.80339V15.6752H16.6966C16.8746 15.6752 17.0188 15.5311 17.0188 15.3531C17.0188 15.1752 16.8746 15.031 16.6966 15.031H8.77521C8.43547 15.031 8.15909 15.3074 8.15909 15.6472V19.884H6.97176V8.77915C6.97176 8.43941 6.69533 8.16302 6.3556 8.16302H2.11887V6.969H4.97126C5.1492 6.969 5.29339 6.82481 5.29339 6.64687C5.29339 6.46893 5.1492 6.32474 4.97126 6.32474H2.11887V2.11602H13.1955V6.32474H6.51133C6.33339 6.32474 6.1892 6.46893 6.1892 6.64687C6.1892 6.82481 6.33339 6.969 6.51133 6.969H13.2236C13.5633 6.969 13.8397 6.69257 13.8397 6.35283V2.11606H15.0271V13.2209C15.0271 13.5606 15.3035 13.837 15.6432 13.837H19.88V15.031H19.88ZM19.88 13.1927H15.6713V2.11606H19.88V13.1927Z" fill="#2C2C2C"/>
<path d="M13.2239 8.16302H8.78214C8.4424 8.16302 8.16602 8.43941 8.16602 8.77915V13.2208C8.16602 13.5606 8.4424 13.837 8.78214 13.837H13.2238C13.5636 13.837 13.84 13.5606 13.84 13.2208V8.77911C13.84 8.43937 13.5636 8.16302 13.2239 8.16302ZM13.1957 13.1927H8.81032V8.80728H13.1957V13.1927H13.1957Z" fill="#2C2C2C"/>
</g>
<defs>
<clipPath id="clip0">
<rect width="22" height="22" fill="white"/>
</clipPath>
</defs>
</svg>
