<svg width="22" height="22" viewBox="0 0 22 22" fill="none" xmlns="http://www.w3.org/2000/svg">
<g clip-path="url(#clip0)">
<path d="M21.6333 21.2666H11.3776C11.4907 19.2115 12.5163 17.3144 14.1738 16.0941L15.2373 15.3135C16.2594 14.5615 16.8642 13.369 16.8667 12.1V10.6333C16.8667 10.4308 16.7025 10.2666 16.5 10.2666H5.86667V0.733305C5.86667 0.530815 5.70249 0.366638 5.5 0.366638H1.1C0.89751 0.366638 0.733333 0.530815 0.733333 0.733305V21.2666H0.366667C0.164176 21.2666 0 21.4308 0 21.6333C0 21.8358 0.164176 22 0.366667 22H21.6333C21.8358 22 22 21.8358 22 21.6333C22 21.4308 21.8358 21.2666 21.6333 21.2666ZM16.1333 11V11.7333H5.86667V11H16.1333ZM1.46667 11.7333V2.56664H5.13333V11.7333H1.46667ZM1.46667 1.09997H5.13333V1.8333H1.46667V1.09997ZM1.46667 21.2666V12.4666H16.112C16.0087 13.3675 15.535 14.1847 14.8045 14.722L13.7412 15.5026C11.895 16.8611 10.7572 18.9775 10.6421 21.2666H1.46667Z" fill="#2C2C2C"/>
<path d="M16.5375 2.19998C16.7257 3.12219 17.5816 3.75204 18.518 3.65733C19.4543 3.5628 20.1671 2.77451 20.1671 1.83331C20.1671 0.892116 19.4543 0.103818 18.518 0.00928724C17.5816 -0.085423 16.7257 0.544427 16.5375 1.46664H14.6674C14.465 1.46664 14.3008 1.63082 14.3008 1.83331V6.23331C14.3008 6.4358 14.465 6.59998 14.6674 6.59998H15.7674V7.69998C15.7674 7.90247 15.9316 8.06664 16.1341 8.06664H20.5341C20.7366 8.06664 20.9008 7.90247 20.9008 7.69998V6.59998H21.2674C21.4699 6.59998 21.6341 6.4358 21.6341 6.23331C21.6341 6.03082 21.4699 5.86664 21.2674 5.86664H20.9008V4.76664C20.9008 4.56415 20.7366 4.39998 20.5341 4.39998H16.1341C15.9316 4.39998 15.7674 4.56415 15.7674 4.76664V5.86664H15.0341V2.19998H16.5375ZM18.3341 0.733311C18.8941 0.730983 19.3664 1.14975 19.4313 1.70602C19.4961 2.2621 19.1328 2.77826 18.5873 2.90484C18.0417 3.03142 17.4882 2.72796 17.3016 2.19998H18.3341C18.5366 2.19998 18.7008 2.0358 18.7008 1.83331C18.7008 1.63082 18.5366 1.46664 18.3341 1.46664H17.3016C17.4565 1.02872 17.8697 0.73528 18.3341 0.733311ZM16.5008 5.13331H20.1674V7.33331H16.5008V5.13331Z" fill="#2C2C2C"/>
<path d="M3.29922 3.29999C2.69175 3.29999 2.19922 3.79252 2.19922 4.39999V5.86665C2.19922 6.06914 2.3634 6.23332 2.56589 6.23332H4.03255C4.23504 6.23332 4.39922 6.06914 4.39922 5.86665V4.39999C4.39922 3.79252 3.90669 3.29999 3.29922 3.29999ZM3.66589 5.49999H2.93255V4.39999C2.93255 4.1975 3.09673 4.03332 3.29922 4.03332C3.50171 4.03332 3.66589 4.1975 3.66589 4.39999V5.49999Z" fill="#2C2C2C"/>
</g>
<defs>
<clipPath id="clip0">
<rect width="22" height="22" fill="white"/>
</clipPath>
</defs>
</svg>
