<svg width="22" height="22" viewBox="0 0 22 22" fill="none" xmlns="http://www.w3.org/2000/svg">
<path d="M0.354839 15.4355H19.871C20.0669 15.4355 20.2258 15.2766 20.2258 15.0807C20.2258 14.8847 20.0669 14.7258 19.871 14.7258H19.1613V12.55C20.5806 12.2104 21.6452 9.86168 21.6452 6.91936C21.6452 3.73569 20.3982 1.24194 18.8065 1.24194C17.2147 1.24194 15.9677 3.73569 15.9677 6.91936C15.9677 9.86168 17.0323 12.2104 18.4516 12.55V14.7258H11.3548V12.5788C13.4328 12.389 14.9942 10.5986 14.8992 8.51406C14.8043 6.42955 13.0866 4.78842 11 4.78842C8.91342 4.78842 7.19571 6.42955 7.10076 8.51406C7.00581 10.5986 8.56724 12.389 10.6452 12.5788V14.7258H3.54839V12.55C4.96774 12.2104 6.03226 9.86168 6.03226 6.91936C6.03226 3.73569 4.7853 1.24194 3.19355 1.24194C1.6018 1.24194 0.354839 3.73569 0.354839 6.91936C0.354839 9.86168 1.41935 12.2104 2.83871 12.55V14.7258H0.354839C0.15888 14.7258 0 14.8847 0 15.0807C0 15.2766 0.15888 15.4355 0.354839 15.4355ZM16.6774 6.91936C16.6774 3.99194 17.7995 1.95162 18.8065 1.95162C19.8134 1.95162 20.9355 3.99194 20.9355 6.91936C20.9355 9.5058 20.0598 11.3968 19.1613 11.8031V9.905L19.9444 9.12186C20.0789 8.98256 20.077 8.7613 19.9401 8.62442C19.8032 8.48755 19.582 8.48564 19.4427 8.62009L19.1613 8.90147V8.33872C19.1613 8.14276 19.0024 7.98388 18.8065 7.98388C18.6105 7.98388 18.4516 8.14276 18.4516 8.33872V11.8031C17.5531 11.3968 16.6774 9.5058 16.6774 6.91936ZM7.80645 8.69356C7.80576 6.97585 9.16413 5.56515 10.8808 5.50105C12.5973 5.43694 14.0572 6.74212 14.1847 8.45515C14.3124 10.1682 13.062 11.6754 11.3548 11.8661V10.6147L12.138 9.83153C12.2724 9.69223 12.2705 9.47098 12.1336 9.3341C11.9968 9.19723 11.7755 9.19532 11.6362 9.32977L11.3548 9.61115V9.04839C11.3548 8.85244 11.196 8.69356 11 8.69356C10.804 8.69356 10.6452 8.85244 10.6452 9.04839V11.8661C9.03002 11.684 7.8087 10.3189 7.80645 8.69356ZM1.06452 6.91936C1.06452 3.99194 2.18655 1.95162 3.19355 1.95162C4.20054 1.95162 5.32258 3.99194 5.32258 6.91936C5.32258 9.5058 4.44692 11.3968 3.54839 11.8031V9.905L4.33153 9.12186C4.46598 8.98256 4.46407 8.7613 4.3272 8.62442C4.19032 8.48755 3.96906 8.48564 3.82976 8.62009L3.54839 8.90147V8.33872C3.54839 8.14276 3.38951 7.98388 3.19355 7.98388C2.99759 7.98388 2.83871 8.14276 2.83871 8.33872V11.8031C1.94018 11.3968 1.06452 9.5058 1.06452 6.91936Z" fill="#2C2C2C"/>
<path d="M20.9359 14.7258C20.7399 14.7258 20.5811 14.8847 20.5811 15.0807C20.5811 15.2766 20.7399 15.4355 20.9359 15.4355H21.6456C21.8415 15.4355 22.0004 15.2766 22.0004 15.0807C22.0004 14.8847 21.8415 14.7258 21.6456 14.7258H20.9359Z" fill="#2C2C2C"/>
<path d="M21.6454 20.0483H2.12925C1.93329 20.0483 1.77441 20.2072 1.77441 20.4032C1.77441 20.5991 1.93329 20.758 2.12925 20.758H21.6454C21.8413 20.758 22.0002 20.5991 22.0002 20.4032C22.0002 20.2072 21.8413 20.0483 21.6454 20.0483Z" fill="#2C2C2C"/>
<path d="M1.06452 20.0483H0.354839C0.15888 20.0483 0 20.2072 0 20.4032C0 20.5991 0.15888 20.758 0.354839 20.758H1.06452C1.26047 20.758 1.41935 20.5991 1.41935 20.4032C1.41935 20.2072 1.26047 20.0483 1.06452 20.0483Z" fill="#2C2C2C"/>
<path d="M20.9358 16.1451C20.4331 16.1344 19.9388 16.2744 19.5164 16.5468C18.8646 16.9576 18.0349 16.9576 17.383 16.5468C16.5135 16.0112 15.4162 16.0112 14.5466 16.5468C13.8951 16.9576 13.0657 16.9576 12.4143 16.5468C11.5448 16.0112 10.4479 16.0112 9.5785 16.5468C9.26369 16.7564 8.89204 16.864 8.51399 16.8548C8.13593 16.8638 7.76429 16.7564 7.44947 16.5468C7.02706 16.274 6.53275 16.1341 6.03012 16.1451C5.52835 16.1346 5.03473 16.2746 4.61319 16.5468C4.29837 16.7564 3.92673 16.864 3.54867 16.8548C3.17061 16.864 2.79897 16.7564 2.48415 16.5468C2.06174 16.2744 1.56743 16.1344 1.0648 16.1451C0.868841 16.1451 0.709961 16.304 0.709961 16.5C0.709961 16.6959 0.868841 16.8548 1.0648 16.8548C1.44286 16.8458 1.8145 16.9532 2.12932 17.1629C2.55173 17.4356 3.04604 17.5754 3.54867 17.5645C4.0513 17.5752 4.54561 17.4353 4.96803 17.1629C5.28284 16.9532 5.65449 16.8456 6.03254 16.8548C6.4106 16.8456 6.78224 16.9532 7.09706 17.1629C7.51947 17.4356 8.01378 17.5754 8.51641 17.5645C9.01852 17.5751 9.51214 17.4353 9.93403 17.1629C10.5853 16.7521 11.4146 16.7521 12.0658 17.1629C12.9354 17.6984 14.0325 17.6984 14.9021 17.1629C15.5536 16.7523 16.3832 16.7523 17.0346 17.1629C17.9049 17.699 19.003 17.699 19.8733 17.1629C20.1876 16.9539 20.5584 16.8465 20.9358 16.8548C21.1317 16.8548 21.2906 16.6959 21.2906 16.5C21.2906 16.304 21.1317 16.1451 20.9358 16.1451Z" fill="#2C2C2C"/>
<path d="M20.9358 17.9193C20.4331 17.9086 19.9388 18.0486 19.5164 18.3209C18.8646 18.7317 18.0349 18.7317 17.383 18.3209C16.5135 17.7854 15.4162 17.7854 14.5466 18.3209C13.8951 18.7317 13.0657 18.7317 12.4143 18.3209C11.5448 17.7854 10.4479 17.7854 9.5785 18.3209C9.26369 18.5306 8.89204 18.6382 8.51399 18.629C8.13593 18.638 7.76429 18.5306 7.44947 18.3209C7.02706 18.0482 6.53275 17.9082 6.03012 17.9193C5.52835 17.9087 5.03473 18.0487 4.61319 18.3209C4.29837 18.5306 3.92673 18.6382 3.54867 18.629C3.17061 18.6382 2.79897 18.5306 2.48415 18.3209C2.06174 18.0486 1.56743 17.9086 1.0648 17.9193C0.868841 17.9193 0.709961 18.0782 0.709961 18.2741C0.709961 18.4701 0.868841 18.629 1.0648 18.629C1.44286 18.62 1.8145 18.7274 2.12932 18.937C2.55173 19.2097 3.04604 19.3496 3.54867 19.3386C4.0513 19.3494 4.54561 19.2094 4.96803 18.937C5.28284 18.7274 5.65449 18.6198 6.03254 18.629C6.4106 18.6198 6.78224 18.7274 7.09706 18.937C7.51947 19.2097 8.01378 19.3496 8.51641 19.3386C9.01852 19.3492 9.51214 19.2094 9.93403 18.937C10.5853 18.5262 11.4146 18.5262 12.0658 18.937C12.9354 19.4726 14.0325 19.4726 14.9021 18.937C15.5536 18.5264 16.3832 18.5264 17.0346 18.937C17.9049 19.4731 19.003 19.4731 19.8733 18.937C20.1876 18.7281 20.5584 18.6207 20.9358 18.629C21.1317 18.629 21.2906 18.4701 21.2906 18.2741C21.2906 18.0782 21.1317 17.9193 20.9358 17.9193Z" fill="#2C2C2C"/>
</svg>
