<svg width="22" height="22" viewBox="0 0 22 22" fill="none" xmlns="http://www.w3.org/2000/svg">
<g clip-path="url(#clip0)">
<path d="M16.1123 13.8111H15.0194C14.8468 13.8111 14.707 13.9509 14.707 14.1235C14.707 14.296 14.8468 14.4358 15.0194 14.4358H16.1123C16.2847 14.4358 16.4247 14.296 16.4247 14.1235C16.4247 13.9509 16.2847 13.8111 16.1123 13.8111Z" fill="#2C2C2C"/>
<path d="M16.1123 15.7745H15.0194C14.8468 15.7745 14.707 15.9143 14.707 16.0868C14.707 16.2594 14.8468 16.3992 15.0194 16.3992H16.1123C16.2847 16.3992 16.4247 16.2594 16.4247 16.0868C16.4247 15.9143 16.2847 15.7745 16.1123 15.7745Z" fill="#2C2C2C"/>
<path d="M16.1123 17.6933H15.0194C14.8468 17.6933 14.707 17.8331 14.707 18.0057C14.707 18.1782 14.8468 18.318 15.0194 18.318H16.1123C16.2847 18.318 16.4247 18.1782 16.4247 18.0057C16.4247 17.8331 16.2847 17.6933 16.1123 17.6933Z" fill="#2C2C2C"/>
<path d="M12.0702 11.1745C12.2427 11.1745 12.3825 11.0347 12.3825 10.8621V9.61339C12.3825 9.44082 12.2427 9.30103 12.0702 9.30103C11.8976 9.30103 11.7578 9.44082 11.7578 9.61339V10.8621C11.7578 11.0347 11.8976 11.1745 12.0702 11.1745Z" fill="#2C2C2C"/>
<path d="M10.1053 11.1745C10.2779 11.1745 10.4177 11.0347 10.4177 10.8621V9.61339C10.4177 9.44082 10.2779 9.30103 10.1053 9.30103C9.93276 9.30103 9.79297 9.44082 9.79297 9.61339V10.8621C9.79297 11.0347 9.93276 11.1745 10.1053 11.1745Z" fill="#2C2C2C"/>
<path d="M8.14244 11.1745C8.315 11.1745 8.4548 11.0347 8.4548 10.8621V9.61339C8.4548 9.44082 8.315 9.30103 8.14244 9.30103C7.96987 9.30103 7.83008 9.44082 7.83008 9.61339V10.8621C7.83008 11.0347 7.96987 11.1745 8.14244 11.1745Z" fill="#2C2C2C"/>
<path d="M16.1123 11.8477H15.0194C14.8468 11.8477 14.707 11.9875 14.707 12.1601C14.707 12.3326 14.8468 12.4724 15.0194 12.4724H16.1123C16.2847 12.4724 16.4247 12.3326 16.4247 12.1601C16.4247 11.9875 16.2847 11.8477 16.1123 11.8477Z" fill="#2C2C2C"/>
<path d="M18.3209 13.8111H17.2284C17.0558 13.8111 16.916 13.9509 16.916 14.1235C16.916 14.296 17.0558 14.4358 17.2284 14.4358H18.3209C18.4935 14.4358 18.6333 14.296 18.6333 14.1235C18.6333 13.9509 18.4935 13.8111 18.3209 13.8111Z" fill="#2C2C2C"/>
<path d="M18.3209 15.7745H17.2284C17.0558 15.7745 16.916 15.9143 16.916 16.0868C16.916 16.2594 17.0558 16.3992 17.2284 16.3992H18.3209C18.4935 16.3992 18.6333 16.2594 18.6333 16.0868C18.6333 15.9143 18.4935 15.7745 18.3209 15.7745Z" fill="#2C2C2C"/>
<path d="M18.3209 17.6933H17.2284C17.0558 17.6933 16.916 17.8331 16.916 18.0057C16.916 18.1782 17.0558 18.318 17.2284 18.318H18.3209C18.4935 18.318 18.6333 18.1782 18.6333 18.0057C18.6333 17.8331 18.4935 17.6933 18.3209 17.6933Z" fill="#2C2C2C"/>
<path d="M17.2284 12.4724H18.3209C18.4935 12.4724 18.6333 12.3326 18.6333 12.1601C18.6333 11.9875 18.4935 11.8477 18.3209 11.8477H17.2284C17.0558 11.8477 16.916 11.9875 16.916 12.1601C16.916 12.3326 17.0558 12.4724 17.2284 12.4724Z" fill="#2C2C2C"/>
<path d="M10.1053 7.87341C10.2779 7.87341 10.4177 7.73361 10.4177 7.56105V6.3123C10.4177 6.13991 10.2779 5.99994 10.1053 5.99994C9.93276 5.99994 9.79297 6.13991 9.79297 6.3123V7.56105C9.79297 7.73361 9.93276 7.87341 10.1053 7.87341Z" fill="#2C2C2C"/>
<path d="M8.14244 7.87341C8.315 7.87341 8.4548 7.73361 8.4548 7.56105V6.3123C8.4548 6.13991 8.315 5.99994 8.14244 5.99994C7.96987 5.99994 7.83008 6.13991 7.83008 6.3123V7.56105C7.83008 7.73361 7.96987 7.87341 8.14244 7.87341Z" fill="#2C2C2C"/>
<path d="M12.0702 14.4755C12.2427 14.4755 12.3825 14.3357 12.3825 14.1632V12.9144C12.3825 12.742 12.2427 12.6021 12.0702 12.6021C11.8976 12.6021 11.7578 12.742 11.7578 12.9144V14.1632C11.7578 14.3357 11.8976 14.4755 12.0702 14.4755Z" fill="#2C2C2C"/>
<path d="M10.1053 14.4755C10.2779 14.4755 10.4177 14.3357 10.4177 14.1632V12.9144C10.4177 12.742 10.2779 12.6021 10.1053 12.6021C9.93276 12.6021 9.79297 12.742 9.79297 12.9144V14.1632C9.79297 14.3357 9.93276 14.4755 10.1053 14.4755Z" fill="#2C2C2C"/>
<path d="M8.14244 14.4755C8.315 14.4755 8.4548 14.3357 8.4548 14.1632V12.9144C8.4548 12.742 8.315 12.6021 8.14244 12.6021C7.96987 12.6021 7.83008 12.742 7.83008 12.9144V14.1632C7.83008 14.3357 7.96987 14.4755 8.14244 14.4755Z" fill="#2C2C2C"/>
<path d="M12.0702 17.7766C12.2427 17.7766 12.3825 17.6368 12.3825 17.4642V16.2155C12.3825 16.0429 12.2427 15.9031 12.0702 15.9031C11.8976 15.9031 11.7578 16.0429 11.7578 16.2155V17.4642C11.7578 17.6368 11.8976 17.7766 12.0702 17.7766Z" fill="#2C2C2C"/>
<path d="M10.1053 17.7766C10.2779 17.7766 10.4177 17.6368 10.4177 17.4642V16.2155C10.4177 16.0429 10.2779 15.9031 10.1053 15.9031C9.93276 15.9031 9.79297 16.0429 9.79297 16.2155V17.4642C9.79297 17.6368 9.93276 17.7766 10.1053 17.7766Z" fill="#2C2C2C"/>
<path d="M8.14244 17.7766C8.315 17.7766 8.4548 17.6368 8.4548 17.4642V16.2155C8.4548 16.0429 8.315 15.9031 8.14244 15.9031C7.96987 15.9031 7.83008 16.0429 7.83008 16.2155V17.4642C7.83008 17.6368 7.96987 17.7766 8.14244 17.7766Z" fill="#2C2C2C"/>
<path d="M16.9235 1.25019C15.6435 1.2481 14.4111 1.73477 13.4779 2.61067H6.34919C6.26936 2.60666 6.19126 2.63595 6.13374 2.69155C6.07622 2.74715 6.04432 2.82402 6.04572 2.90403V9.34875H2.7199C2.54054 9.35381 2.39534 9.49605 2.38662 9.67541V12.0708H0.31322C0.140654 12.0708 0.0216011 12.2114 0.0216011 12.384V14.4675C-0.0230219 14.4877 0.015326 14.5086 0.015326 14.5299C0.015326 14.5514 -0.0230219 14.5724 0.0216011 14.5925V16.4184C-0.0230219 16.4386 0.015326 16.4595 0.015326 16.4808C0.015326 16.502 -0.0230219 16.5231 0.0216011 16.5432V18.3691C-0.0230219 18.3893 0.015326 18.4102 0.015326 18.4315C0.015326 18.4527 -0.0230219 18.474 0.0216011 18.494V20.4465C0.0216011 20.619 0.140654 20.7723 0.31322 20.7723H19.2606C19.4344 20.7653 19.5705 20.6204 19.5665 20.4465V10.6529C21.5088 9.4699 22.4262 7.13869 21.8107 4.9492C21.1954 2.75988 19.1977 1.24792 16.9235 1.25019ZM6.67044 3.23539H12.9055C12.2661 4.05709 11.8978 5.05692 11.8512 6.09702C11.7908 6.1521 11.7566 6.23054 11.7575 6.31229V7.56104C11.7569 7.64366 11.7895 7.72315 11.8478 7.78172C11.906 7.84029 11.9851 7.8734 12.0677 7.8734C12.0719 7.87323 12.0761 7.87288 12.0803 7.87236C12.3712 8.77667 12.9084 9.58215 13.6316 10.198V20.1475H6.67044V3.23539ZM6.04572 16.1761H0.646324V14.8374H6.04572V16.1761ZM0.646324 16.8008H6.04572V18.1395H0.646324V16.8008ZM2.7199 12.6955C2.89247 12.6955 3.01135 12.5566 3.01135 12.384V9.97348H6.04572V14.2127H0.646324V12.6955H2.7199ZM0.646324 18.7642H6.04572V20.1475H0.646324V18.7642ZM18.9418 20.1475H14.2564V10.6508C15.0596 11.1258 15.9416 11.4004 16.9132 11.4004C17.6111 11.4007 18.3017 11.2571 18.9418 10.9787V20.1475ZM16.9235 10.7755C14.4631 10.7755 12.4685 8.78103 12.4685 6.32049C12.4683 3.86012 14.4629 1.8655 16.9235 1.8655C19.3838 1.8655 21.3784 3.85994 21.3784 6.32049C21.3757 8.77981 19.3828 10.7727 16.9235 10.7755Z" fill="#2C2C2C"/>
<path d="M16.9226 3.99561C14.9674 3.99561 13.4444 6.04879 13.3804 6.13629C13.3003 6.24593 13.3003 6.39497 13.3804 6.50478C13.4444 6.59228 14.9674 8.64547 16.9226 8.64547C18.8778 8.64547 20.4007 6.59228 20.4645 6.50478C20.5449 6.39497 20.5449 6.24593 20.4645 6.13629C20.4007 6.04879 18.8778 3.99561 16.9226 3.99561ZM16.9226 8.02074C15.5961 8.02074 14.4329 6.79448 14.0327 6.32019C14.4321 5.84554 15.5923 4.62015 16.9226 4.62015C18.2485 4.62015 19.4115 5.84572 19.8121 6.32019C19.4115 6.79518 18.2485 8.02074 16.9226 8.02074Z" fill="#2C2C2C"/>
<path d="M16.9232 4.68445C16.0196 4.68445 15.2871 5.41689 15.2871 6.32051C15.2871 7.22413 16.0196 7.95658 16.9232 7.95658C17.8268 7.95658 18.5592 7.22413 18.5592 6.32051C18.5584 5.41724 17.8264 4.68532 16.9232 4.68445ZM16.9232 7.33185C16.3647 7.33185 15.9118 6.879 15.9118 6.32051C15.9118 5.76203 16.3645 5.30917 16.9232 5.30917C17.4817 5.30917 17.9345 5.76203 17.9345 6.32051C17.9338 6.87882 17.4815 7.33116 16.9232 7.33185Z" fill="#2C2C2C"/>
</g>
<defs>
<clipPath id="clip0">
<rect width="22" height="22" fill="white"/>
</clipPath>
</defs>
</svg>
