<svg width="14" height="16" viewBox="0 0 14 16" fill="none" xmlns="http://www.w3.org/2000/svg">
<path d="M10.0788 0C10.1161 0 10.1533 0 10.1926 0C10.284 1.12835 9.85329 1.97146 9.32986 2.582C8.81627 3.18834 8.11298 3.7764 6.97549 3.68717C6.89961 2.57498 7.331 1.79441 7.85373 1.18526C8.33851 0.617573 9.22728 0.112414 10.0788 0Z" fill="#2C2C2C"/>
<path d="M13.5222 11.7443C13.5222 11.7556 13.5222 11.7654 13.5222 11.776C13.2026 12.7441 12.7466 13.5739 12.1901 14.3439C11.6822 15.043 11.0597 15.9837 9.94819 15.9837C8.98775 15.9837 8.3498 15.3662 7.36548 15.3493C6.32425 15.3324 5.75164 15.8657 4.79964 15.9999C4.69074 15.9999 4.58183 15.9999 4.47504 15.9999C3.77597 15.8987 3.21179 15.3451 2.80078 14.8463C1.58882 13.3722 0.652269 11.4682 0.478027 9.03165C0.478027 8.79277 0.478027 8.55459 0.478027 8.31572C0.551799 6.5719 1.39912 5.15408 2.52536 4.46695C3.11975 4.1016 3.93686 3.79036 4.84671 3.92947C5.23664 3.98989 5.63501 4.12338 5.9842 4.25547C6.31511 4.38264 6.72894 4.60817 7.12098 4.59622C7.38656 4.58849 7.65073 4.45009 7.91842 4.35243C8.7025 4.06928 9.47113 3.74469 10.4843 3.89715C11.7018 4.08123 12.566 4.62222 13.1 5.45689C12.07 6.1124 11.2557 7.10024 11.3948 8.78715C11.5185 10.3195 12.4093 11.216 13.5222 11.7443Z" fill="#2C2C2C"/>
</svg>
