<svg width="20" height="20" viewBox="0 0 20 20" fill="none" xmlns="http://www.w3.org/2000/svg">
<path d="M10 1.25C5.16797 1.25 1.25 5.16797 1.25 10C1.25 14.832 5.16797 18.75 10 18.75C14.832 18.75 18.75 14.832 18.75 10C18.75 5.16797 14.832 1.25 10 1.25ZM10.4355 14.2422L10.4395 14.8613C10.4395 14.9473 10.3691 15.0195 10.2832 15.0195H9.72852C9.64258 15.0195 9.57227 14.9492 9.57227 14.8633V14.25C7.83789 14.1211 7.02148 13.1328 6.93359 12.0586C6.92578 11.9668 6.99805 11.8887 7.08984 11.8887H7.99219C8.06836 11.8887 8.13477 11.9434 8.14648 12.0176C8.24609 12.6367 8.72852 13.0996 9.59375 13.2148V10.4277L9.11133 10.3047C8.08984 10.0605 7.11719 9.42383 7.11719 8.10352C7.11719 6.67969 8.19922 5.91406 9.58203 5.7793V5.13477C9.58203 5.04883 9.65234 4.97852 9.73828 4.97852H10.2871C10.373 4.97852 10.4434 5.04883 10.4434 5.13477V5.77344C11.7812 5.9082 12.7852 6.68945 12.9023 7.90625C12.9121 7.99805 12.8398 8.07812 12.7461 8.07812H11.8691C11.791 8.07812 11.7246 8.01953 11.7148 7.94336C11.6367 7.37305 11.1797 6.9082 10.4355 6.80664V9.42969L10.9316 9.54492C12.1973 9.85742 13.0586 10.4629 13.0586 11.8184C13.0586 13.2891 11.9648 14.1094 10.4355 14.2422ZM8.33203 8.01367C8.33203 8.50977 8.63867 8.89453 9.29883 9.13281C9.39062 9.16992 9.48242 9.19922 9.5918 9.23047V6.80859C8.87109 6.90039 8.33203 7.30469 8.33203 8.01367ZM10.6074 10.6543C10.5527 10.6426 10.498 10.6289 10.4355 10.6113V13.2227C11.2676 13.1484 11.8418 12.6914 11.8418 11.9258C11.8418 11.3262 11.5312 10.9355 10.6074 10.6543Z" fill="#2C2C2C"/>
</svg>
