<svg width="20" height="20" viewBox="0 0 20 20" fill="none" xmlns="http://www.w3.org/2000/svg">
<path d="M18.4868 9.86363L10.4419 1.82457C10.384 1.76653 10.3152 1.72048 10.2394 1.68907C10.1637 1.65765 10.0825 1.64148 10.0005 1.64148C9.91849 1.64148 9.83729 1.65765 9.76155 1.68907C9.68581 1.72048 9.61701 1.76653 9.55908 1.82457L1.51416 9.86363C1.27979 10.098 1.14697 10.4164 1.14697 10.7484C1.14697 11.4378 1.70752 11.9984 2.39697 11.9984H3.24463V17.7347C3.24463 18.0804 3.52393 18.3597 3.86963 18.3597H8.75049V13.9847H10.938V18.3597H16.1313C16.4771 18.3597 16.7563 18.0804 16.7563 17.7347V11.9984H17.604C17.936 11.9984 18.2544 11.8675 18.4888 11.6312C18.9751 11.1429 18.9751 10.3519 18.4868 9.86363Z" fill="#2C2C2C"/>
</svg>
