<svg width="20" height="20" viewBox="0 0 20 20" fill="none" xmlns="http://www.w3.org/2000/svg">
<path d="M16.4062 3.75H15.3125V2.34375C15.3125 2.08398 15.1035 1.875 14.8438 1.875H3.28125C3.02148 1.875 2.8125 2.08398 2.8125 2.34375V7.65625C2.8125 7.91602 3.02148 8.125 3.28125 8.125H14.8438C15.1035 8.125 15.3125 7.91602 15.3125 7.65625V5H15.9375V8.90625H9.08203C8.65039 8.90625 8.30078 9.25586 8.30078 9.6875V12.3438H7.44141C7.35547 12.3438 7.28516 12.4141 7.28516 12.5V16.9531C7.28516 16.9746 7.28906 16.9961 7.29688 17.0137C7.28906 17.0449 7.28516 17.0762 7.28516 17.1094C7.28516 18.0156 8.01953 18.75 8.92578 18.75C9.83203 18.75 10.5664 18.0156 10.5664 17.1094C10.5664 17.0762 10.5625 17.0449 10.5547 17.0137C10.5625 16.9941 10.5664 16.9746 10.5664 16.9531V12.5C10.5664 12.4141 10.4961 12.3438 10.4102 12.3438H9.55078V10.1562H16.4062C16.8379 10.1562 17.1875 9.80664 17.1875 9.375V4.53125C17.1875 4.09961 16.8379 3.75 16.4062 3.75Z" fill="#2C2C2C"/>
</svg>
