<svg width="20" height="20" viewBox="0 0 20 20" fill="none" xmlns="http://www.w3.org/2000/svg">
<path d="M16.2064 13.8701H15.0571V16.8158H16.2064V13.8701Z" fill="#2C2C2C"/>
<path d="M15.6319 13.5188C16.0041 13.5188 16.3059 13.217 16.3059 12.8448C16.3059 12.4726 16.0041 12.1709 15.6319 12.1709C15.2597 12.1709 14.958 12.4726 14.958 12.8448C14.958 13.217 15.2597 13.5188 15.6319 13.5188Z" fill="#2C2C2C"/>
<path d="M15.5982 10.1895C14.3326 10.1895 13.1942 10.7297 12.3906 11.5872L12.1669 11.4841L11.1305 10.6105L9.34942 12.3818L7.56392 10.6105L6.52756 11.4841L4.37001 12.4775C4.05095 12.6085 3.76772 12.8351 3.57792 13.1538L0 18.2878L13.2259 18.2937C13.9115 18.7344 14.7246 18.9931 15.5982 18.9931C18.0253 18.9931 20 17.0183 20 14.5911C19.9998 12.1641 18.0253 10.1895 15.5982 10.1895ZM15.5982 17.6891C13.89 17.6891 12.5004 16.2993 12.5004 14.5913C12.5004 12.8835 13.89 11.494 15.5982 11.494C17.3059 11.494 18.6955 12.8835 18.6955 14.5913C18.6955 16.2993 17.3059 17.6891 15.5982 17.6891Z" fill="#2C2C2C"/>
<path d="M9.33575 10.8241V10.8247C9.33742 10.8247 9.33993 10.8243 9.34182 10.8243C9.34266 10.8243 9.34433 10.8247 9.34601 10.8247C9.34601 10.8247 9.34685 10.8247 9.34727 10.8247C9.34811 10.8247 9.34852 10.8247 9.34894 10.8247C9.3502 10.8247 9.35188 10.8243 9.35313 10.8243C9.35523 10.8243 9.35732 10.8247 9.35921 10.8247V10.8241C11.874 10.8624 13.4026 8.66126 13.4422 5.03244C13.4676 2.51497 11.9062 1.07555 9.36361 1.00788V1.00684C9.35942 1.00684 9.35669 1.00705 9.35292 1.00705V1.00684C9.35041 1.00684 9.34873 1.00684 9.34727 1.00705C9.34559 1.00684 9.3435 1.00684 9.34203 1.00684V1.00705C9.33784 1.00705 9.33512 1.00684 9.33176 1.00684V1.00788C6.78874 1.07576 5.2274 2.51518 5.25275 5.03265C5.29192 8.66126 6.82058 10.8624 9.33575 10.8241Z" fill="#2C2C2C"/>
</svg>
