<svg width="20" height="20" viewBox="0 0 20 20" fill="none" xmlns="http://www.w3.org/2000/svg">
<path d="M10 6.38672C9.41602 6.38672 8.86719 6.61328 8.45312 7.02734C8.24965 7.23023 8.08831 7.47135 7.97836 7.73682C7.86842 8.00229 7.81205 8.28688 7.8125 8.57422C7.8125 9.1582 8.04102 9.70703 8.45312 10.1211C8.65601 10.3246 8.89713 10.4859 9.1626 10.5959C9.42807 10.7058 9.71266 10.7622 10 10.7617C10.584 10.7617 11.1328 10.5332 11.5469 10.1211C11.9609 9.70703 12.1875 9.1582 12.1875 8.57422C12.1875 7.99023 11.9609 7.44141 11.5469 7.02734C11.1328 6.61328 10.584 6.38672 10 6.38672ZM16.6914 5.64648C16.3237 4.79859 15.7935 4.0309 15.1309 3.38672C14.466 2.73672 13.6822 2.22082 12.8223 1.86719C11.9277 1.49609 10.9785 1.30859 10 1.30859C9.02148 1.30859 8.07227 1.49609 7.17773 1.86523C6.3125 2.22266 5.53711 2.73438 4.86914 3.38477C4.20688 4.02931 3.67679 4.79691 3.30859 5.64453C2.92773 6.52344 2.73438 7.45703 2.73438 8.41797C2.73438 9.79688 3.06445 11.1699 3.71289 12.4941C4.23438 13.5586 4.96289 14.5957 5.88086 15.582C7.44922 17.2656 9.09375 18.2949 9.56055 18.5703C9.69305 18.6486 9.84416 18.6897 9.99805 18.6895C10.1504 18.6895 10.3008 18.6504 10.4355 18.5703C10.9023 18.2949 12.5469 17.2656 14.1152 15.582C15.0332 14.5977 15.7617 13.5586 16.2832 12.4941C16.9355 11.1719 17.2656 9.80078 17.2656 8.41992C17.2656 7.45898 17.0723 6.52539 16.6914 5.64648ZM10 12.0117C8.10156 12.0117 6.5625 10.4727 6.5625 8.57422C6.5625 6.67578 8.10156 5.13672 10 5.13672C11.8984 5.13672 13.4375 6.67578 13.4375 8.57422C13.4375 10.4727 11.8984 12.0117 10 12.0117Z" fill="#2C2C2C"/>
</svg>
