<svg width="18" height="18" viewBox="0 0 18 18" fill="none" xmlns="http://www.w3.org/2000/svg">
<path d="M2.50024 7.5C2.10024 1.9 6.66691 2.83334 9.00024 4L12.0002 3C13.5002 3.16667 16.3002 4.3 15.5002 7.5C14.7002 10.7 10.8336 13.8333 9.00024 15C7.16691 13.6667 3.30024 10.3 2.50024 7.5Z" fill="white"/>
<path d="M16.2246 4.98468C15.989 4.43912 15.6493 3.94474 15.2244 3.52921C14.7993 3.11244 14.298 2.78125 13.7479 2.55363C13.1774 2.31666 12.5656 2.19537 11.9479 2.19679C11.0813 2.19679 10.2357 2.43409 9.50098 2.88234C9.3252 2.98956 9.1582 3.10734 9 3.23566C8.8418 3.10734 8.6748 2.98956 8.49902 2.88234C7.76426 2.43409 6.91875 2.19679 6.05215 2.19679C5.42812 2.19679 4.82344 2.31632 4.25215 2.55363C3.7002 2.78214 3.20273 3.11085 2.77559 3.52921C2.35019 3.94427 2.01037 4.43877 1.77539 4.98468C1.53105 5.55245 1.40625 6.15538 1.40625 6.77589C1.40625 7.36124 1.52578 7.9712 1.76309 8.59171C1.96172 9.11027 2.24648 9.64816 2.61035 10.1913C3.18691 11.0509 3.97969 11.9474 4.96406 12.8562C6.59531 14.3626 8.21074 15.4032 8.2793 15.4454L8.6959 15.7126C8.88047 15.8304 9.11777 15.8304 9.30234 15.7126L9.71895 15.4454C9.7875 15.4015 11.4012 14.3626 13.0342 12.8562C14.0186 11.9474 14.8113 11.0509 15.3879 10.1913C15.7518 9.64816 16.0383 9.11027 16.2352 8.59171C16.4725 7.9712 16.592 7.36124 16.592 6.77589C16.5938 6.15538 16.4689 5.55245 16.2246 4.98468ZM9 14.3222C9 14.3222 2.74219 10.3126 2.74219 6.77589C2.74219 4.98468 4.22402 3.53273 6.05215 3.53273C7.33711 3.53273 8.45156 4.24991 9 5.29757C9.54844 4.24991 10.6629 3.53273 11.9479 3.53273C13.776 3.53273 15.2578 4.98468 15.2578 6.77589C15.2578 10.3126 9 14.3222 9 14.3222Z" fill="#83B373"/>
</svg>
