<svg width="20" height="20" viewBox="0 0 20 20" fill="none" xmlns="http://www.w3.org/2000/svg">
<path d="M11.1914 8.22266C10.7402 8.22266 10.3906 8.57227 10.3906 9.00391C10.3906 9.43555 10.7402 9.78516 11.1914 9.78516C11.6035 9.78516 11.9531 9.43555 11.9531 9.00391C11.9531 8.57227 11.6035 8.22266 11.1914 8.22266ZM5.72266 8.22266C5.27148 8.22266 4.92188 8.57227 4.92188 9.00391C4.92188 9.43555 5.27148 9.78516 5.72266 9.78516C6.13477 9.78516 6.48438 9.43555 6.48438 9.00391C6.48438 8.57227 6.13477 8.22266 5.72266 8.22266Z" fill="#262626"/>
<path d="M17.4612 6.73763C16.5217 5.44857 15.2092 4.58724 13.7698 4.19857V4.20052C13.4358 3.82943 13.0588 3.48763 12.6369 3.18294C9.43968 0.858723 4.9514 1.56771 2.61742 4.76497C0.736556 7.36263 0.816634 10.8568 2.7346 13.3392L2.75023 15.929C2.75023 15.9915 2.75999 16.054 2.77952 16.1126C2.88304 16.4427 3.2346 16.6243 3.56273 16.5208L6.03538 15.7415C6.68968 15.974 7.36546 16.1068 8.03734 16.1439L8.02757 16.1517C9.76781 17.4193 12.0491 17.8001 14.1409 17.1087L16.6233 17.9173C16.6858 17.9368 16.7502 17.9486 16.8166 17.9486C17.1623 17.9486 17.4416 17.6693 17.4416 17.3236V14.7064C19.1623 12.3704 19.2073 9.14193 17.4612 6.73763ZM6.30882 14.3548L6.07445 14.2572L4.14085 14.8626L4.12132 12.8314L3.96507 12.6556C2.31273 10.64 2.20335 7.73568 3.75023 5.60482C5.63304 3.02279 9.24241 2.45247 11.8166 4.31575C14.3987 6.19271 14.9709 9.79622 13.1057 12.3626C11.5412 14.5091 8.74046 15.3021 6.30882 14.3548ZM16.1721 14.0228L16.0159 14.2181L16.0354 16.2493L14.1213 15.6048L13.8869 15.7025C12.7932 16.1087 11.6272 16.1419 10.5471 15.8392L10.5432 15.8372C11.9866 15.3939 13.2951 14.4954 14.2385 13.2025C15.7307 11.1458 15.9729 8.56185 15.1057 6.35872L15.1174 6.36654C15.5666 6.6888 15.9787 7.09115 16.3284 7.57747C17.7463 9.52279 17.6662 12.1712 16.1721 14.0228Z" fill="#262626"/>
<path d="M8.45703 8.22266C8.00586 8.22266 7.65625 8.57227 7.65625 9.00391C7.65625 9.43555 8.00586 9.78516 8.45703 9.78516C8.86914 9.78516 9.21875 9.43555 9.21875 9.00391C9.21875 8.57227 8.86914 8.22266 8.45703 8.22266Z" fill="#262626"/>
</svg>
