<svg width="30" height="30" viewBox="0 0 30 30" fill="none" xmlns="http://www.w3.org/2000/svg">
<path d="M19.5578 9.6139L20.3864 10.4425C20.46 10.5162 20.46 10.5899 20.3864 10.6635L10.6637 20.3862C10.59 20.4599 10.5164 20.4599 10.4427 20.3862L9.61406 19.5576C9.54041 19.4839 9.5404 19.4103 9.61406 19.3366L19.3368 9.6139C19.4104 9.54025 19.4841 9.54025 19.5578 9.6139Z" fill="#262626"/>
<path d="M10.8844 9.83485L20.1652 19.1156C20.2388 19.1893 20.2388 19.2629 20.1652 19.3366L19.3365 20.1652C19.2629 20.2389 19.1892 20.2389 19.1156 20.1652L9.8348 10.8845C9.76114 10.8108 9.76114 10.7371 9.8348 10.6635L10.6634 9.83485C10.7371 9.76119 10.8108 9.76119 10.8844 9.83485Z" fill="#262626"/>
</svg>
