<svg width="20" height="20" viewBox="0 0 20 20" fill="none" xmlns="http://www.w3.org/2000/svg">
<path d="M18.0273 5.5385C17.7655 4.93232 17.3881 4.38301 16.916 3.92131C16.4436 3.45823 15.8866 3.09024 15.2754 2.83732C14.6416 2.57403 13.9617 2.43926 13.2754 2.44084C12.3125 2.44084 11.373 2.70451 10.5566 3.20256C10.3613 3.3217 10.1758 3.45256 10 3.59514C9.82422 3.45256 9.63867 3.3217 9.44336 3.20256C8.62695 2.70451 7.6875 2.44084 6.72461 2.44084C6.03125 2.44084 5.35938 2.57365 4.72461 2.83732C4.11133 3.09123 3.55859 3.45647 3.08398 3.92131C2.61132 4.38249 2.23375 4.93193 1.97266 5.5385C1.70117 6.16936 1.5625 6.83928 1.5625 7.52873C1.5625 8.17912 1.69531 8.85686 1.95898 9.54631C2.17969 10.1225 2.49609 10.7201 2.90039 11.3237C3.54102 12.2787 4.42188 13.2748 5.51562 14.2846C7.32812 15.9584 9.12305 17.1147 9.19922 17.1615L9.66211 17.4584C9.86719 17.5893 10.1309 17.5893 10.3359 17.4584L10.7988 17.1615C10.875 17.1127 12.668 15.9584 14.4824 14.2846C15.5762 13.2748 16.457 12.2787 17.0977 11.3237C17.502 10.7201 17.8203 10.1225 18.0391 9.54631C18.3027 8.85686 18.4355 8.17912 18.4355 7.52873C18.4375 6.83928 18.2988 6.16936 18.0273 5.5385ZM10 15.9135C10 15.9135 3.04688 11.4584 3.04688 7.52873C3.04688 5.5385 4.69336 3.92522 6.72461 3.92522C8.15234 3.92522 9.39062 4.72209 10 5.88615C10.6094 4.72209 11.8477 3.92522 13.2754 3.92522C15.3066 3.92522 16.9531 5.5385 16.9531 7.52873C16.9531 11.4584 10 15.9135 10 15.9135Z" fill="#262626"/>
</svg>
