<svg width="99" height="99" viewBox="0 0 99 99" fill="none" xmlns="http://www.w3.org/2000/svg">
<rect width="99" height="99" fill="#F7F7F7"/>
<path opacity="0.3" d="M26.9486 66.2H27.0386C27.1786 66.1933 27.3119 66.17 27.4386 66.13C27.5652 66.0833 27.6819 66.0033 27.7886 65.89C27.8952 65.7767 27.9952 65.62 28.0886 65.42C28.1819 65.2133 28.2686 64.95 28.3486 64.63C28.4286 64.31 28.4986 63.9233 28.5586 63.47C28.6252 63.01 28.6852 62.4667 28.7386 61.84L28.8986 59.9H32.6586V66.2H33.7586V68.86H32.9586V67H27.7486V68.86H26.9486V66.2ZM31.7586 66.2V60.7H29.7386L29.6386 61.88C29.5386 63.0733 29.3952 64.0167 29.2086 64.71C29.0286 65.3967 28.7852 65.8933 28.4786 66.2H31.7586ZM36.78 67.1C36.3867 67.1 36.0267 67.0267 35.7 66.88C35.38 66.7333 35.1034 66.5367 34.87 66.29C34.6434 66.0433 34.4667 65.7567 34.34 65.43C34.2134 65.1033 34.15 64.76 34.15 64.4C34.15 64.0333 34.2134 63.6867 34.34 63.36C34.4734 63.0333 34.6534 62.7467 34.88 62.5C35.1134 62.2533 35.39 62.0567 35.71 61.91C36.0367 61.7633 36.3934 61.69 36.78 61.69C37.1667 61.69 37.5234 61.7633 37.85 61.91C38.1767 62.0567 38.4534 62.2533 38.68 62.5C38.9134 62.7467 39.0934 63.0333 39.22 63.36C39.3534 63.6867 39.42 64.0333 39.42 64.4C39.42 64.76 39.3567 65.1033 39.23 65.43C39.1034 65.7567 38.9234 66.0433 38.69 66.29C38.4567 66.5367 38.1767 66.7333 37.85 66.88C37.53 67.0267 37.1734 67.1 36.78 67.1ZM35.05 64.41C35.05 64.6833 35.0934 64.9367 35.18 65.17C35.2734 65.4033 35.3967 65.6067 35.55 65.78C35.71 65.9533 35.8934 66.09 36.1 66.19C36.3134 66.29 36.54 66.34 36.78 66.34C37.02 66.34 37.2434 66.29 37.45 66.19C37.6634 66.09 37.85 65.9533 38.01 65.78C38.17 65.6 38.2934 65.3933 38.38 65.16C38.4734 64.92 38.52 64.6633 38.52 64.39C38.52 64.1233 38.4734 63.8733 38.38 63.64C38.2934 63.4 38.17 63.1933 38.01 63.02C37.85 62.84 37.6634 62.7 37.45 62.6C37.2434 62.5 37.02 62.45 36.78 62.45C36.54 62.45 36.3134 62.5033 36.1 62.61C35.8934 62.71 35.71 62.85 35.55 63.03C35.3967 63.2033 35.2734 63.41 35.18 63.65C35.0934 63.8833 35.05 64.1367 35.05 64.41ZM43.0164 60.74C42.4964 60.8733 42.0864 61.1033 41.7864 61.43C41.4864 61.7567 41.2897 62.2267 41.1964 62.84C41.4297 62.56 41.6964 62.35 41.9964 62.21C42.2964 62.0633 42.6197 61.99 42.9664 61.99C43.2997 61.99 43.6064 62.0567 43.8864 62.19C44.173 62.3167 44.4197 62.4967 44.6264 62.73C44.833 62.9633 44.993 63.24 45.1064 63.56C45.2264 63.8733 45.2864 64.2133 45.2864 64.58C45.2864 64.9533 45.223 65.2967 45.0964 65.61C44.9764 65.9167 44.8064 66.18 44.5864 66.4C44.3664 66.62 44.0997 66.7933 43.7864 66.92C43.4797 67.04 43.1364 67.1 42.7564 67.1C41.9564 67.1 41.3497 66.82 40.9364 66.26C40.523 65.7 40.3164 64.8833 40.3164 63.81C40.3164 62.7233 40.5397 61.87 40.9864 61.25C41.4397 60.6233 42.0964 60.2033 42.9564 59.99L44.6064 59.59L44.7664 60.31L43.0164 60.74ZM41.2164 64.52C41.2164 64.7867 41.2564 65.0333 41.3364 65.26C41.4164 65.4867 41.5264 65.6833 41.6664 65.85C41.813 66.0167 41.983 66.1467 42.1764 66.24C42.3764 66.3333 42.593 66.38 42.8264 66.38C43.053 66.38 43.263 66.3367 43.4564 66.25C43.6497 66.1633 43.813 66.0433 43.9464 65.89C44.0864 65.73 44.193 65.54 44.2664 65.32C44.3464 65.1 44.3864 64.86 44.3864 64.6C44.3864 64.3333 44.3464 64.09 44.2664 63.87C44.1864 63.6433 44.0764 63.45 43.9364 63.29C43.7964 63.13 43.6264 63.0067 43.4264 62.92C43.2264 62.8333 43.0064 62.79 42.7664 62.79C42.533 62.79 42.3197 62.8333 42.1264 62.92C41.9397 63 41.7797 63.1167 41.6464 63.27C41.513 63.4233 41.4064 63.6067 41.3264 63.82C41.253 64.0267 41.2164 64.26 41.2164 64.52ZM47.7248 67.1C47.4781 67.1 47.2481 67.06 47.0348 66.98C46.8215 66.8933 46.6348 66.7767 46.4748 66.63C46.3215 66.4833 46.1981 66.3133 46.1048 66.12C46.0181 65.92 45.9748 65.7033 45.9748 65.47C45.9748 65.23 46.0281 65.0133 46.1348 64.82C46.2415 64.62 46.3915 64.45 46.5848 64.31C46.7848 64.17 47.0181 64.06 47.2848 63.98C47.5581 63.9 47.8548 63.86 48.1748 63.86C48.4281 63.86 48.6848 63.8833 48.9448 63.93C49.2048 63.9767 49.4348 64.04 49.6348 64.12V63.7C49.6348 63.2733 49.5148 62.94 49.2748 62.7C49.0348 62.4533 48.6948 62.33 48.2548 62.33C47.7281 62.33 47.1748 62.5333 46.5948 62.94L46.3048 62.37C46.9781 61.9167 47.6548 61.69 48.3348 61.69C49.0215 61.69 49.5548 61.8733 49.9348 62.24C50.3215 62.6067 50.5148 63.1233 50.5148 63.79V65.92C50.5148 66.1267 50.6081 66.2333 50.7948 66.24V67C50.7015 67.0133 50.6248 67.0233 50.5648 67.03C50.5048 67.0367 50.4415 67.04 50.3748 67.04C50.2015 67.04 50.0615 66.99 49.9548 66.89C49.8548 66.7833 49.7948 66.6567 49.7748 66.51L49.7548 66.14C49.5215 66.4533 49.2248 66.6933 48.8648 66.86C48.5115 67.02 48.1315 67.1 47.7248 67.1ZM47.9548 66.44C48.2681 66.44 48.5581 66.3833 48.8248 66.27C49.0981 66.15 49.3048 65.9933 49.4448 65.8C49.5715 65.6733 49.6348 65.5433 49.6348 65.41V64.64C49.2081 64.4733 48.7648 64.39 48.3048 64.39C47.8648 64.39 47.5048 64.4833 47.2248 64.67C46.9515 64.8567 46.8148 65.1 46.8148 65.4C46.8148 65.5467 46.8415 65.6833 46.8948 65.81C46.9548 65.9367 47.0348 66.0467 47.1348 66.14C47.2415 66.2333 47.3648 66.3067 47.5048 66.36C47.6448 66.4133 47.7948 66.44 47.9548 66.44ZM54.6017 61.78C54.7883 61.78 54.9617 61.8133 55.1217 61.88C55.2817 61.94 55.4217 62.0267 55.5417 62.14C55.6617 62.2533 55.755 62.39 55.8217 62.55C55.8883 62.7033 55.9217 62.8733 55.9217 63.06C55.9217 63.1733 55.9083 63.29 55.8817 63.41C55.855 63.5233 55.8117 63.6367 55.7517 63.75C55.6983 63.8567 55.625 63.9567 55.5317 64.05C55.4383 64.1433 55.325 64.2167 55.1917 64.27C55.4783 64.35 55.705 64.5 55.8717 64.72C56.0383 64.9333 56.1217 65.2033 56.1217 65.53C56.1217 65.75 56.0817 65.9533 56.0017 66.14C55.9217 66.32 55.8083 66.4733 55.6617 66.6C55.5217 66.7267 55.3517 66.8267 55.1517 66.9C54.9583 66.9667 54.7417 67 54.5017 67H51.9717V61.78H54.6017ZM54.2517 64.01C54.505 64.01 54.7017 63.94 54.8417 63.8C54.9883 63.6533 55.0617 63.4533 55.0617 63.2C55.0617 62.9867 55.005 62.8067 54.8917 62.66C54.7783 62.5067 54.5883 62.43 54.3217 62.43H52.8317V64.01H54.2517ZM54.4017 66.35C54.6683 66.35 54.8783 66.2667 55.0317 66.1C55.1917 65.9267 55.2717 65.7233 55.2717 65.49C55.2717 65.27 55.1983 65.0767 55.0517 64.91C54.905 64.7433 54.695 64.66 54.4217 64.66H52.8317V66.35H54.4017ZM57.2251 61.78H58.0851V63.58H59.0751C59.3018 63.58 59.5218 63.6167 59.7351 63.69C59.9551 63.7567 60.1485 63.8633 60.3151 64.01C60.4885 64.15 60.6285 64.33 60.7351 64.55C60.8418 64.7633 60.8951 65.0167 60.8951 65.31C60.8951 65.6033 60.8418 65.8567 60.7351 66.07C60.6285 66.2833 60.4885 66.46 60.3151 66.6C60.1485 66.7333 59.9551 66.8333 59.7351 66.9C59.5151 66.9667 59.2918 67 59.0651 67H57.2251V61.78ZM59.0651 66.26C59.3518 66.26 59.5818 66.1833 59.7551 66.03C59.9351 65.87 60.0251 65.63 60.0251 65.31C60.0251 64.9833 59.9285 64.7367 59.7351 64.57C59.5485 64.4033 59.3285 64.32 59.0751 64.32H58.0851V66.26H59.0651ZM63.4655 67H62.6055V62.54H60.8555V61.78H65.2155V62.54H63.4655V67ZM68.3432 67.1C67.9499 67.1 67.5899 67.03 67.2632 66.89C66.9366 66.7433 66.6566 66.5467 66.4232 66.3C66.1899 66.0533 66.0066 65.7667 65.8732 65.44C65.7466 65.1067 65.6832 64.7567 65.6832 64.39C65.6832 64.0233 65.7466 63.6767 65.8732 63.35C66.0066 63.0233 66.1899 62.7367 66.4232 62.49C66.6632 62.2433 66.9466 62.05 67.2732 61.91C67.5999 61.7633 67.9599 61.69 68.3532 61.69C68.7466 61.69 69.1032 61.7633 69.4232 61.91C69.7499 62.0567 70.0266 62.2533 70.2532 62.5C70.4799 62.74 70.6532 63.0233 70.7732 63.35C70.8999 63.67 70.9632 64.0033 70.9632 64.35C70.9632 64.4233 70.9599 64.49 70.9532 64.55C70.9532 64.61 70.9499 64.6567 70.9432 64.69H66.6132C66.6332 64.95 66.6932 65.1867 66.7932 65.4C66.8932 65.6133 67.0232 65.7967 67.1832 65.95C67.3432 66.1033 67.5232 66.2233 67.7232 66.31C67.9299 66.3967 68.1466 66.44 68.3732 66.44C68.5332 66.44 68.6899 66.42 68.8432 66.38C68.9966 66.3333 69.1399 66.2733 69.2732 66.2C69.4066 66.1267 69.5232 66.0367 69.6232 65.93C69.7299 65.8233 69.8099 65.7033 69.8632 65.57L70.6232 65.78C70.5366 65.9733 70.4166 66.15 70.2632 66.31C70.1166 66.47 69.9432 66.61 69.7432 66.73C69.5499 66.8433 69.3332 66.9333 69.0932 67C68.8532 67.0667 68.6032 67.1 68.3432 67.1ZM70.1332 64.04C70.1132 63.7933 70.0499 63.5667 69.9432 63.36C69.8432 63.1467 69.7132 62.9667 69.5532 62.82C69.3999 62.6733 69.2199 62.56 69.0132 62.48C68.8066 62.3933 68.5866 62.35 68.3532 62.35C68.1199 62.35 67.8999 62.3933 67.6932 62.48C67.4866 62.56 67.3032 62.6767 67.1432 62.83C66.9899 62.9767 66.8632 63.1533 66.7632 63.36C66.6699 63.5667 66.6132 63.7933 66.5932 64.04H70.1332ZM27.5814 73.72C27.9881 73.76 28.3481 73.8567 28.6614 74.01C28.9814 74.1567 29.2514 74.35 29.4714 74.59C29.6914 74.8233 29.8581 75.0967 29.9714 75.41C30.0914 75.7167 30.1514 76.0533 30.1514 76.42C30.1514 76.7867 30.0914 77.1233 29.9714 77.43C29.8581 77.7367 29.6914 78.0067 29.4714 78.24C29.2514 78.4667 28.9814 78.6533 28.6614 78.8C28.3481 78.94 27.9881 79.03 27.5814 79.07V81.13H26.7014V79.08C26.2881 79.04 25.9181 78.95 25.5914 78.81C25.2714 78.6633 24.9981 78.4767 24.7714 78.25C24.5514 78.0167 24.3814 77.7467 24.2614 77.44C24.1481 77.1267 24.0914 76.7867 24.0914 76.42C24.0914 76.0467 24.1481 75.7033 24.2614 75.39C24.3814 75.0767 24.5514 74.8033 24.7714 74.57C24.9981 74.33 25.2714 74.1367 25.5914 73.99C25.9181 73.8433 26.2881 73.75 26.7014 73.71V71.7H27.5814V73.72ZM26.7014 74.54C25.5681 74.66 25.0014 75.2733 25.0014 76.38C25.0014 76.94 25.1448 77.38 25.4314 77.7C25.7181 78.0133 26.1414 78.2033 26.7014 78.27V74.54ZM27.5814 78.27C28.1214 78.1967 28.5314 78.0033 28.8114 77.69C29.0981 77.37 29.2414 76.9333 29.2414 76.38C29.2414 75.84 29.1014 75.4167 28.8214 75.11C28.5414 74.7967 28.1281 74.6067 27.5814 74.54V78.27ZM33.4988 79.1C33.1055 79.1 32.7455 79.0267 32.4188 78.88C32.0988 78.7333 31.8221 78.5367 31.5888 78.29C31.3621 78.0433 31.1855 77.7567 31.0588 77.43C30.9321 77.1033 30.8688 76.76 30.8688 76.4C30.8688 76.0333 30.9321 75.6867 31.0588 75.36C31.1921 75.0333 31.3721 74.7467 31.5988 74.5C31.8321 74.2533 32.1088 74.0567 32.4288 73.91C32.7555 73.7633 33.1121 73.69 33.4988 73.69C33.8855 73.69 34.2421 73.7633 34.5688 73.91C34.8955 74.0567 35.1721 74.2533 35.3988 74.5C35.6321 74.7467 35.8121 75.0333 35.9388 75.36C36.0721 75.6867 36.1388 76.0333 36.1388 76.4C36.1388 76.76 36.0755 77.1033 35.9488 77.43C35.8221 77.7567 35.6421 78.0433 35.4088 78.29C35.1755 78.5367 34.8955 78.7333 34.5688 78.88C34.2488 79.0267 33.8921 79.1 33.4988 79.1ZM31.7688 76.41C31.7688 76.6833 31.8121 76.9367 31.8988 77.17C31.9921 77.4033 32.1155 77.6067 32.2688 77.78C32.4288 77.9533 32.6121 78.09 32.8188 78.19C33.0321 78.29 33.2588 78.34 33.4988 78.34C33.7388 78.34 33.9621 78.29 34.1688 78.19C34.3821 78.09 34.5688 77.9533 34.7288 77.78C34.8888 77.6 35.0121 77.3933 35.0988 77.16C35.1921 76.92 35.2388 76.6633 35.2388 76.39C35.2388 76.1233 35.1921 75.8733 35.0988 75.64C35.0121 75.4 34.8888 75.1933 34.7288 75.02C34.5688 74.84 34.3821 74.7 34.1688 74.6C33.9621 74.5 33.7388 74.45 33.4988 74.45C33.2588 74.45 33.0321 74.5033 32.8188 74.61C32.6121 74.71 32.4288 74.85 32.2688 75.03C32.1155 75.2033 31.9921 75.41 31.8988 75.65C31.8121 75.8833 31.7688 76.1367 31.7688 76.41ZM39.2175 79H38.3575V74.54H36.6075V73.78H40.9675V74.54H39.2175V79ZM44.0652 79.1C43.6719 79.1 43.3119 79.0267 42.9852 78.88C42.6652 78.7333 42.3885 78.5367 42.1552 78.29C41.9285 78.0433 41.7519 77.7567 41.6252 77.43C41.4985 77.1033 41.4352 76.76 41.4352 76.4C41.4352 76.0333 41.4985 75.6867 41.6252 75.36C41.7585 75.0333 41.9385 74.7467 42.1652 74.5C42.3985 74.2533 42.6752 74.0567 42.9952 73.91C43.3219 73.7633 43.6785 73.69 44.0652 73.69C44.4519 73.69 44.8085 73.7633 45.1352 73.91C45.4619 74.0567 45.7385 74.2533 45.9652 74.5C46.1985 74.7467 46.3785 75.0333 46.5052 75.36C46.6385 75.6867 46.7052 76.0333 46.7052 76.4C46.7052 76.76 46.6419 77.1033 46.5152 77.43C46.3885 77.7567 46.2085 78.0433 45.9752 78.29C45.7419 78.5367 45.4619 78.7333 45.1352 78.88C44.8152 79.0267 44.4585 79.1 44.0652 79.1ZM42.3352 76.41C42.3352 76.6833 42.3785 76.9367 42.4652 77.17C42.5585 77.4033 42.6819 77.6067 42.8352 77.78C42.9952 77.9533 43.1785 78.09 43.3852 78.19C43.5985 78.29 43.8252 78.34 44.0652 78.34C44.3052 78.34 44.5285 78.29 44.7352 78.19C44.9485 78.09 45.1352 77.9533 45.2952 77.78C45.4552 77.6 45.5785 77.3933 45.6652 77.16C45.7585 76.92 45.8052 76.6633 45.8052 76.39C45.8052 76.1233 45.7585 75.8733 45.6652 75.64C45.5785 75.4 45.4552 75.1933 45.2952 75.02C45.1352 74.84 44.9485 74.7 44.7352 74.6C44.5285 74.5 44.3052 74.45 44.0652 74.45C43.8252 74.45 43.5985 74.5033 43.3852 74.61C43.1785 74.71 42.9952 74.85 42.8352 75.03C42.6819 75.2033 42.5585 75.41 42.4652 75.65C42.3785 75.8833 42.3352 76.1367 42.3352 76.41ZM53.1115 71.9L48.3115 79H47.3315L52.1215 71.9H53.1115ZM52.7265 78.28C52.9399 78.26 53.1165 78.21 53.2565 78.13C53.4032 78.0433 53.5232 77.8933 53.6165 77.68C53.7165 77.46 53.7999 77.1567 53.8665 76.77C53.9332 76.3767 53.9999 75.8667 54.0665 75.24L54.2265 73.78H57.4765V79H56.6165V74.47H55.0365L54.8865 75.6C54.7932 76.28 54.6932 76.84 54.5865 77.28C54.4865 77.7133 54.3599 78.06 54.2065 78.32C54.0532 78.5733 53.8699 78.7533 53.6565 78.86C53.4432 78.9667 53.1832 79.03 52.8765 79.05L52.7265 78.28ZM61.1941 79.1C60.8008 79.1 60.4408 79.0267 60.1141 78.88C59.7941 78.7333 59.5174 78.5367 59.2841 78.29C59.0574 78.0433 58.8808 77.7567 58.7541 77.43C58.6274 77.1033 58.5641 76.76 58.5641 76.4C58.5641 76.0333 58.6274 75.6867 58.7541 75.36C58.8874 75.0333 59.0674 74.7467 59.2941 74.5C59.5274 74.2533 59.8041 74.0567 60.1241 73.91C60.4508 73.7633 60.8074 73.69 61.1941 73.69C61.5808 73.69 61.9374 73.7633 62.2641 73.91C62.5908 74.0567 62.8674 74.2533 63.0941 74.5C63.3274 74.7467 63.5074 75.0333 63.6341 75.36C63.7674 75.6867 63.8341 76.0333 63.8341 76.4C63.8341 76.76 63.7708 77.1033 63.6441 77.43C63.5174 77.7567 63.3374 78.0433 63.1041 78.29C62.8708 78.5367 62.5908 78.7333 62.2641 78.88C61.9441 79.0267 61.5874 79.1 61.1941 79.1ZM59.4641 76.41C59.4641 76.6833 59.5074 76.9367 59.5941 77.17C59.6874 77.4033 59.8108 77.6067 59.9641 77.78C60.1241 77.9533 60.3074 78.09 60.5141 78.19C60.7274 78.29 60.9541 78.34 61.1941 78.34C61.4341 78.34 61.6574 78.29 61.8641 78.19C62.0774 78.09 62.2641 77.9533 62.4241 77.78C62.5841 77.6 62.7074 77.3933 62.7941 77.16C62.8874 76.92 62.9341 76.6633 62.9341 76.39C62.9341 76.1233 62.8874 75.8733 62.7941 75.64C62.7074 75.4 62.5841 75.1933 62.4241 75.02C62.2641 74.84 62.0774 74.7 61.8641 74.6C61.6574 74.5 61.4341 74.45 61.1941 74.45C60.9541 74.45 60.7274 74.5033 60.5141 74.61C60.3074 74.71 60.1241 74.85 59.9641 75.03C59.8108 75.2033 59.6874 75.41 59.5941 75.65C59.5074 75.8833 59.4641 76.1367 59.4641 76.41ZM68.2404 74.44H65.7804V79H64.9204V73.78H68.2404V74.44ZM71.2722 79.1C70.8789 79.1 70.5189 79.0267 70.1922 78.88C69.8722 78.7333 69.5956 78.5367 69.3622 78.29C69.1356 78.0433 68.9589 77.7567 68.8322 77.43C68.7056 77.1033 68.6422 76.76 68.6422 76.4C68.6422 76.0333 68.7056 75.6867 68.8322 75.36C68.9656 75.0333 69.1456 74.7467 69.3722 74.5C69.6056 74.2533 69.8822 74.0567 70.2022 73.91C70.5289 73.7633 70.8856 73.69 71.2722 73.69C71.6589 73.69 72.0156 73.7633 72.3422 73.91C72.6689 74.0567 72.9456 74.2533 73.1722 74.5C73.4056 74.7467 73.5856 75.0333 73.7122 75.36C73.8456 75.6867 73.9122 76.0333 73.9122 76.4C73.9122 76.76 73.8489 77.1033 73.7222 77.43C73.5956 77.7567 73.4156 78.0433 73.1822 78.29C72.9489 78.5367 72.6689 78.7333 72.3422 78.88C72.0222 79.0267 71.6656 79.1 71.2722 79.1ZM69.5422 76.41C69.5422 76.6833 69.5856 76.9367 69.6722 77.17C69.7656 77.4033 69.8889 77.6067 70.0422 77.78C70.2022 77.9533 70.3856 78.09 70.5922 78.19C70.8056 78.29 71.0322 78.34 71.2722 78.34C71.5122 78.34 71.7356 78.29 71.9422 78.19C72.1556 78.09 72.3422 77.9533 72.5022 77.78C72.6622 77.6 72.7856 77.3933 72.8722 77.16C72.9656 76.92 73.0122 76.6633 73.0122 76.39C73.0122 76.1233 72.9656 75.8733 72.8722 75.64C72.7856 75.4 72.6622 75.1933 72.5022 75.02C72.3422 74.84 72.1556 74.7 71.9422 74.6C71.7356 74.5 71.5122 74.45 71.2722 74.45C71.0322 74.45 70.8056 74.5033 70.5922 74.61C70.3856 74.71 70.2022 74.85 70.0422 75.03C69.8889 75.2033 69.7656 75.41 69.6722 75.65C69.5856 75.8833 69.5422 76.1367 69.5422 76.41Z" fill="#2C2C2C"/>
<path d="M62.0625 26.6484H57.0156L55.8133 23.2789C55.7302 23.0483 55.578 22.849 55.3774 22.7082C55.1768 22.5674 54.9377 22.492 54.6926 22.4922H43.3074C42.8064 22.4922 42.3574 22.8076 42.1904 23.2789L40.9844 26.6484H35.9375C34.2973 26.6484 32.9688 27.977 32.9688 29.6172V46.5391C32.9688 48.1793 34.2973 49.5078 35.9375 49.5078H62.0625C63.7027 49.5078 65.0312 48.1793 65.0312 46.5391V29.6172C65.0312 27.977 63.7027 26.6484 62.0625 26.6484ZM49 43.5703C45.7195 43.5703 43.0625 40.9133 43.0625 37.6328C43.0625 34.3523 45.7195 31.6953 49 31.6953C52.2805 31.6953 54.9375 34.3523 54.9375 37.6328C54.9375 40.9133 52.2805 43.5703 49 43.5703ZM45.4375 37.6328C45.4375 38.5776 45.8128 39.4838 46.4809 40.1519C47.149 40.82 48.0552 41.1953 49 41.1953C49.9448 41.1953 50.851 40.82 51.5191 40.1519C52.1872 39.4838 52.5625 38.5776 52.5625 37.6328C52.5625 36.688 52.1872 35.7818 51.5191 35.1137C50.851 34.4456 49.9448 34.0703 49 34.0703C48.0552 34.0703 47.149 34.4456 46.4809 35.1137C45.8128 35.7818 45.4375 36.688 45.4375 37.6328Z" fill="#CACACA"/>
</svg>
